<?xml version="1.0" standalone="yes"?>

<svg version="1.1" viewBox="0.0 0.0 576.0 288.0" fill="none" stroke="none" stroke-linecap="square" stroke-miterlimit="10" xmlns="http://www.w3.org/2000/svg" xmlns:xlink="http://www.w3.org/1999/xlink"><clipPath id="p.0"><path d="m0 0l576.0 0l0 288.0l-576.0 0l0 -288.0z" clip-rule="nonzero"></path></clipPath><g clip-path="url(#p.0)"><path fill="#000000" fill-opacity="0.0" d="m0 0l576.0 0l0 288.0l-576.0 0z" fill-rule="nonzero"></path><path fill="#efefef" d="m156.99681 8.416011l160.56694 0l0 34.45669l-160.56694 0z" fill-rule="nonzero"></path><path stroke="#000000" stroke-width="1.0" stroke-linejoin="round" stroke-linecap="butt" d="m156.99681 8.416011l160.56694 0l0 34.45669l-160.56694 0z" fill-rule="nonzero"></path><path fill="#000000" d="m224.39479 26.194357q0 2.171875 0.109375 2.828125l0.03125 0.203125q0.0625 0.21875 1.046875 0.21875q0.578125 0 0.90625 -0.046875q0.34375 -0.046875 0.71875 -0.203125q0.625 -0.25 1.078125 -1.59375l0.84375 0.375q-0.296875 0.890625 -0.390625 2.46875l-5.453125 0q-0.75 0 -1.796875 0.046875l-0.109375 -0.875q0.890625 -0.15625 1.046875 -0.21875q0.15625 -0.078125 0.15625 -0.140625q0.109375 -0.75 0.109375 -2.75q0 -3.25 -0.078125 -4.046875l-0.03125 -0.265625q0 -0.078125 -0.125 -0.140625q-0.125 -0.0625 -0.96875 -0.21875l0.109375 -0.875q1.046875 0.046875 3.296875 0.046875q2.265625 0 3.609375 -0.09375l0 0.484375q0 1.0 0.1875 2.0625l-0.828125 0.359375q-0.375 -1.25 -0.78125 -1.484375q-0.390625 -0.25 -1.609375 -0.25q-0.5625 0 -0.75 0.046875q-0.1875 0.03125 -0.1875 0.015625q-0.125 0.8125 -0.140625 3.0q1.359375 0 1.609375 -0.0625q0.25 -0.0625 0.3125 -0.1875q0.0625 -0.140625 0.25 -1.015625l0.953125 0.09375q-0.140625 1.0 -0.140625 1.6875q0 0.671875 0.140625 1.6875l-0.953125 0.125q-0.1875 -0.890625 -0.25 -1.015625q-0.0625 -0.140625 -0.3125 -0.203125q-0.25 -0.0625 -1.609375 -0.0625zm8.400345 2.21875q1.34375 -3.328125 0.90625 -3.078125q0.328125 -0.328125 0.1875 -0.328125q0 -0.046875 -0.703125 -0.140625l-0.078125 -0.890625q0.75 0.046875 1.234375 0.046875l1.578125 -0.03125l0.0625 0.875q-0.75 0.09375 -0.84375 0.359375q-0.75 1.6875 -1.875 5.203125l-1.328125 0.15625q-1.109375 -3.453125 -1.6875 -4.8125l-0.203125 -0.515625q-0.109375 -0.296875 -0.796875 -0.390625l-0.078125 -0.890625q1.1875 0.046875 1.671875 0.046875l1.578125 -0.03125l0.109375 0.890625q-0.609375 0.046875 -0.734375 0.09375q-0.125 0.046875 -0.078125 0.046875q-0.171875 0 0.15625 0.75q0.328125 0.734375 0.921875 2.640625zm7.1497803 -2.390625q0 -0.484375 -0.25 -0.703125q-0.25 -0.21875 -0.578125 -0.21875q-0.484375 0 -0.859375 0.421875q-0.375 0.40625 -0.453125 0.703125l2.15625 -0.0625q-0.015625 0.015625 -0.015625 -0.140625zm-0.859375 4.53125q-1.5 0 -2.28125 -0.859375q-0.765625 -0.859375 -0.765625 -2.265625q0 -1.40625 0.84375 -2.453125q0.84375 -1.046875 2.53125 -1.046875q0.890625 0 1.5625 0.640625q0.671875 0.640625 0.671875 1.953125l-0.59375 0.734375q-0.21875 -0.046875 -1.34375 -0.046875q-1.125 0 -2.171875 -0.0625l0.140625 0q0 1.09375 0.421875 1.609375q0.421875 0.5 1.1875 0.5q0.765625 0 1.90625 -0.515625l0.328125 0.828125q-1.21875 0.984375 -2.4375 0.984375zm5.367584 -4.96875l-0.015625 1.609375q0 1.65625 0.109375 2.140625l0.015625 0.1875q-0.109375 0 0.125 0.015625q0.234375 0.015625 0.75 0.046875l-0.109375 0.90625q-0.859375 -0.046875 -1.671875 -0.046875q-0.796875 0 -1.71875 0.046875l0.109375 -0.90625q0.421875 -0.03125 0.65625 -0.046875q0.234375 -0.015625 0.125 -0.03125q0.109375 -0.4375 0.109375 -1.765625q0 -2.1875 -0.0625 -2.5l-0.859375 -0.25l-0.078125 -0.8125q1.09375 0 2.046875 -0.25l0.484375 0.234375l0 0.359375q1.109375 -0.59375 2.234375 -0.59375q0.75 0 1.171875 0.34375q0.421875 0.328125 0.421875 1.15625l0 1.765625q0 1.65625 0.09375 2.125l0.046875 0.203125q-0.140625 0.03125 0.09375 0.03125q0.25 0 0.765625 0.03125l-0.109375 0.90625q-0.859375 -0.046875 -1.671875 -0.046875q-0.796875 0 -1.71875 0.046875l0.109375 -0.90625q0.4375 -0.03125 0.65625 -0.046875q0.234375 -0.015625 0.125 -0.03125q0.109375 -0.4375 0.109375 -2.3125l0 -1.25q0 -0.375 -0.203125 -0.5q-0.203125 -0.140625 -0.859375 -0.140625q-0.640625 0 -1.28125 0.28125zm7.479355 4.96875q-1.609375 0 -1.609375 -1.5625q0.015625 -1.140625 0.015625 -2.09375q0 -0.953125 -0.015625 -1.734375l-0.765625 0.015625l-0.15625 -0.4375l0.46875 -0.796875q0.34375 0.09375 0.390625 0.09375l-0.03125 -1.03125l1.078125 -0.96875l0.5625 0.28125q-0.03125 1.109375 -0.03125 1.71875l1.8125 -0.015625l0.203125 0.484375l-0.671875 0.734375q-0.5625 -0.0625 -1.34375 -0.078125l0 1.484375q0 1.625 0.03125 2.3125q0.03125 0.328125 0.4375 0.328125q0.453125 0 1.28125 -0.390625l0.34375 0.890625q-1.171875 0.765625 -2.0 0.765625z" fill-rule="nonzero"></path><path fill="#efefef" d="m366.4509 8.416011l52.59842 0l0 34.45669l-52.59842 0z" fill-rule="nonzero"></path><path stroke="#000000" stroke-width="1.0" stroke-linejoin="round" stroke-linecap="butt" d="m366.4509 8.416011l52.59842 0l0 34.45669l-52.59842 0z" fill-rule="nonzero"></path><path fill="#000000" d="m379.7585 21.006857l1.96875 0q1.546875 0 2.375 0.765625q0.828125 0.765625 0.828125 1.9375q0 1.171875 -1.015625 2.140625q-1.0 0.953125 -2.671875 0.953125q-0.453125 0 -0.640625 -0.03125l0.078125 2.5q0.015625 0.0625 0.140625 0.125q0.140625 0.0625 0.984375 0.21875l-0.0625 0.875q-1.078125 -0.046875 -2.046875 -0.046875q-0.953125 0 -2.0 0.046875l-0.109375 -0.875q0.890625 -0.15625 1.03125 -0.21875q0.15625 -0.0625 0.15625 -0.140625q0.109375 -0.75 0.109375 -2.75q0 -3.25 -0.078125 -4.046875l-0.03125 -0.265625q0 -0.078125 -0.125 -0.140625q-0.125 -0.0625 -0.953125 -0.21875l0.0625 -0.875q1.078125 0.046875 2.0 0.046875zm1.265625 4.71875q1.03125 0 1.578125 -0.453125q0.5625 -0.46875 0.5625 -1.421875q0 -0.96875 -0.46875 -1.359375q-0.453125 -0.40625 -1.453125 -0.40625q-0.421875 0 -0.46875 0.03125q-0.046875 0.015625 -0.0625 0.1875q-0.125 0.671875 -0.125 3.40625q0.125 0.015625 0.4375 0.015625zm8.301971 -1.875q0.234375 0 0.53125 0.375q0.3125 0.375 0.4375 0.875l-0.421875 0.484375q-0.59375 -0.21875 -1.015625 -0.21875q-0.421875 0 -0.765625 0.34375q-0.34375 0.34375 -0.34375 1.171875q0.015625 2.25 0.125 2.59375q-0.109375 0.046875 0.1875 0.0625q0.296875 0.015625 0.9375 0.046875l-0.0625 0.90625q-0.875 -0.046875 -1.828125 -0.046875q-0.953125 0 -1.875 0.046875l0.078125 -0.90625q0.46875 -0.03125 0.703125 -0.046875q0.234375 -0.015625 0.125 -0.03125q0.109375 -0.4375 0.109375 -1.765625q0 -2.1875 -0.0625 -2.5l-0.859375 -0.25l-0.078125 -0.8125q1.109375 0 2.046875 -0.25l0.515625 0.25q-0.0625 0.359375 -0.125 0.484375q-0.015625 -0.09375 0.625 -0.453125q0.640625 -0.359375 1.015625 -0.359375zm4.3528137 1.25q-0.453125 0 -0.78125 0.21875q-0.328125 0.21875 -0.484375 0.5625q-0.3125 0.6875 -0.3125 1.3125q0 0.984375 0.375 1.609375q0.375 0.609375 1.140625 0.609375q0.421875 0 0.734375 -0.1875q0.3125 -0.203125 0.46875 -0.5q0.34375 -0.625 0.375 -1.21875q0 -2.40625 -1.515625 -2.40625zm0.0625 -1.171875q1.609375 0 2.359375 0.84375q0.75 0.828125 0.75 2.28125q0 1.4375 -0.84375 2.46875q-0.84375 1.03125 -2.453125 1.03125q-1.59375 0 -2.359375 -0.8125q-0.75 -0.828125 -0.75 -2.265625q0 -1.453125 0.84375 -2.5q0.84375 -1.046875 2.453125 -1.046875zm6.988037 1.171875q-0.453125 0 -0.78125 0.21875q-0.328125 0.21875 -0.484375 0.5625q-0.3125 0.6875 -0.3125 1.3125q0 0.984375 0.375 1.609375q0.375 0.609375 1.140625 0.609375q0.421875 0 0.734375 -0.1875q0.3125 -0.203125 0.46875 -0.5q0.34375 -0.625 0.375 -1.21875q0 -2.40625 -1.515625 -2.40625zm0.0625 -1.171875q1.609375 0 2.359375 0.84375q0.75 0.828125 0.75 2.28125q0 1.4375 -0.84375 2.46875q-0.84375 1.03125 -2.453125 1.03125q-1.59375 0 -2.359375 -0.8125q-0.75 -0.828125 -0.75 -2.265625q0 -1.453125 0.84375 -2.5q0.84375 -1.046875 2.453125 -1.046875zm7.1286926 6.5625q-0.859375 -0.046875 -1.78125 -0.046875q-0.90625 0 -1.828125 0.046875l0.109375 -0.90625q0.4375 -0.03125 0.703125 -0.03125q0.265625 -0.015625 0.1875 -0.265625q0.21875 0.15625 0.0625 -4.125l-0.859375 0.015625l-0.09375 -0.453125l0.4375 -0.765625q0.359375 0.0625 0.5 0.078125q0 -0.609375 0.3125 -1.34375q0.3125 -0.734375 0.75 -1.140625q0.453125 -0.40625 0.96875 -0.6875q0.84375 -0.4375 1.375 -0.4375q0.21875 0 0.515625 0.375q0.3125 0.375 0.4375 0.859375l-0.421875 0.515625q-0.6875 -0.3125 -1.1875 -0.3125q-1.234375 0 -1.234375 2.171875l1.578125 -0.015625l0.234375 0.453125l-0.59375 0.765625q-0.578125 -0.0625 -1.21875 -0.078125q0 3.34375 0.140625 4.375q-0.140625 0.015625 0.171875 0.03125q0.3125 0 0.84375 0l-0.109375 0.921875z" fill-rule="nonzero"></path><path fill="#efefef" d="m317.569 8.416011l48.881897 0l0 34.45669l-48.881897 0z" fill-rule="nonzero"></path><path stroke="#000000" stroke-width="1.0" stroke-linejoin="round" stroke-linecap="butt" d="m317.569 8.416011l48.881897 0l0 34.45669l-48.881897 0z" fill-rule="nonzero"></path><path fill="#000000" d="m333.52878 23.819357q-0.328125 -1.15625 -0.71875 -1.453125q-0.390625 -0.296875 -1.03125 -0.296875q-0.625 0 -0.9375 0.28125q-0.3125 0.28125 -0.3125 0.6875q0 0.703125 0.734375 1.203125l2.0625 1.34375q1.46875 0.953125 1.46875 2.3125q0 1.078125 -0.859375 1.875q-0.84375 0.796875 -2.40625 0.796875q-1.546875 0 -2.90625 -0.578125q0.234375 -1.25 0.234375 -2.234375l0.828125 -0.359375q0.234375 1.3125 0.578125 1.65625q0.34375 0.328125 1.109375 0.328125q0.78125 0 1.15625 -0.34375q0.390625 -0.359375 0.390625 -0.828125q0 -0.65625 -0.71875 -1.125l-2.078125 -1.375q-1.328125 -0.84375 -1.328125 -2.21875q0 -1.046875 0.8125 -1.8125q0.828125 -0.78125 2.125 -0.78125q0.421875 0 0.890625 0.09375q0.484375 0.09375 0.703125 0.09375q0.21875 0 0.84375 -0.15625l0 0.546875q0 0.921875 0.1875 1.984375l-0.828125 0.359375zm4.3341064 6.734375q-1.609375 0 -1.609375 -1.5625q0.015625 -1.140625 0.015625 -2.09375q0 -0.953125 -0.015625 -1.734375l-0.765625 0.015625l-0.15625 -0.4375l0.46875 -0.796875q0.34375 0.09375 0.390625 0.09375l-0.03125 -1.03125l1.078125 -0.96875l0.5625 0.28125q-0.03125 1.109375 -0.03125 1.71875l1.8125 -0.015625l0.203125 0.484375l-0.671875 0.734375q-0.5625 -0.0625 -1.34375 -0.078125l0 1.484375q0 1.625 0.03125 2.3125q0.03125 0.328125 0.4375 0.328125q0.453125 0 1.28125 -0.390625l0.34375 0.890625q-1.171875 0.765625 -2.0 0.765625zm5.3426514 -2.828125q-0.71875 0.015625 -1.1875 0.328125q-0.46875 0.3125 -0.46875 0.625q0 0.3125 0.140625 0.453125q0.15625 0.125 0.5625 0.125q0.421875 0 0.953125 -0.328125l0 -1.203125zm1.21875 2.828125q-1.015625 0 -1.109375 -0.640625q-0.859375 0.640625 -1.78125 0.640625q-0.65625 0 -1.140625 -0.40625q-0.46875 -0.421875 -0.46875 -1.265625q0 -0.859375 0.859375 -1.515625q0.859375 -0.65625 2.421875 -0.75l0 -0.96875q0 -0.21875 -0.1875 -0.34375q-0.171875 -0.140625 -0.5625 -0.140625q-0.375 0 -0.578125 0.1875q-0.203125 0.1875 -0.203125 0.5q0 0.140625 0.0625 0.5l-0.578125 0.28125q-0.4375 -0.21875 -0.71875 -0.515625q-0.265625 -0.3125 -0.265625 -0.515625q0 -0.21875 0.21875 -0.484375q0.21875 -0.265625 0.546875 -0.53125q0.328125 -0.265625 0.859375 -0.453125q0.546875 -0.203125 1.234375 -0.203125q0.703125 0 1.171875 0.375q0.484375 0.375 0.484375 1.25q0 0.859375 0.078125 3.421875q0.015625 0.359375 0.203125 0.359375q0.140625 0 0.5625 -0.1875l0.28125 0.765625q-0.703125 0.640625 -1.390625 0.640625zm3.8878174 0q-1.609375 0 -1.609375 -1.5625q0.015625 -1.140625 0.015625 -2.09375q0 -0.953125 -0.015625 -1.734375l-0.765625 0.015625l-0.15625 -0.4375l0.46875 -0.796875q0.34375 0.09375 0.390625 0.09375l-0.03125 -1.03125l1.078125 -0.96875l0.5625 0.28125q-0.03125 1.109375 -0.03125 1.71875l1.8125 -0.015625l0.203125 0.484375l-0.671875 0.734375q-0.5625 -0.0625 -1.34375 -0.078125l0 1.484375q0 1.625 0.03125 2.3125q0.03125 0.328125 0.4375 0.328125q0.453125 0 1.28125 -0.390625l0.34375 0.890625q-1.171875 0.765625 -2.0 0.765625zm5.9520264 -4.53125q0 -0.484375 -0.25 -0.703125q-0.25 -0.21875 -0.578125 -0.21875q-0.484375 0 -0.859375 0.421875q-0.375 0.40625 -0.453125 0.703125l2.15625 -0.0625q-0.015625 0.015625 -0.015625 -0.140625zm-0.859375 4.53125q-1.5 0 -2.28125 -0.859375q-0.765625 -0.859375 -0.765625 -2.265625q0 -1.40625 0.84375 -2.453125q0.84375 -1.046875 2.53125 -1.046875q0.890625 0 1.5625 0.640625q0.671875 0.640625 0.671875 1.953125l-0.59375 0.734375q-0.21875 -0.046875 -1.34375 -0.046875q-1.125 0 -2.171875 -0.0625l0.140625 0q0 1.09375 0.421875 1.609375q0.421875 0.5 1.1875 0.5q0.765625 0 1.90625 -0.515625l0.328125 0.828125q-1.21875 0.984375 -2.4375 0.984375z" fill-rule="nonzero"></path><path fill="#b6d7a8" d="m156.99681 42.872704l160.56694 0l0 34.456696l-160.56694 0z" fill-rule="nonzero"></path><path stroke="#000000" stroke-width="1.0" stroke-linejoin="round" stroke-linecap="butt" d="m156.99681 42.872704l160.56694 0l0 34.456696l-160.56694 0z" fill-rule="nonzero"></path><path fill="#000000" d="m210.08864 63.4348q1.03125 0 1.6875 -0.421875q0.65625 -0.421875 0.875 -1.15625l0.296875 0.140625q-0.109375 0.390625 -0.25 1.46875q-1.359375 0.5 -2.65625 0.5q-1.796875 0 -2.859375 -0.984375q-1.046875 -0.984375 -1.046875 -2.71875q0 -1.75 1.046875 -2.90625q1.046875 -1.15625 2.859375 -1.15625q0.5 0 1.125 0.09375q0.625 0.078125 0.859375 0.078125q0.234375 0 0.5 -0.0625l0 0.15625q0 0.8125 0.125 1.5625l-0.296875 0.125q-0.4375 -1.4375 -2.328125 -1.4375q-1.09375 0 -1.890625 0.78125q-0.390625 0.375 -0.625 1.015625q-0.21875 0.640625 -0.21875 1.375q0 0.734375 0.140625 1.328125q0.15625 0.59375 0.46875 1.109375q0.328125 0.5 0.890625 0.8125q0.5625 0.296875 1.296875 0.296875zm5.9125824 -4.109375q-0.453125 0 -0.78125 0.234375q-0.328125 0.21875 -0.484375 0.546875q-0.296875 0.625 -0.296875 1.203125q0 0.90625 0.359375 1.515625q0.359375 0.59375 1.140625 0.59375q0.421875 0 0.734375 -0.1875q0.328125 -0.203125 0.5 -0.515625q0.3125 -0.5625 0.328125 -1.140625q0 -2.25 -1.5 -2.25zm0.046875 -0.546875q1.265625 0 1.828125 0.640625q0.578125 0.640625 0.578125 1.78125q0 1.140625 -0.65625 1.9375q-0.65625 0.796875 -1.90625 0.796875q-1.25 0 -1.828125 -0.625q-0.578125 -0.640625 -0.578125 -1.765625q0 -1.140625 0.65625 -1.953125q0.65625 -0.8125 1.90625 -0.8125zm4.559082 1.03125l-0.015625 1.515625q0 1.421875 0.09375 1.84375l0.015625 0.140625q0.015625 0.078125 0.25 0.15625q0.234375 0.0625 0.453125 0.09375l-0.03125 0.3125q-0.53125 -0.03125 -1.21875 -0.03125q-0.671875 0 -1.203125 0.03125l0.03125 -0.3125q0.21875 -0.03125 0.453125 -0.09375q0.234375 -0.078125 0.25 -0.15625q0.078125 -0.375 0.078125 -1.53125q0 -1.875 -0.078125 -2.296875l-0.703125 -0.203125l-0.03125 -0.28125q0.703125 0 1.453125 -0.203125l0.203125 0.09375l0 0.53125q1.234375 -0.640625 2.125 -0.640625q0.5625 0 0.84375 0.21875q0.28125 0.21875 0.28125 0.828125l0 1.5q0 1.421875 0.078125 1.84375l0.03125 0.140625q0.015625 0.078125 0.25 0.15625q0.234375 0.0625 0.453125 0.09375l-0.03125 0.3125q-0.53125 -0.03125 -1.21875 -0.03125q-0.671875 0 -1.203125 0.03125l0.03125 -0.3125q0.21875 -0.03125 0.453125 -0.09375q0.234375 -0.078125 0.25 -0.15625q0.078125 -0.375 0.078125 -1.984375l0 -1.078125q0 -0.421875 -0.25 -0.578125q-0.25 -0.171875 -0.859375 -0.171875q-0.59375 0 -1.3125 0.3125zm6.920685 4.0625q-0.53125 -0.03125 -1.3125 -0.03125q-0.765625 0 -1.296875 0.03125l0.03125 -0.3125q0.21875 -0.03125 0.46875 -0.09375q0.265625 -0.078125 0.28125 -0.15625q0.09375 0 0.09375 -3.9375l-0.765625 0.015625l-0.03125 -0.125l0.25 -0.421875q0.15625 0.015625 0.53125 0.03125q0 -0.703125 0.25 -1.265625q0.25 -0.578125 0.59375 -0.890625q0.34375 -0.328125 0.75 -0.546875q0.65625 -0.359375 1.0625 -0.359375q0.078125 0 0.28125 0.265625q0.203125 0.25 0.28125 0.5l-0.171875 0.21875q-0.46875 -0.21875 -0.9375 -0.21875q-1.265625 0 -1.265625 2.296875l1.421875 -0.015625l0.0625 0.140625l-0.34375 0.421875q-0.375 -0.03125 -1.140625 -0.046875q0 3.0625 0.109375 3.9375q0 0.078125 0.296875 0.15625q0.3125 0.078125 0.53125 0.09375l-0.03125 0.3125zm2.4299164 -6.390625q-0.15625 0.171875 -0.40625 0.171875q-0.234375 0 -0.40625 -0.171875q-0.15625 -0.171875 -0.15625 -0.421875q0 -0.25 0.15625 -0.40625q0.171875 -0.171875 0.40625 -0.171875q0.25 0 0.40625 0.171875q0.171875 0.15625 0.171875 0.40625q0 0.25 -0.171875 0.421875zm0.0625 1.40625l-0.03125 2.4375q0 1.421875 0.09375 1.84375l0.015625 0.140625q0.015625 0.078125 0.28125 0.15625q0.28125 0.0625 0.5 0.09375l-0.03125 0.3125q-0.53125 -0.03125 -1.296875 -0.03125q-0.75 0 -1.28125 0.03125l0.046875 -0.3125q0.21875 -0.03125 0.484375 -0.09375q0.265625 -0.078125 0.28125 -0.15625q0.09375 -0.375 0.09375 -1.53125q0 -1.875 -0.09375 -2.296875l-0.703125 -0.203125l-0.03125 -0.28125q0.703125 0 1.453125 -0.203125l0.21875 0.09375zm5.727371 -0.5q0.078125 0 0.28125 0.265625q0.203125 0.25 0.265625 0.5l-0.15625 0.203125q-0.203125 -0.09375 -0.484375 -0.09375q-0.265625 0 -0.5 0.125q0.375 0.46875 0.375 1.25q0 0.765625 -0.515625 1.3125q-0.5 0.53125 -1.484375 0.53125q-0.25 0 -0.484375 -0.03125q-0.40625 0.53125 -0.40625 0.734375q0 0.25 0.71875 0.25l0.828125 0q2.078125 0 2.078125 1.34375q0 0.75 -0.84375 1.34375q-0.828125 0.609375 -2.21875 0.609375q-0.8125 0 -1.40625 -0.265625q-0.59375 -0.265625 -0.59375 -0.765625q0 -0.703125 1.125 -1.625q-0.6875 -0.140625 -0.6875 -0.515625q0 -0.375 0.984375 -1.1875q-1.109375 -0.34375 -1.109375 -1.765625q0 -0.71875 0.515625 -1.265625q0.515625 -0.546875 1.4375 -0.546875q0.9375 0 1.390625 0.328125q0.140625 -0.203125 0.40625 -0.46875q0.28125 -0.265625 0.484375 -0.265625zm-3.625 6.953125q0 0.421875 0.3125 0.6875q0.328125 0.265625 1.046875 0.265625q0.734375 0 1.28125 -0.453125q0.5625 -0.453125 0.5625 -0.984375q0 -0.328125 -0.28125 -0.53125q-0.28125 -0.203125 -0.890625 -0.203125l-1.484375 0q-0.546875 0.609375 -0.546875 1.21875zm1.421875 -6.09375q-0.328125 0 -0.5625 0.15625q-0.234375 0.140625 -0.34375 0.375q-0.1875 0.4375 -0.1875 0.9375q0 0.484375 0.25 0.90625q0.25 0.421875 0.796875 0.421875q0.390625 0 0.640625 -0.234375q0.265625 -0.25 0.34375 -0.5q0.09375 -0.25 0.109375 -0.53125q0 -1.53125 -1.046875 -1.53125zm4.7059937 4.6875q-1.125 0 -1.125 -1.140625l0 -1.46875q0 -1.484375 -0.078125 -1.84375l-0.65625 -0.203125l-0.015625 -0.28125q0.65625 0 1.390625 -0.203125l0.21875 0.09375q-0.03125 1.96875 -0.03125 3.578125q0 0.734375 0.890625 0.734375q0.375 0 0.796875 -0.125q0.4375 -0.125 0.6875 -0.28125q0.046875 -0.59375 0.046875 -1.390625q0 -1.5 -0.09375 -1.921875l-0.6875 -0.203125l-0.03125 -0.28125q0.703125 0 1.453125 -0.203125l0.203125 0.09375q-0.03125 0.828125 -0.03125 2.734375l0.03125 1.28125q0 0.1875 0.140625 0.296875q0.15625 0.109375 0.296875 0.140625q0.15625 0.015625 0.40625 0.03125l-0.03125 0.3125q-0.40625 0.03125 -1.203125 0.203125q-0.328125 -0.140625 -0.453125 -0.65625q-1.046875 0.703125 -2.125 0.703125zm7.3141174 -5.21875q0.078125 0 0.28125 0.265625q0.203125 0.25 0.265625 0.5l-0.15625 0.21875q-0.390625 -0.15625 -0.828125 -0.15625q-0.421875 0 -0.78125 0.359375q-0.34375 0.34375 -0.34375 1.140625q0 1.9375 0.09375 2.265625q0.015625 0.078125 0.3125 0.15625q0.296875 0.0625 0.625 0.09375l-0.03125 0.3125q-0.515625 -0.03125 -1.328125 -0.03125q-0.8125 0 -1.34375 0.03125l0.03125 -0.3125q0.21875 -0.03125 0.453125 -0.09375q0.25 -0.078125 0.265625 -0.15625q0.09375 -0.375 0.09375 -1.53125q0 -1.875 -0.09375 -2.296875l-0.703125 -0.203125l-0.015625 -0.28125q0.703125 0 1.453125 -0.203125l0.203125 0.09375q-0.015625 0.171875 -0.015625 0.90625q0.3125 -0.53125 0.796875 -0.796875q0.5 -0.28125 0.765625 -0.28125zm3.7049408 2.8125q-0.90625 0.03125 -1.375 0.34375q-0.46875 0.3125 -0.46875 0.6875q0 0.375 0.1875 0.546875q0.1875 0.171875 0.609375 0.171875q0.4375 0 1.046875 -0.359375l0 -1.390625zm0.796875 2.40625q-0.65625 0 -0.765625 -0.703125q-0.96875 0.703125 -1.671875 0.703125q-0.46875 0 -0.8125 -0.28125q-0.328125 -0.296875 -0.328125 -0.90625q0 -0.625 0.65625 -1.109375q0.65625 -0.5 2.125 -0.609375l0 -1.015625q0 -0.3125 -0.234375 -0.46875q-0.21875 -0.171875 -0.625 -0.171875q-0.40625 0 -0.65625 0.234375q-0.234375 0.21875 -0.234375 0.578125q0 0.125 0.03125 0.296875l-0.234375 0.109375q-0.234375 -0.125 -0.421875 -0.328125q-0.1875 -0.21875 -0.1875 -0.3125q0 -0.09375 0.140625 -0.265625q0.15625 -0.1875 0.40625 -0.390625q0.25 -0.21875 0.671875 -0.359375q0.421875 -0.15625 0.953125 -0.15625q0.53125 0 0.859375 0.265625q0.328125 0.25 0.328125 0.9375q0 0.671875 0.0625 2.84375q0.015625 0.53125 0.40625 0.53125q0.15625 0 0.34375 -0.09375l0.109375 0.296875q-0.421875 0.375 -0.921875 0.375zm3.0105743 0q-1.140625 0 -1.140625 -1.09375q0.015625 -0.96875 0.015625 -1.78125q0 -0.8125 -0.03125 -1.6875l-0.703125 0.015625l-0.03125 -0.125l0.25 -0.421875q0.15625 0.03125 0.46875 0.03125l-0.046875 -1.0l0.734375 -0.65625l0.203125 0.109375q-0.015625 0.8125 -0.015625 1.546875l1.609375 -0.015625l0.0625 0.140625l-0.40625 0.4375q-0.375 -0.046875 -1.265625 -0.0625l0 1.484375q0 1.375 0.03125 1.96875q0.03125 0.484375 0.578125 0.484375q0.4375 0 0.96875 -0.25l0.125 0.359375q-0.78125 0.515625 -1.40625 0.515625zm3.2658691 -6.453125q-0.15625 0.171875 -0.40623474 0.171875q-0.234375 0 -0.40625 -0.171875q-0.15625 -0.171875 -0.15625 -0.421875q0 -0.25 0.15625 -0.40625q0.171875 -0.171875 0.40625 -0.171875q0.24998474 0 0.40623474 0.171875q0.171875 0.15625 0.171875 0.40625q0 0.25 -0.171875 0.421875zm0.0625 1.40625l-0.03125 2.4375q0 1.421875 0.09375 1.84375l0.015625 0.140625q0.015625 0.078125 0.28125 0.15625q0.28125 0.0625 0.5 0.09375l-0.03125 0.3125q-0.53125 -0.03125 -1.2968597 -0.03125q-0.75 0 -1.28125 0.03125l0.046875 -0.3125q0.21875 -0.03125 0.484375 -0.09375q0.265625 -0.078125 0.28125 -0.15625q0.09375 -0.375 0.09375 -1.53125q0 -1.875 -0.09375 -2.296875l-0.703125 -0.203125l-0.03125 -0.28125q0.703125 0 1.4531097 -0.203125l0.21875 0.09375zm3.8836365 0.4375q-0.453125 0 -0.78125 0.234375q-0.328125 0.21875 -0.484375 0.546875q-0.296875 0.625 -0.296875 1.203125q0 0.90625 0.359375 1.515625q0.359375 0.59375 1.140625 0.59375q0.421875 0 0.734375 -0.1875q0.328125 -0.203125 0.5 -0.515625q0.3125 -0.5625 0.328125 -1.140625q0 -2.25 -1.5 -2.25zm0.046875 -0.546875q1.265625 0 1.828125 0.640625q0.578125 0.640625 0.578125 1.78125q0 1.140625 -0.65625 1.9375q-0.65625 0.796875 -1.90625 0.796875q-1.25 0 -1.828125 -0.625q-0.578125 -0.640625 -0.578125 -1.765625q0 -1.140625 0.65625 -1.953125q0.65625 -0.8125 1.90625 -0.8125zm4.559082 1.03125l-0.015625 1.515625q0 1.421875 0.09375 1.84375l0.015625 0.140625q0.015625 0.078125 0.25 0.15625q0.234375 0.0625 0.453125 0.09375l-0.03125 0.3125q-0.53125 -0.03125 -1.21875 -0.03125q-0.671875 0 -1.203125 0.03125l0.03125 -0.3125q0.21875 -0.03125 0.453125 -0.09375q0.234375 -0.078125 0.25 -0.15625q0.078125 -0.375 0.078125 -1.53125q0 -1.875 -0.078125 -2.296875l-0.703125 -0.203125l-0.03125 -0.28125q0.703125 0 1.453125 -0.203125l0.203125 0.09375l0 0.53125q1.234375 -0.640625 2.125 -0.640625q0.5625 0 0.84375 0.21875q0.28125 0.21875 0.28125 0.828125l0 1.5q0 1.421875 0.078125 1.84375l0.03125 0.140625q0.015625 0.078125 0.25 0.15625q0.234375 0.0625 0.453125 0.09375l-0.03125 0.3125q-0.53125 -0.03125 -1.21875 -0.03125q-0.671875 0 -1.203125 0.03125l0.03125 -0.3125q0.21875 -0.03125 0.453125 -0.09375q0.234375 -0.078125 0.25 -0.15625q0.078125 -0.375 0.078125 -1.984375l0 -1.078125q0 -0.421875 -0.25 -0.578125q-0.25 -0.171875 -0.859375 -0.171875q-0.59375 0 -1.3125 0.3125z" fill-rule="nonzero"></path><path fill="#93c47d" d="m366.4509 42.872704l52.59842 0l0 34.456696l-52.59842 0z" fill-rule="nonzero"></path><path stroke="#000000" stroke-width="1.0" stroke-linejoin="round" stroke-linecap="butt" d="m366.4509 42.872704l52.59842 0l0 34.456696l-52.59842 0z" fill-rule="nonzero"></path><path fill="#333333" d="m388.04697 62.306675q0 -0.21875 -0.046875 -0.390625q0 -0.484375 0.65625 -0.875q0.4375 -0.21875 0.65625 -0.21875q0.265625 0.0625 0.375 0.328125q0.328125 0.765625 0.4375 1.046875q0.109375 0.21875 0.21875 0.21875q0.109375 0 0.21875 -0.171875q1.859375 -3.28125 3.34375 -5.078125q1.140625 -1.375 1.421875 -1.59375q0.875 -0.65625 2.078125 -0.703125l0.046875 0.265625q-0.921875 0.9375 -3.21875 4.15625q-2.25 3.234375 -3.234375 5.093746q-0.21875 0.484375 -0.546875 0.59375q-0.15625 0.171875 -0.703125 0.125q-0.390625 0.046875 -0.546875 -0.125q-0.171875 -0.109375 -0.328125 -0.4375q-0.546875 -1.3124962 -0.828125 -2.2343712z" fill-rule="nonzero"></path><path fill="#b4a7d6" d="m317.569 42.872704l48.881897 0l0 34.456696l-48.881897 0z" fill-rule="nonzero"></path><path stroke="#000000" stroke-width="1.0" stroke-linejoin="round" stroke-linecap="butt" d="m317.569 42.872704l48.881897 0l0 34.456696l-48.881897 0z" fill-rule="nonzero"></path><path fill="#000000" d="m342.7533 56.544174q-0.046875 1.171875 -0.046875 2.875q0 2.765625 0.078125 3.4375l0.015625 0.21875q0.015625 0.1875 0.21875 0.28125q0.203125 0.09375 0.78125 0.203125l-0.03125 0.3125q-0.65625 -0.03125 -1.59375 -0.03125q-0.921875 0 -1.78125 0.03125l-0.03125 -0.3125q0.1875 -0.046875 0.40625 -0.078125q0.234375 -0.046875 0.375 -0.078125q0.140625 -0.03125 0.21875 -0.0625q0.078125 -0.03125 0.15625 -0.078125q0.140625 -0.0625 0.15625 -0.1875q0.078125 -0.640625 0.078125 -2.34375q0 -2.65625 -0.0625 -3.265625l-0.015625 -0.1875l-1.328125 -0.21875l-0.03125 -0.40625q1.375 0 2.203125 -0.21875l0.234375 0.109375z" fill-rule="nonzero"></path><path fill="#cfe2f3" d="m156.99681 77.199974l160.56694 0l0 34.456696l-160.56694 0z" fill-rule="nonzero"></path><path stroke="#000000" stroke-width="1.0" stroke-linejoin="round" stroke-linecap="butt" d="m156.99681 77.199974l160.56694 0l0 34.456696l-160.56694 0z" fill-rule="nonzero"></path><path fill="#000000" d="m224.98407 92.48082q-0.21875 -0.796875 -0.609375 -1.09375q-0.390625 -0.296875 -1.015625 -0.296875q-0.625 0 -0.96875 0.296875q-0.328125 0.296875 -0.328125 0.75q0 0.703125 0.734375 1.1875l1.75 1.140625q1.140625 0.75 1.140625 1.765625q0 0.828125 -0.65625 1.4375q-0.65625 0.609375 -1.90625 0.609375q-1.25 0 -2.1875 -0.390625q0.171875 -0.90625 0.171875 -1.625l0.296875 -0.125q0.171875 0.890625 0.515625 1.234375q0.359375 0.34375 1.09375 0.34375q0.75 0 1.140625 -0.359375q0.390625 -0.359375 0.390625 -0.859375q0 -0.671875 -0.71875 -1.140625l-1.765625 -1.140625q-1.0 -0.671875 -1.0 -1.703125q0 -0.796875 0.625 -1.390625q0.625 -0.59375 1.640625 -0.59375q0.328125 0 0.71875 0.09375q0.40625 0.078125 0.609375 0.078125q0.21875 0 0.484375 -0.0625l0 0.15625q0 0.8125 0.140625 1.5625l-0.296875 0.125zm3.1890564 5.78125q-1.140625 0 -1.140625 -1.09375q0.015625 -0.96875 0.015625 -1.78125q0 -0.8125 -0.03125 -1.6875l-0.703125 0.015625l-0.03125 -0.125l0.25 -0.421875q0.15625 0.03125 0.46875 0.03125l-0.046875 -1.0l0.734375 -0.65625l0.203125 0.109375q-0.015625 0.8125 -0.015625 1.546875l1.609375 -0.015625l0.0625 0.140625l-0.40625 0.4375q-0.375 -0.046875 -1.265625 -0.0625l0 1.484375q0 1.375 0.03125 1.96875q0.03125 0.484375 0.578125 0.484375q0.4375 0 0.96875 -0.25l0.125 0.359375q-0.78125 0.515625 -1.40625 0.515625zm4.2815094 -4.609375q-0.453125 0 -0.78125 0.234375q-0.328125 0.21875 -0.484375 0.546875q-0.296875 0.625 -0.296875 1.203125q0 0.90625 0.359375 1.515625q0.359375 0.59375 1.140625 0.59375q0.421875 0 0.734375 -0.1875q0.328125 -0.203125 0.5 -0.515625q0.3125 -0.5625 0.328125 -1.140625q0 -2.25 -1.5 -2.25zm0.046875 -0.546875q1.265625 0 1.828125 0.640625q0.578125 0.640625 0.578125 1.78125q0 1.140625 -0.65625 1.9375q-0.65625 0.796875 -1.90625 0.796875q-1.25 0 -1.828125 -0.625q-0.578125 -0.640625 -0.578125 -1.765625q0 -1.140625 0.65625 -1.953125q0.65625 -0.8125 1.90625 -0.8125zm6.168457 -0.0625q0.078125 0 0.28125 0.265625q0.203125 0.25 0.265625 0.5l-0.15625 0.21875q-0.390625 -0.15625 -0.828125 -0.15625q-0.421875 0 -0.78125 0.359375q-0.34375 0.34375 -0.34375 1.140625q0 1.9375 0.09375 2.265625q0.015625 0.078125 0.3125 0.15625q0.296875 0.0625 0.625 0.09375l-0.03125 0.3125q-0.515625 -0.03125 -1.328125 -0.03125q-0.8125 0 -1.34375 0.03125l0.03125 -0.3125q0.21875 -0.03125 0.453125 -0.09375q0.25 -0.078125 0.265625 -0.15625q0.09375 -0.375 0.09375 -1.53125q0 -1.875 -0.09375 -2.296875l-0.703125 -0.203125l-0.015625 -0.28125q0.703125 0 1.453125 -0.203125l0.203125 0.09375q-0.015625 0.171875 -0.015625 0.90625q0.3125 -0.53125 0.796875 -0.796875q0.5 -0.28125 0.765625 -0.28125zm3.7049408 2.8125q-0.90625 0.03125 -1.375 0.34375q-0.46875 0.3125 -0.46875 0.6875q0 0.375 0.1875 0.546875q0.1875 0.171875 0.609375 0.171875q0.4375 0 1.046875 -0.359375l0 -1.390625zm0.796875 2.40625q-0.65625 0 -0.765625 -0.703125q-0.96875 0.703125 -1.671875 0.703125q-0.46875 0 -0.8125 -0.28125q-0.328125 -0.296875 -0.328125 -0.90625q0 -0.625 0.65625 -1.109375q0.65625 -0.5 2.125 -0.609375l0 -1.015625q0 -0.3125 -0.234375 -0.46875q-0.21875 -0.171875 -0.625 -0.171875q-0.40625 0 -0.65625 0.234375q-0.234375 0.21875 -0.234375 0.578125q0 0.125 0.03125 0.296875l-0.234375 0.109375q-0.234375 -0.125 -0.421875 -0.328125q-0.1875 -0.21875 -0.1875 -0.3125q0 -0.09375 0.140625 -0.265625q0.15625 -0.1875 0.40625 -0.390625q0.25 -0.21875 0.671875 -0.359375q0.421875 -0.15625 0.953125 -0.15625q0.53125 0 0.859375 0.265625q0.328125 0.25 0.328125 0.9375q0 0.671875 0.0625 2.84375q0.015625 0.53125 0.40625 0.53125q0.15625 0 0.34375 -0.09375l0.109375 0.296875q-0.421875 0.375 -0.921875 0.375zm5.6511993 -5.546875q0.078125 0 0.28125 0.265625q0.203125 0.25 0.265625 0.5l-0.15625 0.203125q-0.203125 -0.09375 -0.484375 -0.09375q-0.265625 0 -0.5 0.125q0.375 0.46875 0.375 1.25q0 0.765625 -0.515625 1.3125q-0.5 0.53125 -1.484375 0.53125q-0.25 0 -0.484375 -0.03125q-0.40625 0.53125 -0.40625 0.734375q0 0.25 0.71875 0.25l0.828125 0q2.078125 0 2.078125 1.34375q0 0.75 -0.84375 1.34375q-0.828125 0.609375 -2.21875 0.609375q-0.8125 0 -1.40625 -0.265625q-0.59375 -0.265625 -0.59375 -0.765625q0 -0.703125 1.125 -1.625q-0.6875 -0.140625 -0.6875 -0.515625q0 -0.375 0.984375 -1.1875q-1.109375 -0.34375 -1.109375 -1.765625q0 -0.71875 0.515625 -1.265625q0.515625 -0.546875 1.4375 -0.546875q0.9375 0 1.390625 0.328125q0.140625 -0.203125 0.40625 -0.46875q0.28125 -0.265625 0.484375 -0.265625zm-3.625 6.953125q0 0.421875 0.3125 0.6875q0.328125 0.265625 1.046875 0.265625q0.734375 0 1.28125 -0.453125q0.5625 -0.453125 0.5625 -0.984375q0 -0.328125 -0.28125 -0.53125q-0.28125 -0.203125 -0.890625 -0.203125l-1.484375 0q-0.546875 0.609375 -0.546875 1.21875zm1.421875 -6.09375q-0.328125 0 -0.5625 0.15625q-0.234375 0.140625 -0.34375 0.375q-0.1875 0.4375 -0.1875 0.9375q0 0.484375 0.25 0.90625q0.25 0.421875 0.796875 0.421875q0.390625 0 0.640625 -0.234375q0.265625 -0.25 0.34375 -0.5q0.09375 -0.25 0.109375 -0.53125q0 -1.53125 -1.046875 -1.53125zm6.3622437 1.078125q0 -0.515625 -0.296875 -0.75q-0.28125 -0.25 -0.625 -0.25q-0.515625 0 -0.890625 0.40625q-0.375 0.40625 -0.5 1.0l2.28125 -0.09375q0.03125 -0.15625 0.03125 -0.3125zm-0.953125 3.609375q-1.171875 0 -1.765625 -0.65625q-0.59375 -0.671875 -0.59375 -1.765625q0 -1.109375 0.65625 -1.921875q0.65625 -0.8125 1.96875 -0.8125q0.671875 0 1.171875 0.484375q0.5 0.46875 0.5 1.40625l-0.375 0.4375q-0.0625 0 -1.03125 0q-0.96875 0 -1.953125 0.078125l0 0.09375q0 1.0 0.40625 1.5q0.421875 0.5 1.140625 0.5q0.734375 0 1.546875 -0.34375l0.125 0.328125q-0.84375 0.671875 -1.796875 0.671875z" fill-rule="nonzero"></path><path fill="#93c47d" d="m366.4509 77.199974l52.59842 0l0 34.456696l-52.59842 0z" fill-rule="nonzero"></path><path stroke="#000000" stroke-width="1.0" stroke-linejoin="round" stroke-linecap="butt" d="m366.4509 77.199974l52.59842 0l0 34.456696l-52.59842 0z" fill-rule="nonzero"></path><path fill="#333333" d="m388.04697 96.63395q0 -0.21875 -0.046875 -0.390625q0 -0.484375 0.65625 -0.875q0.4375 -0.21875 0.65625 -0.21875q0.265625 0.0625 0.375 0.328125q0.328125 0.765625 0.4375 1.046875q0.109375 0.21875 0.21875 0.21875q0.109375 0 0.21875 -0.171875q1.859375 -3.28125 3.34375 -5.078125q1.140625 -1.375 1.421875 -1.59375q0.875 -0.65625 2.078125 -0.703125l0.046875 0.265625q-0.921875 0.9375 -3.21875 4.15625q-2.25 3.234375 -3.234375 5.09375q-0.21875 0.484375 -0.546875 0.59375q-0.15625 0.171875 -0.703125 0.125q-0.390625 0.046875 -0.546875 -0.125q-0.171875 -0.109375 -0.328125 -0.4375q-0.546875 -1.3125 -0.828125 -2.234375z" fill-rule="nonzero"></path><path fill="#b4a7d6" d="m317.569 77.199974l48.881897 0l0 34.456696l-48.881897 0z" fill-rule="nonzero"></path><path stroke="#000000" stroke-width="1.0" stroke-linejoin="round" stroke-linecap="butt" d="m317.569 77.199974l48.881897 0l0 34.456696l-48.881897 0z" fill-rule="nonzero"></path><path fill="#000000" d="m344.1459 92.76207q0 0.609375 -0.328125 1.28125q-0.3125 0.671875 -0.734375 1.171875q-0.40625 0.5 -0.96875 1.015625q-0.796875 0.703125 -1.4375 1.15625l0.015625 0.0625q2.03125 0 2.59375 -0.171875q0.5625 -0.1875 0.8125 -0.984375l0.296875 0.125q-0.1875 0.609375 -0.25 1.75l-4.421875 0l-0.140625 -0.4375q0.40625 -0.3125 1.109375 -1.0q0.71875 -0.703125 1.171875 -1.25q0.46875 -0.5625 0.84375 -1.28125q0.390625 -0.734375 0.390625 -1.375q0 -0.65625 -0.40625 -0.984375q-0.390625 -0.328125 -1.03125 -0.328125q-0.90625 0 -1.71875 0.4375l-0.15625 -0.3125q1.046875 -0.875 2.203125 -0.875q0.890625 0 1.515625 0.53125q0.640625 0.515625 0.640625 1.46875z" fill-rule="nonzero"></path><path fill="#cfe2f3" d="m157.02461 109.60761l160.56691 0l0 34.456688l-160.56691 0z" fill-rule="nonzero"></path><path stroke="#000000" stroke-width="1.0" stroke-linejoin="round" stroke-linecap="butt" d="m157.02461 109.60761l160.56691 0l0 34.456688l-160.56691 0z" fill-rule="nonzero"></path><path fill="#000000" d="m225.01186 124.88846q-0.21875 -0.796875 -0.609375 -1.09375q-0.390625 -0.296875 -1.015625 -0.296875q-0.625 0 -0.96875 0.296875q-0.328125 0.296875 -0.328125 0.75q0 0.703125 0.734375 1.1875l1.75 1.140625q1.140625 0.75 1.140625 1.765625q0 0.828125 -0.65625 1.4375q-0.65625 0.609375 -1.90625 0.609375q-1.25 0 -2.1875 -0.390625q0.171875 -0.90625 0.171875 -1.625l0.296875 -0.125q0.171875 0.890625 0.515625 1.234375q0.359375 0.34375 1.09375 0.34375q0.75 0 1.140625 -0.359375q0.390625 -0.359375 0.390625 -0.859375q0 -0.671875 -0.71875 -1.140625l-1.765625 -1.140625q-1.0 -0.671875 -1.0 -1.703125q0 -0.796875 0.625 -1.390625q0.625 -0.59375 1.640625 -0.59375q0.328125 0 0.71875 0.09375q0.40625 0.078125 0.609375 0.078125q0.21875 0 0.484375 -0.0625l0 0.15625q0 0.8125 0.140625 1.5625l-0.296875 0.125zm3.1890564 5.78125q-1.140625 0 -1.140625 -1.09375q0.015625 -0.96875 0.015625 -1.78125q0 -0.8125 -0.03125 -1.6875l-0.703125 0.015625l-0.03125 -0.125l0.25 -0.421875q0.15625 0.03125 0.46875 0.03125l-0.046875 -1.0l0.734375 -0.65625l0.203125 0.109375q-0.015625 0.8125 -0.015625 1.546875l1.609375 -0.015625l0.0625 0.140625l-0.40625 0.4375q-0.375 -0.046875 -1.265625 -0.0625l0 1.484375q0 1.375 0.03125 1.96875q0.03125 0.484375 0.578125 0.484375q0.4375 0 0.96875 -0.25l0.125 0.359375q-0.78125 0.515625 -1.40625 0.515625zm4.2815094 -4.609375q-0.453125 0 -0.78125 0.234375q-0.328125 0.21875 -0.484375 0.546875q-0.296875 0.625 -0.296875 1.203125q0 0.90625 0.359375 1.515625q0.359375 0.59375 1.140625 0.59375q0.421875 0 0.734375 -0.1875q0.328125 -0.203125 0.5 -0.515625q0.3125 -0.5625 0.328125 -1.140625q0 -2.25 -1.5 -2.25zm0.046875 -0.546875q1.265625 0 1.828125 0.640625q0.578125 0.640625 0.578125 1.78125q0 1.140625 -0.65625 1.9375q-0.65625 0.796875 -1.90625 0.796875q-1.25 0 -1.828125 -0.625q-0.578125 -0.640625 -0.578125 -1.765625q0 -1.140625 0.65625 -1.953125q0.65625 -0.8125 1.90625 -0.8125zm6.168457 -0.0625q0.078125 0 0.28125 0.265625q0.203125 0.25 0.265625 0.5l-0.15625 0.21875q-0.390625 -0.15625 -0.828125 -0.15625q-0.421875 0 -0.78125 0.359375q-0.34375 0.34375 -0.34375 1.140625q0 1.9375 0.09375 2.265625q0.015625 0.078125 0.3125 0.15625q0.296875 0.0625 0.625 0.09375l-0.03125 0.3125q-0.515625 -0.03125 -1.328125 -0.03125q-0.8125 0 -1.34375 0.03125l0.03125 -0.3125q0.21875 -0.03125 0.453125 -0.09375q0.25 -0.078125 0.265625 -0.15625q0.09375 -0.375 0.09375 -1.53125q0 -1.875 -0.09375 -2.296875l-0.703125 -0.203125l-0.015625 -0.28125q0.703125 0 1.453125 -0.203125l0.203125 0.09375q-0.015625 0.171875 -0.015625 0.90625q0.3125 -0.53125 0.796875 -0.796875q0.5 -0.28125 0.765625 -0.28125zm3.7049408 2.8125q-0.90625 0.03125 -1.375 0.34375q-0.46875 0.3125 -0.46875 0.6875q0 0.375 0.1875 0.546875q0.1875 0.171875 0.609375 0.171875q0.4375 0 1.046875 -0.359375l0 -1.390625zm0.796875 2.40625q-0.65625 0 -0.765625 -0.703125q-0.96875 0.703125 -1.671875 0.703125q-0.46875 0 -0.8125 -0.28125q-0.328125 -0.296875 -0.328125 -0.90625q0 -0.625 0.65625 -1.109375q0.65625 -0.5 2.125 -0.609375l0 -1.015625q0 -0.3125 -0.234375 -0.46875q-0.21875 -0.171875 -0.625 -0.171875q-0.40625 0 -0.65625 0.234375q-0.234375 0.21875 -0.234375 0.578125q0 0.125 0.03125 0.296875l-0.234375 0.109375q-0.234375 -0.125 -0.421875 -0.328125q-0.1875 -0.21875 -0.1875 -0.3125q0 -0.09375 0.140625 -0.265625q0.15625 -0.1875 0.40625 -0.390625q0.25 -0.21875 0.671875 -0.359375q0.421875 -0.15625 0.953125 -0.15625q0.53125 0 0.859375 0.265625q0.328125 0.25 0.328125 0.9375q0 0.671875 0.0625 2.84375q0.015625 0.53125 0.40625 0.53125q0.15625 0 0.34375 -0.09375l0.109375 0.296875q-0.421875 0.375 -0.921875 0.375zm5.6511993 -5.546875q0.078125 0 0.28125 0.265625q0.203125 0.25 0.265625 0.5l-0.15625 0.203125q-0.203125 -0.09375 -0.484375 -0.09375q-0.265625 0 -0.5 0.125q0.375 0.46875 0.375 1.25q0 0.765625 -0.515625 1.3125q-0.5 0.53125 -1.484375 0.53125q-0.25 0 -0.484375 -0.03125q-0.40625 0.53125 -0.40625 0.734375q0 0.25 0.71875 0.25l0.828125 0q2.078125 0 2.078125 1.34375q0 0.75 -0.84375 1.34375q-0.828125 0.609375 -2.21875 0.609375q-0.8125 0 -1.40625 -0.265625q-0.59375 -0.265625 -0.59375 -0.765625q0 -0.703125 1.125 -1.625q-0.6875 -0.140625 -0.6875 -0.515625q0 -0.375 0.984375 -1.1875q-1.109375 -0.34375 -1.109375 -1.765625q0 -0.71875 0.515625 -1.265625q0.515625 -0.546875 1.4375 -0.546875q0.9375 0 1.390625 0.328125q0.140625 -0.203125 0.40625 -0.46875q0.28125 -0.265625 0.484375 -0.265625zm-3.625 6.953125q0 0.421875 0.3125 0.6875q0.328125 0.265625 1.046875 0.265625q0.734375 0 1.28125 -0.453125q0.5625 -0.453125 0.5625 -0.984375q0 -0.328125 -0.28125 -0.53125q-0.28125 -0.203125 -0.890625 -0.203125l-1.484375 0q-0.546875 0.609375 -0.546875 1.21875zm1.421875 -6.09375q-0.328125 0 -0.5625 0.15625q-0.234375 0.140625 -0.34375 0.375q-0.1875 0.4375 -0.1875 0.9375q0 0.484375 0.25 0.90625q0.25 0.421875 0.796875 0.421875q0.390625 0 0.640625 -0.234375q0.265625 -0.25 0.34375 -0.5q0.09375 -0.25 0.109375 -0.53125q0 -1.53125 -1.046875 -1.53125zm6.3622437 1.078125q0 -0.515625 -0.296875 -0.75q-0.28125 -0.25 -0.625 -0.25q-0.515625 0 -0.890625 0.40625q-0.375 0.40625 -0.5 1.0l2.28125 -0.09375q0.03125 -0.15625 0.03125 -0.3125zm-0.953125 3.609375q-1.171875 0 -1.765625 -0.65625q-0.59375 -0.671875 -0.59375 -1.765625q0 -1.109375 0.65625 -1.921875q0.65625 -0.8125 1.96875 -0.8125q0.671875 0 1.171875 0.484375q0.5 0.46875 0.5 1.40625l-0.375 0.4375q-0.0625 0 -1.03125 0q-0.96875 0 -1.953125 0.078125l0 0.09375q0 1.0 0.40625 1.5q0.421875 0.5 1.140625 0.5q0.734375 0 1.546875 -0.34375l0.125 0.328125q-0.84375 0.671875 -1.796875 0.671875z" fill-rule="nonzero"></path><path fill="#93c47d" d="m366.47867 109.60761l52.59842 0l0 34.456688l-52.59842 0z" fill-rule="nonzero"></path><path stroke="#000000" stroke-width="1.0" stroke-linejoin="round" stroke-linecap="butt" d="m366.47867 109.60761l52.59842 0l0 34.456688l-52.59842 0z" fill-rule="nonzero"></path><path fill="#333333" d="m388.07477 129.04158q0 -0.21875 -0.046875 -0.390625q0 -0.484375 0.65625 -0.875q0.4375 -0.21875 0.65625 -0.21875q0.265625 0.0625 0.375 0.328125q0.328125 0.765625 0.4375 1.046875q0.109375 0.21875 0.21875 0.21875q0.109375 0 0.21875 -0.171875q1.859375 -3.28125 3.34375 -5.078125q1.140625 -1.375 1.421875 -1.59375q0.875 -0.65625 2.078125 -0.703125l0.046875 0.265625q-0.921875 0.9375 -3.21875 4.15625q-2.25 3.234375 -3.234375 5.09375q-0.21875 0.484375 -0.546875 0.59375q-0.15625 0.171875 -0.703125 0.125q-0.390625 0.046875 -0.546875 -0.125q-0.171875 -0.109375 -0.328125 -0.4375q-0.546875 -1.3125 -0.828125 -2.234375z" fill-rule="nonzero"></path><path fill="#b4a7d6" d="m317.59677 109.60761l48.881897 0l0 34.456688l-48.881897 0z" fill-rule="nonzero"></path><path stroke="#000000" stroke-width="1.0" stroke-linejoin="round" stroke-linecap="butt" d="m317.59677 109.60761l48.881897 0l0 34.456688l-48.881897 0z" fill-rule="nonzero"></path><path fill="#000000" d="m344.21457 128.34158q0 1.03125 -0.96875 1.875q-0.96875 0.828125 -2.484375 0.828125q-0.5 0 -1.0 -0.109375l0.03125 -0.53125q0.484375 0.109375 0.890625 0.109375q1.171875 0 1.828125 -0.609375q0.65625 -0.609375 0.65625 -1.421875q0 -0.640625 -0.453125 -1.078125q-0.4375 -0.453125 -1.25 -0.453125q-0.390625 0 -0.8125 0.109375l0.03125 -0.421875q1.046875 -0.25 1.59375 -0.828125q0.546875 -0.59375 0.546875 -1.046875q0 -0.453125 -0.265625 -0.6875q-0.25 -0.25 -0.8125 -0.25q-0.546875 0 -1.40625 0.53125l-0.15625 -0.3125q0.953125 -0.875 2.015625 -0.875q0.703125 0 1.171875 0.390625q0.46875 0.375 0.46875 0.90625q0 1.140625 -1.640625 1.984375l0 0.0625q1.03125 0.140625 1.515625 0.640625q0.5 0.484375 0.5 1.1875z" fill-rule="nonzero"></path><path fill="#b6d7a8" d="m157.02461 143.93489l160.56691 0l0 34.45668l-160.56691 0z" fill-rule="nonzero"></path><path stroke="#000000" stroke-width="1.0" stroke-linejoin="round" stroke-linecap="butt" d="m157.02461 143.93489l160.56691 0l0 34.45668l-160.56691 0z" fill-rule="nonzero"></path><path fill="#000000" d="m210.11642 164.49698q1.03125 0 1.6875 -0.421875q0.65625 -0.421875 0.875 -1.15625l0.296875 0.140625q-0.109375 0.390625 -0.25 1.46875q-1.359375 0.5 -2.65625 0.5q-1.796875 0 -2.859375 -0.984375q-1.046875 -0.984375 -1.046875 -2.71875q0 -1.75 1.046875 -2.90625q1.046875 -1.15625 2.859375 -1.15625q0.5 0 1.125 0.09375q0.625 0.078125 0.859375 0.078125q0.234375 0 0.5 -0.0625l0 0.15625q0 0.8125 0.125 1.5625l-0.296875 0.125q-0.4375 -1.4375 -2.328125 -1.4375q-1.09375 0 -1.890625 0.78125q-0.390625 0.375 -0.625 1.015625q-0.21875 0.640625 -0.21875 1.375q0 0.734375 0.140625 1.328125q0.15625 0.59375 0.46875 1.109375q0.328125 0.5 0.890625 0.8125q0.5625 0.296875 1.296875 0.296875zm5.9125824 -4.109375q-0.453125 0 -0.78125 0.234375q-0.328125 0.21875 -0.484375 0.546875q-0.296875 0.625 -0.296875 1.203125q0 0.90625 0.359375 1.515625q0.359375 0.59375 1.140625 0.59375q0.421875 0 0.734375 -0.1875q0.328125 -0.203125 0.5 -0.515625q0.3125 -0.5625 0.328125 -1.140625q0 -2.25 -1.5 -2.25zm0.046875 -0.546875q1.265625 0 1.828125 0.640625q0.578125 0.640625 0.578125 1.78125q0 1.140625 -0.65625 1.9375q-0.65625 0.796875 -1.90625 0.796875q-1.25 0 -1.828125 -0.625q-0.578125 -0.640625 -0.578125 -1.765625q0 -1.140625 0.65625 -1.953125q0.65625 -0.8125 1.90625 -0.8125zm4.559082 1.03125l-0.015625 1.515625q0 1.421875 0.09375 1.84375l0.015625 0.140625q0.015625 0.078125 0.25 0.15625q0.234375 0.0625 0.453125 0.09375l-0.03125 0.3125q-0.53125 -0.03125 -1.21875 -0.03125q-0.671875 0 -1.203125 0.03125l0.03125 -0.3125q0.21875 -0.03125 0.453125 -0.09375q0.234375 -0.078125 0.25 -0.15625q0.078125 -0.375 0.078125 -1.53125q0 -1.875 -0.078125 -2.296875l-0.703125 -0.203125l-0.03125 -0.28125q0.703125 0 1.453125 -0.203125l0.203125 0.09375l0 0.53125q1.234375 -0.640625 2.125 -0.640625q0.5625 0 0.84375 0.21875q0.28125 0.21875 0.28125 0.828125l0 1.5q0 1.421875 0.078125 1.84375l0.03125 0.140625q0.015625 0.078125 0.25 0.15625q0.234375 0.0625 0.453125 0.09375l-0.03125 0.3125q-0.53125 -0.03125 -1.21875 -0.03125q-0.671875 0 -1.203125 0.03125l0.03125 -0.3125q0.21875 -0.03125 0.453125 -0.09375q0.234375 -0.078125 0.25 -0.15625q0.078125 -0.375 0.078125 -1.984375l0 -1.078125q0 -0.421875 -0.25 -0.578125q-0.25 -0.171875 -0.859375 -0.171875q-0.59375 0 -1.3125 0.3125zm6.920685 4.0625q-0.53125 -0.03125 -1.3125 -0.03125q-0.765625 0 -1.296875 0.03125l0.03125 -0.3125q0.21875 -0.03125 0.46875 -0.09375q0.265625 -0.078125 0.28125 -0.15625q0.09375 0 0.09375 -3.9375l-0.765625 0.015625l-0.03125 -0.125l0.25 -0.421875q0.15625 0.015625 0.53125 0.03125q0 -0.703125 0.25 -1.265625q0.25 -0.578125 0.59375 -0.890625q0.34375 -0.328125 0.75 -0.546875q0.65625 -0.359375 1.0625 -0.359375q0.078125 0 0.28125 0.265625q0.203125 0.25 0.28125 0.5l-0.171875 0.21875q-0.46875 -0.21875 -0.9375 -0.21875q-1.265625 0 -1.265625 2.296875l1.421875 -0.015625l0.0625 0.140625l-0.34375 0.421875q-0.375 -0.03125 -1.140625 -0.046875q0 3.0625 0.109375 3.9375q0 0.078125 0.296875 0.15625q0.3125 0.078125 0.53125 0.09375l-0.03125 0.3125zm2.4299164 -6.390625q-0.15625 0.171875 -0.40625 0.171875q-0.234375 0 -0.40625 -0.171875q-0.15625 -0.171875 -0.15625 -0.421875q0 -0.25 0.15625 -0.40625q0.171875 -0.171875 0.40625 -0.171875q0.25 0 0.40625 0.171875q0.171875 0.15625 0.171875 0.40625q0 0.25 -0.171875 0.421875zm0.0625 1.40625l-0.03125 2.4375q0 1.421875 0.09375 1.84375l0.015625 0.140625q0.015625 0.078125 0.28125 0.15625q0.28125 0.0625 0.5 0.09375l-0.03125 0.3125q-0.53125 -0.03125 -1.296875 -0.03125q-0.75 0 -1.28125 0.03125l0.046875 -0.3125q0.21875 -0.03125 0.484375 -0.09375q0.265625 -0.078125 0.28125 -0.15625q0.09375 -0.375 0.09375 -1.53125q0 -1.875 -0.09375 -2.296875l-0.703125 -0.203125l-0.03125 -0.28125q0.703125 0 1.453125 -0.203125l0.21875 0.09375zm5.727371 -0.5q0.078125 0 0.28125 0.265625q0.203125 0.25 0.265625 0.5l-0.15625 0.203125q-0.203125 -0.09375 -0.484375 -0.09375q-0.265625 0 -0.5 0.125q0.375 0.46875 0.375 1.25q0 0.765625 -0.515625 1.3125q-0.5 0.53125 -1.484375 0.53125q-0.25 0 -0.484375 -0.03125q-0.40625 0.53125 -0.40625 0.734375q0 0.25 0.71875 0.25l0.828125 0q2.078125 0 2.078125 1.34375q0 0.75 -0.84375 1.34375q-0.828125 0.609375 -2.21875 0.609375q-0.8125 0 -1.40625 -0.265625q-0.59375 -0.265625 -0.59375 -0.765625q0 -0.703125 1.125 -1.625q-0.6875 -0.140625 -0.6875 -0.515625q0 -0.375 0.984375 -1.1875q-1.109375 -0.34375 -1.109375 -1.765625q0 -0.71875 0.515625 -1.265625q0.515625 -0.546875 1.4375 -0.546875q0.9375 0 1.390625 0.328125q0.140625 -0.203125 0.40625 -0.46875q0.28125 -0.265625 0.484375 -0.265625zm-3.625 6.953125q0 0.421875 0.3125 0.6875q0.328125 0.265625 1.046875 0.265625q0.734375 0 1.28125 -0.453125q0.5625 -0.453125 0.5625 -0.984375q0 -0.328125 -0.28125 -0.53125q-0.28125 -0.203125 -0.890625 -0.203125l-1.484375 0q-0.546875 0.609375 -0.546875 1.21875zm1.421875 -6.09375q-0.328125 0 -0.5625 0.15625q-0.234375 0.140625 -0.34375 0.375q-0.1875 0.4375 -0.1875 0.9375q0 0.484375 0.25 0.90625q0.25 0.421875 0.796875 0.421875q0.390625 0 0.640625 -0.234375q0.265625 -0.25 0.34375 -0.5q0.09375 -0.25 0.109375 -0.53125q0 -1.53125 -1.046875 -1.53125zm4.7059937 4.6875q-1.125 0 -1.125 -1.140625l0 -1.46875q0 -1.484375 -0.078125 -1.84375l-0.65625 -0.203125l-0.015625 -0.28125q0.65625 0 1.390625 -0.203125l0.21875 0.09375q-0.03125 1.96875 -0.03125 3.578125q0 0.734375 0.890625 0.734375q0.375 0 0.796875 -0.125q0.4375 -0.125 0.6875 -0.28125q0.046875 -0.59375 0.046875 -1.390625q0 -1.5 -0.09375 -1.921875l-0.6875 -0.203125l-0.03125 -0.28125q0.703125 0 1.453125 -0.203125l0.203125 0.09375q-0.03125 0.828125 -0.03125 2.734375l0.03125 1.28125q0 0.1875 0.140625 0.296875q0.15625 0.109375 0.296875 0.140625q0.15625 0.015625 0.40625 0.03125l-0.03125 0.3125q-0.40625 0.03125 -1.203125 0.203125q-0.328125 -0.140625 -0.453125 -0.65625q-1.046875 0.703125 -2.125 0.703125zm7.3141174 -5.21875q0.078125 0 0.28125 0.265625q0.203125 0.25 0.265625 0.5l-0.15625 0.21875q-0.390625 -0.15625 -0.828125 -0.15625q-0.421875 0 -0.78125 0.359375q-0.34375 0.34375 -0.34375 1.140625q0 1.9375 0.09375 2.265625q0.015625 0.078125 0.3125 0.15625q0.296875 0.0625 0.625 0.09375l-0.03125 0.3125q-0.515625 -0.03125 -1.328125 -0.03125q-0.8125 0 -1.34375 0.03125l0.03125 -0.3125q0.21875 -0.03125 0.453125 -0.09375q0.25 -0.078125 0.265625 -0.15625q0.09375 -0.375 0.09375 -1.53125q0 -1.875 -0.09375 -2.296875l-0.703125 -0.203125l-0.015625 -0.28125q0.703125 0 1.453125 -0.203125l0.203125 0.09375q-0.015625 0.171875 -0.015625 0.90625q0.3125 -0.53125 0.796875 -0.796875q0.5 -0.28125 0.765625 -0.28125zm3.7049408 2.8125q-0.90625 0.03125 -1.375 0.34375q-0.46875 0.3125 -0.46875 0.6875q0 0.375 0.1875 0.546875q0.1875 0.171875 0.609375 0.171875q0.4375 0 1.046875 -0.359375l0 -1.390625zm0.796875 2.40625q-0.65625 0 -0.765625 -0.703125q-0.96875 0.703125 -1.671875 0.703125q-0.46875 0 -0.8125 -0.28125q-0.328125 -0.296875 -0.328125 -0.90625q0 -0.625 0.65625 -1.109375q0.65625 -0.5 2.125 -0.609375l0 -1.015625q0 -0.3125 -0.234375 -0.46875q-0.21875 -0.171875 -0.625 -0.171875q-0.40625 0 -0.65625 0.234375q-0.234375 0.21875 -0.234375 0.578125q0 0.125 0.03125 0.296875l-0.234375 0.109375q-0.234375 -0.125 -0.421875 -0.328125q-0.1875 -0.21875 -0.1875 -0.3125q0 -0.09375 0.140625 -0.265625q0.15625 -0.1875 0.40625 -0.390625q0.25 -0.21875 0.671875 -0.359375q0.421875 -0.15625 0.953125 -0.15625q0.53125 0 0.859375 0.265625q0.328125 0.25 0.328125 0.9375q0 0.671875 0.0625 2.84375q0.015625 0.53125 0.40625 0.53125q0.15625 0 0.34375 -0.09375l0.109375 0.296875q-0.421875 0.375 -0.921875 0.375zm3.0105743 0q-1.140625 0 -1.140625 -1.09375q0.015625 -0.96875 0.015625 -1.78125q0 -0.8125 -0.03125 -1.6875l-0.703125 0.015625l-0.03125 -0.125l0.25 -0.421875q0.15625 0.03125 0.46875 0.03125l-0.046875 -1.0l0.734375 -0.65625l0.203125 0.109375q-0.015625 0.8125 -0.015625 1.546875l1.609375 -0.015625l0.0625 0.140625l-0.40625 0.4375q-0.375 -0.046875 -1.265625 -0.0625l0 1.484375q0 1.375 0.03125 1.96875q0.03125 0.484375 0.578125 0.484375q0.4375 0 0.96875 -0.25l0.125 0.359375q-0.78125 0.515625 -1.40625 0.515625zm3.2658844 -6.453125q-0.15625 0.171875 -0.40625 0.171875q-0.234375 0 -0.40625 -0.171875q-0.15625 -0.171875 -0.15625 -0.421875q0 -0.25 0.15625 -0.40625q0.171875 -0.171875 0.40625 -0.171875q0.25 0 0.40625 0.171875q0.171875 0.15625 0.171875 0.40625q0 0.25 -0.171875 0.421875zm0.0625 1.40625l-0.03125 2.4375q0 1.421875 0.09375 1.84375l0.015625 0.140625q0.015625 0.078125 0.28125 0.15625q0.28125 0.0625 0.5 0.09375l-0.03125 0.3125q-0.53125 -0.03125 -1.296875 -0.03125q-0.75 0 -1.28125 0.03125l0.046875 -0.3125q0.21875 -0.03125 0.484375 -0.09375q0.265625 -0.078125 0.28125 -0.15625q0.09375 -0.375 0.09375 -1.53125q0 -1.875 -0.09375 -2.296875l-0.703125 -0.203125l-0.03125 -0.28125q0.703125 0 1.453125 -0.203125l0.21875 0.09375zm3.8836365 0.4375q-0.453125 0 -0.78125 0.234375q-0.328125 0.21875 -0.484375 0.546875q-0.296875 0.625 -0.296875 1.203125q0 0.90625 0.359375 1.515625q0.359375 0.59375 1.140625 0.59375q0.421875 0 0.734375 -0.1875q0.328125 -0.203125 0.5 -0.515625q0.3125 -0.5625 0.328125 -1.140625q0 -2.25 -1.5 -2.25zm0.046875 -0.546875q1.265625 0 1.828125 0.640625q0.578125 0.640625 0.578125 1.78125q0 1.140625 -0.65625 1.9375q-0.65625 0.796875 -1.90625 0.796875q-1.25 0 -1.828125 -0.625q-0.578125 -0.640625 -0.578125 -1.765625q0 -1.140625 0.65625 -1.953125q0.65625 -0.8125 1.90625 -0.8125zm4.559082 1.03125l-0.015625 1.515625q0 1.421875 0.09375 1.84375l0.015625 0.140625q0.015625 0.078125 0.25 0.15625q0.234375 0.0625 0.453125 0.09375l-0.03125 0.3125q-0.53125 -0.03125 -1.21875 -0.03125q-0.671875 0 -1.203125 0.03125l0.03125 -0.3125q0.21875 -0.03125 0.453125 -0.09375q0.234375 -0.078125 0.25 -0.15625q0.078125 -0.375 0.078125 -1.53125q0 -1.875 -0.078125 -2.296875l-0.703125 -0.203125l-0.03125 -0.28125q0.703125 0 1.453125 -0.203125l0.203125 0.09375l0 0.53125q1.234375 -0.640625 2.125 -0.640625q0.5625 0 0.84375 0.21875q0.28125 0.21875 0.28125 0.828125l0 1.5q0 1.421875 0.078125 1.84375l0.03125 0.140625q0.015625 0.078125 0.25 0.15625q0.234375 0.0625 0.453125 0.09375l-0.03125 0.3125q-0.53125 -0.03125 -1.21875 -0.03125q-0.671875 0 -1.203125 0.03125l0.03125 -0.3125q0.21875 -0.03125 0.453125 -0.09375q0.234375 -0.078125 0.25 -0.15625q0.078125 -0.375 0.078125 -1.984375l0 -1.078125q0 -0.421875 -0.25 -0.578125q-0.25 -0.171875 -0.859375 -0.171875q-0.59375 0 -1.3125 0.3125z" fill-rule="nonzero"></path><path fill="#93c47d" d="m366.47867 143.93489l52.59842 0l0 34.45668l-52.59842 0z" fill-rule="nonzero"></path><path stroke="#000000" stroke-width="1.0" stroke-linejoin="round" stroke-linecap="butt" d="m366.47867 143.93489l52.59842 0l0 34.45668l-52.59842 0z" fill-rule="nonzero"></path><path fill="#333333" d="m388.07477 163.36885q0 -0.21875 -0.046875 -0.390625q0 -0.484375 0.65625 -0.875q0.4375 -0.21875 0.65625 -0.21875q0.265625 0.0625 0.375 0.328125q0.328125 0.765625 0.4375 1.046875q0.109375 0.21875 0.21875 0.21875q0.109375 0 0.21875 -0.171875q1.859375 -3.28125 3.34375 -5.078125q1.140625 -1.375 1.421875 -1.59375q0.875 -0.65625 2.078125 -0.703125l0.046875 0.265625q-0.921875 0.9375 -3.21875 4.15625q-2.25 3.234375 -3.234375 5.09375q-0.21875 0.484375 -0.546875 0.59375q-0.15625 0.171875 -0.703125 0.125q-0.390625 0.046875 -0.546875 -0.125q-0.171875 -0.109375 -0.328125 -0.4375q-0.546875 -1.3125 -0.828125 -2.234375z" fill-rule="nonzero"></path><path fill="#b4a7d6" d="m317.59677 143.93489l48.881897 0l0 34.45668l-48.881897 0z" fill-rule="nonzero"></path><path stroke="#000000" stroke-width="1.0" stroke-linejoin="round" stroke-linecap="butt" d="m317.59677 143.93489l48.881897 0l0 34.45668l-48.881897 0z" fill-rule="nonzero"></path><path fill="#000000" d="m344.70422 164.93448q-0.6875 -0.03125 -1.640625 -0.03125q-0.953125 0 -1.640625 0.03125l-0.03125 -0.3125q0.1875 -0.046875 0.40625 -0.078125q0.21875 -0.046875 0.359375 -0.078125q0.140625 -0.03125 0.21875 -0.0625q0.078125 -0.03125 0.15625 -0.078125q0.140625 -0.0625 0.15625 -0.1875q0.03125 -0.25 0.078125 -1.28125l-3.15625 0l-0.140625 -0.421875l2.90625 -5.46875l1.0 0.09375l-3.109375 5.1875l2.5 0l0 -2.03125q0 -0.015625 0.015625 -0.046875q0.03125 -0.046875 0.265625 -0.109375q0.234375 -0.078125 0.6875 -0.109375q0 1.890625 0 2.296875l0.890625 0l0.0625 0.15625l-0.40625 0.515625q0 -0.03125 -0.53125 -0.046875l0.0625 1.265625q0.03125 0.203125 0.203125 0.296875q0.1875 0.078125 0.71875 0.1875l-0.03125 0.3125z" fill-rule="nonzero"></path><path fill="#cfe2f3" d="m156.9229 178.3924l160.56694 0l0 34.45668l-160.56694 0z" fill-rule="nonzero"></path><path stroke="#000000" stroke-width="1.0" stroke-linejoin="round" stroke-linecap="butt" d="m156.9229 178.3924l160.56694 0l0 34.45668l-160.56694 0z" fill-rule="nonzero"></path><path fill="#000000" d="m224.91016 193.67323q-0.21875 -0.796875 -0.609375 -1.09375q-0.390625 -0.296875 -1.015625 -0.296875q-0.625 0 -0.96875 0.296875q-0.328125 0.296875 -0.328125 0.75q0 0.703125 0.734375 1.1875l1.75 1.140625q1.140625 0.75 1.140625 1.765625q0 0.828125 -0.65625 1.4375q-0.65625 0.609375 -1.90625 0.609375q-1.25 0 -2.1875 -0.390625q0.171875 -0.90625 0.171875 -1.625l0.296875 -0.125q0.171875 0.890625 0.515625 1.234375q0.359375 0.34375 1.09375 0.34375q0.75 0 1.140625 -0.359375q0.390625 -0.359375 0.390625 -0.859375q0 -0.671875 -0.71875 -1.140625l-1.765625 -1.140625q-1.0 -0.671875 -1.0 -1.703125q0 -0.796875 0.625 -1.390625q0.625 -0.59375 1.640625 -0.59375q0.328125 0 0.71875 0.09375q0.40625 0.078125 0.609375 0.078125q0.21875 0 0.484375 -0.0625l0 0.15625q0 0.8125 0.140625 1.5625l-0.296875 0.125zm3.1890564 5.78125q-1.140625 0 -1.140625 -1.09375q0.015625 -0.96875 0.015625 -1.78125q0 -0.8125 -0.03125 -1.6875l-0.703125 0.015625l-0.03125 -0.125l0.25 -0.421875q0.15625 0.03125 0.46875 0.03125l-0.046875 -1.0l0.734375 -0.65625l0.203125 0.109375q-0.015625 0.8125 -0.015625 1.546875l1.609375 -0.015625l0.0625 0.140625l-0.40625 0.4375q-0.375 -0.046875 -1.265625 -0.0625l0 1.484375q0 1.375 0.03125 1.96875q0.03125 0.484375 0.578125 0.484375q0.4375 0 0.96875 -0.25l0.125 0.359375q-0.78125 0.515625 -1.40625 0.515625zm4.2815094 -4.609375q-0.453125 0 -0.78125 0.234375q-0.328125 0.21875 -0.484375 0.546875q-0.296875 0.625 -0.296875 1.203125q0 0.90625 0.359375 1.515625q0.359375 0.59375 1.140625 0.59375q0.421875 0 0.734375 -0.1875q0.328125 -0.203125 0.5 -0.515625q0.3125 -0.5625 0.328125 -1.140625q0 -2.25 -1.5 -2.25zm0.046875 -0.546875q1.265625 0 1.828125 0.640625q0.578125 0.640625 0.578125 1.78125q0 1.140625 -0.65625 1.9375q-0.65625 0.796875 -1.90625 0.796875q-1.25 0 -1.828125 -0.625q-0.578125 -0.640625 -0.578125 -1.765625q0 -1.140625 0.65625 -1.953125q0.65625 -0.8125 1.90625 -0.8125zm6.168457 -0.0625q0.078125 0 0.28125 0.265625q0.203125 0.25 0.265625 0.5l-0.15625 0.21875q-0.390625 -0.15625 -0.828125 -0.15625q-0.421875 0 -0.78125 0.359375q-0.34375 0.34375 -0.34375 1.140625q0 1.9375 0.09375 2.265625q0.015625 0.078125 0.3125 0.15625q0.296875 0.0625 0.625 0.09375l-0.03125 0.3125q-0.515625 -0.03125 -1.328125 -0.03125q-0.8125 0 -1.34375 0.03125l0.03125 -0.3125q0.21875 -0.03125 0.453125 -0.09375q0.25 -0.078125 0.265625 -0.15625q0.09375 -0.375 0.09375 -1.53125q0 -1.875 -0.09375 -2.296875l-0.703125 -0.203125l-0.015625 -0.28125q0.703125 0 1.453125 -0.203125l0.203125 0.09375q-0.015625 0.171875 -0.015625 0.90625q0.3125 -0.53125 0.796875 -0.796875q0.5 -0.28125 0.765625 -0.28125zm3.7049408 2.8125q-0.90625 0.03125 -1.375 0.34375q-0.46875 0.3125 -0.46875 0.6875q0 0.375 0.1875 0.546875q0.1875 0.171875 0.609375 0.171875q0.4375 0 1.046875 -0.359375l0 -1.390625zm0.796875 2.40625q-0.65625 0 -0.765625 -0.703125q-0.96875 0.703125 -1.671875 0.703125q-0.46875 0 -0.8125 -0.28125q-0.328125 -0.296875 -0.328125 -0.90625q0 -0.625 0.65625 -1.109375q0.65625 -0.5 2.125 -0.609375l0 -1.015625q0 -0.3125 -0.234375 -0.46875q-0.21875 -0.171875 -0.625 -0.171875q-0.40625 0 -0.65625 0.234375q-0.234375 0.21875 -0.234375 0.578125q0 0.125 0.03125 0.296875l-0.234375 0.109375q-0.234375 -0.125 -0.421875 -0.328125q-0.1875 -0.21875 -0.1875 -0.3125q0 -0.09375 0.140625 -0.265625q0.15625 -0.1875 0.40625 -0.390625q0.25 -0.21875 0.671875 -0.359375q0.421875 -0.15625 0.953125 -0.15625q0.53125 0 0.859375 0.265625q0.328125 0.25 0.328125 0.9375q0 0.671875 0.0625 2.84375q0.015625 0.53125 0.40625 0.53125q0.15625 0 0.34375 -0.09375l0.109375 0.296875q-0.421875 0.375 -0.921875 0.375zm5.6511993 -5.546875q0.078125 0 0.28125 0.265625q0.203125 0.25 0.265625 0.5l-0.15625 0.203125q-0.203125 -0.09375 -0.484375 -0.09375q-0.265625 0 -0.5 0.125q0.375 0.46875 0.375 1.25q0 0.765625 -0.515625 1.3125q-0.5 0.53125 -1.484375 0.53125q-0.25 0 -0.484375 -0.03125q-0.40625 0.53125 -0.40625 0.734375q0 0.25 0.71875 0.25l0.828125 0q2.078125 0 2.078125 1.34375q0 0.75 -0.84375 1.34375q-0.828125 0.609375 -2.21875 0.609375q-0.8125 0 -1.40625 -0.265625q-0.59375 -0.265625 -0.59375 -0.765625q0 -0.703125 1.125 -1.625q-0.6875 -0.140625 -0.6875 -0.515625q0 -0.375 0.984375 -1.1875q-1.109375 -0.34375 -1.109375 -1.765625q0 -0.71875 0.515625 -1.265625q0.515625 -0.546875 1.4375 -0.546875q0.9375 0 1.390625 0.328125q0.140625 -0.203125 0.40625 -0.46875q0.28125 -0.265625 0.484375 -0.265625zm-3.625 6.953125q0 0.421875 0.3125 0.6875q0.328125 0.265625 1.046875 0.265625q0.734375 0 1.28125 -0.453125q0.5625 -0.453125 0.5625 -0.984375q0 -0.328125 -0.28125 -0.53125q-0.28125 -0.203125 -0.890625 -0.203125l-1.484375 0q-0.546875 0.609375 -0.546875 1.21875zm1.421875 -6.09375q-0.328125 0 -0.5625 0.15625q-0.234375 0.140625 -0.34375 0.375q-0.1875 0.4375 -0.1875 0.9375q0 0.484375 0.25 0.90625q0.25 0.421875 0.796875 0.421875q0.390625 0 0.640625 -0.234375q0.265625 -0.25 0.34375 -0.5q0.09375 -0.25 0.109375 -0.53125q0 -1.53125 -1.046875 -1.53125zm6.3622437 1.078125q0 -0.515625 -0.296875 -0.75q-0.28125 -0.25 -0.625 -0.25q-0.515625 0 -0.890625 0.40625q-0.375 0.40625 -0.5 1.0l2.28125 -0.09375q0.03125 -0.15625 0.03125 -0.3125zm-0.953125 3.609375q-1.171875 0 -1.765625 -0.65625q-0.59375 -0.671875 -0.59375 -1.765625q0 -1.109375 0.65625 -1.921875q0.65625 -0.8125 1.96875 -0.8125q0.671875 0 1.171875 0.484375q0.5 0.46875 0.5 1.40625l-0.375 0.4375q-0.0625 0 -1.03125 0q-0.96875 0 -1.953125 0.078125l0 0.09375q0 1.0 0.40625 1.5q0.421875 0.5 1.140625 0.5q0.734375 0 1.546875 -0.34375l0.125 0.328125q-0.84375 0.671875 -1.796875 0.671875z" fill-rule="nonzero"></path><path fill="#93c47d" d="m366.37695 178.3924l52.59845 0l0 34.45668l-52.59845 0z" fill-rule="nonzero"></path><path stroke="#000000" stroke-width="1.0" stroke-linejoin="round" stroke-linecap="butt" d="m366.37695 178.3924l52.59845 0l0 34.45668l-52.59845 0z" fill-rule="nonzero"></path><path fill="#333333" d="m387.97305 197.82635q0 -0.21875 -0.046875 -0.390625q0 -0.484375 0.65625 -0.875q0.4375 -0.21875 0.65625 -0.21875q0.265625 0.0625 0.375 0.328125q0.328125 0.765625 0.4375 1.046875q0.109375 0.21875 0.21875 0.21875q0.109375 0 0.21875 -0.171875q1.859375 -3.28125 3.34375 -5.078125q1.140625 -1.375 1.421875 -1.59375q0.875 -0.65625 2.078125 -0.703125l0.046875 0.265625q-0.921875 0.9375 -3.21875 4.15625q-2.25 3.234375 -3.234375 5.09375q-0.21875 0.484375 -0.546875 0.59375q-0.15625 0.171875 -0.703125 0.125q-0.390625 0.046875 -0.546875 -0.125q-0.171875 -0.109375 -0.328125 -0.4375q-0.546875 -1.3125 -0.828125 -2.234375z" fill-rule="nonzero"></path><path fill="#b4a7d6" d="m317.4951 178.3924l48.881866 0l0 34.45668l-48.881866 0z" fill-rule="nonzero"></path><path stroke="#000000" stroke-width="1.0" stroke-linejoin="round" stroke-linecap="butt" d="m317.4951 178.3924l48.881866 0l0 34.45668l-48.881866 0z" fill-rule="nonzero"></path><path fill="#000000" d="m343.5493 192.78261q-0.265625 -0.0625 -0.734375 -0.0625q-0.453125 0 -1.859375 0.125l-0.3125 1.6875q1.75 0.046875 2.625 0.765625q0.890625 0.703125 0.890625 1.765625q0 1.046875 -0.953125 1.90625q-0.953125 0.859375 -2.453125 0.859375q-0.515625 0 -1.03125 -0.109375l0.03125 -0.484375q0.453125 0.046875 0.75 0.046875q1.203125 0 1.90625 -0.59375q0.703125 -0.609375 0.703125 -1.4375q0 -0.84375 -0.765625 -1.421875q-0.75 -0.59375 -2.171875 -0.59375l-0.125 -0.421875l0.515625 -2.6875l3.359375 -0.359375l0.0625 0.171875l-0.4375 0.84375z" fill-rule="nonzero"></path><path fill="#d9d9d9" d="m156.9229 212.71967l160.56694 0l0 34.456696l-160.56694 0z" fill-rule="nonzero"></path><path stroke="#000000" stroke-width="1.0" stroke-linejoin="round" stroke-linecap="butt" d="m156.9229 212.71967l160.56694 0l0 34.456696l-160.56694 0z" fill-rule="nonzero"></path><path fill="#000000" d="m215.50807 233.28175q1.03125 0 1.6875 -0.421875q0.65625 -0.421875 0.875 -1.15625l0.296875 0.140625q-0.109375 0.390625 -0.25 1.46875q-1.359375 0.5 -2.65625 0.5q-1.796875 0 -2.859375 -0.984375q-1.046875 -0.984375 -1.046875 -2.71875q0 -1.75 1.046875 -2.90625q1.046875 -1.15625 2.859375 -1.15625q0.5 0 1.125 0.09375q0.625 0.078125 0.859375 0.078125q0.234375 0 0.5 -0.0625l0 0.15625q0 0.8125 0.125 1.5625l-0.296875 0.125q-0.4375 -1.4375 -2.328125 -1.4375q-1.09375 0 -1.890625 0.78125q-0.390625 0.375 -0.625 1.015625q-0.21875 0.640625 -0.21875 1.375q0 0.734375 0.140625 1.328125q0.15625 0.59375 0.46875 1.109375q0.328125 0.5 0.890625 0.8125q0.5625 0.296875 1.296875 0.296875zm5.6000824 0.4375q-0.53125 -0.03125 -1.21875 -0.03125q-0.6875 0 -1.203125 0.03125l0.03125 -0.3125q0.203125 -0.03125 0.4375 -0.09375q0.234375 -0.078125 0.25 -0.15625q0.078125 -0.71875 0.078125 -2.75q0 -3.3125 -0.0625 -3.875l-0.03125 -0.1875l-0.703125 -0.203125l-0.015625 -0.28125q0.703125 0 1.453125 -0.203125l0.203125 0.09375q-0.015625 1.296875 -0.015625 3.515625q1.21875 -0.640625 2.203125 -0.640625q0.546875 0 0.828125 0.21875q0.28125 0.21875 0.28125 0.828125l0 1.5q0 1.421875 0.09375 1.84375l0.03125 0.140625q0 0.078125 0.234375 0.15625q0.234375 0.0625 0.46875 0.09375l-0.046875 0.3125q-0.515625 -0.03125 -1.203125 -0.03125q-0.6875 0 -1.203125 0.03125l0.03125 -0.3125q0.203125 -0.03125 0.4375 -0.09375q0.234375 -0.078125 0.25 -0.15625q0.09375 -0.375 0.09375 -1.984375l0 -1.078125q0 -0.421875 -0.265625 -0.578125q-0.25 -0.171875 -0.609375 -0.171875q-0.34375 0 -0.5625 0.03125q-0.203125 0.015625 -0.375 0.0625q-0.453125 0.125 -0.578125 0.1875l-0.109375 0.03125q0 3.265625 0.125 3.5q0 0.078125 0.234375 0.15625q0.25 0.0625 0.46875 0.09375l-0.03125 0.3125zm7.0399933 -3.546875q0 -0.515625 -0.296875 -0.75q-0.28125 -0.25 -0.625 -0.25q-0.515625 0 -0.890625 0.40625q-0.375 0.40625 -0.5 1.0l2.28125 -0.09375q0.03125 -0.15625 0.03125 -0.3125zm-0.953125 3.609375q-1.171875 0 -1.765625 -0.65625q-0.59375 -0.671875 -0.59375 -1.765625q0 -1.109375 0.65625 -1.921875q0.65625 -0.8125 1.96875 -0.8125q0.671875 0 1.171875 0.484375q0.5 0.46875 0.5 1.40625l-0.375 0.4375q-0.0625 0 -1.03125 0q-0.96875 0 -1.953125 0.078125l0 0.09375q0 1.0 0.40625 1.5q0.421875 0.5 1.140625 0.5q0.734375 0 1.546875 -0.34375l0.125 0.328125q-0.84375 0.671875 -1.796875 0.671875zm6.750641 -0.71875q-0.90625 0.71875 -1.984375 0.71875q-1.078125 0 -1.671875 -0.671875q-0.578125 -0.6875 -0.578125 -1.78125q0 -1.09375 0.671875 -1.890625q0.6875 -0.8125 1.890625 -0.8125q0.5 0 0.890625 0.171875q0.390625 0.15625 0.546875 0.328125q0.171875 0.15625 0.171875 0.25q0 0.4375 -0.265625 0.796875l-0.265625 0q-0.125 -0.359375 -0.4375 -0.65625q-0.3125 -0.296875 -0.8125 -0.296875q-0.6875 0 -1.0625 0.609375q-0.359375 0.609375 -0.359375 1.5q0 0.890625 0.421875 1.359375q0.4375 0.453125 1.203125 0.453125q0.78125 0 1.515625 -0.4375l0.125 0.359375zm2.7207642 0.65625q-0.53125 -0.03125 -1.21875 -0.03125q-0.6875 0 -1.203125 0.03125l0.03125 -0.3125q0.203125 -0.03125 0.4375 -0.09375q0.234375 -0.078125 0.25 -0.15625q0.09375 -0.71875 0.09375 -2.75q0 -3.3125 -0.0625 -3.875l-0.015625 -0.1875l-0.703125 -0.203125l-0.03125 -0.28125q0.703125 0 1.453125 -0.203125l0.21875 0.09375q-0.03125 1.375 -0.03125 4.0625l0 0.890625l1.765625 -1.328125q0.078125 -0.0625 0.078125 -0.125q0 -0.25 -0.65625 -0.265625l0.03125 -0.3125q0.671875 0.03125 1.15625 0.03125q0.484375 0 1.15625 -0.03125l0.03125 0.3125q-0.671875 0.109375 -1.15625 0.453125l-1.40625 1.046875l2.109375 2.734375q0.109375 0.125 0.421875 0.15625q0.0625 0 0.171875 0.015625q0.109375 0.015625 0.140625 0.015625l-0.03125 0.3125q-0.625 0 -1.421875 0.0625l-2.03125 -2.828125l-0.34375 0.25q0.03125 1.25 0.09375 1.953125q0 0.078125 0.234375 0.15625q0.25 0.0625 0.46875 0.09375l-0.03125 0.3125zm5.6968384 -0.515625q0.890625 0 1.328125 -0.578125q0.4375 -0.59375 0.4375 -1.40625q0 -0.8125 -0.390625 -1.34375q-0.375 -0.546875 -1.125 -0.546875q-0.296875 0 -0.6875 0.109375q-0.390625 0.109375 -0.578125 0.21875l0 3.359375q0.53125 0.1875 1.015625 0.1875zm-0.203125 3.375q-0.53125 -0.03125 -1.28125 -0.03125q-0.75 0 -1.265625 0.03125l0.03125 -0.3125q0.734375 -0.0625 0.75 -0.21875q0.140625 -0.625 0.140625 -2.671875q0 -3.296875 -0.078125 -3.859375l-0.015625 -0.1875l-0.703125 -0.203125l-0.015625 -0.28125q0.6875 0 1.4375 -0.203125l0.203125 0.09375l0 0.546875q0.859375 -0.65625 1.75 -0.65625q0.890625 0 1.4375 0.59375q0.5625 0.59375 0.5625 1.875q0 1.265625 -0.703125 1.984375q-0.6875 0.703125 -1.6875 0.703125q-0.734375 0 -1.375 -0.34375q0.015625 2.46875 0.078125 2.609375q0.015625 0.15625 0.765625 0.21875l-0.03125 0.3125zm6.1464996 -7.40625q-0.453125 0 -0.78125 0.234375q-0.328125 0.21875 -0.484375 0.546875q-0.296875 0.625 -0.296875 1.203125q0 0.90625 0.359375 1.515625q0.359375 0.59375 1.140625 0.59375q0.421875 0 0.734375 -0.1875q0.328125 -0.203125 0.5 -0.515625q0.3125 -0.5625 0.328125 -1.140625q0 -2.25 -1.5 -2.25zm0.046875 -0.546875q1.265625 0 1.828125 0.640625q0.578125 0.640625 0.578125 1.78125q0 1.140625 -0.65625 1.9375q-0.65625 0.796875 -1.90625 0.796875q-1.25 0 -1.828125 -0.625q-0.578125 -0.640625 -0.578125 -1.765625q0 -1.140625 0.65625 -1.953125q0.65625 -0.8125 1.90625 -0.8125zm4.574707 -1.296875q-0.15625 0.171875 -0.40625 0.171875q-0.234375 0 -0.40625 -0.171875q-0.15625 -0.171875 -0.15625 -0.421875q0 -0.25 0.15625 -0.40625q0.171875 -0.171875 0.40625 -0.171875q0.25 0 0.40625 0.171875q0.171875 0.15625 0.171875 0.40625q0 0.25 -0.171875 0.421875zm0.0625 1.40625l-0.03125 2.4375q0 1.421875 0.09375 1.84375l0.015625 0.140625q0.015625 0.078125 0.28125 0.15625q0.28125 0.0625 0.5 0.09375l-0.03125 0.3125q-0.53125 -0.03125 -1.296875 -0.03125q-0.75 0 -1.28125 0.03125l0.046875 -0.3125q0.21875 -0.03125 0.484375 -0.09375q0.265625 -0.078125 0.28125 -0.15625q0.09375 -0.375 0.09375 -1.53125q0 -1.875 -0.09375 -2.296875l-0.703125 -0.203125l-0.03125 -0.28125q0.703125 0 1.453125 -0.203125l0.21875 0.09375zm2.8523712 0.921875l-0.015625 1.515625q0 1.421875 0.09375 1.84375l0.015625 0.140625q0.015625 0.078125 0.24998474 0.15625q0.234375 0.0625 0.453125 0.09375l-0.03125 0.3125q-0.53125 -0.03125 -1.2187347 -0.03125q-0.671875 0 -1.203125 0.03125l0.03125 -0.3125q0.21875 -0.03125 0.453125 -0.09375q0.234375 -0.078125 0.25 -0.15625q0.078125 -0.375 0.078125 -1.53125q0 -1.875 -0.078125 -2.296875l-0.703125 -0.203125l-0.03125 -0.28125q0.703125 0 1.453125 -0.203125l0.203125 0.09375l0 0.53125q1.2343597 -0.640625 2.1249847 -0.640625q0.5625 0 0.84375 0.21875q0.28125 0.21875 0.28125 0.828125l0 1.5q0 1.421875 0.078125 1.84375l0.03125 0.140625q0.015625 0.078125 0.25 0.15625q0.234375 0.0625 0.453125 0.09375l-0.03125 0.3125q-0.53125 -0.03125 -1.21875 -0.03125q-0.671875 0 -1.203125 0.03125l0.03125 -0.3125q0.21875 -0.03125 0.453125 -0.09375q0.234375 -0.078125 0.25 -0.15625q0.078125 -0.375 0.078125 -1.984375l0 -1.078125q0 -0.421875 -0.25 -0.578125q-0.25 -0.171875 -0.859375 -0.171875q-0.59375 0 -1.3124847 0.3125zm6.2019196 4.125q-1.140625 0 -1.140625 -1.09375q0.015625 -0.96875 0.015625 -1.78125q0 -0.8125 -0.03125 -1.6875l-0.703125 0.015625l-0.03125 -0.125l0.25 -0.421875q0.15625 0.03125 0.46875 0.03125l-0.046875 -1.0l0.734375 -0.65625l0.203125 0.109375q-0.015625 0.8125 -0.015625 1.546875l1.609375 -0.015625l0.0625 0.140625l-0.40625 0.4375q-0.375 -0.046875 -1.265625 -0.0625l0 1.484375q0 1.375 0.03125 1.96875q0.03125 0.484375 0.578125 0.484375q0.4375 0 0.96875 -0.25l0.125 0.359375q-0.78125 0.515625 -1.40625 0.515625z" fill-rule="nonzero"></path><path fill="#93c47d" d="m366.37695 212.71967l52.59845 0l0 34.456696l-52.59845 0z" fill-rule="nonzero"></path><path stroke="#000000" stroke-width="1.0" stroke-linejoin="round" stroke-linecap="butt" d="m366.37695 212.71967l52.59845 0l0 34.456696l-52.59845 0z" fill-rule="nonzero"></path><path fill="#333333" d="m387.97305 232.15363q0 -0.21875 -0.046875 -0.390625q0 -0.484375 0.65625 -0.875q0.4375 -0.21875 0.65625 -0.21875q0.265625 0.0625 0.375 0.328125q0.328125 0.765625 0.4375 1.046875q0.109375 0.21875 0.21875 0.21875q0.109375 0 0.21875 -0.171875q1.859375 -3.28125 3.34375 -5.078125q1.140625 -1.375 1.421875 -1.59375q0.875 -0.65625 2.078125 -0.703125l0.046875 0.265625q-0.921875 0.9375 -3.21875 4.15625q-2.25 3.234375 -3.234375 5.09375q-0.21875 0.484375 -0.546875 0.59375q-0.15625 0.171875 -0.703125 0.125q-0.390625 0.046875 -0.546875 -0.125q-0.171875 -0.109375 -0.328125 -0.4375q-0.546875 -1.3125 -0.828125 -2.234375z" fill-rule="nonzero"></path><path fill="#b4a7d6" d="m317.4951 212.71967l48.881866 0l0 34.456696l-48.881866 0z" fill-rule="nonzero"></path><path stroke="#000000" stroke-width="1.0" stroke-linejoin="round" stroke-linecap="butt" d="m317.4951 212.71967l48.881866 0l0 34.456696l-48.881866 0z" fill-rule="nonzero"></path><path fill="#000000" d="m342.34653 229.938q0.890625 0 1.390625 0.546875q0.515625 0.546875 0.515625 1.328125q0 0.78125 -0.578125 1.375q-0.5625 0.59375 -1.609375 0.59375q-1.046875 0 -1.71875 -0.765625q-0.671875 -0.765625 -0.671875 -1.90625q0 -0.859375 0.40625 -1.734375q0.40625 -0.875 1.375 -1.765625q0.96875 -0.890625 2.40625 -1.53125l0.1875 0.375q-1.125 0.53125 -1.890625 1.375q-1.40625 1.546875 -1.40625 3.390625q0 0.875 0.34375 1.4375q0.34375 0.5625 0.90625 0.5625q0.5625 0 0.859375 -0.40625q0.296875 -0.421875 0.296875 -1.0q0 -0.59375 -0.3125 -0.984375q-0.3125 -0.40625 -0.84375 -0.40625q-0.265625 0 -0.59375 0.125l-0.046875 -0.4375q0.515625 -0.171875 0.984375 -0.171875z" fill-rule="nonzero"></path><path fill="#f9cb9c" d="m156.9507 245.1273l160.56691 0l0 34.45668l-160.56691 0z" fill-rule="nonzero"></path><path stroke="#000000" stroke-width="1.0" stroke-linejoin="round" stroke-linecap="butt" d="m156.9507 245.1273l160.56691 0l0 34.45668l-160.56691 0z" fill-rule="nonzero"></path><path fill="#000000" d="m217.72043 265.6894q1.03125 0 1.6875 -0.421875q0.65625 -0.421875 0.875 -1.15625l0.296875 0.140625q-0.109375 0.390625 -0.25 1.46875q-1.359375 0.5 -2.65625 0.5q-1.796875 0 -2.859375 -0.984375q-1.046875 -0.984375 -1.046875 -2.71875q0 -1.75 1.046875 -2.90625q1.046875 -1.15625 2.859375 -1.15625q0.5 0 1.125 0.09375q0.625 0.078125 0.859375 0.078125q0.234375 0 0.5 -0.0625l0 0.15625q0 0.8125 0.125 1.5625l-0.296875 0.125q-0.4375 -1.4375 -2.328125 -1.4375q-1.09375 0 -1.890625 0.78125q-0.390625 0.375 -0.625 1.015625q-0.21875 0.640625 -0.21875 1.375q0 0.734375 0.140625 1.328125q0.15625 0.59375 0.46875 1.109375q0.328125 0.5 0.890625 0.8125q0.5625 0.296875 1.296875 0.296875zm5.9125824 -4.109375q-0.453125 0 -0.78125 0.234375q-0.328125 0.21875 -0.484375 0.546875q-0.296875 0.625 -0.296875 1.203125q0 0.90625 0.359375 1.515625q0.359375 0.59375 1.140625 0.59375q0.421875 0 0.734375 -0.1875q0.328125 -0.203125 0.5 -0.515625q0.3125 -0.5625 0.328125 -1.140625q0 -2.25 -1.5 -2.25zm0.046875 -0.546875q1.265625 0 1.828125 0.640625q0.578125 0.640625 0.578125 1.78125q0 1.140625 -0.65625 1.9375q-0.65625 0.796875 -1.90625 0.796875q-1.25 0 -1.828125 -0.625q-0.578125 -0.640625 -0.578125 -1.765625q0 -1.140625 0.65625 -1.953125q0.65625 -0.8125 1.90625 -0.8125zm4.559082 1.03125l-0.015625 1.515625q0 1.421875 0.09375 1.84375l0.015625 0.140625q0.015625 0.078125 0.25 0.15625q0.234375 0.0625 0.453125 0.09375l-0.03125 0.3125q-0.53125 -0.03125 -1.21875 -0.03125q-0.671875 0 -1.203125 0.03125l0.03125 -0.3125q0.21875 -0.03125 0.453125 -0.09375q0.234375 -0.078125 0.25 -0.15625q0.078125 -0.375 0.078125 -1.53125q0 -1.875 -0.078125 -2.296875l-0.703125 -0.203125l-0.03125 -0.28125q0.703125 0 1.453125 -0.203125l0.203125 0.09375l0 0.53125q1.234375 -0.640625 2.125 -0.640625q0.5625 0 0.84375 0.21875q0.28125 0.21875 0.28125 0.828125l0 1.5q0 1.421875 0.078125 1.84375l0.03125 0.140625q0.015625 0.078125 0.25 0.15625q0.234375 0.0625 0.453125 0.09375l-0.03125 0.3125q-0.53125 -0.03125 -1.21875 -0.03125q-0.671875 0 -1.203125 0.03125l0.03125 -0.3125q0.21875 -0.03125 0.453125 -0.09375q0.234375 -0.078125 0.25 -0.15625q0.078125 -0.375 0.078125 -1.984375l0 -1.078125q0 -0.421875 -0.25 -0.578125q-0.25 -0.171875 -0.859375 -0.171875q-0.59375 0 -1.3125 0.3125zm7.46756 -0.828125l0.15625 0.078125q0 0.71875 0.0625 1.078125l-0.28125 0.109375q-0.140625 -0.5625 -0.40625 -0.78125q-0.25 -0.21875 -0.65625 -0.21875q-0.390625 0 -0.625 0.203125q-0.21875 0.203125 -0.21875 0.5q0 0.484375 0.5625 0.8125l1.125 0.609375q0.71875 0.40625 0.71875 1.1875q0 0.5625 -0.453125 0.96875q-0.4375 0.40625 -1.265625 0.40625q-0.8125 0 -1.6875 -0.265625q0.140625 -0.78125 0.140625 -1.265625l0.28125 -0.109375q0.09375 0.40625 0.140625 0.546875q0.0625 0.140625 0.1875 0.359375q0.125 0.203125 0.3125 0.265625q0.203125 0.0625 0.578125 0.0625q0.390625 0 0.640625 -0.21875q0.265625 -0.21875 0.265625 -0.53125q0 -0.453125 -0.515625 -0.734375l-1.1875 -0.671875q-0.734375 -0.375 -0.734375 -1.171875q0 -0.5625 0.421875 -0.984375q0.4375 -0.4375 1.203125 -0.4375q0.78125 0 1.234375 0.203125zm4.3832245 1.34375q0 -0.515625 -0.296875 -0.75q-0.28125 -0.25 -0.625 -0.25q-0.515625 0 -0.890625 0.40625q-0.375 0.40625 -0.5 1.0l2.28125 -0.09375q0.03125 -0.15625 0.03125 -0.3125zm-0.953125 3.609375q-1.171875 0 -1.765625 -0.65625q-0.59375 -0.671875 -0.59375 -1.765625q0 -1.109375 0.65625 -1.921875q0.65625 -0.8125 1.96875 -0.8125q0.671875 0 1.171875 0.484375q0.5 0.46875 0.5 1.40625l-0.375 0.4375q-0.0625 0 -1.03125 0q-0.96875 0 -1.953125 0.078125l0 0.09375q0 1.0 0.40625 1.5q0.421875 0.5 1.140625 0.5q0.734375 0 1.546875 -0.34375l0.125 0.328125q-0.84375 0.671875 -1.796875 0.671875zm4.031891 -4.125l-0.015625 1.515625q0 1.421875 0.09375 1.84375l0.015625 0.140625q0.015625 0.078125 0.25 0.15625q0.234375 0.0625 0.453125 0.09375l-0.03125 0.3125q-0.53125 -0.03125 -1.21875 -0.03125q-0.671875 0 -1.203125 0.03125l0.03125 -0.3125q0.21875 -0.03125 0.453125 -0.09375q0.234375 -0.078125 0.25 -0.15625q0.078125 -0.375 0.078125 -1.53125q0 -1.875 -0.078125 -2.296875l-0.703125 -0.203125l-0.03125 -0.28125q0.703125 0 1.453125 -0.203125l0.203125 0.09375l0 0.53125q1.234375 -0.640625 2.125 -0.640625q0.5625 0 0.84375 0.21875q0.28125 0.21875 0.28125 0.828125l0 1.5q0 1.421875 0.078125 1.84375l0.03125 0.140625q0.015625 0.078125 0.25 0.15625q0.234375 0.0625 0.453125 0.09375l-0.03125 0.3125q-0.53125 -0.03125 -1.21875 -0.03125q-0.671875 0 -1.203125 0.03125l0.03125 -0.3125q0.21875 -0.03125 0.453125 -0.09375q0.234375 -0.078125 0.25 -0.15625q0.078125 -0.375 0.078125 -1.984375l0 -1.078125q0 -0.421875 -0.25 -0.578125q-0.25 -0.171875 -0.859375 -0.171875q-0.59375 0 -1.3125 0.3125zm7.46756 -0.828125l0.15625 0.078125q0 0.71875 0.0625 1.078125l-0.28125 0.109375q-0.140625 -0.5625 -0.40625 -0.78125q-0.25 -0.21875 -0.65625 -0.21875q-0.390625 0 -0.625 0.203125q-0.21875 0.203125 -0.21875 0.5q0 0.484375 0.5625 0.8125l1.125 0.609375q0.71875 0.40625 0.71875 1.1875q0 0.5625 -0.453125 0.96875q-0.4375 0.40625 -1.265625 0.40625q-0.8125 0 -1.6875 -0.265625q0.140625 -0.78125 0.140625 -1.265625l0.28125 -0.109375q0.09375 0.40625 0.140625 0.546875q0.0625 0.140625 0.1875 0.359375q0.125 0.203125 0.3125 0.265625q0.203125 0.0625 0.578125 0.0625q0.390625 0 0.640625 -0.21875q0.265625 -0.21875 0.265625 -0.53125q0 -0.453125 -0.515625 -0.734375l-1.1875 -0.671875q-0.734375 -0.375 -0.734375 -1.171875q0 -0.5625 0.421875 -0.984375q0.4375 -0.4375 1.203125 -0.4375q0.78125 0 1.234375 0.203125zm2.7269745 4.953125q-1.125 0 -1.125 -1.140625l0 -1.46875q0 -1.484375 -0.078125 -1.84375l-0.65625 -0.203125l-0.015625 -0.28125q0.65625 0 1.390625 -0.203125l0.21875 0.09375q-0.03125 1.96875 -0.03125 3.578125q0 0.734375 0.890625 0.734375q0.375 0 0.796875 -0.125q0.4375 -0.125 0.6875 -0.28125q0.046875 -0.59375 0.046875 -1.390625q0 -1.5 -0.09375 -1.921875l-0.6875 -0.203125l-0.03125 -0.28125q0.703125 0 1.4531097 -0.203125l0.203125 0.09375q-0.03125 0.828125 -0.03125 2.734375l0.03125 1.28125q0 0.1875 0.140625 0.296875q0.15625 0.109375 0.296875 0.140625q0.15625 0.015625 0.40625 0.03125l-0.03125 0.3125q-0.40625 0.03125 -1.2031097 0.203125q-0.328125 -0.140625 -0.453125 -0.65625q-1.046875 0.703125 -2.125 0.703125zm7.204727 -4.953125l0.15625 0.078125q0 0.71875 0.0625 1.078125l-0.28125 0.109375q-0.140625 -0.5625 -0.40625 -0.78125q-0.25 -0.21875 -0.65625 -0.21875q-0.390625 0 -0.625 0.203125q-0.21875 0.203125 -0.21875 0.5q0 0.484375 0.5625 0.8125l1.125 0.609375q0.71875 0.40625 0.71875 1.1875q0 0.5625 -0.453125 0.96875q-0.4375 0.40625 -1.265625 0.40625q-0.8125 0 -1.6875 -0.265625q0.140625 -0.78125 0.140625 -1.265625l0.28125 -0.109375q0.09375 0.40625 0.140625 0.546875q0.0625 0.140625 0.1875 0.359375q0.125 0.203125 0.3125 0.265625q0.203125 0.0625 0.578125 0.0625q0.390625 0 0.640625 -0.21875q0.265625 -0.21875 0.265625 -0.53125q0 -0.453125 -0.515625 -0.734375l-1.1875 -0.671875q-0.734375 -0.375 -0.734375 -1.171875q0 -0.5625 0.421875 -0.984375q0.4375 -0.4375 1.203125 -0.4375q0.78125 0 1.234375 0.203125z" fill-rule="nonzero"></path><path fill="#93c47d" d="m366.40475 245.1273l52.59842 0l0 34.45668l-52.59842 0z" fill-rule="nonzero"></path><path stroke="#000000" stroke-width="1.0" stroke-linejoin="round" stroke-linecap="butt" d="m366.40475 245.1273l52.59842 0l0 34.45668l-52.59842 0z" fill-rule="nonzero"></path><path fill="#333333" d="m381.00085 264.56128q0 -0.21875 -0.046875 -0.390625q0 -0.484375 0.65625 -0.875q0.4375 -0.21875 0.65625 -0.21875q0.265625 0.0625 0.375 0.328125q0.328125 0.765625 0.4375 1.046875q0.109375 0.21875 0.21875 0.21875q0.109375 0 0.21875 -0.171875q1.859375 -3.28125 3.34375 -5.078125q1.140625 -1.375 1.421875 -1.59375q0.875 -0.65625 2.078125 -0.703125l0.046875 0.265625q-0.921875 0.9375 -3.21875 4.15625q-2.25 3.234375 -3.234375 5.09375q-0.21875 0.484375 -0.546875 0.59375q-0.15625 0.171875 -0.703125 0.125q-0.390625 0.046875 -0.546875 -0.125q-0.171875 -0.109375 -0.328125 -0.4375q-0.546875 -1.3125 -0.828125 -2.234375zm14.0 0q0 -0.21875 -0.046875 -0.390625q0 -0.484375 0.65625 -0.875q0.4375 -0.21875 0.65625 -0.21875q0.265625 0.0625 0.375 0.328125q0.328125 0.765625 0.4375 1.046875q0.109375 0.21875 0.21875 0.21875q0.109375 0 0.21875 -0.171875q1.859375 -3.28125 3.34375 -5.078125q1.140625 -1.375 1.421875 -1.59375q0.875 -0.65625 2.078125 -0.703125l0.046875 0.265625q-0.921875 0.9375 -3.21875 4.15625q-2.25 3.234375 -3.234375 5.09375q-0.21875 0.484375 -0.546875 0.59375q-0.15625 0.171875 -0.703125 0.125q-0.390625 0.046875 -0.546875 -0.125q-0.171875 -0.109375 -0.328125 -0.4375q-0.546875 -1.3125 -0.828125 -2.234375z" fill-rule="nonzero"></path><path fill="#b4a7d6" d="m317.52286 245.1273l48.881897 0l0 34.45668l-48.881897 0z" fill-rule="nonzero"></path><path stroke="#000000" stroke-width="1.0" stroke-linejoin="round" stroke-linecap="butt" d="m317.52286 245.1273l48.881897 0l0 34.45668l-48.881897 0z" fill-rule="nonzero"></path><path fill="#000000" d="m342.95352 259.5019l-0.65625 0q-0.6875 0 -0.890625 0.046875q-0.203125 0.03125 -0.40625 0.09375q-0.203125 0.046875 -0.296875 0.140625q-0.078125 0.078125 -0.1875 0.203125q-0.140625 0.15625 -0.296875 0.65625l-0.296875 -0.140625q0.125 -0.734375 0.125 -1.78125q0.6875 0.046875 2.53125 0.046875q1.859375 0 2.0625 -0.015625l0.03125 0.328125l-3.109375 7.375l-1.0 -0.09375l3.171875 -6.609375q-0.03125 -0.25 -0.78125 -0.25z" fill-rule="nonzero"></path></g></svg>

