<svg version="1.1" viewBox="0.0 0.0 444.8556430446194 601.3517060367454" fill="none" stroke="none" stroke-linecap="square" stroke-miterlimit="10" xmlns:xlink="http://www.w3.org/1999/xlink" xmlns="http://www.w3.org/2000/svg"><clipPath id="p.0"><path d="m0 0l444.85565 0l0 601.3517l-444.85565 0l0 -601.3517z" clip-rule="nonzero"/></clipPath><g clip-path="url(#p.0)"><path fill="#000000" fill-opacity="0.0" d="m0 0l444.85565 0l0 601.3517l-444.85565 0z" fill-rule="evenodd"/><path fill="#cfe2f3" d="m24.818897 89.389725l0 0c0 -35.13819 28.48513 -63.62332 63.623318 -63.62332l254.48564 0l0 0c16.873962 0 33.056793 6.70315 44.988495 18.634836c11.931671 11.93169 18.634827 28.114529 18.634827 44.988483l0 432.21796c0 35.138184 -28.485138 63.62329 -63.62332 63.62329l-254.48564 0c-35.138187 0 -63.623318 -28.485107 -63.623318 -63.62329z" fill-rule="evenodd"/><path stroke="#000000" stroke-width="1.0" stroke-linejoin="round" stroke-linecap="butt" d="m24.818897 89.389725l0 0c0 -35.13819 28.48513 -63.62332 63.623318 -63.62332l254.48564 0l0 0c16.873962 0 33.056793 6.70315 44.988495 18.634836c11.931671 11.93169 18.634827 28.114529 18.634827 44.988483l0 432.21796c0 35.138184 -28.485138 63.62329 -63.62332 63.62329l-254.48564 0c-35.138187 0 -63.623318 -28.485107 -63.623318 -63.62329z" fill-rule="evenodd"/><path fill="#000000" d="m176.31282 54.01556q0.03125 0.46875 1.0 0.765625q0.984375 0.28125 2.28125 0.28125q1.296875 0 2.171875 -0.109375q0.875 -0.109375 1.875 -0.53125q1.859375 -0.734375 2.8125 -3.671875l0.859375 0.375q-0.578125 1.765625 -0.765625 5.09375l-12.578125 0q-1.8125 0 -3.8437653 0.09375l-0.09375 -0.921875q1.6406403 -0.328125 2.2187653 -0.578125q0.578125 -0.25 0.640625 -0.796875q0.28125 -1.859375 0.28125 -6.828125q0 -8.0625 -0.1875 -10.046875l-0.0625 -0.640625q-0.0625 -0.5625 -0.578125 -0.796875q-0.515625 -0.25 -2.0468903 -0.578125l0.09375 -0.921875q2.0156403 0.09375 4.2187653 0.09375q2.21875 0 4.234375 -0.09375l0.09375 0.921875q-1.546875 0.328125 -2.0625 0.578125q-0.5 0.234375 -0.5625 0.796875q-0.265625 1.890625 -0.265625 6.859375q0 8.03125 0.203125 9.984375l0.0625 0.671875zm22.200653 -8.03125q0 -1.484375 -0.828125 -2.203125q-0.828125 -0.71875 -1.859375 -0.71875q-1.5 0 -2.59375 1.1875q-1.078125 1.1875 -1.4375 2.90625l6.625 -0.25q0.09375 -0.484375 0.09375 -0.921875zm-2.78125 10.515625q-3.390625 0 -5.125 -1.921875q-1.71875 -1.9375 -1.71875 -5.15625q0 -3.21875 1.890625 -5.5625q1.90625 -2.359375 5.75 -2.359375q1.953125 0 3.40625 1.375q1.46875 1.375 1.46875 4.09375l-1.09375 1.3125q-0.1875 -0.03125 -3.03125 -0.03125q-2.828125 0 -5.671875 0.21875l0 0.296875q0 2.90625 1.21875 4.375q1.21875 1.453125 3.328125 1.453125q2.109375 0 4.4375 -1.03125l0.390625 0.953125q-2.46875 1.984375 -5.25 1.984375zm18.7193 -2.078125q-2.203125 2.078125 -4.828125 2.078125q-2.625 0 -4.3125 -1.890625q-1.671875 -1.90625 -1.671875 -5.4375q0 -3.546875 2.0 -5.625q2.0 -2.078125 4.9375 -2.078125q1.609375 0 3.84375 1.125q0 -5.921875 -0.1875 -7.265625l-0.0625 -0.453125l-2.046875 -0.609375l-0.078125 -0.828125q2.0625 0 4.234375 -0.578125l0.609375 0.28125q-0.0625 4.0 -0.0625 11.328125q0 7.328125 0.0625 8.390625q0.0625 1.0625 0.265625 1.328125q0.203125 0.265625 0.625 0.40625q0.671875 0.1875 1.5625 0.25l-0.09375 0.921875q-1.140625 0.09375 -3.484375 0.578125q-0.953125 -0.40625 -1.3125 -1.921875zm-3.03125 -11.0q-2.53125 0 -3.734375 1.65625q-1.203125 1.640625 -1.203125 4.078125q0 2.421875 1.046875 3.875q1.0625 1.453125 3.015625 1.453125q1.953125 0 3.71875 -1.109375q0.15625 -2.5625 0.15625 -9.375q-1.65625 -0.578125 -3.0 -0.578125zm22.267395 -3.078125q0.25 0 0.84375 0.75q0.59375 0.75 0.78125 1.5l-0.46875 0.59375q-0.578125 -0.28125 -1.390625 -0.28125q-0.796875 0 -1.5 0.359375q1.125 1.375 1.125 3.609375q0 2.234375 -1.46875 3.828125q-1.46875 1.578125 -4.359375 1.578125q-0.734375 0 -1.40625 -0.09375q-1.1875 1.53125 -1.1875 2.109375q0 0.734375 2.078125 0.734375l2.40625 0q6.046875 0 6.046875 3.90625q0 2.171875 -2.421875 3.9375q-2.40625 1.7656288 -6.46875 1.7656288q-2.375 0 -4.109375 -0.7968788q-1.71875 -0.78125 -1.71875 -2.21875q0 -2.046875 3.296875 -4.703125q-2.015625 -0.453125 -2.015625 -1.53125q0 -1.09375 2.875 -3.421875q-3.234375 -1.03125 -3.234375 -5.15625q0 -2.109375 1.484375 -3.6875q1.5 -1.59375 4.203125 -1.59375q2.703125 0 4.046875 0.953125q0.390625 -0.609375 1.1875 -1.375q0.796875 -0.765625 1.375 -0.765625zm-10.53125 20.234375q0 1.234375 0.921875 2.0q0.9375 0.78125 3.046875 0.78125q2.109375 0 3.734375 -1.328125q1.640625 -1.328125 1.640625 -2.84375q0 -0.953125 -0.828125 -1.5625q-0.828125 -0.609375 -2.59375 -0.609375l-4.328125 0q-1.59375 1.796875 -1.59375 3.5625zm4.125 -17.734375q-0.921875 0 -1.609375 0.4375q-0.6875 0.421875 -1.015625 1.09375q-0.546875 1.28125 -0.546875 2.71875q0 1.4375 0.71875 2.65625q0.734375 1.21875 2.328125 1.21875q1.15625 0 1.90625 -0.6875q0.75 -0.6875 0.984375 -1.421875q0.25 -0.734375 0.28125 -1.53125q0 -4.484375 -3.046875 -4.484375zm19.008179 3.140625q0 -1.484375 -0.828125 -2.203125q-0.828125 -0.71875 -1.859375 -0.71875q-1.5 0 -2.59375 1.1875q-1.078125 1.1875 -1.4375 2.90625l6.625 -0.25q0.09375 -0.484375 0.09375 -0.921875zm-2.78125 10.515625q-3.390625 0 -5.125 -1.921875q-1.71875 -1.9375 -1.71875 -5.15625q0 -3.21875 1.890625 -5.5625q1.90625 -2.359375 5.75 -2.359375q1.953125 0 3.40625 1.375q1.46875 1.375 1.46875 4.09375l-1.09375 1.3125q-0.1875 -0.03125 -3.03125 -0.03125q-2.828125 0 -5.671875 0.21875l0 0.296875q0 2.90625 1.21875 4.375q1.21875 1.453125 3.328125 1.453125q2.109375 0 4.4375 -1.03125l0.390625 0.953125q-2.46875 1.984375 -5.25 1.984375zm16.859879 -15.1875q0.265625 0 0.84375 0.75q0.59375 0.75 0.796875 1.484375l-0.484375 0.609375q-1.15625 -0.453125 -2.40625 -0.453125q-1.234375 0 -2.265625 1.046875q-1.0312347 1.03125 -1.0312347 3.34375q0.046875 5.625 0.29685974 6.5625q0.03125 0.25 0.90625 0.46875q0.890625 0.203125 1.84375 0.265625l-0.09375 0.921875q-1.53125 -0.09375 -3.8906097 -0.09375q-2.34375 0 -3.890625 0.09375l0.09375 -0.921875q0.640625 -0.0625 1.34375 -0.265625q0.703125 -0.21875 0.75 -0.4375q0.25 -1.125 0.25 -4.484375q0 -5.4375 -0.25 -6.65625l-2.0625 -0.609375l-0.0625 -0.828125q2.046875 0 4.234375 -0.578125l0.609375 0.28125q-0.078125 0.484375 -0.078125 2.625q0.93748474 -1.53125 2.3593597 -2.328125q1.421875 -0.796875 2.1875 -0.796875z" fill-rule="nonzero"/><path fill="#93c47d" d="m73.16273 133.93271l0 0c0 -26.434814 21.429657 -47.864464 47.86448 -47.864464l191.45216 0l0 0c12.6944275 0 24.868958 5.0428467 33.845276 14.01918c8.976349 8.976326 14.019196 21.15084 14.019196 33.845284l0 256.86948c0 26.434814 -21.429657 47.86447 -47.86447 47.86447l-191.45216 0c-26.434822 0 -47.86448 -21.429657 -47.86448 -47.86447z" fill-rule="evenodd"/><path stroke="#000000" stroke-width="1.0" stroke-linejoin="round" stroke-linecap="butt" d="m73.16273 133.93271l0 0c0 -26.434814 21.429657 -47.864464 47.86448 -47.864464l191.45216 0l0 0c12.6944275 0 24.868958 5.0428467 33.845276 14.01918c8.976349 8.976326 14.019196 21.15084 14.019196 33.845284l0 256.86948c0 26.434814 -21.429657 47.86447 -47.86447 47.86447l-191.45216 0c-26.434822 0 -47.86448 -21.429657 -47.86448 -47.86447z" fill-rule="evenodd"/><path fill="#000000" d="m147.74051 109.751205q0.03125 0.359375 0.75 0.578125q0.734375 0.21875 1.703125 0.21875q0.984375 0 1.640625 -0.078125q0.65625 -0.09375 1.40625 -0.40625q1.390625 -0.546875 2.109375 -2.765625l0.640625 0.296875q-0.421875 1.3125 -0.5625 3.8125l-9.4375 0q-1.375 0 -2.875 0.078125l-0.078125 -0.703125q1.21875 -0.234375 1.65625 -0.421875q0.4375 -0.203125 0.484375 -0.609375q0.21875 -1.390625 0.21875 -5.109375q0 -6.046875 -0.15625 -7.53125l-0.046875 -0.484375q-0.046875 -0.4375 -0.4375 -0.609375q-0.375 -0.1875 -1.53125 -0.421875l0.078125 -0.703125q1.515625 0.078125 3.171875 0.078125q1.65625 0 3.15625 -0.078125l0.078125 0.703125q-1.15625 0.234375 -1.546875 0.421875q-0.375 0.171875 -0.421875 0.609375q-0.1875 1.40625 -0.1875 5.140625q0 6.015625 0.140625 7.484375l0.046875 0.5zm16.654327 -6.03125q0 -1.09375 -0.625 -1.625q-0.625 -0.546875 -1.390625 -0.546875q-1.125 0 -1.9375 0.890625q-0.8125 0.875 -1.078125 2.171875l4.96875 -0.1875q0.0625 -0.359375 0.0625 -0.703125zm-2.078125 7.90625q-2.546875 0 -3.84375 -1.453125q-1.296875 -1.453125 -1.296875 -3.859375q0 -2.421875 1.421875 -4.1875q1.4375 -1.765625 4.3125 -1.765625q1.46875 0 2.546875 1.046875q1.09375 1.03125 1.09375 3.0625l-0.8125 0.984375q-0.140625 -0.015625 -2.265625 -0.015625q-2.125 0 -4.265625 0.15625l0 0.21875q0 2.1875 0.90625 3.28125q0.921875 1.09375 2.5 1.09375q1.59375 0 3.34375 -0.765625l0.28125 0.71875q-1.84375 1.484375 -3.921875 1.484375zm14.031586 -1.5625q-1.65625 1.5625 -3.625 1.5625q-1.96875 0 -3.234375 -1.421875q-1.25 -1.4375 -1.25 -4.078125q0 -2.65625 1.5 -4.21875q1.5 -1.5625 3.703125 -1.5625q1.203125 0 2.890625 0.84375q0 -4.4375 -0.15625 -5.453125l-0.046875 -0.34375l-1.53125 -0.453125l-0.046875 -0.625q1.53125 0 3.171875 -0.421875l0.453125 0.21875q-0.046875 3.0 -0.046875 8.5q0 5.484375 0.046875 6.28125q0.046875 0.78125 0.203125 1.0q0.15625 0.203125 0.46875 0.296875q0.5 0.140625 1.171875 0.1875l-0.078125 0.6875q-0.859375 0.078125 -2.609375 0.4375q-0.71875 -0.3125 -0.984375 -1.4375zm-2.28125 -8.25q-1.890625 0 -2.796875 1.234375q-0.890625 1.234375 -0.890625 3.0625q0 1.8125 0.78125 2.90625q0.796875 1.09375 2.25 1.09375q1.46875 0 2.796875 -0.84375q0.125 -1.921875 0.125 -7.03125q-1.25 -0.421875 -2.265625 -0.421875zm16.71222 -2.3125q0.1875 0 0.625 0.5625q0.453125 0.5625 0.59375 1.125l-0.359375 0.453125q-0.4375 -0.21875 -1.046875 -0.21875q-0.59375 0 -1.109375 0.265625q0.828125 1.03125 0.828125 2.71875q0 1.671875 -1.109375 2.859375q-1.09375 1.1875 -3.25 1.1875q-0.546875 0 -1.0625 -0.078125q-0.890625 1.15625 -0.890625 1.59375q0 0.546875 1.5625 0.546875l1.8125 0q4.53125 0 4.53125 2.9375q0 1.625 -1.8125 2.9375q-1.8125 1.328125 -4.859375 1.328125q-1.78125 0 -3.078125 -0.59375q-1.296875 -0.578125 -1.296875 -1.65625q0 -1.546875 2.46875 -3.53125q-1.5 -0.34375 -1.5 -1.15625q0 -0.8125 2.15625 -2.5625q-2.421875 -0.765625 -2.421875 -3.875q0 -1.578125 1.109375 -2.765625q1.125 -1.1875 3.140625 -1.1875q2.03125 0 3.046875 0.71875q0.28125 -0.453125 0.875 -1.03125q0.609375 -0.578125 1.046875 -0.578125zm-7.90625 15.171875q0 0.9375 0.6875 1.515625q0.703125 0.578125 2.28125 0.578125q1.59375 0 2.8125 -1.0q1.234375 -1.0 1.234375 -2.125q0 -0.71875 -0.625 -1.1875q-0.625 -0.453125 -1.953125 -0.453125l-3.234375 0q-1.203125 1.34375 -1.203125 2.671875zm3.09375 -13.296875q-0.6875 0 -1.203125 0.328125q-0.515625 0.3125 -0.765625 0.828125q-0.40625 0.953125 -0.40625 2.03125q0 1.078125 0.53125 2.0q0.546875 0.90625 1.75 0.90625q0.875 0 1.4375 -0.515625q0.5625 -0.515625 0.734375 -1.0625q0.1875 -0.5625 0.203125 -1.15625q0 -3.359375 -2.28125 -3.359375zm14.259964 2.34375q0 -1.09375 -0.625 -1.625q-0.625 -0.546875 -1.390625 -0.546875q-1.125 0 -1.9375 0.890625q-0.8125 0.875 -1.078125 2.171875l4.96875 -0.1875q0.0625 -0.359375 0.0625 -0.703125zm-2.078125 7.90625q-2.546875 0 -3.84375 -1.453125q-1.296875 -1.453125 -1.296875 -3.859375q0 -2.421875 1.421875 -4.1875q1.4375 -1.765625 4.3125 -1.765625q1.46875 0 2.546875 1.046875q1.09375 1.03125 1.09375 3.0625l-0.8125 0.984375q-0.140625 -0.015625 -2.265625 -0.015625q-2.125 0 -4.265625 0.15625l0 0.21875q0 2.1875 0.90625 3.28125q0.921875 1.09375 2.5 1.09375q1.59375 0 3.34375 -0.765625l0.28125 0.71875q-1.84375 1.484375 -3.921875 1.484375zm12.640961 -11.40625q0.1875 0 0.625 0.5625q0.453125 0.5625 0.59375 1.125l-0.359375 0.453125q-0.859375 -0.34375 -1.796875 -0.34375q-0.9375 0 -1.703125 0.78125q-0.765625 0.78125 -0.765625 2.515625q0.015625 4.21875 0.21875 4.921875q0.015625 0.1875 0.671875 0.34375q0.671875 0.15625 1.390625 0.203125l-0.078125 0.703125q-1.15625 -0.078125 -2.921875 -0.078125q-1.75 0 -2.90625 0.078125l0.078125 -0.703125q0.46875 -0.046875 1.0 -0.203125q0.53125 -0.15625 0.546875 -0.328125q0.203125 -0.828125 0.203125 -3.359375q0 -4.078125 -0.203125 -4.984375l-1.53125 -0.453125l-0.046875 -0.625q1.53125 0 3.171875 -0.4375l0.453125 0.21875q-0.046875 0.359375 -0.046875 1.96875q0.6875 -1.15625 1.75 -1.75q1.078125 -0.609375 1.65625 -0.609375zm11.547958 -5.25l4.03125 0q2.25 0 3.421875 1.109375q1.1875 1.09375 1.1875 2.734375q0 1.09375 -0.671875 2.09375q-0.671875 1.0 -1.859375 1.578125q1.90625 0.421875 2.734375 1.484375q0.84375 1.046875 0.84375 2.859375q0 1.796875 -1.515625 3.1875q-1.5 1.390625 -3.765625 1.390625l-4.40625 0q-1.875 0 -3.390625 0.078125l-0.0625 -0.703125q1.21875 -0.234375 1.640625 -0.421875q0.4375 -0.203125 0.484375 -0.609375q0.203125 -1.421875 0.203125 -5.140625q0 -6.015625 -0.15625 -7.5l-0.046875 -0.484375q-0.046875 -0.4375 -0.4375 -0.609375q-0.375 -0.1875 -1.53125 -0.421875l0.078125 -0.703125q1.515625 0.078125 3.21875 0.078125zm6.375 3.84375q0 -2.84375 -3.640625 -2.84375q-0.859375 0 -1.125 0.109375q-0.25 0.09375 -0.34375 0.421875q-0.265625 1.21875 -0.265625 6.078125q1.6875 -0.296875 3.578125 -0.296875q1.796875 -1.171875 1.796875 -3.46875zm-2.6875 11.734375q1.515625 0 2.609375 -1.0q1.109375 -1.015625 1.109375 -2.765625q0 -3.484375 -4.890625 -3.484375q-0.71875 0 -1.515625 0.0625q0 4.734375 0.203125 5.953125l0.0625 0.46875q0.21875 0.765625 2.421875 0.765625zm11.383331 -16.4375q-0.046875 3.0 -0.046875 8.78125q0 5.78125 0.265625 7.359375q0.015625 0.171875 0.609375 0.34375q0.609375 0.171875 1.0625 0.1875l-0.0625 0.703125q-1.15625 -0.078125 -2.796875 -0.078125q-1.625 0 -2.78125 0.078125l0.078125 -0.703125q0.5 -0.046875 1.0625 -0.203125q0.5625 -0.15625 0.59375 -0.328125q0.171875 -1.5625 0.171875 -6.0q0 -7.21875 -0.15625 -8.4375l-0.046875 -0.421875l-1.53125 -0.453125l-0.046875 -0.625q1.53125 0 3.171875 -0.421875l0.453125 0.21875zm8.73111 7.4375q-0.984375 0 -1.703125 0.5q-0.71875 0.484375 -1.0625 1.21875q-0.640625 1.375 -0.640625 2.625q0 1.96875 0.78125 3.28125q0.796875 1.296875 2.5 1.296875q0.921875 0 1.609375 -0.421875q0.703125 -0.421875 1.0625 -1.09375q0.6875 -1.25 0.75 -2.484375q0 -4.921875 -3.296875 -4.921875zm0.125 -1.1875q2.734375 0 3.984375 1.40625q1.25 1.390625 1.25 3.875q0 2.484375 -1.4375 4.234375q-1.421875 1.75 -4.15625 1.75q-2.734375 0 -3.984375 -1.375q-1.25 -1.390625 -1.25 -3.859375q0 -2.46875 1.421875 -4.25q1.4375 -1.78125 4.171875 -1.78125zm16.274078 9.671875q-2.0 1.59375 -4.359375 1.59375q-2.3437347 0 -3.6249847 -1.484375q-1.265625 -1.5 -1.265625 -3.875q0 -2.390625 1.46875 -4.140625q1.4843597 -1.765625 4.1249847 -1.765625q1.078125 0 1.921875 0.359375q0.859375 0.34375 1.21875 0.703125q0.359375 0.359375 0.359375 0.578125q0 0.953125 -0.5625 1.75l-0.578125 0q-0.296875 -0.796875 -0.984375 -1.4375q-0.671875 -0.65625 -1.75 -0.65625q-1.5 0 -2.3125 1.34375q-0.79685974 1.328125 -0.79685974 3.265625q0 1.921875 0.93748474 2.9375q0.9375 1.0 2.609375 1.0q1.6875 0 3.296875 -0.953125l0.296875 0.78125zm6.2413635 1.453125q-1.15625 -0.078125 -2.65625 -0.078125q-1.484375 0 -2.625 0.078125l0.0625 -0.703125q0.453125 -0.046875 0.96875 -0.203125q0.515625 -0.15625 0.546875 -0.328125q0.21875 -1.5625 0.21875 -6.0q0 -7.21875 -0.140625 -8.4375l-0.046875 -0.421875l-1.546875 -0.453125l-0.046875 -0.625q1.53125 0 3.171875 -0.421875l0.453125 0.21875q-0.046875 3.0 -0.046875 8.84375l0 1.921875l3.84375 -2.875q0.171875 -0.140625 0.171875 -0.296875q0 -0.515625 -1.453125 -0.546875l0.078125 -0.6875q1.484375 0.0625 2.53125 0.0625q1.0625 0 2.53125 -0.0625l0.078125 0.6875q-1.46875 0.21875 -2.546875 0.984375l-3.078125 2.28125l4.609375 5.953125q0.25 0.28125 0.921875 0.359375q0.140625 0 0.375 0.03125q0.25 0.015625 0.3125 0.015625l-0.0625 0.703125q-1.375 0 -3.109375 0.140625l-4.4375 -6.1875l-0.734375 0.546875q0.0625 2.734375 0.1875 4.265625q0.015625 0.171875 0.53125 0.328125q0.515625 0.15625 1.0 0.203125l-0.0625 0.703125zm19.001678 -15.984375q-0.09375 2.53125 -0.09375 6.265625q0 6.015625 0.140625 7.484375l0.046875 0.5q0.046875 0.40625 0.484375 0.609375q0.453125 0.1875 1.703125 0.421875l-0.078125 0.703125q-1.4375 -0.078125 -3.453125 -0.078125q-2.015625 0 -3.890625 0.078125l-0.0625 -0.703125q0.40625 -0.09375 0.890625 -0.171875q0.5 -0.09375 0.796875 -0.15625q0.296875 -0.078125 0.46875 -0.140625q0.171875 -0.0625 0.328125 -0.15625q0.3125 -0.140625 0.359375 -0.40625q0.171875 -1.421875 0.171875 -5.140625q0 -5.78125 -0.140625 -7.125l-0.03125 -0.375l-2.890625 -0.515625l-0.078125 -0.859375q3.0 0 4.828125 -0.484375l0.5 0.25z" fill-rule="nonzero"/><path fill="#93c47d" d="m73.16273 484.3545l0 0c0 -4.2647095 3.4572296 -7.7219543 7.721939 -7.7219543l271.7372 0c2.0480042 0 4.012085 0.8135681 5.4602356 2.2617188c1.4481506 1.4481506 2.2617188 3.4122314 2.2617188 5.4602356l0 30.88684c0 4.2647095 -3.4572449 7.721924 -7.7219543 7.721924l-271.7372 0c-4.2647095 0 -7.721939 -3.4572144 -7.721939 -7.721924z" fill-rule="evenodd"/><path stroke="#000000" stroke-width="1.0" stroke-linejoin="round" stroke-linecap="butt" d="m73.16273 484.3545l0 0c0 -4.2647095 3.4572296 -7.7219543 7.721939 -7.7219543l271.7372 0c2.0480042 0 4.012085 0.8135681 5.4602356 2.2617188c1.4481506 1.4481506 2.2617188 3.4122314 2.2617188 5.4602356l0 30.88684c0 4.2647095 -3.4572449 7.721924 -7.7219543 7.721924l-271.7372 0c-4.2647095 0 -7.721939 -3.4572144 -7.721939 -7.721924z" fill-rule="evenodd"/><path fill="#000000" d="m143.15651 506.68164q0.03125 0.359375 0.75 0.578125q0.734375 0.21875 1.703125 0.21875q0.984375 0 1.640625 -0.078125q0.65625 -0.09375 1.40625 -0.40625q1.390625 -0.546875 2.109375 -2.765625l0.640625 0.296875q-0.421875 1.3125 -0.5625 3.8125l-9.4375 0q-1.375 0 -2.875 0.078125l-0.078125 -0.703125q1.21875 -0.234375 1.65625 -0.421875q0.4375 -0.203125 0.484375 -0.609375q0.21875 -1.390625 0.21875 -5.109375q0 -6.046875 -0.15625 -7.53125l-0.046875 -0.484375q-0.046875 -0.4375 -0.4375 -0.609375q-0.375 -0.1875 -1.53125 -0.421875l0.078125 -0.703125q1.515625 0.078125 3.171875 0.078125q1.65625 0 3.15625 -0.078125l0.078125 0.703125q-1.15625 0.234375 -1.546875 0.421875q-0.375 0.171875 -0.421875 0.609375q-0.1875 1.40625 -0.1875 5.140625q0 6.015625 0.140625 7.484375l0.046875 0.5zm16.654327 -6.03125q0 -1.09375 -0.625 -1.625q-0.625 -0.546875 -1.390625 -0.546875q-1.125 0 -1.9375 0.890625q-0.8125 0.875 -1.078125 2.171875l4.96875 -0.1875q0.0625 -0.359375 0.0625 -0.703125zm-2.078125 7.90625q-2.546875 0 -3.84375 -1.453125q-1.296875 -1.453125 -1.296875 -3.859375q0 -2.421875 1.421875 -4.1875q1.4375 -1.765625 4.3125 -1.765625q1.46875 0 2.546875 1.046875q1.09375 1.03125 1.09375 3.0625l-0.8125 0.984375q-0.140625 -0.015625 -2.265625 -0.015625q-2.125 0 -4.265625 0.15625l0 0.21875q0 2.1875 0.90625 3.28125q0.921875 1.09375 2.5 1.09375q1.59375 0 3.34375 -0.765625l0.28125 0.71875q-1.84375 1.484375 -3.921875 1.484375zm14.031586 -1.5625q-1.65625 1.5625 -3.625 1.5625q-1.96875 0 -3.234375 -1.421875q-1.25 -1.4375 -1.25 -4.078125q0 -2.65625 1.5 -4.21875q1.5 -1.5625 3.703125 -1.5625q1.203125 0 2.890625 0.84375q0 -4.4375 -0.15625 -5.453125l-0.046875 -0.34375l-1.53125 -0.453125l-0.046875 -0.625q1.53125 0 3.171875 -0.421875l0.453125 0.21875q-0.046875 3.0 -0.046875 8.5q0 5.484375 0.046875 6.28125q0.046875 0.78125 0.203125 1.0q0.15625 0.203125 0.46875 0.296875q0.5 0.140625 1.171875 0.1875l-0.078125 0.6875q-0.859375 0.078125 -2.609375 0.4375q-0.71875 -0.3125 -0.984375 -1.4375zm-2.28125 -8.25q-1.890625 0 -2.796875 1.234375q-0.890625 1.234375 -0.890625 3.0625q0 1.8125 0.78125 2.90625q0.796875 1.09375 2.25 1.09375q1.46875 0 2.796875 -0.84375q0.125 -1.921875 0.125 -7.03125q-1.25 -0.421875 -2.265625 -0.421875zm16.71222 -2.3125q0.1875 0 0.625 0.5625q0.453125 0.5625 0.59375 1.125l-0.359375 0.453125q-0.4375 -0.21875 -1.046875 -0.21875q-0.59375 0 -1.109375 0.265625q0.828125 1.03125 0.828125 2.71875q0 1.671875 -1.109375 2.859375q-1.09375 1.1875 -3.25 1.1875q-0.546875 0 -1.0625 -0.078125q-0.890625 1.15625 -0.890625 1.59375q0 0.546875 1.5625 0.546875l1.8125 0q4.53125 0 4.53125 2.9375q0 1.625 -1.8125 2.9375q-1.8125 1.328125 -4.859375 1.328125q-1.78125 0 -3.078125 -0.59375q-1.296875 -0.578125 -1.296875 -1.65625q0 -1.546875 2.46875 -3.53125q-1.5 -0.34375 -1.5 -1.15625q0 -0.8125 2.15625 -2.5625q-2.421875 -0.765625 -2.421875 -3.875q0 -1.578125 1.109375 -2.765625q1.125 -1.1875 3.140625 -1.1875q2.03125 0 3.046875 0.71875q0.28125 -0.453125 0.875 -1.03125q0.609375 -0.578125 1.046875 -0.578125zm-7.90625 15.171875q0 0.9375 0.6875 1.515625q0.703125 0.578125 2.28125 0.578125q1.59375 0 2.8125 -1.0q1.234375 -1.0 1.234375 -2.125q0 -0.71875 -0.625 -1.1875q-0.625 -0.453125 -1.953125 -0.453125l-3.234375 0q-1.203125 1.34375 -1.203125 2.671875zm3.09375 -13.296875q-0.6875 0 -1.203125 0.328125q-0.515625 0.3125 -0.765625 0.828125q-0.40625 0.953125 -0.40625 2.03125q0 1.078125 0.53125 2.0q0.546875 0.90625 1.75 0.90625q0.875 0 1.4375 -0.515625q0.5625 -0.515625 0.734375 -1.0625q0.1875 -0.5625 0.203125 -1.15625q0 -3.359375 -2.28125 -3.359375zm14.259964 2.34375q0 -1.09375 -0.625 -1.625q-0.625 -0.546875 -1.390625 -0.546875q-1.125 0 -1.9375 0.890625q-0.8125 0.875 -1.078125 2.171875l4.96875 -0.1875q0.0625 -0.359375 0.0625 -0.703125zm-2.078125 7.90625q-2.546875 0 -3.84375 -1.453125q-1.296875 -1.453125 -1.296875 -3.859375q0 -2.421875 1.421875 -4.1875q1.4375 -1.765625 4.3125 -1.765625q1.46875 0 2.546875 1.046875q1.09375 1.03125 1.09375 3.0625l-0.8125 0.984375q-0.140625 -0.015625 -2.265625 -0.015625q-2.125 0 -4.265625 0.15625l0 0.21875q0 2.1875 0.90625 3.28125q0.921875 1.09375 2.5 1.09375q1.59375 0 3.34375 -0.765625l0.28125 0.71875q-1.84375 1.484375 -3.921875 1.484375zm12.640961 -11.40625q0.1875 0 0.625 0.5625q0.453125 0.5625 0.59375 1.125l-0.359375 0.453125q-0.859375 -0.34375 -1.796875 -0.34375q-0.9375 0 -1.703125 0.78125q-0.765625 0.78125 -0.765625 2.515625q0.015625 4.21875 0.21875 4.921875q0.015625 0.1875 0.671875 0.34375q0.671875 0.15625 1.390625 0.203125l-0.078125 0.703125q-1.15625 -0.078125 -2.921875 -0.078125q-1.75 0 -2.90625 0.078125l0.078125 -0.703125q0.46875 -0.046875 1.0 -0.203125q0.53125 -0.15625 0.546875 -0.328125q0.203125 -0.828125 0.203125 -3.359375q0 -4.078125 -0.203125 -4.984375l-1.53125 -0.453125l-0.046875 -0.625q1.53125 0 3.171875 -0.4375l0.453125 0.21875q-0.046875 0.359375 -0.046875 1.96875q0.6875 -1.15625 1.75 -1.75q1.078125 -0.609375 1.65625 -0.609375zm11.547958 -5.25l4.03125 0q2.25 0 3.421875 1.109375q1.1875 1.09375 1.1875 2.734375q0 1.09375 -0.671875 2.09375q-0.671875 1.0 -1.859375 1.578125q1.90625 0.421875 2.734375 1.484375q0.84375 1.046875 0.84375 2.859375q0 1.796875 -1.515625 3.1875q-1.5 1.390625 -3.765625 1.390625l-4.40625 0q-1.875 0 -3.390625 0.078125l-0.0625 -0.703125q1.21875 -0.234375 1.640625 -0.421875q0.4375 -0.203125 0.484375 -0.609375q0.203125 -1.421875 0.203125 -5.140625q0 -6.015625 -0.15625 -7.5l-0.046875 -0.484375q-0.046875 -0.4375 -0.4375 -0.609375q-0.375 -0.1875 -1.53125 -0.421875l0.078125 -0.703125q1.515625 0.078125 3.21875 0.078125zm6.375 3.84375q0 -2.84375 -3.640625 -2.84375q-0.859375 0 -1.125 0.109375q-0.25 0.09375 -0.34375 0.421875q-0.265625 1.21875 -0.265625 6.078125q1.6875 -0.296875 3.578125 -0.296875q1.796875 -1.171875 1.796875 -3.46875zm-2.6875 11.734375q1.515625 0 2.609375 -1.0q1.109375 -1.015625 1.109375 -2.765625q0 -3.484375 -4.890625 -3.484375q-0.71875 0 -1.515625 0.0625q0 4.734375 0.203125 5.953125l0.0625 0.46875q0.21875 0.765625 2.421875 0.765625zm11.383331 -16.4375q-0.046875 3.0 -0.046875 8.78125q0 5.78125 0.265625 7.359375q0.015625 0.171875 0.609375 0.34375q0.609375 0.171875 1.0625 0.1875l-0.0625 0.703125q-1.15625 -0.078125 -2.796875 -0.078125q-1.625 0 -2.78125 0.078125l0.078125 -0.703125q0.5 -0.046875 1.0625 -0.203125q0.5625 -0.15625 0.59375 -0.328125q0.171875 -1.5625 0.171875 -6.0q0 -7.21875 -0.15625 -8.4375l-0.046875 -0.421875l-1.53125 -0.453125l-0.046875 -0.625q1.53125 0 3.171875 -0.421875l0.453125 0.21875zm8.73111 7.4375q-0.984375 0 -1.703125 0.5q-0.71875 0.484375 -1.0625 1.21875q-0.640625 1.375 -0.640625 2.625q0 1.96875 0.78125 3.28125q0.796875 1.296875 2.5 1.296875q0.921875 0 1.609375 -0.421875q0.703125 -0.421875 1.0625 -1.09375q0.6875 -1.25 0.75 -2.484375q0 -4.921875 -3.296875 -4.921875zm0.125 -1.1875q2.734375 0 3.984375 1.40625q1.25 1.390625 1.25 3.875q0 2.484375 -1.4375 4.234375q-1.421875 1.75 -4.15625 1.75q-2.734375 0 -3.984375 -1.375q-1.25 -1.390625 -1.25 -3.859375q0 -2.46875 1.421875 -4.25q1.4375 -1.78125 4.171875 -1.78125zm16.274094 9.671875q-2.0 1.59375 -4.359375 1.59375q-2.34375 0 -3.625 -1.484375q-1.265625 -1.5 -1.265625 -3.875q0 -2.390625 1.46875 -4.140625q1.484375 -1.765625 4.125 -1.765625q1.078125 0 1.921875 0.359375q0.859375 0.34375 1.21875 0.703125q0.359375 0.359375 0.359375 0.578125q0 0.953125 -0.5625 1.75l-0.578125 0q-0.296875 -0.796875 -0.984375 -1.4375q-0.671875 -0.65625 -1.75 -0.65625q-1.5 0 -2.3125 1.34375q-0.796875 1.328125 -0.796875 3.265625q0 1.921875 0.9375 2.9375q0.9375 1.0 2.609375 1.0q1.6875 0 3.296875 -0.953125l0.296875 0.78125zm6.2413635 1.453125q-1.15625 -0.078125 -2.65625 -0.078125q-1.484375 0 -2.625 0.078125l0.0625 -0.703125q0.453125 -0.046875 0.96875 -0.203125q0.515625 -0.15625 0.546875 -0.328125q0.21875 -1.5625 0.21875 -6.0q0 -7.21875 -0.140625 -8.4375l-0.046875 -0.421875l-1.546875 -0.453125l-0.046875 -0.625q1.53125 0 3.171875 -0.421875l0.453125 0.21875q-0.046875 3.0 -0.046875 8.84375l0 1.921875l3.84375 -2.875q0.171875 -0.140625 0.171875 -0.296875q0 -0.515625 -1.453125 -0.546875l0.078125 -0.6875q1.484375 0.0625 2.53125 0.0625q1.0625 0 2.53125 -0.0625l0.078125 0.6875q-1.46875 0.21875 -2.546875 0.984375l-3.078125 2.28125l4.609375 5.953125q0.25 0.28125 0.921875 0.359375q0.140625 0 0.375 0.03125q0.25 0.015625 0.3125 0.015625l-0.0625 0.703125q-1.375 0 -3.109375 0.140625l-4.4375 -6.1875l-0.734375 0.546875q0.0625 2.734375 0.1875 4.265625q0.015625 0.171875 0.53125 0.328125q0.515625 0.15625 1.0 0.203125l-0.0625 0.703125zm27.282928 -3.25q0.046875 -1.34375 0.046875 -4.34375q0 -5.5 -0.140625 -6.78125l-0.078125 -0.484375q-0.0625 -0.578125 -1.265625 -0.8125q-0.296875 -0.078125 -0.984375 -0.21875l0.0625 -0.703125q1.515625 0.078125 2.984375 0.078125q1.484375 0 3.0 -0.078125l0.0625 0.703125q-1.140625 0.234375 -1.53125 0.421875q-0.375 0.171875 -0.4375 0.609375q-0.234375 1.40625 -0.234375 5.140625q0 5.6875 0.1875 8.734375l0.078125 0.90625l-1.921875 0.21875l-9.734375 -13.109375l-0.125 0q-0.09375 2.109375 -0.09375 4.53125q0 4.546875 0.1875 6.203125l0.078125 0.5q0.0625 0.578125 1.265625 0.84375q0.28125 0.046875 0.984375 0.1875l-0.078125 0.703125q-1.5 -0.078125 -3.15625 -0.078125q-1.65625 0 -3.171875 0.078125l-0.078125 -0.703125q1.28125 -0.234375 1.78125 -0.421875q0.5 -0.203125 0.546875 -0.609375q0.203125 -1.390625 0.203125 -5.109375q0 -6.046875 -0.15625 -7.53125l-0.046875 -0.484375q-0.046875 -0.4375 -0.4375 -0.609375q-0.375 -0.1875 -1.53125 -0.421875l0.078125 -0.703125q1.515625 0.078125 3.578125 0.078125l9.953125 13.265625l0.125 0z" fill-rule="nonzero"/><path fill="#d9ead3" d="m107.07087 170.62796l0 0c0 -18.348969 14.874779 -33.223755 33.223763 -33.223755l156.48161 0c8.811493 0 17.262085 3.500351 23.492737 9.731003c6.2306824 6.230667 9.731018 14.681259 9.731018 23.492752l0 132.89105c0 18.348999 -14.874786 33.223755 -33.223755 33.223755l-156.48161 0c-18.348984 0 -33.223763 -14.874756 -33.223763 -33.223755z" fill-rule="evenodd"/><path stroke="#000000" stroke-width="1.0" stroke-linejoin="round" stroke-linecap="butt" d="m107.07087 170.62796l0 0c0 -18.348969 14.874779 -33.223755 33.223763 -33.223755l156.48161 0c8.811493 0 17.262085 3.500351 23.492737 9.731003c6.2306824 6.230667 9.731018 14.681259 9.731018 23.492752l0 132.89105c0 18.348999 -14.874786 33.223755 -33.223755 33.223755l-156.48161 0c-18.348984 0 -33.223763 -14.874756 -33.223763 -33.223755z" fill-rule="evenodd"/><path fill="#000000" d="m164.45316 165.71223q0.03125 0.28125 0.59375 0.453125q0.5625 0.15625 1.3125 0.15625q0.765625 0 1.28125 -0.0625q0.515625 -0.0625 1.09375 -0.3125q1.078125 -0.421875 1.640625 -2.140625l0.5 0.21875q-0.328125 1.03125 -0.4375 2.96875l-7.34375 0q-1.0625 0 -2.234375 0.0625l-0.0625 -0.546875q0.953125 -0.1875 1.28125 -0.328125q0.34375 -0.15625 0.390625 -0.46875q0.15625 -1.09375 0.15625 -3.984375q0 -4.703125 -0.109375 -5.859375l-0.03125 -0.375q-0.03125 -0.328125 -0.34375 -0.46875q-0.296875 -0.140625 -1.1875 -0.328125l0.0625 -0.53125q1.171875 0.046875 2.453125 0.046875q1.296875 0 2.46875 -0.046875l0.046875 0.53125q-0.890625 0.1875 -1.1875 0.328125q-0.296875 0.140625 -0.34375 0.46875q-0.140625 1.109375 -0.140625 4.0q0 4.6875 0.109375 5.828125l0.03125 0.390625zm12.961258 -4.6875q0 -0.859375 -0.5 -1.28125q-0.484375 -0.421875 -1.078125 -0.421875q-0.875 0 -1.515625 0.703125q-0.625 0.6875 -0.828125 1.6875l3.859375 -0.140625q0.0625 -0.28125 0.0625 -0.546875zm-1.625 6.140625q-1.984375 0 -3.0 -1.125q-1.0 -1.140625 -1.0 -3.015625q0 -1.875 1.109375 -3.234375q1.109375 -1.375 3.359375 -1.375q1.125 0 1.96875 0.796875q0.859375 0.796875 0.859375 2.390625l-0.640625 0.765625q-0.109375 -0.015625 -1.765625 -0.015625q-1.640625 0 -3.296875 0.125l0 0.171875q0 1.6875 0.703125 2.546875q0.703125 0.84375 1.9375 0.84375q1.234375 0 2.59375 -0.59375l0.234375 0.5625q-1.4375 1.15625 -3.0625 1.15625zm10.906967 -1.21875q-1.28125 1.21875 -2.8125 1.21875q-1.53125 0 -2.515625 -1.109375q-0.96875 -1.109375 -0.96875 -3.171875q0 -2.0625 1.15625 -3.265625q1.171875 -1.21875 2.890625 -1.21875q0.921875 0 2.234375 0.640625q0 -3.453125 -0.109375 -4.234375l-0.046875 -0.25l-1.1875 -0.359375l-0.03125 -0.484375q1.1875 0 2.453125 -0.34375l0.359375 0.171875q-0.046875 2.328125 -0.046875 6.609375q0 4.265625 0.03125 4.890625q0.046875 0.609375 0.171875 0.765625q0.125 0.15625 0.359375 0.234375q0.390625 0.109375 0.921875 0.15625l-0.0625 0.53125q-0.671875 0.0625 -2.03125 0.34375q-0.5625 -0.25 -0.765625 -1.125zm-1.765625 -6.421875q-1.484375 0 -2.1875 0.96875q-0.6875 0.953125 -0.6875 2.375q0 1.421875 0.609375 2.28125q0.625 0.84375 1.75 0.84375q1.140625 0 2.171875 -0.65625q0.09375 -1.5 0.09375 -5.46875q-0.96875 -0.34375 -1.75 -0.34375zm12.977127 -1.78125q0.15625 0 0.5 0.4375q0.34375 0.4375 0.453125 0.859375l-0.28125 0.359375q-0.328125 -0.171875 -0.796875 -0.171875q-0.46875 0 -0.875 0.203125q0.65625 0.8125 0.65625 2.125q0 1.296875 -0.859375 2.21875q-0.859375 0.921875 -2.546875 0.921875q-0.421875 0 -0.8125 -0.046875q-0.703125 0.890625 -0.703125 1.21875q0 0.4375 1.21875 0.4375l1.40625 0q3.515625 0 3.515625 2.265625q0 1.28125 -1.40625 2.296875q-1.40625 1.03125 -3.78125 1.03125q-1.375 0 -2.390625 -0.453125q-1.0 -0.453125 -1.0 -1.296875q0 -1.203125 1.921875 -2.75q-1.171875 -0.25 -1.171875 -0.890625q0 -0.640625 1.671875 -2.0q-1.875 -0.59375 -1.875 -3.0q0 -1.234375 0.859375 -2.15625q0.875 -0.921875 2.453125 -0.921875q1.578125 0 2.359375 0.5625q0.21875 -0.359375 0.6875 -0.796875q0.46875 -0.453125 0.796875 -0.453125zm-6.140625 11.78125q0 0.734375 0.546875 1.171875q0.546875 0.453125 1.765625 0.453125q1.234375 0 2.1875 -0.78125q0.953125 -0.765625 0.953125 -1.640625q0 -0.5625 -0.484375 -0.921875q-0.484375 -0.34375 -1.515625 -0.34375l-2.515625 0q-0.9375 1.046875 -0.9375 2.0625zm2.40625 -10.328125q-0.53125 0 -0.9375 0.25q-0.40625 0.25 -0.59375 0.640625q-0.3125 0.75 -0.3125 1.59375q0 0.828125 0.421875 1.546875q0.421875 0.703125 1.359375 0.703125q0.671875 0 1.109375 -0.390625q0.4375 -0.40625 0.578125 -0.828125q0.140625 -0.4375 0.15625 -0.90625q0 -2.609375 -1.78125 -2.609375zm11.094696 1.828125q0 -0.859375 -0.5 -1.28125q-0.484375 -0.421875 -1.078125 -0.421875q-0.875 0 -1.515625 0.703125q-0.625 0.6875 -0.828125 1.6875l3.859375 -0.140625q0.0625 -0.28125 0.0625 -0.546875zm-1.625 6.140625q-1.984375 0 -3.0 -1.125q-1.0 -1.140625 -1.0 -3.015625q0 -1.875 1.109375 -3.234375q1.109375 -1.375 3.359375 -1.375q1.125 0 1.96875 0.796875q0.859375 0.796875 0.859375 2.390625l-0.640625 0.765625q-0.109375 -0.015625 -1.765625 -0.015625q-1.640625 0 -3.296875 0.125l0 0.171875q0 1.6875 0.703125 2.546875q0.703125 0.84375 1.9375 0.84375q1.234375 0 2.59375 -0.59375l0.234375 0.5625q-1.4375 1.15625 -3.0625 1.15625zm9.828842 -8.859375q0.140625 0 0.484375 0.4375q0.359375 0.4375 0.46875 0.859375l-0.28125 0.359375q-0.671875 -0.265625 -1.40625 -0.265625q-0.71875 0 -1.328125 0.609375q-0.59375 0.609375 -0.59375 1.953125q0.03125 3.28125 0.171875 3.8125q0.015625 0.15625 0.53125 0.28125q0.515625 0.125 1.078125 0.15625l-0.0625 0.546875q-0.890625 -0.0625 -2.265625 -0.0625q-1.375 0 -2.265625 0.0625l0.0625 -0.546875q0.375 -0.03125 0.78125 -0.15625q0.40625 -0.125 0.421875 -0.25q0.15625 -0.65625 0.15625 -2.609375q0 -3.171875 -0.15625 -3.890625l-1.1875 -0.359375l-0.046875 -0.484375q1.203125 0 2.46875 -0.328125l0.359375 0.171875q-0.046875 0.28125 -0.046875 1.53125q0.546875 -0.90625 1.375 -1.359375q0.828125 -0.46875 1.28125 -0.46875zm9.759964 2.59375q0 3.515625 0.140625 4.46875l0.0625 0.359375q0.171875 0.59375 1.875 0.59375q0.859375 0 1.375 -0.0625q0.515625 -0.0625 1.09375 -0.3125q1.078125 -0.421875 1.640625 -2.140625l0.5 0.21875q-0.328125 1.03125 -0.4375 2.96875l-7.46875 0q-1.0625 0 -2.234375 0.0625l-0.0625 -0.546875q0.953125 -0.1875 1.28125 -0.328125q0.34375 -0.15625 0.390625 -0.46875q0.15625 -1.09375 0.15625 -3.984375q0 -4.703125 -0.109375 -5.859375l-0.03125 -0.375q-0.046875 -0.328125 -0.34375 -0.46875q-0.296875 -0.140625 -1.1875 -0.328125l0.046875 -0.53125q1.1875 0.046875 4.421875 0.046875q3.25 0 4.78125 -0.109375l0 0.28125q0 1.46875 0.21875 2.734375l-0.5 0.234375q-0.484375 -1.53125 -1.15625 -1.9375q-0.671875 -0.421875 -2.53125 -0.421875q-0.84375 0 -1.265625 0.078125q-0.40625 0.078125 -0.453125 0.34375q-0.1875 1.203125 -0.203125 4.734375q2.359375 0 2.828125 -0.109375q0.484375 -0.125 0.625 -0.421875q0.140625 -0.296875 0.328125 -1.265625l0.65625 0.078125q-0.15625 1.078125 -0.15625 2.078125q0 0.984375 0.15625 2.078125l-0.65625 0.09375q-0.1875 -0.96875 -0.328125 -1.265625q-0.140625 -0.296875 -0.625 -0.40625q-0.46875 -0.109375 -2.828125 -0.109375zm12.139877 4.828125q1.984375 -6.0625 1.9375 -6.0625q0.015625 -0.046875 0.015625 -0.09375q0 -0.40625 -1.015625 -0.546875l-0.0625 -0.53125q0.640625 0.046875 1.34375 0.046875l1.90625 -0.046875l0.0625 0.53125q-0.953125 0.140625 -1.1875 0.6875q-1.0625 2.46875 -2.609375 7.28125l-1.34375 0.171875q-1.515625 -4.671875 -2.328125 -6.625l-0.296875 -0.75q-0.25 -0.609375 -1.140625 -0.765625l-0.0625 -0.53125q1.296875 0.046875 1.984375 0.046875l1.9375 -0.046875l0.0625 0.53125q-0.5625 0.0625 -0.84375 0.234375q-0.28125 0.15625 -0.28125 0.328125q0 0.015625 0.34375 1.140625q0.359375 1.109375 1.578125 5.0zm10.43634 -4.703125q0 -0.859375 -0.5 -1.28125q-0.484375 -0.421875 -1.078125 -0.421875q-0.875 0 -1.515625 0.703125q-0.625 0.6875 -0.828125 1.6875l3.859375 -0.140625q0.0625 -0.28125 0.0625 -0.546875zm-1.625 6.140625q-1.984375 0 -3.0 -1.125q-1.0 -1.140625 -1.0 -3.015625q0 -1.875 1.109375 -3.234375q1.109375 -1.375 3.359375 -1.375q1.125 0 1.96875 0.796875q0.859375 0.796875 0.859375 2.390625l-0.640625 0.765625q-0.109375 -0.015625 -1.765625 -0.015625q-1.640625 0 -3.296875 0.125l0 0.171875q0 1.6875 0.703125 2.546875q0.703125 0.84375 1.9375 0.84375q1.234375 0 2.59375 -0.59375l0.234375 0.5625q-1.4375 1.15625 -3.0625 1.15625zm7.110092 -7.015625l-0.03125 2.578125q0 2.40625 0.15625 3.125l0.03125 0.25q0.03125 0.125 0.421875 0.25q0.40625 0.125 0.78125 0.15625l-0.0625 0.546875q-0.890625 -0.0625 -2.046875 -0.0625q-1.15625 0 -2.0625 0.0625l0.0625 -0.546875q0.359375 -0.03125 0.75 -0.15625q0.40625 -0.125 0.421875 -0.25q0.15625 -0.65625 0.15625 -2.609375q0 -3.171875 -0.15625 -3.890625l-1.1875 -0.359375l-0.046875 -0.484375q1.203125 0 2.46875 -0.328125l0.359375 0.171875l0 0.890625q2.0625 -1.078125 3.59375 -1.078125q0.9375 0 1.4218903 0.375q0.484375 0.375 0.484375 1.390625l0 2.546875q0 2.40625 0.125 3.125l0.0625 0.25q0.015625 0.125 0.40625 0.25q0.40625 0.125 0.78125 0.15625l-0.046875 0.546875q-0.90625 -0.0625 -2.0625 -0.0625q-1.1562653 0 -2.0468903 0.0625l0.0625 -0.546875q0.34375 -0.03125 0.75 -0.15625q0.40625 -0.125 0.421875 -0.25q0.140625 -0.65625 0.140625 -3.375l0 -1.8125q0 -0.734375 -0.421875 -1.015625q-0.421875 -0.28125 -1.453125 -0.28125q-1.03125 0 -2.234375 0.53125zm10.853775 7.015625q-1.9375 0 -1.9375 -1.875q0.015625 -1.640625 0.015625 -3.0q0 -1.375 -0.046875 -2.875l-1.1875 0.015625l-0.0625 -0.203125l0.4375 -0.71875q0.265625 0.046875 0.78125 0.078125l-0.078125 -1.71875l1.234375 -1.109375l0.359375 0.171875q-0.046875 1.375 -0.046875 2.625l2.75 -0.015625l0.09375 0.21875l-0.671875 0.75q-0.640625 -0.078125 -2.171875 -0.09375l0 2.5q0 2.328125 0.0625 3.34375q0.0625 0.84375 0.984375 0.84375q0.75 0 1.640625 -0.4375l0.234375 0.625q-1.328125 0.875 -2.390625 0.875zm12.030273 -12.546875q-0.078125 1.984375 -0.078125 4.875q0 4.6875 0.109375 5.828125l0.046875 0.390625q0.03125 0.3125 0.375 0.46875q0.34375 0.140625 1.3125 0.328125l-0.046875 0.546875q-1.125 -0.0625 -2.6875 -0.0625q-1.5625 0 -3.015625 0.0625l-0.0625 -0.546875q0.3125 -0.078125 0.6875 -0.140625q0.390625 -0.0625 0.625 -0.109375q0.234375 -0.0625 0.359375 -0.109375q0.140625 -0.046875 0.265625 -0.125q0.25 -0.109375 0.28125 -0.3125q0.125 -1.109375 0.125 -4.0q0 -4.5 -0.109375 -5.546875l-0.015625 -0.296875l-2.25 -0.390625l-0.0625 -0.671875q2.328125 0 3.75 -0.375l0.390625 0.1875z" fill-rule="nonzero"/><path fill="#d9ead3" d="m107.07086 385.25476l0 0c0 -4.2647095 3.4572296 -7.7219543 7.721939 -7.7219543l207.48524 0c2.0480042 0 4.0121155 0.8135681 5.4602356 2.2617188c1.4481506 1.4481201 2.2617188 3.4122314 2.2617188 5.4602356l0 30.88681c0 4.2647095 -3.4572449 7.7219543 -7.7219543 7.7219543l-207.48524 0c-4.2647095 0 -7.721939 -3.4572449 -7.721939 -7.7219543z" fill-rule="evenodd"/><path stroke="#000000" stroke-width="1.0" stroke-linejoin="round" stroke-linecap="butt" d="m107.07086 385.25476l0 0c0 -4.2647095 3.4572296 -7.7219543 7.721939 -7.7219543l207.48524 0c2.0480042 0 4.0121155 0.8135681 5.4602356 2.2617188c1.4481506 1.4481201 2.2617188 3.4122314 2.2617188 5.4602356l0 30.88681c0 4.2647095 -3.4572449 7.7219543 -7.7219543 7.7219543l-207.48524 0c-4.2647095 0 -7.721939 -3.4572449 -7.721939 -7.7219543z" fill-rule="evenodd"/><path fill="#000000" d="m160.8898 406.3369q0.03125 0.28125 0.59375 0.453125q0.5625 0.15625 1.3125 0.15625q0.765625 0 1.28125 -0.0625q0.515625 -0.0625 1.09375 -0.3125q1.078125 -0.421875 1.640625 -2.140625l0.5 0.21875q-0.328125 1.03125 -0.4375 2.96875l-7.34375 0q-1.0625 0 -2.234375 0.0625l-0.0625 -0.546875q0.953125 -0.1875 1.28125 -0.328125q0.34375 -0.15625 0.390625 -0.46875q0.15625 -1.09375 0.15625 -3.984375q0 -4.703125 -0.109375 -5.859375l-0.03125 -0.375q-0.03125 -0.328125 -0.34375 -0.46875q-0.296875 -0.140625 -1.1875 -0.328125l0.0625 -0.53125q1.171875 0.046875 2.453125 0.046875q1.296875 0 2.46875 -0.046875l0.046875 0.53125q-0.890625 0.1875 -1.1875 0.328125q-0.296875 0.140625 -0.34375 0.46875q-0.140625 1.109375 -0.140625 4.0q0 4.6875 0.109375 5.828125l0.03125 0.390625zm12.961258 -4.6875q0 -0.859375 -0.5 -1.28125q-0.484375 -0.421875 -1.078125 -0.421875q-0.875 0 -1.515625 0.703125q-0.625 0.6875 -0.828125 1.6875l3.859375 -0.140625q0.0625 -0.28125 0.0625 -0.546875zm-1.625 6.140625q-1.984375 0 -3.0 -1.125q-1.0 -1.140625 -1.0 -3.015625q0 -1.875 1.109375 -3.234375q1.109375 -1.375 3.359375 -1.375q1.125 0 1.96875 0.796875q0.859375 0.796875 0.859375 2.390625l-0.640625 0.765625q-0.109375 -0.015625 -1.765625 -0.015625q-1.640625 0 -3.296875 0.125l0 0.171875q0 1.6875 0.703125 2.546875q0.703125 0.84375 1.9375 0.84375q1.234375 0 2.59375 -0.59375l0.234375 0.5625q-1.4375 1.15625 -3.0625 1.15625zm10.906967 -1.21875q-1.28125 1.21875 -2.8125 1.21875q-1.53125 0 -2.515625 -1.109375q-0.96875 -1.109375 -0.96875 -3.171875q0 -2.0625 1.15625 -3.265625q1.171875 -1.21875 2.890625 -1.21875q0.921875 0 2.234375 0.640625q0 -3.453125 -0.109375 -4.234375l-0.046875 -0.25l-1.1875 -0.359375l-0.03125 -0.484375q1.1875 0 2.453125 -0.34375l0.359375 0.171875q-0.046875 2.328125 -0.046875 6.609375q0 4.265625 0.03125 4.890625q0.046875 0.609375 0.171875 0.765625q0.125 0.15625 0.359375 0.234375q0.390625 0.109375 0.921875 0.15625l-0.0625 0.53125q-0.671875 0.0625 -2.03125 0.34375q-0.5625 -0.25 -0.765625 -1.125zm-1.765625 -6.421875q-1.484375 0 -2.1875 0.96875q-0.6875 0.953125 -0.6875 2.375q0 1.421875 0.609375 2.28125q0.625 0.84375 1.75 0.84375q1.140625 0 2.171875 -0.65625q0.09375 -1.5 0.09375 -5.46875q-0.96875 -0.34375 -1.75 -0.34375zm12.977127 -1.78125q0.15625 0 0.5 0.4375q0.34375 0.4375 0.453125 0.859375l-0.28125 0.359375q-0.328125 -0.171875 -0.796875 -0.171875q-0.46875 0 -0.875 0.203125q0.65625 0.8125 0.65625 2.125q0 1.296875 -0.859375 2.21875q-0.859375 0.921875 -2.546875 0.921875q-0.421875 0 -0.8125 -0.046875q-0.703125 0.890625 -0.703125 1.21875q0 0.4375 1.21875 0.4375l1.40625 0q3.515625 0 3.515625 2.265625q0 1.28125 -1.40625 2.296875q-1.40625 1.03125 -3.78125 1.03125q-1.375 0 -2.390625 -0.453125q-1.0 -0.453125 -1.0 -1.296875q0 -1.203125 1.921875 -2.75q-1.171875 -0.25 -1.171875 -0.890625q0 -0.640625 1.671875 -2.0q-1.875 -0.59375 -1.875 -3.0q0 -1.234375 0.859375 -2.15625q0.875 -0.921875 2.453125 -0.921875q1.578125 0 2.359375 0.5625q0.21875 -0.359375 0.6875 -0.796875q0.46875 -0.453125 0.796875 -0.453125zm-6.140625 11.78125q0 0.734375 0.546875 1.171875q0.546875 0.453125 1.765625 0.453125q1.234375 0 2.1875 -0.78125q0.953125 -0.765625 0.953125 -1.640625q0 -0.5625 -0.484375 -0.921875q-0.484375 -0.34375 -1.515625 -0.34375l-2.515625 0q-0.9375 1.046875 -0.9375 2.0625zm2.40625 -10.328125q-0.53125 0 -0.9375 0.25q-0.40625 0.25 -0.59375 0.640625q-0.3125 0.75 -0.3125 1.59375q0 0.828125 0.421875 1.546875q0.421875 0.703125 1.359375 0.703125q0.671875 0 1.109375 -0.390625q0.4375 -0.40625 0.578125 -0.828125q0.140625 -0.4375 0.15625 -0.90625q0 -2.609375 -1.78125 -2.609375zm11.094696 1.828125q0 -0.859375 -0.5 -1.28125q-0.484375 -0.421875 -1.078125 -0.421875q-0.875 0 -1.515625 0.703125q-0.625 0.6875 -0.828125 1.6875l3.859375 -0.140625q0.0625 -0.28125 0.0625 -0.546875zm-1.625 6.140625q-1.984375 0 -3.0 -1.125q-1.0 -1.140625 -1.0 -3.015625q0 -1.875 1.109375 -3.234375q1.109375 -1.375 3.359375 -1.375q1.125 0 1.96875 0.796875q0.859375 0.796875 0.859375 2.390625l-0.640625 0.765625q-0.109375 -0.015625 -1.765625 -0.015625q-1.640625 0 -3.296875 0.125l0 0.171875q0 1.6875 0.703125 2.546875q0.703125 0.84375 1.9375 0.84375q1.234375 0 2.59375 -0.59375l0.234375 0.5625q-1.4375 1.15625 -3.0625 1.15625zm9.828842 -8.859375q0.140625 0 0.484375 0.4375q0.359375 0.4375 0.46875 0.859375l-0.28125 0.359375q-0.671875 -0.265625 -1.40625 -0.265625q-0.71875 0 -1.328125 0.609375q-0.59375 0.609375 -0.59375 1.953125q0.03125 3.28125 0.171875 3.8125q0.015625 0.15625 0.53125 0.28125q0.515625 0.125 1.078125 0.15625l-0.0625 0.546875q-0.890625 -0.0625 -2.265625 -0.0625q-1.375 0 -2.265625 0.0625l0.0625 -0.546875q0.375 -0.03125 0.78125 -0.15625q0.40625 -0.125 0.421875 -0.25q0.15625 -0.65625 0.15625 -2.609375q0 -3.171875 -0.15625 -3.890625l-1.1875 -0.359375l-0.046875 -0.484375q1.203125 0 2.46875 -0.328125l0.359375 0.171875q-0.046875 0.28125 -0.046875 1.53125q0.546875 -0.90625 1.375 -1.359375q0.828125 -0.46875 1.28125 -0.46875zm9.759964 2.59375q0 3.515625 0.140625 4.46875l0.0625 0.359375q0.171875 0.59375 1.875 0.59375q0.859375 0 1.375 -0.0625q0.515625 -0.0625 1.09375 -0.3125q1.078125 -0.421875 1.640625 -2.140625l0.5 0.21875q-0.328125 1.03125 -0.4375 2.96875l-7.46875 0q-1.0625 0 -2.234375 0.0625l-0.0625 -0.546875q0.953125 -0.1875 1.28125 -0.328125q0.34375 -0.15625 0.390625 -0.46875q0.15625 -1.09375 0.15625 -3.984375q0 -4.703125 -0.109375 -5.859375l-0.03125 -0.375q-0.046875 -0.328125 -0.34375 -0.46875q-0.296875 -0.140625 -1.1875 -0.328125l0.046875 -0.53125q1.1875 0.046875 4.421875 0.046875q3.25 0 4.78125 -0.109375l0 0.28125q0 1.46875 0.21875 2.734375l-0.5 0.234375q-0.484375 -1.53125 -1.15625 -1.9375q-0.671875 -0.421875 -2.53125 -0.421875q-0.84375 0 -1.265625 0.078125q-0.40625 0.078125 -0.453125 0.34375q-0.1875 1.203125 -0.203125 4.734375q2.359375 0 2.828125 -0.109375q0.484375 -0.125 0.625 -0.421875q0.140625 -0.296875 0.328125 -1.265625l0.65625 0.078125q-0.15625 1.078125 -0.15625 2.078125q0 0.984375 0.15625 2.078125l-0.65625 0.09375q-0.1875 -0.96875 -0.328125 -1.265625q-0.140625 -0.296875 -0.625 -0.40625q-0.46875 -0.109375 -2.828125 -0.109375zm12.139877 4.828125q1.984375 -6.0625 1.9375 -6.0625q0.015625 -0.046875 0.015625 -0.09375q0 -0.40625 -1.015625 -0.546875l-0.0625 -0.53125q0.640625 0.046875 1.34375 0.046875l1.90625 -0.046875l0.0625 0.53125q-0.953125 0.140625 -1.1875 0.6875q-1.0625 2.46875 -2.609375 7.28125l-1.34375 0.171875q-1.515625 -4.671875 -2.328125 -6.625l-0.296875 -0.75q-0.25 -0.609375 -1.140625 -0.765625l-0.0625 -0.53125q1.296875 0.046875 1.984375 0.046875l1.9375 -0.046875l0.0625 0.53125q-0.5625 0.0625 -0.84375 0.234375q-0.28125 0.15625 -0.28125 0.328125q0 0.015625 0.34375 1.140625q0.359375 1.109375 1.578125 5.0zm10.43634 -4.703125q0 -0.859375 -0.5 -1.28125q-0.484375 -0.421875 -1.078125 -0.421875q-0.875 0 -1.515625 0.703125q-0.625 0.6875 -0.828125 1.6875l3.859375 -0.140625q0.0625 -0.28125 0.0625 -0.546875zm-1.625 6.140625q-1.984375 0 -3.0 -1.125q-1.0 -1.140625 -1.0 -3.015625q0 -1.875 1.109375 -3.234375q1.109375 -1.375 3.359375 -1.375q1.125 0 1.96875 0.796875q0.859375 0.796875 0.859375 2.390625l-0.640625 0.765625q-0.109375 -0.015625 -1.765625 -0.015625q-1.640625 0 -3.296875 0.125l0 0.171875q0 1.6875 0.703125 2.546875q0.703125 0.84375 1.9375 0.84375q1.234375 0 2.59375 -0.59375l0.234375 0.5625q-1.4375 1.15625 -3.0625 1.15625zm7.110092 -7.015625l-0.03125 2.578125q0 2.40625 0.15625 3.125l0.03125 0.25q0.03125 0.125 0.421875 0.25q0.40625 0.125 0.78125 0.15625l-0.0625 0.546875q-0.890625 -0.0625 -2.046875 -0.0625q-1.15625 0 -2.0625 0.0625l0.0625 -0.546875q0.359375 -0.03125 0.75 -0.15625q0.40625 -0.125 0.421875 -0.25q0.15625 -0.65625 0.15625 -2.609375q0 -3.171875 -0.15625 -3.890625l-1.1875 -0.359375l-0.046875 -0.484375q1.203125 0 2.46875 -0.328125l0.359375 0.171875l0 0.890625q2.0625 -1.078125 3.59375 -1.078125q0.9375 0 1.421875 0.375q0.484375 0.375 0.484375 1.390625l0 2.546875q0 2.40625 0.125 3.125l0.0625 0.25q0.015625 0.125 0.40625 0.25q0.40625 0.125 0.78125 0.15625l-0.046875 0.546875q-0.90625 -0.0625 -2.0625 -0.0625q-1.15625 0 -2.046875 0.0625l0.0625 -0.546875q0.34375 -0.03125 0.75 -0.15625q0.40625 -0.125 0.421875 -0.25q0.140625 -0.65625 0.140625 -3.375l0 -1.8125q0 -0.734375 -0.421875 -1.015625q-0.421875 -0.28125 -1.453125 -0.28125q-1.03125 0 -2.234375 0.53125zm10.853775 7.015625q-1.9375 0 -1.9375 -1.875q0.015625 -1.640625 0.015625 -3.0q0 -1.375 -0.046875 -2.875l-1.1875153 0.015625l-0.0625 -0.203125l0.4375 -0.71875q0.26564026 0.046875 0.78126526 0.078125l-0.078125 -1.71875l1.234375 -1.109375l0.359375 0.171875q-0.046875 1.375 -0.046875 2.625l2.75 -0.015625l0.09375 0.21875l-0.671875 0.75q-0.640625 -0.078125 -2.171875 -0.09375l0 2.5q0 2.328125 0.0625 3.34375q0.0625 0.84375 0.984375 0.84375q0.75 0 1.640625 -0.4375l0.234375 0.625q-1.328125 0.875 -2.390625 0.875zm18.467773 -2.640625q0.03125 -1.03125 0.03125 -3.375q0 -4.265625 -0.109375 -5.28125l-0.046875 -0.375q-0.0625 -0.4375 -1.0 -0.625q-0.21875 -0.0625 -0.765625 -0.171875l0.0625 -0.53125q1.171875 0.046875 2.3125 0.046875q1.15625 0 2.328125 -0.046875l0.0625 0.53125q-0.890625 0.1875 -1.203125 0.328125q-0.296875 0.140625 -0.328125 0.46875q-0.1875 1.109375 -0.1875 4.0q0 4.421875 0.15625 6.796875l0.046875 0.703125l-1.484375 0.171875l-7.578125 -10.1875l-0.09375 0q-0.078125 1.640625 -0.078125 3.515625q0 3.53125 0.15625 4.828125l0.046875 0.390625q0.0625 0.4375 1.0 0.640625q0.21875 0.046875 0.75 0.15625l-0.046875 0.546875q-1.171875 -0.0625 -2.46875 -0.0625q-1.28125 0 -2.453125 0.0625l-0.0625 -0.546875q0.984375 -0.1875 1.375 -0.328125q0.40625 -0.15625 0.4375 -0.46875q0.140625 -1.09375 0.140625 -3.984375q0 -4.703125 -0.109375 -5.859375l-0.03125 -0.375q-0.03125 -0.328125 -0.34375 -0.46875q-0.296875 -0.140625 -1.1875 -0.328125l0.0625 -0.53125q1.171875 0.046875 2.765625 0.046875l7.75 10.3125l0.09375 0z" fill-rule="nonzero"/><path fill="#000000" fill-opacity="0.0" d="m218.53543 336.74277l0 40.787415" fill-rule="evenodd"/><path stroke="#000000" stroke-width="4.0" stroke-linejoin="round" stroke-linecap="butt" stroke-dasharray="4.0,12.0" d="m218.53543 336.74277l0 40.787415" fill-rule="evenodd"/><path fill="#000000" fill-opacity="0.0" d="m216.75328 438.66666l0 37.95276" fill-rule="evenodd"/><path stroke="#000000" stroke-width="4.0" stroke-linejoin="round" stroke-linecap="butt" stroke-dasharray="4.0,12.0" d="m216.75328 438.66666l0 37.95276" fill-rule="evenodd"/><path fill="#b4a7d6" d="m121.6063 191.5802l0 0c0 -4.2647095 3.4572296 -7.721939 7.7219315 -7.721939l174.63487 0c2.0479736 0 4.012085 0.8135681 5.4602356 2.2617035c1.4481506 1.4481506 2.2616882 3.412262 2.2616882 5.4602356l0 30.88684c0 4.2647095 -3.4572144 7.721939 -7.721924 7.721939l-174.63487 0c-4.264702 0 -7.7219315 -3.4572296 -7.7219315 -7.721939z" fill-rule="evenodd"/><path stroke="#000000" stroke-width="1.0" stroke-linejoin="round" stroke-linecap="butt" d="m121.6063 191.5802l0 0c0 -4.2647095 3.4572296 -7.721939 7.7219315 -7.721939l174.63487 0c2.0479736 0 4.012085 0.8135681 5.4602356 2.2617035c1.4481506 1.4481506 2.2616882 3.412262 2.2616882 5.4602356l0 30.88684c0 4.2647095 -3.4572144 7.721939 -7.721924 7.721939l-174.63487 0c-4.264702 0 -7.7219315 -3.4572296 -7.7219315 -7.721939z" fill-rule="evenodd"/><path fill="#000000" d="m144.99854 212.66237q0.03125 0.28125 0.59375 0.453125q0.5625 0.15625 1.3125 0.15625q0.765625 0 1.28125 -0.0625q0.515625 -0.0625 1.09375 -0.3125q1.078125 -0.421875 1.640625 -2.140625l0.5 0.21875q-0.328125 1.03125 -0.4375 2.96875l-7.34375 0q-1.0625 0 -2.234375 0.0625l-0.0625 -0.546875q0.953125 -0.1875 1.28125 -0.328125q0.34375 -0.15625 0.390625 -0.46875q0.15625 -1.09375 0.15625 -3.984375q0 -4.703125 -0.109375 -5.859375l-0.03125 -0.375q-0.03125 -0.328125 -0.34375 -0.46875q-0.296875 -0.140625 -1.1875 -0.328125l0.0625 -0.53125q1.171875 0.046875 2.453125 0.046875q1.296875 0 2.46875 -0.046875l0.046875 0.53125q-0.890625 0.1875 -1.1875 0.328125q-0.296875 0.140625 -0.34375 0.46875q-0.140625 1.109375 -0.140625 4.0q0 4.6875 0.109375 5.828125l0.03125 0.390625zm12.961258 -4.6875q0 -0.859375 -0.5 -1.28125q-0.484375 -0.421875 -1.078125 -0.421875q-0.875 0 -1.515625 0.703125q-0.625 0.6875 -0.828125 1.6875l3.859375 -0.140625q0.0625 -0.28125 0.0625 -0.546875zm-1.625 6.140625q-1.984375 0 -3.0 -1.125q-1.0 -1.140625 -1.0 -3.015625q0 -1.875 1.109375 -3.234375q1.109375 -1.375 3.359375 -1.375q1.125 0 1.96875 0.796875q0.859375 0.796875 0.859375 2.390625l-0.640625 0.765625q-0.109375 -0.015625 -1.765625 -0.015625q-1.640625 0 -3.296875 0.125l0 0.171875q0 1.6875 0.703125 2.546875q0.703125 0.84375 1.9375 0.84375q1.234375 0 2.59375 -0.59375l0.234375 0.5625q-1.4375 1.15625 -3.0625 1.15625zm10.906967 -1.21875q-1.28125 1.21875 -2.8125 1.21875q-1.53125 0 -2.515625 -1.109375q-0.96875 -1.109375 -0.96875 -3.171875q0 -2.0625 1.15625 -3.265625q1.171875 -1.21875 2.890625 -1.21875q0.921875 0 2.234375 0.640625q0 -3.453125 -0.109375 -4.234375l-0.046875 -0.25l-1.1875 -0.359375l-0.03125 -0.484375q1.1875 0 2.453125 -0.34375l0.359375 0.171875q-0.046875 2.328125 -0.046875 6.609375q0 4.265625 0.03125 4.890625q0.046875 0.609375 0.171875 0.765625q0.125 0.15625 0.359375 0.234375q0.390625 0.109375 0.921875 0.15625l-0.0625 0.53125q-0.671875 0.0625 -2.03125 0.34375q-0.5625 -0.25 -0.765625 -1.125zm-1.765625 -6.421875q-1.484375 0 -2.1875 0.96875q-0.6875 0.953125 -0.6875 2.375q0 1.421875 0.609375 2.28125q0.625 0.84375 1.75 0.84375q1.140625 0 2.171875 -0.65625q0.09375 -1.5 0.09375 -5.46875q-0.96875 -0.34375 -1.75 -0.34375zm12.977127 -1.78125q0.15625 0 0.5 0.4375q0.34375 0.4375 0.453125 0.859375l-0.28125 0.359375q-0.328125 -0.171875 -0.796875 -0.171875q-0.46875 0 -0.875 0.203125q0.65625 0.8125 0.65625 2.125q0 1.296875 -0.859375 2.21875q-0.859375 0.921875 -2.546875 0.921875q-0.421875 0 -0.8125 -0.046875q-0.703125 0.890625 -0.703125 1.21875q0 0.4375 1.21875 0.4375l1.40625 0q3.515625 0 3.515625 2.265625q0 1.28125 -1.40625 2.296875q-1.40625 1.03125 -3.78125 1.03125q-1.375 0 -2.390625 -0.453125q-1.0 -0.453125 -1.0 -1.296875q0 -1.203125 1.921875 -2.75q-1.171875 -0.25 -1.171875 -0.890625q0 -0.640625 1.671875 -2.0q-1.875 -0.59375 -1.875 -3.0q0 -1.234375 0.859375 -2.15625q0.875 -0.921875 2.453125 -0.921875q1.578125 0 2.359375 0.5625q0.21875 -0.359375 0.6875 -0.796875q0.46875 -0.453125 0.796875 -0.453125zm-6.140625 11.78125q0 0.734375 0.546875 1.171875q0.546875 0.453125 1.765625 0.453125q1.234375 0 2.1875 -0.78125q0.953125 -0.765625 0.953125 -1.640625q0 -0.5625 -0.484375 -0.921875q-0.484375 -0.34375 -1.515625 -0.34375l-2.515625 0q-0.9375 1.046875 -0.9375 2.0625zm2.40625 -10.328125q-0.53125 0 -0.9375 0.25q-0.40625 0.25 -0.59375 0.640625q-0.3125 0.75 -0.3125 1.59375q0 0.828125 0.421875 1.546875q0.421875 0.703125 1.359375 0.703125q0.671875 0 1.109375 -0.390625q0.4375 -0.40625 0.578125 -0.828125q0.140625 -0.4375 0.15625 -0.90625q0 -2.609375 -1.78125 -2.609375zm11.094696 1.828125q0 -0.859375 -0.5 -1.28125q-0.484375 -0.421875 -1.078125 -0.421875q-0.875 0 -1.515625 0.703125q-0.625 0.6875 -0.828125 1.6875l3.859375 -0.140625q0.0625 -0.28125 0.0625 -0.546875zm-1.625 6.140625q-1.984375 0 -3.0 -1.125q-1.0 -1.140625 -1.0 -3.015625q0 -1.875 1.109375 -3.234375q1.109375 -1.375 3.359375 -1.375q1.125 0 1.96875 0.796875q0.859375 0.796875 0.859375 2.390625l-0.640625 0.765625q-0.109375 -0.015625 -1.765625 -0.015625q-1.640625 0 -3.296875 0.125l0 0.171875q0 1.6875 0.703125 2.546875q0.703125 0.84375 1.9375 0.84375q1.234375 0 2.59375 -0.59375l0.234375 0.5625q-1.4375 1.15625 -3.0625 1.15625zm9.828842 -8.859375q0.140625 0 0.484375 0.4375q0.359375 0.4375 0.46875 0.859375l-0.28125 0.359375q-0.671875 -0.265625 -1.40625 -0.265625q-0.71875 0 -1.328125 0.609375q-0.59375 0.609375 -0.59375 1.953125q0.03125 3.28125 0.171875 3.8125q0.015625 0.15625 0.53125 0.28125q0.515625 0.125 1.078125 0.15625l-0.0625 0.546875q-0.890625 -0.0625 -2.265625 -0.0625q-1.375 0 -2.265625 0.0625l0.0625 -0.546875q0.375 -0.03125 0.78125 -0.15625q0.40625 -0.125 0.421875 -0.25q0.15625 -0.65625 0.15625 -2.609375q0 -3.171875 -0.15625 -3.890625l-1.1875 -0.359375l-0.046875 -0.484375q1.203125 0 2.46875 -0.328125l0.359375 0.171875q-0.046875 0.28125 -0.046875 1.53125q0.546875 -0.90625 1.375 -1.359375q0.828125 -0.46875 1.28125 -0.46875zm13.166214 -3.4375q-1.078125 0 -1.921875 0.4375q-0.828125 0.421875 -1.328125 1.0625q-0.484375 0.625 -0.78125 1.421875q-0.515625 1.34375 -0.515625 2.625q0 1.265625 0.21875 2.28125q0.234375 1.015625 0.71875 1.875q0.484375 0.859375 1.359375 1.34375q0.875 0.484375 1.96875 0.484375q1.09375 0 1.890625 -0.375q0.796875 -0.375 1.296875 -0.9375q0.5 -0.578125 0.828125 -1.296875q0.59375 -1.296875 0.640625 -2.625q0 -6.296875 -4.375 -6.296875zm4.765625 10.1875q-0.78125 1.015625 -2.125 1.625q-1.34375 0.609375 -3.125 0.609375q-3.0625 0 -4.546875 -1.640625q-1.46875 -1.65625 -1.46875 -4.515625q0 -2.875 1.5625 -4.921875q0.78125 -1.03125 2.125 -1.625q1.34375 -0.609375 3.109375 -0.609375q3.0625 0 4.546875 1.640625q1.484375 1.640625 1.484375 4.5q0 2.84375 -1.5625 4.9375zm7.2575684 1.109375q1.484375 0 2.234375 -0.984375q0.75 -1.0 0.75 -2.375q0 -1.390625 -0.65625 -2.296875q-0.640625 -0.921875 -1.921875 -0.921875q-0.5 0 -1.15625 0.1875q-0.65625 0.1875 -0.96875 0.390625l0 5.6875q0.890625 0.3125 1.71875 0.3125zm-0.359375 5.734375q-0.890625 -0.0625 -2.171875 -0.0625q-1.265625 0 -2.15625 0.0625l0.0625 -0.546875q1.25 -0.109375 1.28125 -0.34375q0.21875 -1.0625 0.21875 -4.53125q0 -5.609375 -0.109375 -6.5625l-0.03125 -0.3125l-1.203125 -0.359375l-0.03125 -0.484375q1.171875 0 2.4375 -0.328125l0.359375 0.171875l0 0.90625q1.453125 -1.09375 2.96875 -1.09375q1.515625 0 2.4375 1.015625q0.9375 1.0 0.9375 3.15625q0 2.15625 -1.171875 3.375q-1.171875 1.203125 -2.875 1.203125q-1.234375 0 -2.3125 -0.59375q0.015625 4.171875 0.109375 4.4375q0.03125 0.234375 1.3125 0.34375l-0.0625 0.546875zm12.076935 -10.875q0 -0.859375 -0.5 -1.28125q-0.484375 -0.421875 -1.078125 -0.421875q-0.875 0 -1.515625 0.703125q-0.625 0.6875 -0.828125 1.6875l3.859375 -0.140625q0.0625 -0.28125 0.0625 -0.546875zm-1.625 6.140625q-1.984375 0 -3.0 -1.125q-1.0 -1.140625 -1.0 -3.015625q0 -1.875 1.109375 -3.234375q1.109375 -1.375 3.359375 -1.375q1.125 0 1.96875 0.796875q0.859375 0.796875 0.859375 2.390625l-0.640625 0.765625q-0.109375 -0.015625 -1.765625 -0.015625q-1.640625 0 -3.296875 0.125l0 0.171875q0 1.6875 0.703125 2.546875q0.703125 0.84375 1.9375 0.84375q1.234375 0 2.59375 -0.59375l0.234375 0.5625q-1.4375 1.15625 -3.0625 1.15625zm9.828842 -8.859375q0.140625 0 0.484375 0.4375q0.359375 0.4375 0.46875 0.859375l-0.28125 0.359375q-0.671875 -0.265625 -1.40625 -0.265625q-0.71875 0 -1.328125 0.609375q-0.59375 0.609375 -0.59375 1.953125q0.03125 3.28125 0.171875 3.8125q0.015625 0.15625 0.53125 0.28125q0.515625 0.125 1.078125 0.15625l-0.0625 0.546875q-0.890625 -0.0625 -2.265625 -0.0625q-1.375 0 -2.265625 0.0625l0.0625 -0.546875q0.375 -0.03125 0.78125 -0.15625q0.40625 -0.125 0.421875 -0.25q0.15625 -0.65625 0.15625 -2.609375q0 -3.171875 -0.15625 -3.890625l-1.1875 -0.359375l-0.046875 -0.484375q1.203125 0 2.46875 -0.328125l0.359375 0.171875q-0.046875 0.28125 -0.046875 1.53125q0.546875 -0.90625 1.375 -1.359375q0.828125 -0.46875 1.28125 -0.46875zm6.5021515 4.765625q-1.515625 0.046875 -2.328125 0.59375q-0.796875 0.53125 -0.796875 1.171875q0 0.625 0.328125 0.921875q0.328125 0.28125 1.046875 0.28125q0.734375 0 1.75 -0.609375l0 -2.359375zm1.375 4.09375q-1.125 0 -1.3125 -1.21875q-1.640625 1.21875 -2.828125 1.21875q-0.8125 0 -1.375 -0.5q-0.546875 -0.5 -0.546875 -1.53125q0 -1.046875 1.109375 -1.890625q1.109375 -0.84375 3.578125 -1.0l0 -1.75q0 -0.515625 -0.375 -0.796875q-0.375 -0.28125 -1.078125 -0.28125q-0.6875 0 -1.09375 0.390625q-0.40625 0.375 -0.40625 0.96875q0 0.234375 0.046875 0.515625l-0.40625 0.1875q-0.375 -0.21875 -0.703125 -0.5625q-0.328125 -0.359375 -0.328125 -0.515625q0 -0.15625 0.25 -0.46875q0.25 -0.3125 0.671875 -0.65625q0.4375 -0.359375 1.15625 -0.609375q0.71875 -0.25 1.609375 -0.25q0.90625 0 1.46875 0.4375q0.5625 0.4375 0.5625 1.59375q0 1.140625 0.109375 4.828125q0.015625 0.890625 0.671875 0.890625q0.28125 0 0.578125 -0.140625l0.1875 0.484375q-0.71875 0.65625 -1.546875 0.65625zm5.3696747 0q-1.9375153 0 -1.9375153 -1.875q0.015625 -1.640625 0.015625 -3.0q0 -1.375 -0.046875 -2.875l-1.1875 0.015625l-0.0625 -0.203125l0.4375 -0.71875q0.265625 0.046875 0.78125 0.078125l-0.078125 -1.71875l1.234375 -1.109375l0.35939026 0.171875q-0.04689026 1.375 -0.04689026 2.625l2.7500153 -0.015625l0.09375 0.21875l-0.671875 0.75q-0.640625 -0.078125 -2.1718903 -0.09375l0 2.5q0 2.328125 0.06251526 3.34375q0.0625 0.84375 0.984375 0.84375q0.75 0 1.640625 -0.4375l0.234375 0.625q-1.328125 0.875 -2.390625 0.875zm5.741211 -10.953125q-0.28125 0.28125 -0.6875 0.28125q-0.40625 0 -0.6875 -0.28125q-0.28125 -0.296875 -0.28125 -0.71875q0 -0.421875 0.28125 -0.703125q0.28125 -0.28125 0.6875 -0.28125q0.40625 0 0.6875 0.28125q0.28125 0.28125 0.28125 0.703125q0 0.421875 -0.28125 0.71875zm0.078125 2.390625l-0.03125 4.125q0 2.40625 0.140625 3.125l0.03125 0.25q0.03125 0.125 0.484375 0.25q0.453125 0.125 0.84375 0.15625l-0.046875 0.546875q-0.90625 -0.0625 -2.1875 -0.0625q-1.28125 0 -2.1875 0.0625l0.0625 -0.546875q0.390625 -0.03125 0.828125 -0.15625q0.453125 -0.125 0.46875 -0.25q0.15625 -0.65625 0.15625 -2.609375q0 -3.171875 -0.15625 -3.890625l-1.1875 -0.359375l-0.03125 -0.484375q1.1875 0 2.453125 -0.328125l0.359375 0.171875zm6.7554626 0.71875q-0.765625 0 -1.328125 0.390625q-0.5625 0.375 -0.828125 0.953125q-0.5 1.0625 -0.5 2.03125q0 1.53125 0.609375 2.546875q0.625 1.015625 1.953125 1.015625q0.703125 0 1.234375 -0.3125q0.546875 -0.328125 0.828125 -0.859375q0.546875 -0.96875 0.578125 -1.9375q0 -3.828125 -2.546875 -3.828125zm0.09375 -0.90625q2.125 0 3.09375 1.078125q0.96875 1.078125 0.96875 3.015625q0 1.921875 -1.109375 3.296875q-1.109375 1.359375 -3.234375 1.359375q-2.125 0 -3.09375 -1.078125q-0.96875 -1.078125 -0.96875 -3.0q0 -1.921875 1.109375 -3.296875q1.109375 -1.375 3.234375 -1.375zm8.025421 1.734375l-0.03125 2.578125q0 2.40625 0.15625 3.125l0.03125 0.25q0.03125 0.125 0.421875 0.25q0.40625 0.125 0.78125 0.15625l-0.0625 0.546875q-0.890625 -0.0625 -2.046875 -0.0625q-1.15625 0 -2.0625 0.0625l0.0625 -0.546875q0.359375 -0.03125 0.75 -0.15625q0.40625 -0.125 0.421875 -0.25q0.15625 -0.65625 0.15625 -2.609375q0 -3.171875 -0.15625 -3.890625l-1.1875 -0.359375l-0.046875 -0.484375q1.203125 0 2.46875 -0.328125l0.359375 0.171875l0 0.890625q2.0625 -1.078125 3.59375 -1.078125q0.9375 0 1.421875 0.375q0.484375 0.375 0.484375 1.390625l0 2.546875q0 2.40625 0.125 3.125l0.0625 0.25q0.015625 0.125 0.40625 0.25q0.40625 0.125 0.78125 0.15625l-0.046875 0.546875q-0.90625 -0.0625 -2.0625 -0.0625q-1.15625 0 -2.046875 0.0625l0.0625 -0.546875q0.34375 -0.03125 0.75 -0.15625q0.40625 -0.125 0.421875 -0.25q0.140625 -0.65625 0.140625 -3.375l0 -1.8125q0 -0.734375 -0.421875 -1.015625q-0.421875 -0.28125 -1.453125 -0.28125q-1.03125 0 -2.234375 0.53125zm16.783447 -5.53125q-0.078125 1.984375 -0.078125 4.875q0 4.6875 0.109375 5.828125l0.046875 0.390625q0.03125 0.3125 0.375 0.46875q0.34375 0.140625 1.3125 0.328125l-0.046875 0.546875q-1.125 -0.0625 -2.6875 -0.0625q-1.5625 0 -3.015625 0.0625l-0.0625 -0.546875q0.3125 -0.078125 0.6875 -0.140625q0.390625 -0.0625 0.625 -0.109375q0.234375 -0.0625 0.359375 -0.109375q0.140625 -0.046875 0.265625 -0.125q0.25 -0.109375 0.28125 -0.3125q0.125 -1.109375 0.125 -4.0q0 -4.5 -0.109375 -5.546875l-0.015625 -0.296875l-2.25 -0.390625l-0.0625 -0.671875q2.328125 0 3.75 -0.375l0.390625 0.1875z" fill-rule="nonzero"/><path fill="#b4a7d6" d="m121.6063 279.5802l0 0c0 -4.2647095 3.4572296 -7.721924 7.7219315 -7.721924l174.63487 0c2.0479736 0 4.012085 0.8135376 5.4602356 2.2616882c1.4481506 1.4481506 2.2616882 3.412262 2.2616882 5.4602356l0 30.88684c0 4.2647095 -3.4572144 7.721924 -7.721924 7.721924l-174.63487 0c-4.264702 0 -7.7219315 -3.4572144 -7.7219315 -7.721924z" fill-rule="evenodd"/><path stroke="#000000" stroke-width="1.0" stroke-linejoin="round" stroke-linecap="butt" d="m121.6063 279.5802l0 0c0 -4.2647095 3.4572296 -7.721924 7.7219315 -7.721924l174.63487 0c2.0479736 0 4.012085 0.8135376 5.4602356 2.2616882c1.4481506 1.4481506 2.2616882 3.412262 2.2616882 5.4602356l0 30.88684c0 4.2647095 -3.4572144 7.721924 -7.721924 7.721924l-174.63487 0c-4.264702 0 -7.7219315 -3.4572144 -7.7219315 -7.721924z" fill-rule="evenodd"/><path fill="#000000" d="m141.4352 300.66238q0.03125 0.28125 0.59375 0.453125q0.5625 0.15625 1.3125 0.15625q0.765625 0 1.28125 -0.0625q0.515625 -0.0625 1.09375 -0.3125q1.078125 -0.421875 1.640625 -2.140625l0.5 0.21875q-0.328125 1.03125 -0.4375 2.96875l-7.34375 0q-1.0625 0 -2.234375 0.0625l-0.0625 -0.546875q0.953125 -0.1875 1.28125 -0.328125q0.34375 -0.15625 0.390625 -0.46875q0.15625 -1.09375 0.15625 -3.984375q0 -4.703125 -0.109375 -5.859375l-0.03125 -0.375q-0.03125 -0.328125 -0.34375 -0.46875q-0.296875 -0.140625 -1.1875 -0.328125l0.0625 -0.53125q1.171875 0.046875 2.453125 0.046875q1.296875 0 2.46875 -0.046875l0.046875 0.53125q-0.890625 0.1875 -1.1875 0.328125q-0.296875 0.140625 -0.34375 0.46875q-0.140625 1.109375 -0.140625 4.0q0 4.6875 0.109375 5.828125l0.03125 0.390625zm12.961258 -4.6875q0 -0.859375 -0.5 -1.28125q-0.484375 -0.421875 -1.078125 -0.421875q-0.875 0 -1.515625 0.703125q-0.625 0.6875 -0.828125 1.6875l3.859375 -0.140625q0.0625 -0.28125 0.0625 -0.546875zm-1.625 6.140625q-1.984375 0 -3.0 -1.125q-1.0 -1.140625 -1.0 -3.015625q0 -1.875 1.109375 -3.234375q1.109375 -1.375 3.359375 -1.375q1.125 0 1.96875 0.796875q0.859375 0.796875 0.859375 2.390625l-0.640625 0.765625q-0.109375 -0.015625 -1.765625 -0.015625q-1.640625 0 -3.296875 0.125l0 0.171875q0 1.6875 0.703125 2.546875q0.703125 0.84375 1.9375 0.84375q1.234375 0 2.59375 -0.59375l0.234375 0.5625q-1.4375 1.15625 -3.0625 1.15625zm10.906967 -1.21875q-1.28125 1.21875 -2.8125 1.21875q-1.53125 0 -2.515625 -1.109375q-0.96875 -1.109375 -0.96875 -3.171875q0 -2.0625 1.15625 -3.265625q1.171875 -1.21875 2.890625 -1.21875q0.921875 0 2.234375 0.640625q0 -3.453125 -0.109375 -4.234375l-0.046875 -0.25l-1.1875 -0.359375l-0.03125 -0.484375q1.1875 0 2.453125 -0.34375l0.359375 0.171875q-0.046875 2.328125 -0.046875 6.609375q0 4.265625 0.03125 4.890625q0.046875 0.609375 0.171875 0.765625q0.125 0.15625 0.359375 0.234375q0.390625 0.109375 0.921875 0.15625l-0.0625 0.53125q-0.671875 0.0625 -2.03125 0.34375q-0.5625 -0.25 -0.765625 -1.125zm-1.765625 -6.421875q-1.484375 0 -2.1875 0.96875q-0.6875 0.953125 -0.6875 2.375q0 1.421875 0.609375 2.28125q0.625 0.84375 1.75 0.84375q1.140625 0 2.171875 -0.65625q0.09375 -1.5 0.09375 -5.46875q-0.96875 -0.34375 -1.75 -0.34375zm12.977127 -1.78125q0.15625 0 0.5 0.4375q0.34375 0.4375 0.453125 0.859375l-0.28125 0.359375q-0.328125 -0.171875 -0.796875 -0.171875q-0.46875 0 -0.875 0.203125q0.65625 0.8125 0.65625 2.125q0 1.296875 -0.859375 2.21875q-0.859375 0.921875 -2.546875 0.921875q-0.421875 0 -0.8125 -0.046875q-0.703125 0.890625 -0.703125 1.21875q0 0.4375 1.21875 0.4375l1.40625 0q3.515625 0 3.515625 2.265625q0 1.28125 -1.40625 2.296875q-1.40625 1.03125 -3.78125 1.03125q-1.375 0 -2.390625 -0.453125q-1.0 -0.453125 -1.0 -1.296875q0 -1.203125 1.921875 -2.75q-1.171875 -0.25 -1.171875 -0.890625q0 -0.640625 1.671875 -2.0q-1.875 -0.59375 -1.875 -3.0q0 -1.234375 0.859375 -2.15625q0.875 -0.921875 2.453125 -0.921875q1.578125 0 2.359375 0.5625q0.21875 -0.359375 0.6875 -0.796875q0.46875 -0.453125 0.796875 -0.453125zm-6.140625 11.78125q0 0.734375 0.546875 1.171875q0.546875 0.453125 1.765625 0.453125q1.234375 0 2.1875 -0.78125q0.953125 -0.765625 0.953125 -1.640625q0 -0.5625 -0.484375 -0.921875q-0.484375 -0.34375 -1.515625 -0.34375l-2.515625 0q-0.9375 1.046875 -0.9375 2.0625zm2.40625 -10.328125q-0.53125 0 -0.9375 0.25q-0.40625 0.25 -0.59375 0.640625q-0.3125 0.75 -0.3125 1.59375q0 0.828125 0.421875 1.546875q0.421875 0.703125 1.359375 0.703125q0.671875 0 1.109375 -0.390625q0.4375 -0.40625 0.578125 -0.828125q0.140625 -0.4375 0.15625 -0.90625q0 -2.609375 -1.78125 -2.609375zm11.094696 1.828125q0 -0.859375 -0.5 -1.28125q-0.484375 -0.421875 -1.078125 -0.421875q-0.875 0 -1.515625 0.703125q-0.625 0.6875 -0.828125 1.6875l3.859375 -0.140625q0.0625 -0.28125 0.0625 -0.546875zm-1.625 6.140625q-1.984375 0 -3.0 -1.125q-1.0 -1.140625 -1.0 -3.015625q0 -1.875 1.109375 -3.234375q1.109375 -1.375 3.359375 -1.375q1.125 0 1.96875 0.796875q0.859375 0.796875 0.859375 2.390625l-0.640625 0.765625q-0.109375 -0.015625 -1.765625 -0.015625q-1.640625 0 -3.296875 0.125l0 0.171875q0 1.6875 0.703125 2.546875q0.703125 0.84375 1.9375 0.84375q1.234375 0 2.59375 -0.59375l0.234375 0.5625q-1.4375 1.15625 -3.0625 1.15625zm9.828842 -8.859375q0.140625 0 0.484375 0.4375q0.359375 0.4375 0.46875 0.859375l-0.28125 0.359375q-0.671875 -0.265625 -1.40625 -0.265625q-0.71875 0 -1.328125 0.609375q-0.59375 0.609375 -0.59375 1.953125q0.03125 3.28125 0.171875 3.8125q0.015625 0.15625 0.53125 0.28125q0.515625 0.125 1.078125 0.15625l-0.0625 0.546875q-0.890625 -0.0625 -2.265625 -0.0625q-1.375 0 -2.265625 0.0625l0.0625 -0.546875q0.375 -0.03125 0.78125 -0.15625q0.40625 -0.125 0.421875 -0.25q0.15625 -0.65625 0.15625 -2.609375q0 -3.171875 -0.15625 -3.890625l-1.1875 -0.359375l-0.046875 -0.484375q1.203125 0 2.46875 -0.328125l0.359375 0.171875q-0.046875 0.28125 -0.046875 1.53125q0.546875 -0.90625 1.375 -1.359375q0.828125 -0.46875 1.28125 -0.46875zm13.166214 -3.4375q-1.078125 0 -1.921875 0.4375q-0.828125 0.421875 -1.328125 1.0625q-0.484375 0.625 -0.78125 1.421875q-0.515625 1.34375 -0.515625 2.625q0 1.265625 0.21875 2.28125q0.234375 1.015625 0.71875 1.875q0.484375 0.859375 1.359375 1.34375q0.875 0.484375 1.96875 0.484375q1.09375 0 1.890625 -0.375q0.796875 -0.375 1.296875 -0.9375q0.5 -0.578125 0.828125 -1.296875q0.59375 -1.296875 0.640625 -2.625q0 -6.296875 -4.375 -6.296875zm4.765625 10.1875q-0.78125 1.015625 -2.125 1.625q-1.34375 0.609375 -3.125 0.609375q-3.0625 0 -4.546875 -1.640625q-1.46875 -1.65625 -1.46875 -4.515625q0 -2.875 1.5625 -4.921875q0.78125 -1.03125 2.125 -1.625q1.34375 -0.609375 3.109375 -0.609375q3.0625 0 4.546875 1.640625q1.484375 1.640625 1.484375 4.5q0 2.84375 -1.5625 4.9375zm7.2575684 1.109375q1.484375 0 2.234375 -0.984375q0.75 -1.0 0.75 -2.375q0 -1.390625 -0.65625 -2.296875q-0.640625 -0.921875 -1.921875 -0.921875q-0.5 0 -1.15625 0.1875q-0.65625 0.1875 -0.96875 0.390625l0 5.6875q0.890625 0.3125 1.71875 0.3125zm-0.359375 5.734375q-0.890625 -0.0625 -2.171875 -0.0625q-1.265625 0 -2.15625 0.0625l0.0625 -0.546875q1.25 -0.109375 1.28125 -0.34375q0.21875 -1.0625 0.21875 -4.53125q0 -5.609375 -0.109375 -6.5625l-0.03125 -0.3125l-1.203125 -0.359375l-0.03125 -0.484375q1.171875 0 2.4375 -0.328125l0.359375 0.171875l0 0.90625q1.453125 -1.09375 2.96875 -1.09375q1.515625 0 2.4375 1.015625q0.9375 1.0 0.9375 3.15625q0 2.15625 -1.171875 3.375q-1.171875 1.203125 -2.875 1.203125q-1.234375 0 -2.3125 -0.59375q0.015625 4.171875 0.109375 4.4375q0.03125 0.234375 1.3125 0.34375l-0.0625 0.546875zm12.076935 -10.875q0 -0.859375 -0.5 -1.28125q-0.484375 -0.421875 -1.078125 -0.421875q-0.875 0 -1.515625 0.703125q-0.625 0.6875 -0.828125 1.6875l3.859375 -0.140625q0.0625 -0.28125 0.0625 -0.546875zm-1.625 6.140625q-1.984375 0 -3.0 -1.125q-1.0 -1.140625 -1.0 -3.015625q0 -1.875 1.109375 -3.234375q1.109375 -1.375 3.359375 -1.375q1.125 0 1.96875 0.796875q0.859375 0.796875 0.859375 2.390625l-0.640625 0.765625q-0.109375 -0.015625 -1.765625 -0.015625q-1.640625 0 -3.296875 0.125l0 0.171875q0 1.6875 0.703125 2.546875q0.703125 0.84375 1.9375 0.84375q1.234375 0 2.59375 -0.59375l0.234375 0.5625q-1.4375 1.15625 -3.0625 1.15625zm9.828842 -8.859375q0.140625 0 0.484375 0.4375q0.359375 0.4375 0.46875 0.859375l-0.28125 0.359375q-0.671875 -0.265625 -1.40625 -0.265625q-0.71875 0 -1.328125 0.609375q-0.59375 0.609375 -0.59375 1.953125q0.03125 3.28125 0.171875 3.8125q0.015625 0.15625 0.53125 0.28125q0.515625 0.125 1.078125 0.15625l-0.0625 0.546875q-0.890625 -0.0625 -2.265625 -0.0625q-1.375 0 -2.265625 0.0625l0.0625 -0.546875q0.375 -0.03125 0.78125 -0.15625q0.40625 -0.125 0.421875 -0.25q0.15625 -0.65625 0.15625 -2.609375q0 -3.171875 -0.15625 -3.890625l-1.1875 -0.359375l-0.046875 -0.484375q1.203125 0 2.46875 -0.328125l0.359375 0.171875q-0.046875 0.28125 -0.046875 1.53125q0.546875 -0.90625 1.375 -1.359375q0.828125 -0.46875 1.28125 -0.46875zm6.5021515 4.765625q-1.515625 0.046875 -2.328125 0.59375q-0.796875 0.53125 -0.796875 1.171875q0 0.625 0.328125 0.921875q0.328125 0.28125 1.046875 0.28125q0.734375 0 1.75 -0.609375l0 -2.359375zm1.375 4.09375q-1.125 0 -1.3125 -1.21875q-1.640625 1.21875 -2.828125 1.21875q-0.8125 0 -1.375 -0.5q-0.546875 -0.5 -0.546875 -1.53125q0 -1.046875 1.109375 -1.890625q1.109375 -0.84375 3.578125 -1.0l0 -1.75q0 -0.515625 -0.375 -0.796875q-0.375 -0.28125 -1.078125 -0.28125q-0.6875 0 -1.09375 0.390625q-0.40625 0.375 -0.40625 0.96875q0 0.234375 0.046875 0.515625l-0.40625 0.1875q-0.375 -0.21875 -0.703125 -0.5625q-0.328125 -0.359375 -0.328125 -0.515625q0 -0.15625 0.25 -0.46875q0.25 -0.3125 0.671875 -0.65625q0.4375 -0.359375 1.15625 -0.609375q0.71875 -0.25 1.609375 -0.25q0.90625 0 1.46875 0.4375q0.5625 0.4375 0.5625 1.59375q0 1.140625 0.109375 4.828125q0.015625 0.890625 0.671875 0.890625q0.28125 0 0.578125 -0.140625l0.1875 0.484375q-0.71875 0.65625 -1.546875 0.65625zm5.3696594 0q-1.9375 0 -1.9375 -1.875q0.015625 -1.640625 0.015625 -3.0q0 -1.375 -0.046875 -2.875l-1.1875 0.015625l-0.0625 -0.203125l0.4375 -0.71875q0.265625 0.046875 0.78125 0.078125l-0.078125 -1.71875l1.234375 -1.109375l0.359375 0.171875q-0.046875 1.375 -0.046875 2.625l2.75 -0.015625l0.09375 0.21875l-0.671875 0.75q-0.640625 -0.078125 -2.171875 -0.09375l0 2.5q0 2.328125 0.0625 3.34375q0.0625 0.84375 0.984375 0.84375q0.75 0 1.640625 -0.4375l0.234375 0.625q-1.328125 0.875 -2.390625 0.875zm5.741226 -10.953125q-0.28125 0.28125 -0.6875 0.28125q-0.40625 0 -0.6875 -0.28125q-0.28125 -0.296875 -0.28125 -0.71875q0 -0.421875 0.28125 -0.703125q0.28125 -0.28125 0.6875 -0.28125q0.40625 0 0.6875 0.28125q0.28125 0.28125 0.28125 0.703125q0 0.421875 -0.28125 0.71875zm0.078125 2.390625l-0.03125 4.125q0 2.40625 0.140625 3.125l0.03125 0.25q0.03125 0.125 0.484375 0.25q0.453125 0.125 0.84373474 0.15625l-0.046875 0.546875q-0.90623474 -0.0625 -2.1874847 -0.0625q-1.28125 0 -2.1875 0.0625l0.0625 -0.546875q0.390625 -0.03125 0.828125 -0.15625q0.453125 -0.125 0.46875 -0.25q0.15625 -0.65625 0.15625 -2.609375q0 -3.171875 -0.15625 -3.890625l-1.1875 -0.359375l-0.03125 -0.484375q1.1875 0 2.453125 -0.328125l0.359375 0.171875zm6.7554474 0.71875q-0.765625 0 -1.328125 0.390625q-0.5625 0.375 -0.828125 0.953125q-0.5 1.0625 -0.5 2.03125q0 1.53125 0.609375 2.546875q0.625 1.015625 1.953125 1.015625q0.703125 0 1.234375 -0.3125q0.546875 -0.328125 0.828125 -0.859375q0.546875 -0.96875 0.578125 -1.9375q0 -3.828125 -2.546875 -3.828125zm0.09375 -0.90625q2.125 0 3.09375 1.078125q0.96875 1.078125 0.96875 3.015625q0 1.921875 -1.109375 3.296875q-1.109375 1.359375 -3.234375 1.359375q-2.125 0 -3.09375 -1.078125q-0.96875 -1.078125 -0.96875 -3.0q0 -1.921875 1.109375 -3.296875q1.109375 -1.375 3.234375 -1.375zm8.025421 1.734375l-0.03125 2.578125q0 2.40625 0.15625 3.125l0.03125 0.25q0.03125 0.125 0.421875 0.25q0.40625 0.125 0.78125 0.15625l-0.0625 0.546875q-0.890625 -0.0625 -2.046875 -0.0625q-1.15625 0 -2.0625 0.0625l0.0625 -0.546875q0.359375 -0.03125 0.75 -0.15625q0.40625 -0.125 0.421875 -0.25q0.15625 -0.65625 0.15625 -2.609375q0 -3.171875 -0.15625 -3.890625l-1.1875 -0.359375l-0.046875 -0.484375q1.203125 0 2.46875 -0.328125l0.359375 0.171875l0 0.890625q2.0625 -1.078125 3.59375 -1.078125q0.9375 0 1.421875 0.375q0.484375 0.375 0.484375 1.390625l0 2.546875q0 2.40625 0.125 3.125l0.0625 0.25q0.015625 0.125 0.40625 0.25q0.40625 0.125 0.78125 0.15625l-0.046875 0.546875q-0.90625 -0.0625 -2.0625 -0.0625q-1.15625 0 -2.046875 0.0625l0.0625 -0.546875q0.34375 -0.03125 0.75 -0.15625q0.40625 -0.125 0.421875 -0.25q0.140625 -0.65625 0.140625 -3.375l0 -1.8125q0 -0.734375 -0.421875 -1.015625q-0.421875 -0.28125 -1.453125 -0.28125q-1.03125 0 -2.234375 0.53125zm23.220947 4.375q0.03125 -1.03125 0.03125 -3.375q0 -4.265625 -0.109375 -5.28125l-0.046875 -0.375q-0.0625 -0.4375 -1.0 -0.625q-0.21875 -0.0625 -0.765625 -0.171875l0.0625 -0.53125q1.171875 0.046875 2.3125 0.046875q1.15625 0 2.328125 -0.046875l0.0625 0.53125q-0.890625 0.1875 -1.203125 0.328125q-0.296875 0.140625 -0.328125 0.46875q-0.1875 1.109375 -0.1875 4.0q0 4.421875 0.15625 6.796875l0.046875 0.703125l-1.484375 0.171875l-7.578125 -10.1875l-0.09375 0q-0.078125 1.640625 -0.078125 3.515625q0 3.53125 0.15625 4.828125l0.046875 0.390625q0.0625 0.4375 1.0 0.640625q0.21875 0.046875 0.75 0.15625l-0.046875 0.546875q-1.171875 -0.0625 -2.46875 -0.0625q-1.28125 0 -2.453125 0.0625l-0.0625 -0.546875q0.984375 -0.1875 1.375 -0.328125q0.40625 -0.15625 0.4375 -0.46875q0.140625 -1.09375 0.140625 -3.984375q0 -4.703125 -0.109375 -5.859375l-0.03125 -0.375q-0.03125 -0.328125 -0.34375 -0.46875q-0.296875 -0.140625 -1.1875 -0.328125l0.0625 -0.53125q1.171875 0.046875 2.765625 0.046875l7.75 10.3125l0.09375 0z" fill-rule="nonzero"/><path fill="#000000" fill-opacity="0.0" d="m216.64568 230.18898l0 41.669296" fill-rule="evenodd"/><path stroke="#000000" stroke-width="4.0" stroke-linejoin="round" stroke-linecap="butt" stroke-dasharray="4.0,12.0" d="m216.64568 230.18898l0 41.669296" fill-rule="evenodd"/></g></svg>