<?xml version="1.0" standalone="yes"?>

<svg version="1.1" viewBox="0.0 0.0 768.0 192.0" fill="none" stroke="none" stroke-linecap="square" stroke-miterlimit="10" xmlns="http://www.w3.org/2000/svg" xmlns:xlink="http://www.w3.org/1999/xlink"><clipPath id="p.0"><path d="m0 0l768.0 0l0 192.0l-768.0 0l0 -192.0z" clip-rule="nonzero"></path></clipPath><g clip-path="url(#p.0)"><path fill="#000000" fill-opacity="0.0" d="m0 0l768.0 0l0 192.0l-768.0 0z" fill-rule="nonzero"></path><path fill="#b4a7d6" d="m52.952755 45.603832l0 0c0 -4.3371887 3.5159874 -7.853176 7.853176 -7.853176l88.13616 0c2.0827942 0 4.0802917 0.82738495 5.5530396 2.3001404c1.4727631 1.4727592 2.3001404 3.4702454 2.3001404 5.5530357l0 31.411762c0 4.3371887 -3.5159912 7.8531723 -7.85318 7.8531723l-88.13616 0c-4.3371887 0 -7.853176 -3.5159836 -7.853176 -7.8531723z" fill-rule="nonzero"></path><path stroke="#000000" stroke-width="1.0" stroke-linejoin="round" stroke-linecap="butt" d="m52.952755 45.603832l0 0c0 -4.3371887 3.5159874 -7.853176 7.853176 -7.853176l88.13616 0c2.0827942 0 4.0802917 0.82738495 5.5530396 2.3001404c1.4727631 1.4727592 2.3001404 3.4702454 2.3001404 5.5530357l0 31.411762c0 4.3371887 -3.5159912 7.8531723 -7.85318 7.8531723l-88.13616 0c-4.3371887 0 -7.853176 -3.5159836 -7.853176 -7.8531723z" fill-rule="nonzero"></path><path fill="#000000" d="m91.9475 59.39096q-0.265625 -0.953125 -0.734375 -1.296875q-0.453125 -0.359375 -1.1875 -0.359375q-0.734375 0 -1.125 0.359375q-0.390625 0.359375 -0.390625 0.875q0 0.84375 0.859375 1.421875l2.0625 1.34375q1.34375 0.875 1.34375 2.09375q0 0.96875 -0.78125 1.6875q-0.765625 0.71875 -2.25 0.71875q-1.46875 0 -2.578125 -0.46875q0.203125 -1.0625 0.203125 -1.90625l0.359375 -0.15625q0.1875 1.0625 0.59375 1.46875q0.421875 0.40625 1.296875 0.40625q0.890625 0 1.34375 -0.421875q0.46875 -0.4375 0.46875 -1.015625q0 -0.796875 -0.84375 -1.34375l-2.078125 -1.375q-1.203125 -0.765625 -1.203125 -2.0q0 -0.9375 0.734375 -1.625q0.75 -0.703125 1.9375 -0.703125q0.390625 0 0.859375 0.09375q0.484375 0.09375 0.734375 0.09375q0.25 0 0.578125 -0.078125l0 0.203125q0 0.9375 0.15625 1.828125l-0.359375 0.15625zm4.1622314 6.828125q-1.34375 0 -1.34375 -1.296875q0.015625 -1.140625 0.015625 -2.09375q0 -0.953125 -0.03125 -2.0l-0.828125 0.015625l-0.046875 -0.140625l0.296875 -0.515625q0.1875 0.046875 0.546875 0.0625l-0.046875 -1.203125l0.859375 -0.765625l0.25 0.125q-0.03125 0.953125 -0.03125 1.828125l1.90625 -0.015625l0.0625 0.15625l-0.46875 0.515625q-0.4375 -0.046875 -1.5 -0.0625l0 1.75q0 1.625 0.03125 2.328125q0.046875 0.578125 0.703125 0.578125q0.515625 0 1.140625 -0.296875l0.15625 0.421875q-0.921875 0.609375 -1.671875 0.609375zm5.6082764 -2.84375q-1.0625 0.03125 -1.625 0.40625q-0.5625 0.375 -0.5625 0.828125q0 0.4375 0.21875 0.640625q0.234375 0.203125 0.734375 0.203125q0.515625 0 1.234375 -0.4375l0 -1.640625zm0.953125 2.84375q-0.78125 0 -0.90625 -0.84375q-1.15625 0.84375 -1.984375 0.84375q-0.5625 0 -0.953125 -0.34375q-0.390625 -0.34375 -0.390625 -1.0625q0 -0.734375 0.765625 -1.3125q0.78125 -0.59375 2.515625 -0.703125l0 -1.21875q0 -0.359375 -0.265625 -0.546875q-0.265625 -0.203125 -0.75 -0.203125q-0.484375 0 -0.765625 0.265625q-0.28125 0.265625 -0.28125 0.6875q0 0.15625 0.03125 0.34375l-0.28125 0.140625q-0.265625 -0.140625 -0.5 -0.390625q-0.21875 -0.25 -0.21875 -0.359375q0 -0.109375 0.171875 -0.328125q0.1875 -0.21875 0.484375 -0.453125q0.296875 -0.25 0.796875 -0.421875q0.5 -0.1875 1.125 -0.1875q0.625 0 1.015625 0.3125q0.390625 0.296875 0.390625 1.109375q0 0.796875 0.078125 3.359375q0.015625 0.625 0.46875 0.625q0.1875 0 0.40625 -0.09375l0.125 0.328125q-0.5 0.453125 -1.078125 0.453125zm3.8878021 0q-1.34375 0 -1.34375 -1.296875q0.015625 -1.140625 0.015625 -2.09375q0 -0.953125 -0.03125 -2.0l-0.828125 0.015625l-0.046875 -0.140625l0.296875 -0.515625q0.1875 0.046875 0.546875 0.0625l-0.046875 -1.203125l0.859375 -0.765625l0.25 0.125q-0.03125 0.953125 -0.03125 1.828125l1.90625 -0.015625l0.0625 0.15625l-0.46875 0.515625q-0.4375 -0.046875 -1.5 -0.0625l0 1.75q0 1.625 0.03125 2.328125q0.046875 0.578125 0.703125 0.578125q0.515625 0 1.140625 -0.296875l0.15625 0.421875q-0.921875 0.609375 -1.671875 0.609375zm6.2176514 -4.265625q0 -0.609375 -0.34375 -0.890625q-0.328125 -0.296875 -0.75 -0.296875q-0.609375 0 -1.046875 0.484375q-0.4375 0.484375 -0.59375 1.1875l2.703125 -0.109375q0.03125 -0.203125 0.03125 -0.375zm-1.125 4.265625q-1.375 0 -2.078125 -0.78125q-0.703125 -0.78125 -0.703125 -2.078125q0 -1.3125 0.765625 -2.265625q0.78125 -0.96875 2.34375 -0.96875q0.78125 0 1.375 0.5625q0.59375 0.5625 0.59375 1.671875l-0.4375 0.53125q-0.078125 -0.015625 -1.234375 -0.015625q-1.140625 0 -2.296875 0.09375l0 0.109375q0 1.1875 0.484375 1.78125q0.5 0.59375 1.359375 0.59375q0.859375 0 1.796875 -0.421875l0.15625 0.390625q-1.0 0.796875 -2.125 0.796875zm9.605843 -8.734375q-0.0625 1.390625 -0.0625 3.40625q0 3.25 0.078125 4.046875l0.03125 0.28125q0.03125 0.21875 0.265625 0.328125q0.25 0.09375 0.921875 0.21875l-0.046875 0.375q-0.78125 -0.03125 -1.875 -0.03125q-1.078125 0 -2.0937424 0.03125l-0.046875 -0.375q0.21875 -0.046875 0.484375 -0.09375q0.28125 -0.046875 0.43749237 -0.078125q0.15625 -0.046875 0.25 -0.078125q0.09375 -0.03125 0.1875 -0.078125q0.171875 -0.078125 0.1875 -0.21875q0.09375 -0.765625 0.09375 -2.78125q0 -3.140625 -0.078125 -3.875l-0.015625 -0.203125l-1.5624924 -0.265625l-0.046875 -0.46875q1.6249924 0 2.6093674 -0.265625l0.28125 0.125z" fill-rule="nonzero"></path><path fill="#b4a7d6" d="m332.07874 45.603832l0 0c0 -4.3371887 3.5159912 -7.853176 7.85318 -7.853176l88.13617 0c2.0827942 0 4.0802917 0.82738495 5.5530396 2.3001404c1.4727478 1.4727592 2.3001404 3.4702454 2.3001404 5.5530357l0 31.411762c0 4.3371887 -3.5159912 7.8531723 -7.85318 7.8531723l-88.13617 0c-4.3371887 0 -7.85318 -3.5159836 -7.85318 -7.8531723z" fill-rule="nonzero"></path><path stroke="#000000" stroke-width="1.0" stroke-linejoin="round" stroke-linecap="butt" d="m332.07874 45.603832l0 0c0 -4.3371887 3.5159912 -7.853176 7.85318 -7.853176l88.13617 0c2.0827942 0 4.0802917 0.82738495 5.5530396 2.3001404c1.4727478 1.4727592 2.3001404 3.4702454 2.3001404 5.5530357l0 31.411762c0 4.3371887 -3.5159912 7.8531723 -7.85318 7.8531723l-88.13617 0c-4.3371887 0 -7.85318 -3.5159836 -7.85318 -7.8531723z" fill-rule="nonzero"></path><path fill="#000000" d="m370.31378 59.39096q-0.265625 -0.953125 -0.734375 -1.296875q-0.453125 -0.359375 -1.1875 -0.359375q-0.734375 0 -1.125 0.359375q-0.390625 0.359375 -0.390625 0.875q0 0.84375 0.859375 1.421875l2.0625 1.34375q1.34375 0.875 1.34375 2.09375q0 0.96875 -0.78125 1.6875q-0.765625 0.71875 -2.25 0.71875q-1.46875 0 -2.578125 -0.46875q0.203125 -1.0625 0.203125 -1.90625l0.359375 -0.15625q0.1875 1.0625 0.59375 1.46875q0.421875 0.40625 1.296875 0.40625q0.890625 0 1.34375 -0.421875q0.46875 -0.4375 0.46875 -1.015625q0 -0.796875 -0.84375 -1.34375l-2.078125 -1.375q-1.203125 -0.765625 -1.203125 -2.0q0 -0.9375 0.734375 -1.625q0.75 -0.703125 1.9375 -0.703125q0.390625 0 0.859375 0.09375q0.484375 0.09375 0.734375 0.09375q0.25 0 0.578125 -0.078125l0 0.203125q0 0.9375 0.15625 1.828125l-0.359375 0.15625zm4.1622314 6.828125q-1.34375 0 -1.34375 -1.296875q0.015625 -1.140625 0.015625 -2.09375q0 -0.953125 -0.03125 -2.0l-0.828125 0.015625l-0.046875 -0.140625l0.296875 -0.515625q0.1875 0.046875 0.546875 0.0625l-0.046875 -1.203125l0.859375 -0.765625l0.25 0.125q-0.03125 0.953125 -0.03125 1.828125l1.90625 -0.015625l0.0625 0.15625l-0.46875 0.515625q-0.4375 -0.046875 -1.5 -0.0625l0 1.75q0 1.625 0.03125 2.328125q0.046875 0.578125 0.703125 0.578125q0.515625 0 1.140625 -0.296875l0.15625 0.421875q-0.921875 0.609375 -1.671875 0.609375zm5.6082764 -2.84375q-1.0625 0.03125 -1.625 0.40625q-0.5625 0.375 -0.5625 0.828125q0 0.4375 0.21875 0.640625q0.234375 0.203125 0.734375 0.203125q0.515625 0 1.234375 -0.4375l0 -1.640625zm0.953125 2.84375q-0.78125 0 -0.90625 -0.84375q-1.15625 0.84375 -1.984375 0.84375q-0.5625 0 -0.953125 -0.34375q-0.390625 -0.34375 -0.390625 -1.0625q0 -0.734375 0.765625 -1.3125q0.78125 -0.59375 2.515625 -0.703125l0 -1.21875q0 -0.359375 -0.265625 -0.546875q-0.265625 -0.203125 -0.75 -0.203125q-0.484375 0 -0.765625 0.265625q-0.28125 0.265625 -0.28125 0.6875q0 0.15625 0.03125 0.34375l-0.28125 0.140625q-0.265625 -0.140625 -0.5 -0.390625q-0.21875 -0.25 -0.21875 -0.359375q0 -0.109375 0.171875 -0.328125q0.1875 -0.21875 0.484375 -0.453125q0.296875 -0.25 0.796875 -0.421875q0.5 -0.1875 1.125 -0.1875q0.625 0 1.015625 0.3125q0.390625 0.296875 0.390625 1.109375q0 0.796875 0.078125 3.359375q0.015625 0.625 0.46875 0.625q0.1875 0 0.40625 -0.09375l0.125 0.328125q-0.5 0.453125 -1.078125 0.453125zm3.8878174 0q-1.34375 0 -1.34375 -1.296875q0.015625 -1.140625 0.015625 -2.09375q0 -0.953125 -0.03125 -2.0l-0.828125 0.015625l-0.046875 -0.140625l0.296875 -0.515625q0.1875 0.046875 0.546875 0.0625l-0.046875 -1.203125l0.859375 -0.765625l0.25 0.125q-0.03125 0.953125 -0.03125 1.828125l1.90625 -0.015625l0.0625 0.15625l-0.46875 0.515625q-0.4375 -0.046875 -1.5 -0.0625l0 1.75q0 1.625 0.03125 2.328125q0.046875 0.578125 0.703125 0.578125q0.515625 0 1.140625 -0.296875l0.15625 0.421875q-0.921875 0.609375 -1.671875 0.609375zm6.2176514 -4.265625q0 -0.609375 -0.34375 -0.890625q-0.328125 -0.296875 -0.75 -0.296875q-0.609375 0 -1.046875 0.484375q-0.4375 0.484375 -0.59375 1.1875l2.703125 -0.109375q0.03125 -0.203125 0.03125 -0.375zm-1.125 4.265625q-1.375 0 -2.078125 -0.78125q-0.703125 -0.78125 -0.703125 -2.078125q0 -1.3125 0.765625 -2.265625q0.78125 -0.96875 2.34375 -0.96875q0.78125 0 1.375 0.5625q0.59375 0.5625 0.59375 1.671875l-0.4375 0.53125q-0.078125 -0.015625 -1.234375 -0.015625q-1.140625 0 -2.296875 0.09375l0 0.109375q0 1.1875 0.484375 1.78125q0.5 0.59375 1.359375 0.59375q0.859375 0 1.796875 -0.421875l0.15625 0.390625q-1.0 0.796875 -2.125 0.796875zm11.949585 -6.5q0 0.71875 -0.375 1.515625q-0.375 0.796875 -0.859375 1.390625q-0.484375 0.578125 -1.15625 1.203125q-0.9375 0.828125 -1.703125 1.359375l0.03125 0.0625q2.40625 0 3.0625 -0.203125q0.671875 -0.21875 0.96875 -1.15625l0.34375 0.15625q-0.234375 0.703125 -0.3125 2.0625l-5.21875 0l-0.15625 -0.515625q0.484375 -0.375 1.3125 -1.1875q0.84375 -0.8125 1.390625 -1.46875q0.546875 -0.671875 0.984375 -1.515625q0.453125 -0.859375 0.453125 -1.625q0 -0.78125 -0.46875 -1.15625q-0.46875 -0.390625 -1.21875 -0.390625q-1.078125 0 -2.03125 0.5l-0.171875 -0.359375q1.21875 -1.03125 2.59375 -1.03125q1.0625 0 1.796875 0.625q0.734375 0.609375 0.734375 1.734375z" fill-rule="nonzero"></path><path fill="#b4a7d6" d="m611.2047 45.603832l0 0c0 -4.3371887 3.5159912 -7.853176 7.8532104 -7.853176l88.13617 0c2.0827637 0 4.080261 0.82738495 5.5530396 2.3001404c1.4727173 1.4727592 2.3001099 3.4702454 2.3001099 5.5530357l0 31.411762c0 4.3371887 -3.5159912 7.8531723 -7.8531494 7.8531723l-88.13617 0c-4.337219 0 -7.8532104 -3.5159836 -7.8532104 -7.8531723z" fill-rule="nonzero"></path><path stroke="#000000" stroke-width="1.0" stroke-linejoin="round" stroke-linecap="butt" d="m611.2047 45.603832l0 0c0 -4.3371887 3.5159912 -7.853176 7.8532104 -7.853176l88.13617 0c2.0827637 0 4.080261 0.82738495 5.5530396 2.3001404c1.4727173 1.4727592 2.3001099 3.4702454 2.3001099 5.5530357l0 31.411762c0 4.3371887 -3.5159912 7.8531723 -7.8531494 7.8531723l-88.13617 0c-4.337219 0 -7.8532104 -3.5159836 -7.8532104 -7.8531723z" fill-rule="nonzero"></path><path fill="#000000" d="m649.68634 59.39096q-0.265625 -0.953125 -0.734375 -1.296875q-0.453125 -0.359375 -1.1875 -0.359375q-0.734375 0 -1.125 0.359375q-0.390625 0.359375 -0.390625 0.875q0 0.84375 0.859375 1.421875l2.0625 1.34375q1.34375 0.875 1.34375 2.09375q0 0.96875 -0.78125 1.6875q-0.765625 0.71875 -2.25 0.71875q-1.46875 0 -2.578125 -0.46875q0.203125 -1.0625 0.203125 -1.90625l0.359375 -0.15625q0.1875 1.0625 0.59375 1.46875q0.421875 0.40625 1.296875 0.40625q0.890625 0 1.34375 -0.421875q0.46875 -0.4375 0.46875 -1.015625q0 -0.796875 -0.84375 -1.34375l-2.078125 -1.375q-1.203125 -0.765625 -1.203125 -2.0q0 -0.9375 0.734375 -1.625q0.75 -0.703125 1.9375 -0.703125q0.390625 0 0.859375 0.09375q0.484375 0.09375 0.734375 0.09375q0.25 0 0.578125 -0.078125l0 0.203125q0 0.9375 0.15625 1.828125l-0.359375 0.15625zm4.1622314 6.828125q-1.34375 0 -1.34375 -1.296875q0.015625 -1.140625 0.015625 -2.09375q0 -0.953125 -0.03125 -2.0l-0.828125 0.015625l-0.046875 -0.140625l0.296875 -0.515625q0.1875 0.046875 0.546875 0.0625l-0.046875 -1.203125l0.859375 -0.765625l0.25 0.125q-0.03125 0.953125 -0.03125 1.828125l1.90625 -0.015625l0.0625 0.15625l-0.46875 0.515625q-0.4375 -0.046875 -1.5 -0.0625l0 1.75q0 1.625 0.03125 2.328125q0.046875 0.578125 0.703125 0.578125q0.515625 0 1.140625 -0.296875l0.15625 0.421875q-0.921875 0.609375 -1.671875 0.609375zm5.6082764 -2.84375q-1.0625 0.03125 -1.625 0.40625q-0.5625 0.375 -0.5625 0.828125q0 0.4375 0.21875 0.640625q0.234375 0.203125 0.734375 0.203125q0.515625 0 1.234375 -0.4375l0 -1.640625zm0.953125 2.84375q-0.78125 0 -0.90625 -0.84375q-1.15625 0.84375 -1.984375 0.84375q-0.5625 0 -0.953125 -0.34375q-0.390625 -0.34375 -0.390625 -1.0625q0 -0.734375 0.765625 -1.3125q0.78125 -0.59375 2.515625 -0.703125l0 -1.21875q0 -0.359375 -0.265625 -0.546875q-0.265625 -0.203125 -0.75 -0.203125q-0.484375 0 -0.765625 0.265625q-0.28125 0.265625 -0.28125 0.6875q0 0.15625 0.03125 0.34375l-0.28125 0.140625q-0.265625 -0.140625 -0.5 -0.390625q-0.21875 -0.25 -0.21875 -0.359375q0 -0.109375 0.171875 -0.328125q0.1875 -0.21875 0.484375 -0.453125q0.296875 -0.25 0.796875 -0.421875q0.5 -0.1875 1.125 -0.1875q0.625 0 1.015625 0.3125q0.390625 0.296875 0.390625 1.109375q0 0.796875 0.078125 3.359375q0.015625 0.625 0.46875 0.625q0.1875 0 0.40625 -0.09375l0.125 0.328125q-0.5 0.453125 -1.078125 0.453125zm3.8878174 0q-1.34375 0 -1.34375 -1.296875q0.015625 -1.140625 0.015625 -2.09375q0 -0.953125 -0.03125 -2.0l-0.828125 0.015625l-0.046875 -0.140625l0.296875 -0.515625q0.1875 0.046875 0.546875 0.0625l-0.046875 -1.203125l0.859375 -0.765625l0.25 0.125q-0.03125 0.953125 -0.03125 1.828125l1.90625 -0.015625l0.0625 0.15625l-0.46875 0.515625q-0.4375 -0.046875 -1.5 -0.0625l0 1.75q0 1.625 0.03125 2.328125q0.046875 0.578125 0.703125 0.578125q0.515625 0 1.140625 -0.296875l0.15625 0.421875q-0.921875 0.609375 -1.671875 0.609375zm6.2176514 -4.265625q0 -0.609375 -0.34375 -0.890625q-0.328125 -0.296875 -0.75 -0.296875q-0.609375 0 -1.046875 0.484375q-0.4375 0.484375 -0.59375 1.1875l2.703125 -0.109375q0.03125 -0.203125 0.03125 -0.375zm-1.125 4.265625q-1.375 0 -2.078125 -0.78125q-0.703125 -0.78125 -0.703125 -2.078125q0 -1.3125 0.765625 -2.265625q0.78125 -0.96875 2.34375 -0.96875q0.78125 0 1.375 0.5625q0.59375 0.5625 0.59375 1.671875l-0.4375 0.53125q-0.078125 -0.015625 -1.234375 -0.015625q-1.140625 0 -2.296875 0.09375l0 0.109375q0 1.1875 0.484375 1.78125q0.5 0.59375 1.359375 0.59375q0.859375 0 1.796875 -0.421875l0.15625 0.390625q-1.0 0.796875 -2.125 0.796875zm11.77771 -2.75q0 1.21875 -1.15625 2.21875q-1.140625 0.984375 -2.921875 0.984375q-0.59375 0 -1.1875 -0.140625l0.03125 -0.609375q0.59375 0.109375 1.078125 0.109375q1.375 0 2.140625 -0.71875q0.78125 -0.71875 0.78125 -1.671875q0 -0.75 -0.53125 -1.28125q-0.53125 -0.53125 -1.46875 -0.53125q-0.46875 0 -0.984375 0.140625l0.046875 -0.515625q1.25 -0.28125 1.890625 -0.96875q0.640625 -0.703125 0.640625 -1.234375q0 -0.546875 -0.3125 -0.828125q-0.296875 -0.296875 -0.953125 -0.296875q-0.65625 0 -1.671875 0.625l-0.1875 -0.359375q1.140625 -1.046875 2.390625 -1.046875q0.828125 0 1.375 0.453125q0.546875 0.453125 0.546875 1.078125q0 1.359375 -1.921875 2.359375l0 0.0625q1.21875 0.1875 1.796875 0.765625q0.578125 0.578125 0.578125 1.40625z" fill-rule="nonzero"></path><path fill="#000000" fill-opacity="0.0" d="m54.545933 121.24147l653.66925 0" fill-rule="nonzero"></path><path stroke="#000000" stroke-width="3.0" stroke-linejoin="round" stroke-linecap="butt" d="m54.545933 121.24147l635.66925 0" fill-rule="evenodd"></path><path fill="#000000" stroke="#000000" stroke-width="3.0" stroke-linecap="butt" d="m690.2152 126.19667l13.614319 -4.9552l-13.614319 -4.9552z" fill-rule="evenodd"></path><path fill="#000000" fill-opacity="0.0" d="m352.58267 121.24147l62.834656 0l0 41.007874l-62.834656 0z" fill-rule="nonzero"></path><path fill="#000000" d="m362.02017 135.03647q1.5625 0.109375 5.65625 0.109375q4.109375 0 5.671875 -0.109375l0 0.28125q0 1.5 0.21875 2.796875l-0.515625 0.21875q-0.484375 -1.546875 -1.171875 -1.96875q-0.6875 -0.421875 -2.578125 -0.421875q-0.578125 0 -0.625 0.515625q-0.15625 1.125 -0.15625 4.0625q0 4.765625 0.109375 5.9375l0.046875 0.390625q0.03125 0.34375 0.34375 0.484375q0.328125 0.140625 1.265625 0.328125l-0.0625 0.5625q-1.1875 -0.0625 -2.59375 -0.0625q-1.40625 0 -2.609375 0.0625l-0.0625 -0.5625q0.96875 -0.1875 1.3125 -0.328125q0.34375 -0.15625 0.390625 -0.484375q0.140625 -1.125 0.140625 -4.0625q0 -4.765625 -0.109375 -5.953125l-0.03125 -0.375q-0.0625 -0.515625 -0.59375 -0.515625q-1.90625 0 -2.59375 0.421875q-0.671875 0.421875 -1.171875 1.96875l-0.515625 -0.21875q0.234375 -1.296875 0.234375 -2.796875l0 -0.28125zm14.883575 2.140625q-0.28125 0.28125 -0.703125 0.28125q-0.421875 0 -0.703125 -0.28125q-0.28125 -0.296875 -0.28125 -0.71875q0 -0.4375 0.28125 -0.71875q0.28125 -0.296875 0.703125 -0.296875q0.421875 0 0.703125 0.296875q0.28125 0.28125 0.28125 0.71875q0 0.421875 -0.28125 0.71875zm0.078125 2.4375l-0.046875 4.203125q0 2.4375 0.15625 3.1875l0.046875 0.25q0.015625 0.125 0.46875 0.25q0.46875 0.125 0.875 0.15625l-0.0625 0.5625q-0.90625 -0.0625 -2.21875 -0.0625q-1.3125 0 -2.21875 0.0625l0.046875 -0.5625q0.40625 -0.03125 0.859375 -0.15625q0.453125 -0.125 0.484375 -0.25q0.140625 -0.671875 0.140625 -2.671875q0 -3.21875 -0.140625 -3.953125l-1.21875 -0.359375l-0.046875 -0.484375q1.21875 0 2.515625 -0.34375l0.359375 0.171875zm10.427338 4.203125q0 2.4375 0.140625 3.1875l0.046875 0.25q0.03125 0.125 0.4375 0.25q0.40625 0.125 0.78125 0.15625l-0.0625 0.5625q-0.90625 -0.0625 -2.09375 -0.0625q-1.171875 0 -2.078125 0.0625l0.0625 -0.5625q0.359375 -0.03125 0.765625 -0.15625q0.40625 -0.125 0.421875 -0.25q0.15625 -0.671875 0.15625 -3.4375l0 -1.84375q0 -0.75 -0.4375 -1.03125q-0.4375 -0.28125 -1.046875 -0.28125q-0.609375 0 -0.953125 0.046875q-0.34375 0.046875 -0.609375 0.125q-0.359375 0.09375 -0.984375 0.359375l0 2.625q0 2.34375 0.15625 3.1875l0.0625 0.25q0.015625 0.125 0.421875 0.25q0.40625 0.125 0.78125 0.15625l-0.046875 0.5625q-0.921875 -0.0625 -2.09375 -0.0625q-1.171875 0 -2.09375 0.0625l0.0625 -0.5625q0.359375 -0.03125 0.765625 -0.15625q0.40625 -0.125 0.421875 -0.25q0.140625 -0.671875 0.140625 -2.671875q0 -3.21875 -0.15625 -3.953125l-1.21875 -0.359375l-0.03125 -0.484375q1.21875 0 2.5 -0.34375l0.375 0.171875q-0.03125 0.46875 -0.03125 0.90625q2.109375 -1.09375 3.59375 -1.09375q1.484375 0 1.765625 1.109375q2.0 -1.109375 3.609375 -1.109375q0.953125 0 1.4375 0.375q0.5 0.375 0.5 1.421875l0 2.59375q0 2.4375 0.140625 3.1875l0.0625 0.25q0.015625 0.125 0.421875 0.25q0.40625 0.125 0.78125 0.15625l-0.046875 0.5625q-0.921875 -0.0625 -2.09375 -0.0625q-1.171875 0 -2.09375 0.0625l0.0625 -0.5625q0.359375 -0.03125 0.765625 -0.15625q0.40625 -0.125 0.421875 -0.25q0.15625 -0.671875 0.15625 -3.4375l0 -1.84375q0 -0.75 -0.4375 -1.03125q-0.4375 -0.28125 -1.546875 -0.28125q-1.109375 0 -2.0625 0.53125l0 2.625zm13.337067 -1.734375q0 -0.875 -0.5 -1.296875q-0.484375 -0.4375 -1.09375 -0.4375q-0.890625 0 -1.546875 0.703125q-0.640625 0.703125 -0.84375 1.734375l3.921875 -0.15625q0.0625 -0.28125 0.0625 -0.546875zm-1.65625 6.25q-2.015625 0 -3.046875 -1.140625q-1.015625 -1.15625 -1.015625 -3.0625q0 -1.921875 1.125 -3.3125q1.140625 -1.390625 3.421875 -1.390625q1.15625 0 2.015625 0.8125q0.859375 0.8125 0.859375 2.4375l-0.640625 0.765625q-0.109375 -0.015625 -1.796875 -0.015625q-1.671875 0 -3.375 0.140625l0 0.171875q0 1.71875 0.71875 2.59375q0.734375 0.859375 1.984375 0.859375q1.25 0 2.640625 -0.609375l0.234375 0.578125q-1.46875 1.171875 -3.125 1.171875z" fill-rule="nonzero"></path><path fill="#d0e0e3" d="m192.51575 45.603832l0 0c0 -4.3371887 3.5159912 -7.853176 7.85318 -7.853176l88.13617 0c2.0827942 0 4.080261 0.82738495 5.5530396 2.3001404c1.4727478 1.4727592 2.3001404 3.4702454 2.3001404 5.5530357l0 31.411762c0 4.3371887 -3.5159912 7.8531723 -7.85318 7.8531723l-88.13617 0c-4.3371887 0 -7.85318 -3.5159836 -7.85318 -7.8531723z" fill-rule="nonzero"></path><path stroke="#000000" stroke-width="1.0" stroke-linejoin="round" stroke-linecap="butt" d="m192.51575 45.603832l0 0c0 -4.3371887 3.5159912 -7.853176 7.85318 -7.853176l88.13617 0c2.0827942 0 4.080261 0.82738495 5.5530396 2.3001404c1.4727478 1.4727592 2.3001404 3.4702454 2.3001404 5.5530357l0 31.411762c0 4.3371887 -3.5159912 7.8531723 -7.85318 7.8531723l-88.13617 0c-4.3371887 0 -7.85318 -3.5159836 -7.85318 -7.8531723z" fill-rule="nonzero"></path><path fill="#000000" d="m231.02028 61.85971q0 2.453125 0.109375 3.125l0.03125 0.234375q0.125 0.421875 1.3125 0.421875q0.59375 0 0.953125 -0.046875q0.359375 -0.046875 0.765625 -0.21875q0.75 -0.296875 1.140625 -1.484375l0.359375 0.15625q-0.234375 0.703125 -0.3125 2.0625l-5.203125 0q-0.75 0 -1.5625 0.03125l-0.046875 -0.375q0.671875 -0.125 0.90625 -0.21875q0.234375 -0.109375 0.265625 -0.328125q0.109375 -0.765625 0.109375 -2.78125q0 -3.265625 -0.078125 -4.078125l-0.03125 -0.265625q-0.015625 -0.21875 -0.234375 -0.3125q-0.203125 -0.109375 -0.828125 -0.234375l0.046875 -0.375q0.8125 0.03125 3.078125 0.03125q2.265625 0 3.328125 -0.078125l0 0.203125q0 1.015625 0.15625 1.90625l-0.359375 0.15625q-0.328125 -1.0625 -0.796875 -1.34375q-0.46875 -0.296875 -1.765625 -0.296875q-0.59375 0 -0.875 0.0625q-0.28125 0.046875 -0.328125 0.21875q-0.125 0.84375 -0.140625 3.3125q1.65625 0 1.984375 -0.078125q0.328125 -0.078125 0.421875 -0.28125q0.09375 -0.21875 0.234375 -0.890625l0.453125 0.046875q-0.109375 0.75 -0.109375 1.453125q0 0.6875 0.109375 1.453125l-0.453125 0.0625q-0.140625 -0.671875 -0.234375 -0.875q-0.09375 -0.21875 -0.421875 -0.296875q-0.328125 -0.078125 -1.984375 -0.078125zm8.66597 3.359375q1.375 -4.21875 1.34375 -4.21875q0.015625 -0.03125 0.015625 -0.0625q0 -0.28125 -0.71875 -0.375l-0.03125 -0.375q0.4375 0.03125 0.9375 0.03125l1.328125 -0.03125l0.03125 0.375q-0.65625 0.09375 -0.8125 0.484375q-0.75 1.703125 -1.828125 5.0625l-0.9375 0.109375q-1.046875 -3.25 -1.625 -4.609375l-0.203125 -0.515625q-0.171875 -0.4375 -0.796875 -0.53125l-0.03125 -0.375q0.890625 0.03125 1.375 0.03125l1.34375 -0.03125l0.046875 0.375q-0.390625 0.03125 -0.59375 0.15625q-0.1875 0.109375 -0.1875 0.234375q0 0.015625 0.25 0.796875q0.25 0.765625 1.09375 3.46875zm7.4154053 -3.265625q0 -0.609375 -0.34375 -0.890625q-0.328125 -0.296875 -0.75 -0.296875q-0.609375 0 -1.046875 0.484375q-0.4375 0.484375 -0.59375 1.1875l2.703125 -0.109375q0.03125 -0.203125 0.03125 -0.375zm-1.125 4.265625q-1.375 0 -2.078125 -0.78125q-0.703125 -0.78125 -0.703125 -2.078125q0 -1.3125 0.765625 -2.265625q0.78125 -0.96875 2.34375 -0.96875q0.78125 0 1.375 0.5625q0.59375 0.5625 0.59375 1.671875l-0.4375 0.53125q-0.078125 -0.015625 -1.234375 -0.015625q-1.140625 0 -2.296875 0.09375l0 0.109375q0 1.1875 0.484375 1.78125q0.5 0.59375 1.359375 0.59375q0.859375 0 1.796875 -0.421875l0.15625 0.390625q-1.0 0.796875 -2.125 0.796875zm5.101959 -4.875l-0.015625 1.78125q0 1.6875 0.109375 2.1875l0.015625 0.171875q0.015625 0.09375 0.296875 0.1875q0.28125 0.078125 0.546875 0.09375l-0.046875 0.375q-0.625 -0.03125 -1.4375 -0.03125q-0.796875 0 -1.421875 0.03125l0.046875 -0.375q0.234375 -0.015625 0.515625 -0.09375q0.28125 -0.09375 0.296875 -0.1875q0.109375 -0.453125 0.109375 -1.8125q0 -2.21875 -0.109375 -2.703125l-0.828125 -0.25l-0.03125 -0.34375q0.828125 0 1.71875 -0.234375l0.25 0.125l0 0.625q1.4375 -0.765625 2.5 -0.765625q0.65625 0 0.984375 0.265625q0.34375 0.265625 0.34375 0.96875l0 1.765625q0 1.6875 0.09375 2.1875l0.046875 0.171875q0 0.09375 0.28125 0.1875q0.28125 0.078125 0.546875 0.09375l-0.046875 0.375q-0.625 -0.03125 -1.4375 -0.03125q-0.796875 0 -1.421875 0.03125l0.046875 -0.375q0.25 -0.015625 0.515625 -0.09375q0.28125 -0.09375 0.296875 -0.1875q0.109375 -0.453125 0.109375 -2.359375l0 -1.25q0 -0.515625 -0.296875 -0.703125q-0.296875 -0.203125 -1.015625 -0.203125q-0.71875 0 -1.5625 0.375zm7.7449646 4.875q-1.34375 0 -1.34375 -1.296875q0.015625 -1.140625 0.015625 -2.09375q0 -0.953125 -0.03125 -2.0l-0.828125 0.015625l-0.046875 -0.140625l0.296875 -0.515625q0.1875 0.046875 0.546875 0.0625l-0.046875 -1.203125l0.859375 -0.765625l0.25 0.125q-0.03125 0.953125 -0.03125 1.828125l1.90625 -0.015625l0.0625 0.15625l-0.46875 0.515625q-0.4375 -0.046875 -1.5 -0.0625l0 1.75q0 1.625 0.03125 2.328125q0.046875 0.578125 0.703125 0.578125q0.515625 0 1.140625 -0.296875l0.15625 0.421875q-0.921875 0.609375 -1.671875 0.609375z" fill-rule="nonzero"></path><path fill="#d0e0e3" d="m471.64172 45.603832l0 0c0 -4.3371887 3.5159912 -7.853176 7.85318 -7.853176l88.1362 0c2.0827637 0 4.080261 0.82738495 5.5529785 2.3001404c1.4727783 1.4727592 2.300171 3.4702454 2.300171 5.5530357l0 31.411762c0 4.3371887 -3.5159912 7.8531723 -7.8531494 7.8531723l-88.1362 0c-4.3371887 0 -7.85318 -3.5159836 -7.85318 -7.8531723z" fill-rule="nonzero"></path><path stroke="#000000" stroke-width="1.0" stroke-linejoin="round" stroke-linecap="butt" d="m471.64172 45.603832l0 0c0 -4.3371887 3.5159912 -7.853176 7.85318 -7.853176l88.1362 0c2.0827637 0 4.080261 0.82738495 5.5529785 2.3001404c1.4727783 1.4727592 2.300171 3.4702454 2.300171 5.5530357l0 31.411762c0 4.3371887 -3.5159912 7.8531723 -7.8531494 7.8531723l-88.1362 0c-4.3371887 0 -7.85318 -3.5159836 -7.85318 -7.8531723z" fill-rule="nonzero"></path><path fill="#000000" d="m510.14627 61.85971q0 2.453125 0.109375 3.125l0.03125 0.234375q0.125 0.421875 1.3125 0.421875q0.5937195 0 0.9530945 -0.046875q0.359375 -0.046875 0.765625 -0.21875q0.75 -0.296875 1.140625 -1.484375l0.359375 0.15625q-0.234375 0.703125 -0.3125 2.0625l-5.2030945 0q-0.75 0 -1.5625 0.03125l-0.046875 -0.375q0.671875 -0.125 0.90625 -0.21875q0.234375 -0.109375 0.265625 -0.328125q0.109375 -0.765625 0.109375 -2.78125q0 -3.265625 -0.078125 -4.078125l-0.03125 -0.265625q-0.015625 -0.21875 -0.234375 -0.3125q-0.203125 -0.109375 -0.828125 -0.234375l0.046875 -0.375q0.8125 0.03125 3.078125 0.03125q2.2655945 0 3.3280945 -0.078125l0 0.203125q0 1.015625 0.15625 1.90625l-0.359375 0.15625q-0.328125 -1.0625 -0.796875 -1.34375q-0.46875 -0.296875 -1.7655945 -0.296875q-0.59375 0 -0.875 0.0625q-0.28125 0.046875 -0.328125 0.21875q-0.125 0.84375 -0.140625 3.3125q1.65625 0 1.9843445 -0.078125q0.328125 -0.078125 0.421875 -0.28125q0.09375 -0.21875 0.234375 -0.890625l0.453125 0.046875q-0.109375 0.75 -0.109375 1.453125q0 0.6875 0.109375 1.453125l-0.453125 0.0625q-0.140625 -0.671875 -0.234375 -0.875q-0.09375 -0.21875 -0.421875 -0.296875q-0.32809448 -0.078125 -1.9843445 -0.078125zm8.665985 3.359375q1.375 -4.21875 1.34375 -4.21875q0.015625 -0.03125 0.015625 -0.0625q0 -0.28125 -0.71875 -0.375l-0.03125 -0.375q0.4375 0.03125 0.9375 0.03125l1.328125 -0.03125l0.03125 0.375q-0.65625 0.09375 -0.8125 0.484375q-0.75 1.703125 -1.828125 5.0625l-0.9375 0.109375q-1.046875 -3.25 -1.625 -4.609375l-0.203125 -0.515625q-0.171875 -0.4375 -0.796875 -0.53125l-0.03125 -0.375q0.890625 0.03125 1.375 0.03125l1.34375 -0.03125l0.046875 0.375q-0.390625 0.03125 -0.59375 0.15625q-0.1875 0.109375 -0.1875 0.234375q0 0.015625 0.25 0.796875q0.25 0.765625 1.09375 3.46875zm7.4154053 -3.265625q0 -0.609375 -0.34375 -0.890625q-0.328125 -0.296875 -0.75 -0.296875q-0.609375 0 -1.046875 0.484375q-0.4375 0.484375 -0.59375 1.1875l2.703125 -0.109375q0.03125 -0.203125 0.03125 -0.375zm-1.125 4.265625q-1.375 0 -2.078125 -0.78125q-0.703125 -0.78125 -0.703125 -2.078125q0 -1.3125 0.765625 -2.265625q0.78125 -0.96875 2.34375 -0.96875q0.78125 0 1.375 0.5625q0.59375 0.5625 0.59375 1.671875l-0.4375 0.53125q-0.078125 -0.015625 -1.234375 -0.015625q-1.140625 0 -2.296875 0.09375l0 0.109375q0 1.1875 0.484375 1.78125q0.5 0.59375 1.359375 0.59375q0.859375 0 1.796875 -0.421875l0.15625 0.390625q-1.0 0.796875 -2.125 0.796875zm5.1019287 -4.875l-0.015625 1.78125q0 1.6875 0.109375 2.1875l0.015625 0.171875q0.015625 0.09375 0.296875 0.1875q0.28125 0.078125 0.546875 0.09375l-0.046875 0.375q-0.625 -0.03125 -1.4375 -0.03125q-0.796875 0 -1.421875 0.03125l0.046875 -0.375q0.234375 -0.015625 0.515625 -0.09375q0.28125 -0.09375 0.296875 -0.1875q0.109375 -0.453125 0.109375 -1.8125q0 -2.21875 -0.109375 -2.703125l-0.828125 -0.25l-0.03125 -0.34375q0.828125 0 1.71875 -0.234375l0.25 0.125l0 0.625q1.4375 -0.765625 2.5 -0.765625q0.65625 0 0.984375 0.265625q0.34375 0.265625 0.34375 0.96875l0 1.765625q0 1.6875 0.09375 2.1875l0.046875 0.171875q0 0.09375 0.28125 0.1875q0.28125 0.078125 0.546875 0.09375l-0.046875 0.375q-0.625 -0.03125 -1.4375 -0.03125q-0.796875 0 -1.421875 0.03125l0.046875 -0.375q0.25 -0.015625 0.515625 -0.09375q0.28125 -0.09375 0.296875 -0.1875q0.109375 -0.453125 0.109375 -2.359375l0 -1.25q0 -0.515625 -0.296875 -0.703125q-0.296875 -0.203125 -1.015625 -0.203125q-0.71875 0 -1.5625 0.375zm7.744995 4.875q-1.34375 0 -1.34375 -1.296875q0.015625 -1.140625 0.015625 -2.09375q0 -0.953125 -0.03125 -2.0l-0.828125 0.015625l-0.046875 -0.140625l0.296875 -0.515625q0.1875 0.046875 0.546875 0.0625l-0.046875 -1.203125l0.859375 -0.765625l0.25 0.125q-0.03125 0.953125 -0.03125 1.828125l1.90625 -0.015625l0.0625 0.15625l-0.46875 0.515625q-0.4375 -0.046875 -1.5 -0.0625l0 1.75q0 1.625 0.03125 2.328125q0.046875 0.578125 0.703125 0.578125q0.515625 0 1.140625 -0.296875l0.15625 0.421875q-0.921875 0.609375 -1.671875 0.609375z" fill-rule="nonzero"></path><path fill="#000000" fill-opacity="0.0" d="m156.79527 61.30971l35.716537 0" fill-rule="nonzero"></path><path stroke="#000000" stroke-width="1.0" stroke-linejoin="round" stroke-linecap="butt" d="m156.79527 61.30971l29.716537 0" fill-rule="evenodd"></path><path fill="#000000" stroke="#000000" stroke-width="1.0" stroke-linecap="butt" d="m186.51181 62.961445l4.538101 -1.6517334l-4.538101 -1.6517334z" fill-rule="evenodd"></path><path fill="#000000" fill-opacity="0.0" d="m296.35828 61.30971l35.716522 0" fill-rule="nonzero"></path><path stroke="#000000" stroke-width="1.0" stroke-linejoin="round" stroke-linecap="butt" d="m296.35828 61.30971l29.716522 0" fill-rule="evenodd"></path><path fill="#000000" stroke="#000000" stroke-width="1.0" stroke-linecap="butt" d="m326.0748 62.961445l4.5381165 -1.6517334l-4.5381165 -1.6517334z" fill-rule="evenodd"></path><path fill="#000000" fill-opacity="0.0" d="m435.92126 61.30971l35.716522 0" fill-rule="nonzero"></path><path stroke="#000000" stroke-width="1.0" stroke-linejoin="round" stroke-linecap="butt" d="m435.92126 61.30971l29.716522 0" fill-rule="evenodd"></path><path fill="#000000" stroke="#000000" stroke-width="1.0" stroke-linecap="butt" d="m465.6378 62.961445l4.5381165 -1.6517334l-4.5381165 -1.6517334z" fill-rule="evenodd"></path><path fill="#000000" fill-opacity="0.0" d="m575.48425 61.30971l35.716553 0" fill-rule="nonzero"></path><path stroke="#000000" stroke-width="1.0" stroke-linejoin="round" stroke-linecap="butt" d="m575.48425 61.30971l29.716553 0" fill-rule="evenodd"></path><path fill="#000000" stroke="#000000" stroke-width="1.0" stroke-linecap="butt" d="m605.2008 62.961445l4.538086 -1.6517334l-4.538086 -1.6517334z" fill-rule="evenodd"></path></g></svg>

