<?xml version="1.0" standalone="yes"?>

<svg version="1.1" viewBox="0.0 0.0 960.0 192.0" fill="none" stroke="none" stroke-linecap="square" stroke-miterlimit="10" xmlns="http://www.w3.org/2000/svg" xmlns:xlink="http://www.w3.org/1999/xlink"><clipPath id="p.0"><path d="m0 0l960.0 0l0 192.0l-960.0 0l0 -192.0z" clip-rule="nonzero"></path></clipPath><g clip-path="url(#p.0)"><path fill="#000000" fill-opacity="0.0" d="m0 0l960.0 0l0 192.0l-960.0 0z" fill-rule="nonzero"></path><path fill="#b6d7a8" d="m44.952755 41.603832l0 0c0 -4.3371887 3.5159874 -7.853176 7.853176 -7.853176l88.13616 0c2.0827942 0 4.0802917 0.82738495 5.5530396 2.3001404c1.4727631 1.4727592 2.3001404 3.4702454 2.3001404 5.5530357l0 31.411762c0 4.3371887 -3.5159912 7.8531723 -7.85318 7.8531723l-88.13616 0c-4.3371887 0 -7.853176 -3.5159836 -7.853176 -7.8531723z" fill-rule="nonzero"></path><path stroke="#000000" stroke-width="1.0" stroke-linejoin="round" stroke-linecap="butt" d="m44.952755 41.603832l0 0c0 -4.3371887 3.5159874 -7.853176 7.853176 -7.853176l88.13616 0c2.0827942 0 4.0802917 0.82738495 5.5530396 2.3001404c1.4727631 1.4727592 2.3001404 3.4702454 2.3001404 5.5530357l0 31.411762c0 4.3371887 -3.5159912 7.8531723 -7.85318 7.8531723l-88.13616 0c-4.3371887 0 -7.853176 -3.5159836 -7.853176 -7.8531723z" fill-rule="nonzero"></path><path fill="#000000" d="m62.553177 53.625336q1.21875 0 2.0 -0.5q0.78125 -0.5 1.03125 -1.359375l0.359375 0.15625q-0.140625 0.46875 -0.296875 1.75q-1.609375 0.59375 -3.140625 0.59375q-2.125 0 -3.375 -1.15625q-1.25 -1.171875 -1.25 -3.234375q0 -2.078125 1.234375 -3.421875q1.234375 -1.359375 3.375 -1.359375q0.609375 0 1.34375 0.09375q0.734375 0.09375 1.0 0.09375q0.28125 0 0.59375 -0.078125l0 0.203125q0 0.9375 0.15625 1.828125l-0.34375 0.15625q-0.515625 -1.703125 -2.765625 -1.703125q-1.296875 0 -2.234375 0.921875q-0.46875 0.453125 -0.734375 1.21875q-0.265625 0.75 -0.265625 1.609375q0 0.859375 0.1875 1.5625q0.1875 0.703125 0.5625 1.3125q0.375 0.59375 1.03125 0.953125q0.671875 0.359375 1.53125 0.359375zm7.501526 -4.859375q-0.53125 0 -0.921875 0.265625q-0.390625 0.265625 -0.578125 0.671875q-0.34375 0.734375 -0.34375 1.421875q0 1.0625 0.421875 1.78125q0.4375 0.703125 1.359375 0.703125q0.5 0 0.875 -0.234375q0.375 -0.234375 0.5625 -0.59375q0.375 -0.671875 0.40625 -1.34375q0 -2.671875 -1.78125 -2.671875zm0.0625 -0.640625q1.484375 0 2.15625 0.765625q0.6875 0.75 0.6875 2.09375q0 1.34375 -0.78125 2.296875q-0.765625 0.9375 -2.25 0.9375q-1.484375 0 -2.171875 -0.734375q-0.671875 -0.75 -0.671875 -2.09375q0 -1.34375 0.765625 -2.296875q0.78125 -0.96875 2.265625 -0.96875zm5.7693024 1.21875l-0.015625 1.78125q0 1.6875 0.109375 2.1875l0.015625 0.171875q0.015625 0.09375 0.296875 0.1875q0.28125 0.078125 0.546875 0.09375l-0.046875 0.375q-0.625 -0.03125 -1.4375 -0.03125q-0.796875 0 -1.421875 0.03125l0.046875 -0.375q0.234375 -0.015625 0.515625 -0.09375q0.28125 -0.09375 0.296875 -0.1875q0.109375 -0.453125 0.109375 -1.8125q0 -2.21875 -0.109375 -2.703125l-0.828125 -0.25l-0.03125 -0.34375q0.828125 0 1.71875 -0.234375l0.25 0.125l0 0.625q1.4375 -0.765625 2.5 -0.765625q0.65625 0 0.984375 0.265625q0.34375 0.265625 0.34375 0.96875l0 1.765625q0 1.6875 0.09375 2.1875l0.046875 0.171875q0 0.09375 0.28125 0.1875q0.28125 0.078125 0.546875 0.09375l-0.046875 0.375q-0.625 -0.03125 -1.4375 -0.03125q-0.796875 0 -1.421875 0.03125l0.046875 -0.375q0.25 -0.015625 0.515625 -0.09375q0.28125 -0.09375 0.296875 -0.1875q0.109375 -0.453125 0.109375 -2.359375l0 -1.25q0 -0.515625 -0.296875 -0.703125q-0.296875 -0.203125 -1.015625 -0.203125q-0.71875 0 -1.5625 0.375zm8.58873 4.796875q-0.625 -0.03125 -1.546875 -0.03125q-0.90625 0 -1.53125 0.03125l0.046875 -0.375q0.25 -0.015625 0.546875 -0.09375q0.3125 -0.09375 0.328125 -0.1875q0.109375 0 0.109375 -4.65625l-0.90625 0.015625l-0.03125 -0.140625l0.296875 -0.515625q0.1875 0.03125 0.625 0.0625q0 -0.84375 0.28125 -1.515625q0.296875 -0.6875 0.703125 -1.0625q0.421875 -0.375 0.90625 -0.640625q0.78125 -0.40625 1.25 -0.40625q0.09375 0 0.328125 0.3125q0.25 0.296875 0.328125 0.59375l-0.203125 0.25q-0.546875 -0.25 -1.109375 -0.25q-1.5 0 -1.5 2.703125l1.6875 -0.015625l0.078125 0.15625l-0.40625 0.515625q-0.4375 -0.046875 -1.359375 -0.0625q0 3.625 0.140625 4.65625q0 0.09375 0.359375 0.1875q0.359375 0.09375 0.625 0.09375l-0.046875 0.375zm3.11792 -7.546875q-0.1875 0.203125 -0.484375 0.203125q-0.28125 0 -0.484375 -0.203125q-0.1875 -0.203125 -0.1875 -0.5q0 -0.296875 0.1875 -0.484375q0.203125 -0.203125 0.484375 -0.203125q0.296875 0 0.484375 0.203125q0.203125 0.1875 0.203125 0.484375q0 0.296875 -0.203125 0.5zm0.0625 1.671875l-0.03125 2.859375q0 1.6875 0.109375 2.1875l0.015625 0.171875q0.015625 0.09375 0.328125 0.1875q0.328125 0.078125 0.59375 0.09375l-0.03125 0.375q-0.625 -0.03125 -1.53125 -0.03125q-0.890625 0 -1.515625 0.03125l0.046875 -0.375q0.265625 -0.015625 0.578125 -0.09375q0.3125 -0.09375 0.328125 -0.1875q0.109375 -0.453125 0.109375 -1.8125q0 -2.21875 -0.109375 -2.703125l-0.828125 -0.25l-0.03125 -0.34375q0.828125 0 1.71875 -0.234375l0.25 0.125zm6.962097 -0.609375q0.109375 0 0.34375 0.3125q0.25 0.296875 0.328125 0.609375l-0.203125 0.234375q-0.234375 -0.109375 -0.5625 -0.109375q-0.328125 0 -0.609375 0.140625q0.453125 0.5625 0.453125 1.46875q0 0.90625 -0.59375 1.5625q-0.59375 0.640625 -1.765625 0.640625q-0.296875 0 -0.578125 -0.046875q-0.484375 0.625 -0.484375 0.859375q0 0.296875 0.859375 0.296875l0.96875 0q2.453125 0 2.453125 1.59375q0 0.875 -0.984375 1.59375q-0.96875 0.71875 -2.625 0.71875q-0.96875 0 -1.671875 -0.328125q-0.703125 -0.3125 -0.703125 -0.890625q0 -0.84375 1.34375 -1.921875q-0.8125 -0.171875 -0.8125 -0.609375q0 -0.453125 1.171875 -1.40625q-1.3125 -0.40625 -1.3125 -2.09375q0 -0.859375 0.59375 -1.5q0.609375 -0.640625 1.703125 -0.640625q1.109375 0 1.65625 0.390625q0.15625 -0.25 0.46875 -0.5625q0.328125 -0.3125 0.5625 -0.3125zm-4.28125 8.21875q0 0.515625 0.375 0.828125q0.390625 0.3125 1.234375 0.3125q0.859375 0 1.515625 -0.546875q0.671875 -0.546875 0.671875 -1.15625q0 -0.390625 -0.34375 -0.640625q-0.328125 -0.234375 -1.046875 -0.234375l-1.75 0q-0.65625 0.71875 -0.65625 1.4375zm1.6875 -7.203125q-0.375 0 -0.65625 0.1875q-0.28125 0.171875 -0.421875 0.4375q-0.21875 0.515625 -0.21875 1.109375q0 0.578125 0.296875 1.078125q0.296875 0.5 0.9375 0.5q0.46875 0 0.765625 -0.28125q0.3125 -0.28125 0.40625 -0.578125q0.109375 -0.296875 0.125 -0.625q0 -1.828125 -1.234375 -1.828125zm5.9213867 5.546875q-1.328125 0 -1.328125 -1.34375l0 -1.75q0 -1.734375 -0.09375 -2.15625l-0.765625 -0.25l-0.03125 -0.34375q0.765625 0 1.65625 -0.234375l0.25 0.125q-0.046875 2.328125 -0.046875 4.21875q0 0.875 1.0625 0.875q0.4375 0 0.9375 -0.140625q0.515625 -0.15625 0.8125 -0.34375q0.046875 -0.703125 0.046875 -1.65625q0 -1.765625 -0.09375 -2.25l-0.828125 -0.25l-0.03125 -0.34375q0.84375 0 1.71875 -0.234375l0.25 0.125q-0.03125 0.96875 -0.03125 3.21875l0.03125 1.515625q0 0.21875 0.171875 0.34375q0.1875 0.125 0.34375 0.15625q0.171875 0.03125 0.46875 0.046875l-0.03125 0.375q-0.46875 0.046875 -1.421875 0.234375q-0.390625 -0.15625 -0.53125 -0.78125q-1.25 0.84375 -2.515625 0.84375zm9.033569 -6.171875q0.109375 0 0.34375 0.3125q0.25 0.296875 0.328125 0.609375l-0.203125 0.234375q-0.46875 -0.171875 -0.96875 -0.171875q-0.5 0 -0.921875 0.421875q-0.421875 0.421875 -0.421875 1.359375q0.015625 2.28125 0.125 2.65625q0.015625 0.109375 0.359375 0.203125q0.359375 0.078125 0.75 0.09375l-0.03125 0.375q-0.625 -0.03125 -1.578125 -0.03125q-0.953125 0 -1.578125 0.03125l0.03125 -0.375q0.265625 -0.015625 0.546875 -0.09375q0.28125 -0.09375 0.296875 -0.1875q0.109375 -0.453125 0.109375 -1.8125q0 -2.21875 -0.109375 -2.703125l-0.828125 -0.25l-0.03125 -0.34375q0.84375 0 1.71875 -0.234375l0.25 0.125q-0.03125 0.1875 -0.03125 1.0625q0.375 -0.625 0.953125 -0.953125q0.578125 -0.328125 0.890625 -0.328125zm4.6653137 3.328125q-1.0625 0.03125 -1.625 0.40625q-0.5625 0.375 -0.5625 0.828125q0 0.4375 0.21875 0.640625q0.234375 0.203125 0.734375 0.203125q0.515625 0 1.234375 -0.4375l0 -1.640625zm0.953125 2.84375q-0.78125 0 -0.90625 -0.84375q-1.15625 0.84375 -1.984375 0.84375q-0.5625 0 -0.953125 -0.34375q-0.390625 -0.34375 -0.390625 -1.0625q0 -0.734375 0.765625 -1.3125q0.78125 -0.59375 2.515625 -0.703125l0 -1.21875q0 -0.359375 -0.265625 -0.546875q-0.265625 -0.203125 -0.75 -0.203125q-0.484375 0 -0.765625 0.265625q-0.28125 0.265625 -0.28125 0.6875q0 0.15625 0.03125 0.34375l-0.28125 0.140625q-0.265625 -0.140625 -0.5 -0.390625q-0.21875 -0.25 -0.21875 -0.359375q0 -0.109375 0.171875 -0.328125q0.1875 -0.21875 0.484375 -0.453125q0.296875 -0.25 0.796875 -0.421875q0.5 -0.1875 1.125 -0.1875q0.625 0 1.015625 0.3125q0.390625 0.296875 0.390625 1.109375q0 0.796875 0.078125 3.359375q0.015625 0.625 0.46875 0.625q0.1875 0 0.40625 -0.09375l0.125 0.328125q-0.5 0.453125 -1.078125 0.453125zm3.8878021 0q-1.34375 0 -1.34375 -1.296875q0.015625 -1.140625 0.015625 -2.09375q0 -0.953125 -0.03125 -2.0l-0.828125 0.015625l-0.046875 -0.140625l0.296875 -0.515625q0.1875 0.046875 0.546875 0.0625l-0.046875 -1.203125l0.859375 -0.765625l0.25 0.125q-0.03125 0.953125 -0.03125 1.828125l1.90625 -0.015625l0.0625 0.15625l-0.46875 0.515625q-0.4375 -0.046875 -1.5 -0.0625l0 1.75q0 1.625 0.03125 2.328125q0.046875 0.578125 0.703125 0.578125q0.515625 0 1.140625 -0.296875l0.15625 0.421875q-0.921875 0.609375 -1.671875 0.609375zm4.1082764 -7.625q-0.1875 0.203125 -0.484375 0.203125q-0.28125 0 -0.484375 -0.203125q-0.1875 -0.203125 -0.1875 -0.5q0 -0.296875 0.1875 -0.484375q0.203125 -0.203125 0.484375 -0.203125q0.296875 0 0.484375 0.203125q0.203125 0.1875 0.203125 0.484375q0 0.296875 -0.203125 0.5zm0.0625 1.671875l-0.03125 2.859375q0 1.6875 0.109375 2.1875l0.015625 0.171875q0.015625 0.09375 0.328125 0.1875q0.328125 0.078125 0.59375 0.09375l-0.03125 0.375q-0.625 -0.03125 -1.53125 -0.03125q-0.890625 0 -1.515625 0.03125l0.046875 -0.375q0.265625 -0.015625 0.578125 -0.09375q0.3125 -0.09375 0.328125 -0.1875q0.109375 -0.453125 0.109375 -1.8125q0 -2.21875 -0.109375 -2.703125l-0.828125 -0.25l-0.03125 -0.34375q0.828125 0 1.71875 -0.234375l0.25 0.125zm4.790222 0.5q-0.53125 0 -0.921875 0.265625q-0.390625 0.265625 -0.578125 0.671875q-0.34375 0.734375 -0.34375 1.421875q0 1.0625 0.421875 1.78125q0.4375 0.703125 1.359375 0.703125q0.5 0 0.875 -0.234375q0.375 -0.234375 0.5625 -0.59375q0.375 -0.671875 0.40625 -1.34375q0 -2.671875 -1.78125 -2.671875zm0.0625 -0.640625q1.484375 0 2.15625 0.765625q0.6875 0.75 0.6875 2.09375q0 1.34375 -0.78125 2.296875q-0.765625 0.9375 -2.25 0.9375q-1.484375 0 -2.171875 -0.734375q-0.671875 -0.75 -0.671875 -2.09375q0 -1.34375 0.765625 -2.296875q0.78125 -0.96875 2.265625 -0.96875zm5.7693024 1.21875l-0.015625 1.78125q0 1.6875 0.109375 2.1875l0.015625 0.171875q0.015625 0.09375 0.296875 0.1875q0.28125 0.078125 0.546875 0.09375l-0.046875 0.375q-0.625 -0.03125 -1.4375 -0.03125q-0.796875 0 -1.421875 0.03125l0.046875 -0.375q0.234375 -0.015625 0.515625 -0.09375q0.28125 -0.09375 0.296875 -0.1875q0.109375 -0.453125 0.109375 -1.8125q0 -2.21875 -0.109375 -2.703125l-0.828125 -0.25l-0.03125 -0.34375q0.828125 0 1.71875 -0.234375l0.25 0.125l0 0.625q1.4375 -0.765625 2.5 -0.765625q0.65625 0 0.984375 0.265625q0.34375 0.265625 0.34375 0.96875l0 1.765625q0 1.6875 0.09375 2.1875l0.046875 0.171875q0 0.09375 0.28125 0.1875q0.28125 0.078125 0.546875 0.09375l-0.046875 0.375q-0.625 -0.03125 -1.4375 -0.03125q-0.796875 0 -1.421875 0.03125l0.046875 -0.375q0.25 -0.015625 0.515625 -0.09375q0.28125 -0.09375 0.296875 -0.1875q0.109375 -0.453125 0.109375 -2.359375l0 -1.25q0 -0.515625 -0.296875 -0.703125q-0.296875 -0.203125 -1.015625 -0.203125q-0.71875 0 -1.5625 0.375z" fill-rule="nonzero"></path><path fill="#000000" d="m83.45728 65.85971q0 2.453125 0.109375 3.125l0.03125 0.234375q0.125 0.421875 1.3125 0.421875q0.59375 0 0.953125 -0.046875q0.359375 -0.046875 0.765625 -0.21875q0.75 -0.296875 1.140625 -1.484375l0.359375 0.15625q-0.234375 0.703125 -0.3125 2.0625l-5.203125 0q-0.75 0 -1.5625 0.03125l-0.046875 -0.375q0.671875 -0.125 0.90625 -0.21875q0.234375 -0.109375 0.265625 -0.328125q0.109375 -0.765625 0.109375 -2.78125q0 -3.265625 -0.078125 -4.078125l-0.03125 -0.265625q-0.015625 -0.21875 -0.234375 -0.3125q-0.203125 -0.109375 -0.828125 -0.234375l0.046875 -0.375q0.8125 0.03125 3.078125 0.03125q2.265625 0 3.328125 -0.078125l0 0.203125q0 1.015625 0.15625 1.90625l-0.359375 0.15625q-0.328125 -1.0625 -0.796875 -1.34375q-0.46875 -0.296875 -1.765625 -0.296875q-0.59375 0 -0.875 0.0625q-0.28125 0.046875 -0.328125 0.21875q-0.125 0.84375 -0.140625 3.3125q1.65625 0 1.984375 -0.078125q0.328125 -0.078125 0.421875 -0.28125q0.09375 -0.21875 0.234375 -0.890625l0.453125 0.046875q-0.109375 0.75 -0.109375 1.453125q0 0.6875 0.109375 1.453125l-0.453125 0.0625q-0.140625 -0.671875 -0.234375 -0.875q-0.09375 -0.21875 -0.421875 -0.296875q-0.328125 -0.078125 -1.984375 -0.078125zm8.66597 3.359375q1.375 -4.21875 1.34375 -4.21875q0.015625 -0.03125 0.015625 -0.0625q0 -0.28125 -0.71875 -0.375l-0.03125 -0.375q0.4375 0.03125 0.9375 0.03125l1.328125 -0.03125l0.03125 0.375q-0.65625 0.09375 -0.8125 0.484375q-0.75 1.703125 -1.828125 5.0625l-0.9375 0.109375q-1.046875 -3.25 -1.625 -4.609375l-0.203125 -0.515625q-0.171875 -0.4375 -0.796875 -0.53125l-0.03125 -0.375q0.890625 0.03125 1.375 0.03125l1.34375 -0.03125l0.046875 0.375q-0.390625 0.03125 -0.59375 0.15625q-0.1875 0.109375 -0.1875 0.234375q0 0.015625 0.25 0.796875q0.25 0.765625 1.09375 3.46875zm7.4154053 -3.265625q0 -0.609375 -0.34375 -0.890625q-0.328125 -0.296875 -0.75 -0.296875q-0.609375 0 -1.046875 0.484375q-0.4375 0.484375 -0.59375 1.1875l2.703125 -0.109375q0.03125 -0.203125 0.03125 -0.375zm-1.125 4.265625q-1.375 0 -2.078125 -0.78125q-0.703125 -0.78125 -0.703125 -2.078125q0 -1.3125 0.765625 -2.265625q0.78125 -0.96875 2.34375 -0.96875q0.78125 0 1.375 0.5625q0.59375 0.5625 0.59375 1.671875l-0.4375 0.53125q-0.078125 -0.015625 -1.234375 -0.015625q-1.140625 0 -2.296875 0.09375l0 0.109375q0 1.1875 0.484375 1.78125q0.5 0.59375 1.359375 0.59375q0.859375 0 1.796875 -0.421875l0.15625 0.390625q-1.0 0.796875 -2.125 0.796875zm5.101959 -4.875l-0.015625 1.78125q0 1.6875 0.109375 2.1875l0.015625 0.171875q0.015625 0.09375 0.296875 0.1875q0.28125 0.078125 0.546875 0.09375l-0.046875 0.375q-0.625 -0.03125 -1.4375 -0.03125q-0.796875 0 -1.421875 0.03125l0.046875 -0.375q0.234375 -0.015625 0.515625 -0.09375q0.28125 -0.09375 0.296875 -0.1875q0.109375 -0.453125 0.109375 -1.8125q0 -2.21875 -0.109375 -2.703125l-0.828125 -0.25l-0.03125 -0.34375q0.828125 0 1.71875 -0.234375l0.25 0.125l0 0.625q1.4375 -0.765625 2.5 -0.765625q0.65625 0 0.984375 0.265625q0.34375 0.265625 0.34375 0.96875l0 1.765625q0 1.6875 0.09375 2.1875l0.046875 0.171875q0 0.09375 0.28125 0.1875q0.28125 0.078125 0.546875 0.09375l-0.046875 0.375q-0.625 -0.03125 -1.4375 -0.03125q-0.796875 0 -1.421875 0.03125l0.046875 -0.375q0.25 -0.015625 0.515625 -0.09375q0.28125 -0.09375 0.296875 -0.1875q0.109375 -0.453125 0.109375 -2.359375l0 -1.25q0 -0.515625 -0.296875 -0.703125q-0.296875 -0.203125 -1.015625 -0.203125q-0.71875 0 -1.5625 0.375zm7.744972 4.875q-1.3437424 0 -1.3437424 -1.296875q0.015625 -1.140625 0.015625 -2.09375q0 -0.953125 -0.03125 -2.0l-0.828125 0.015625l-0.046875 -0.140625l0.296875 -0.515625q0.1875 0.046875 0.546875 0.0625l-0.046875 -1.203125l0.859375 -0.765625l0.25 0.125q-0.03125 0.953125 -0.03125 1.828125l1.9062424 -0.015625l0.0625 0.15625l-0.46875 0.515625q-0.4375 -0.046875 -1.4999924 -0.0625l0 1.75q0 1.625 0.03125 2.328125q0.046875 0.578125 0.7031174 0.578125q0.515625 0 1.140625 -0.296875l0.15625 0.421875q-0.921875 0.609375 -1.671875 0.609375z" fill-rule="nonzero"></path><path fill="#d0e0e3" d="m172.66142 41.603832l0 0c0 -4.3371887 3.515976 -7.853176 7.8531647 -7.853176l88.13617 0c2.0827942 0 4.0802917 0.82738495 5.5530396 2.3001404c1.4727478 1.4727592 2.3001404 3.4702454 2.3001404 5.5530357l0 31.411762c0 4.3371887 -3.5159912 7.8531723 -7.85318 7.8531723l-88.13617 0c-4.3371887 0 -7.8531647 -3.5159836 -7.8531647 -7.8531723z" fill-rule="nonzero"></path><path stroke="#000000" stroke-width="1.0" stroke-linejoin="round" stroke-linecap="butt" d="m172.66142 41.603832l0 0c0 -4.3371887 3.515976 -7.853176 7.8531647 -7.853176l88.13617 0c2.0827942 0 4.0802917 0.82738495 5.5530396 2.3001404c1.4727478 1.4727592 2.3001404 3.4702454 2.3001404 5.5530357l0 31.411762c0 4.3371887 -3.5159912 7.8531723 -7.85318 7.8531723l-88.13617 0c-4.3371887 0 -7.8531647 -3.5159836 -7.8531647 -7.8531723z" fill-rule="nonzero"></path><path fill="#000000" d="m208.88391 47.39096q-0.265625 -0.953125 -0.734375 -1.296875q-0.453125 -0.359375 -1.1875 -0.359375q-0.734375 0 -1.125 0.359375q-0.390625 0.359375 -0.390625 0.875q0 0.84375 0.859375 1.421875l2.0625 1.34375q1.34375 0.875 1.34375 2.09375q0 0.96875 -0.78125 1.6875q-0.765625 0.71875 -2.25 0.71875q-1.46875 0 -2.578125 -0.46875q0.203125 -1.0625 0.203125 -1.90625l0.359375 -0.15625q0.1875 1.0625 0.59375 1.46875q0.421875 0.40625 1.296875 0.40625q0.890625 0 1.34375 -0.421875q0.46875 -0.4375 0.46875 -1.015625q0 -0.796875 -0.84375 -1.34375l-2.078125 -1.375q-1.203125 -0.765625 -1.203125 -2.0q0 -0.9375 0.734375 -1.625q0.75 -0.703125 1.9375 -0.703125q0.390625 0 0.859375 0.09375q0.484375 0.09375 0.734375 0.09375q0.25 0 0.578125 -0.078125l0 0.203125q0 0.9375 0.15625 1.828125l-0.359375 0.15625zm4.1622314 6.828125q-1.34375 0 -1.34375 -1.296875q0.015625 -1.140625 0.015625 -2.09375q0 -0.953125 -0.03125 -2.0l-0.828125 0.015625l-0.046875 -0.140625l0.296875 -0.515625q0.1875 0.046875 0.546875 0.0625l-0.046875 -1.203125l0.859375 -0.765625l0.25 0.125q-0.03125 0.953125 -0.03125 1.828125l1.90625 -0.015625l0.0625 0.15625l-0.46875 0.515625q-0.4375 -0.046875 -1.5 -0.0625l0 1.75q0 1.625 0.03125 2.328125q0.046875 0.578125 0.703125 0.578125q0.515625 0 1.140625 -0.296875l0.15625 0.421875q-0.921875 0.609375 -1.671875 0.609375zm5.2957764 -5.453125q-0.53125 0 -0.921875 0.265625q-0.390625 0.265625 -0.578125 0.671875q-0.34375 0.734375 -0.34375 1.421875q0 1.0625 0.421875 1.78125q0.4375 0.703125 1.359375 0.703125q0.5 0 0.875 -0.234375q0.375 -0.234375 0.5625 -0.59375q0.375 -0.671875 0.40625 -1.34375q0 -2.671875 -1.78125 -2.671875zm0.0625 -0.640625q1.484375 0 2.15625 0.765625q0.6875 0.75 0.6875 2.09375q0 1.34375 -0.78125 2.296875q-0.765625 0.9375 -2.25 0.9375q-1.484375 0 -2.171875 -0.734375q-0.671875 -0.75 -0.671875 -2.09375q0 -1.34375 0.765625 -2.296875q0.78125 -0.96875 2.265625 -0.96875zm7.6599274 -0.078125q0.109375 0 0.34375 0.3125q0.25 0.296875 0.328125 0.609375l-0.203125 0.234375q-0.46875 -0.171875 -0.96875 -0.171875q-0.5 0 -0.921875 0.421875q-0.421875 0.421875 -0.421875 1.359375q0.015625 2.28125 0.125 2.65625q0.015625 0.109375 0.359375 0.203125q0.359375 0.078125 0.75 0.09375l-0.03125 0.375q-0.625 -0.03125 -1.578125 -0.03125q-0.953125 0 -1.578125 0.03125l0.03125 -0.375q0.265625 -0.015625 0.546875 -0.09375q0.28125 -0.09375 0.296875 -0.1875q0.109375 -0.453125 0.109375 -1.8125q0 -2.21875 -0.109375 -2.703125l-0.828125 -0.25l-0.03125 -0.34375q0.84375 0 1.71875 -0.234375l0.25 0.125q-0.03125 0.1875 -0.03125 1.0625q0.375 -0.625 0.953125 -0.953125q0.578125 -0.328125 0.890625 -0.328125zm4.6653137 3.328125q-1.0625 0.03125 -1.625 0.40625q-0.5625 0.375 -0.5625 0.828125q0 0.4375 0.21875 0.640625q0.234375 0.203125 0.734375 0.203125q0.515625 0 1.234375 -0.4375l0 -1.640625zm0.953125 2.84375q-0.78125 0 -0.90625 -0.84375q-1.15625 0.84375 -1.984375 0.84375q-0.5625 0 -0.953125 -0.34375q-0.390625 -0.34375 -0.390625 -1.0625q0 -0.734375 0.765625 -1.3125q0.78125 -0.59375 2.515625 -0.703125l0 -1.21875q0 -0.359375 -0.265625 -0.546875q-0.265625 -0.203125 -0.75 -0.203125q-0.484375 0 -0.765625 0.265625q-0.28125 0.265625 -0.28125 0.6875q0 0.15625 0.03125 0.34375l-0.28125 0.140625q-0.265625 -0.140625 -0.5 -0.390625q-0.21875 -0.25 -0.21875 -0.359375q0 -0.109375 0.171875 -0.328125q0.1875 -0.21875 0.484375 -0.453125q0.296875 -0.25 0.796875 -0.421875q0.5 -0.1875 1.125 -0.1875q0.625 0 1.015625 0.3125q0.390625 0.296875 0.390625 1.109375q0 0.796875 0.078125 3.359375q0.015625 0.625 0.46875 0.625q0.1875 0 0.40625 -0.09375l0.125 0.328125q-0.5 0.453125 -1.078125 0.453125zm6.997177 -6.5625q0.109375 0 0.34375 0.3125q0.25 0.296875 0.328125 0.609375l-0.203125 0.234375q-0.234375 -0.109375 -0.5625 -0.109375q-0.328125 0 -0.609375 0.140625q0.453125 0.5625 0.453125 1.46875q0 0.90625 -0.59375 1.5625q-0.59375 0.640625 -1.765625 0.640625q-0.296875 0 -0.578125 -0.046875q-0.484375 0.625 -0.484375 0.859375q0 0.296875 0.859375 0.296875l0.96875 0q2.453125 0 2.453125 1.59375q0 0.875 -0.984375 1.59375q-0.96875 0.71875 -2.625 0.71875q-0.96875 0 -1.671875 -0.328125q-0.703125 -0.3125 -0.703125 -0.890625q0 -0.84375 1.34375 -1.921875q-0.8125 -0.171875 -0.8125 -0.609375q0 -0.453125 1.171875 -1.40625q-1.3125 -0.40625 -1.3125 -2.09375q0 -0.859375 0.59375 -1.5q0.609375 -0.640625 1.703125 -0.640625q1.109375 0 1.65625 0.390625q0.15625 -0.25 0.46875 -0.5625q0.328125 -0.3125 0.5625 -0.3125zm-4.28125 8.21875q0 0.515625 0.375 0.828125q0.390625 0.3125 1.234375 0.3125q0.859375 0 1.515625 -0.546875q0.671875 -0.546875 0.671875 -1.15625q0 -0.390625 -0.34375 -0.640625q-0.328125 -0.234375 -1.046875 -0.234375l-1.75 0q-0.65625 0.71875 -0.65625 1.4375zm1.6875 -7.203125q-0.375 0 -0.65625 0.1875q-0.28125 0.171875 -0.421875 0.4375q-0.21875 0.515625 -0.21875 1.109375q0 0.578125 0.296875 1.078125q0.296875 0.5 0.9375 0.5q0.46875 0 0.765625 -0.28125q0.3125 -0.28125 0.40625 -0.578125q0.109375 -0.296875 0.125 -0.625q0 -1.828125 -1.234375 -1.828125zm7.8745117 1.28125q0 -0.609375 -0.34375 -0.890625q-0.328125 -0.296875 -0.75 -0.296875q-0.609375 0 -1.046875 0.484375q-0.4375 0.484375 -0.59375 1.1875l2.703125 -0.109375q0.03125 -0.203125 0.03125 -0.375zm-1.125 4.265625q-1.375 0 -2.078125 -0.78125q-0.703125 -0.78125 -0.703125 -2.078125q0 -1.3125 0.765625 -2.265625q0.78125 -0.96875 2.34375 -0.96875q0.78125 0 1.375 0.5625q0.59375 0.5625 0.59375 1.671875l-0.4375 0.53125q-0.078125 -0.015625 -1.234375 -0.015625q-1.140625 0 -2.296875 0.09375l0 0.109375q0 1.1875 0.484375 1.78125q0.5 0.59375 1.359375 0.59375q0.859375 0 1.796875 -0.421875l0.15625 0.390625q-1.0 0.796875 -2.125 0.796875z" fill-rule="nonzero"></path><path fill="#000000" d="m211.16594 65.85971q0 2.453125 0.109375 3.125l0.03125 0.234375q0.125 0.421875 1.3125 0.421875q0.59375 0 0.953125 -0.046875q0.359375 -0.046875 0.765625 -0.21875q0.75 -0.296875 1.140625 -1.484375l0.359375 0.15625q-0.234375 0.703125 -0.3125 2.0625l-5.203125 0q-0.75 0 -1.5625 0.03125l-0.046875 -0.375q0.671875 -0.125 0.90625 -0.21875q0.234375 -0.109375 0.265625 -0.328125q0.109375 -0.765625 0.109375 -2.78125q0 -3.265625 -0.078125 -4.078125l-0.03125 -0.265625q-0.015625 -0.21875 -0.234375 -0.3125q-0.203125 -0.109375 -0.828125 -0.234375l0.046875 -0.375q0.8125 0.03125 3.078125 0.03125q2.265625 0 3.328125 -0.078125l0 0.203125q0 1.015625 0.15625 1.90625l-0.359375 0.15625q-0.328125 -1.0625 -0.796875 -1.34375q-0.46875 -0.296875 -1.765625 -0.296875q-0.59375 0 -0.875 0.0625q-0.28125 0.046875 -0.328125 0.21875q-0.125 0.84375 -0.140625 3.3125q1.65625 0 1.984375 -0.078125q0.328125 -0.078125 0.421875 -0.28125q0.09375 -0.21875 0.234375 -0.890625l0.453125 0.046875q-0.109375 0.75 -0.109375 1.453125q0 0.6875 0.109375 1.453125l-0.453125 0.0625q-0.140625 -0.671875 -0.234375 -0.875q-0.09375 -0.21875 -0.421875 -0.296875q-0.328125 -0.078125 -1.984375 -0.078125zm8.66597 3.359375q1.375 -4.21875 1.34375 -4.21875q0.015625 -0.03125 0.015625 -0.0625q0 -0.28125 -0.71875 -0.375l-0.03125 -0.375q0.4375 0.03125 0.9375 0.03125l1.328125 -0.03125l0.03125 0.375q-0.65625 0.09375 -0.8125 0.484375q-0.75 1.703125 -1.828125 5.0625l-0.9375 0.109375q-1.046875 -3.25 -1.625 -4.609375l-0.203125 -0.515625q-0.171875 -0.4375 -0.796875 -0.53125l-0.03125 -0.375q0.890625 0.03125 1.375 0.03125l1.34375 -0.03125l0.046875 0.375q-0.390625 0.03125 -0.59375 0.15625q-0.1875 0.109375 -0.1875 0.234375q0 0.015625 0.25 0.796875q0.25 0.765625 1.09375 3.46875zm7.4154053 -3.265625q0 -0.609375 -0.34375 -0.890625q-0.328125 -0.296875 -0.75 -0.296875q-0.609375 0 -1.046875 0.484375q-0.4375 0.484375 -0.59375 1.1875l2.703125 -0.109375q0.03125 -0.203125 0.03125 -0.375zm-1.125 4.265625q-1.375 0 -2.078125 -0.78125q-0.703125 -0.78125 -0.703125 -2.078125q0 -1.3125 0.765625 -2.265625q0.78125 -0.96875 2.34375 -0.96875q0.78125 0 1.375 0.5625q0.59375 0.5625 0.59375 1.671875l-0.4375 0.53125q-0.078125 -0.015625 -1.234375 -0.015625q-1.140625 0 -2.296875 0.09375l0 0.109375q0 1.1875 0.484375 1.78125q0.5 0.59375 1.359375 0.59375q0.859375 0 1.796875 -0.421875l0.15625 0.390625q-1.0 0.796875 -2.125 0.796875zm5.101959 -4.875l-0.015625 1.78125q0 1.6875 0.109375 2.1875l0.015625 0.171875q0.015625 0.09375 0.296875 0.1875q0.28125 0.078125 0.546875 0.09375l-0.046875 0.375q-0.625 -0.03125 -1.4375 -0.03125q-0.796875 0 -1.421875 0.03125l0.046875 -0.375q0.234375 -0.015625 0.515625 -0.09375q0.28125 -0.09375 0.296875 -0.1875q0.109375 -0.453125 0.109375 -1.8125q0 -2.21875 -0.109375 -2.703125l-0.828125 -0.25l-0.03125 -0.34375q0.828125 0 1.71875 -0.234375l0.25 0.125l0 0.625q1.4375 -0.765625 2.5 -0.765625q0.65625 0 0.984375 0.265625q0.34375 0.265625 0.34375 0.96875l0 1.765625q0 1.6875 0.09375 2.1875l0.046875 0.171875q0 0.09375 0.28125 0.1875q0.28125 0.078125 0.546875 0.09375l-0.046875 0.375q-0.625 -0.03125 -1.4375 -0.03125q-0.796875 0 -1.421875 0.03125l0.046875 -0.375q0.25 -0.015625 0.515625 -0.09375q0.28125 -0.09375 0.296875 -0.1875q0.109375 -0.453125 0.109375 -2.359375l0 -1.25q0 -0.515625 -0.296875 -0.703125q-0.296875 -0.203125 -1.015625 -0.203125q-0.71875 0 -1.5625 0.375zm7.74498 4.875q-1.34375 0 -1.34375 -1.296875q0.015625 -1.140625 0.015625 -2.09375q0 -0.953125 -0.03125 -2.0l-0.828125 0.015625l-0.046875 -0.140625l0.296875 -0.515625q0.1875 0.046875 0.546875 0.0625l-0.046875 -1.203125l0.859375 -0.765625l0.25 0.125q-0.03125 0.953125 -0.03125 1.828125l1.90625 -0.015625l0.0625 0.15625l-0.46875 0.515625q-0.4375 -0.046875 -1.5 -0.0625l0 1.75q0 1.625 0.03125 2.328125q0.046875 0.578125 0.703125 0.578125q0.515625 0 1.140625 -0.296875l0.15625 0.421875q-0.921875 0.609375 -1.671875 0.609375z" fill-rule="nonzero"></path><path fill="#d0e0e3" d="m300.3701 41.603832l0 0c0 -4.3371887 3.5159912 -7.853176 7.85318 -7.853176l88.13617 0c2.0827637 0 4.080261 0.82738495 5.553009 2.3001404c1.4727783 1.4727592 2.3001404 3.4702454 2.3001404 5.5530357l0 31.411762c0 4.3371887 -3.5159607 7.8531723 -7.8531494 7.8531723l-88.13617 0c-4.3371887 0 -7.85318 -3.5159836 -7.85318 -7.8531723z" fill-rule="nonzero"></path><path stroke="#000000" stroke-width="1.0" stroke-linejoin="round" stroke-linecap="butt" d="m300.3701 41.603832l0 0c0 -4.3371887 3.5159912 -7.853176 7.85318 -7.853176l88.13617 0c2.0827637 0 4.080261 0.82738495 5.553009 2.3001404c1.4727783 1.4727592 2.3001404 3.4702454 2.3001404 5.5530357l0 31.411762c0 4.3371887 -3.5159607 7.8531723 -7.8531494 7.8531723l-88.13617 0c-4.3371887 0 -7.85318 -3.5159836 -7.85318 -7.8531723z" fill-rule="nonzero"></path><path fill="#000000" d="m336.5926 47.39096q-0.265625 -0.953125 -0.734375 -1.296875q-0.453125 -0.359375 -1.1875 -0.359375q-0.734375 0 -1.125 0.359375q-0.390625 0.359375 -0.390625 0.875q0 0.84375 0.859375 1.421875l2.0625 1.34375q1.34375 0.875 1.34375 2.09375q0 0.96875 -0.78125 1.6875q-0.765625 0.71875 -2.25 0.71875q-1.46875 0 -2.578125 -0.46875q0.203125 -1.0625 0.203125 -1.90625l0.359375 -0.15625q0.1875 1.0625 0.59375 1.46875q0.421875 0.40625 1.296875 0.40625q0.890625 0 1.34375 -0.421875q0.46875 -0.4375 0.46875 -1.015625q0 -0.796875 -0.84375 -1.34375l-2.078125 -1.375q-1.203125 -0.765625 -1.203125 -2.0q0 -0.9375 0.734375 -1.625q0.75 -0.703125 1.9375 -0.703125q0.390625 0 0.859375 0.09375q0.484375 0.09375 0.734375 0.09375q0.25 0 0.578125 -0.078125l0 0.203125q0 0.9375 0.15625 1.828125l-0.359375 0.15625zm4.1622314 6.828125q-1.34375 0 -1.34375 -1.296875q0.015625 -1.140625 0.015625 -2.09375q0 -0.953125 -0.03125 -2.0l-0.828125 0.015625l-0.046875 -0.140625l0.296875 -0.515625q0.1875 0.046875 0.546875 0.0625l-0.046875 -1.203125l0.859375 -0.765625l0.25 0.125q-0.03125 0.953125 -0.03125 1.828125l1.90625 -0.015625l0.0625 0.15625l-0.46875 0.515625q-0.4375 -0.046875 -1.5 -0.0625l0 1.75q0 1.625 0.03125 2.328125q0.046875 0.578125 0.703125 0.578125q0.515625 0 1.140625 -0.296875l0.15625 0.421875q-0.921875 0.609375 -1.671875 0.609375zm5.2957764 -5.453125q-0.53125 0 -0.921875 0.265625q-0.390625 0.265625 -0.578125 0.671875q-0.34375 0.734375 -0.34375 1.421875q0 1.0625 0.421875 1.78125q0.4375 0.703125 1.359375 0.703125q0.5 0 0.875 -0.234375q0.375 -0.234375 0.5625 -0.59375q0.375 -0.671875 0.40625 -1.34375q0 -2.671875 -1.78125 -2.671875zm0.0625 -0.640625q1.484375 0 2.15625 0.765625q0.6875 0.75 0.6875 2.09375q0 1.34375 -0.78125 2.296875q-0.765625 0.9375 -2.25 0.9375q-1.484375 0 -2.171875 -0.734375q-0.671875 -0.75 -0.671875 -2.09375q0 -1.34375 0.765625 -2.296875q0.78125 -0.96875 2.265625 -0.96875zm7.659912 -0.078125q0.109375 0 0.34375 0.3125q0.25 0.296875 0.328125 0.609375l-0.203125 0.234375q-0.46875 -0.171875 -0.96875 -0.171875q-0.5 0 -0.921875 0.421875q-0.421875 0.421875 -0.421875 1.359375q0.015625 2.28125 0.125 2.65625q0.015625 0.109375 0.359375 0.203125q0.359375 0.078125 0.75 0.09375l-0.03125 0.375q-0.625 -0.03125 -1.578125 -0.03125q-0.953125 0 -1.578125 0.03125l0.03125 -0.375q0.265625 -0.015625 0.546875 -0.09375q0.28125 -0.09375 0.296875 -0.1875q0.109375 -0.453125 0.109375 -1.8125q0 -2.21875 -0.109375 -2.703125l-0.828125 -0.25l-0.03125 -0.34375q0.84375 0 1.71875 -0.234375l0.25 0.125q-0.03125 0.1875 -0.03125 1.0625q0.375 -0.625 0.953125 -0.953125q0.578125 -0.328125 0.890625 -0.328125zm4.6653137 3.328125q-1.0625 0.03125 -1.625 0.40625q-0.5625 0.375 -0.5625 0.828125q0 0.4375 0.21875 0.640625q0.234375 0.203125 0.734375 0.203125q0.515625 0 1.234375 -0.4375l0 -1.640625zm0.953125 2.84375q-0.78125 0 -0.90625 -0.84375q-1.15625 0.84375 -1.984375 0.84375q-0.5625 0 -0.953125 -0.34375q-0.390625 -0.34375 -0.390625 -1.0625q0 -0.734375 0.765625 -1.3125q0.78125 -0.59375 2.515625 -0.703125l0 -1.21875q0 -0.359375 -0.265625 -0.546875q-0.265625 -0.203125 -0.75 -0.203125q-0.484375 0 -0.765625 0.265625q-0.28125 0.265625 -0.28125 0.6875q0 0.15625 0.03125 0.34375l-0.28125 0.140625q-0.265625 -0.140625 -0.5 -0.390625q-0.21875 -0.25 -0.21875 -0.359375q0 -0.109375 0.171875 -0.328125q0.1875 -0.21875 0.484375 -0.453125q0.296875 -0.25 0.796875 -0.421875q0.5 -0.1875 1.125 -0.1875q0.625 0 1.015625 0.3125q0.390625 0.296875 0.390625 1.109375q0 0.796875 0.078125 3.359375q0.015625 0.625 0.46875 0.625q0.1875 0 0.40625 -0.09375l0.125 0.328125q-0.5 0.453125 -1.078125 0.453125zm6.9971924 -6.5625q0.109375 0 0.34371948 0.3125q0.25 0.296875 0.328125 0.609375l-0.203125 0.234375q-0.23434448 -0.109375 -0.5624695 -0.109375q-0.328125 0 -0.609375 0.140625q0.453125 0.5625 0.453125 1.46875q0 0.90625 -0.59375 1.5625q-0.59375 0.640625 -1.765625 0.640625q-0.296875 0 -0.578125 -0.046875q-0.484375 0.625 -0.484375 0.859375q0 0.296875 0.859375 0.296875l0.96875 0q2.4530945 0 2.4530945 1.59375q0 0.875 -0.9843445 1.59375q-0.96875 0.71875 -2.625 0.71875q-0.96875 0 -1.671875 -0.328125q-0.703125 -0.3125 -0.703125 -0.890625q0 -0.84375 1.34375 -1.921875q-0.8125 -0.171875 -0.8125 -0.609375q0 -0.453125 1.171875 -1.40625q-1.3125 -0.40625 -1.3125 -2.09375q0 -0.859375 0.59375 -1.5q0.609375 -0.640625 1.703125 -0.640625q1.109375 0 1.65625 0.390625q0.15625 -0.25 0.46875 -0.5625q0.328125 -0.3125 0.5625 -0.3125zm-4.28125 8.21875q0 0.515625 0.375 0.828125q0.390625 0.3125 1.234375 0.3125q0.859375 0 1.515625 -0.546875q0.671875 -0.546875 0.671875 -1.15625q0 -0.390625 -0.34375 -0.640625q-0.328125 -0.234375 -1.046875 -0.234375l-1.75 0q-0.65625 0.71875 -0.65625 1.4375zm1.6875 -7.203125q-0.375 0 -0.65625 0.1875q-0.28125 0.171875 -0.421875 0.4375q-0.21875 0.515625 -0.21875 1.109375q0 0.578125 0.296875 1.078125q0.296875 0.5 0.9375 0.5q0.46875 0 0.765625 -0.28125q0.3125 -0.28125 0.40625 -0.578125q0.109375 -0.296875 0.125 -0.625q0 -1.828125 -1.234375 -1.828125zm7.874481 1.28125q0 -0.609375 -0.34375 -0.890625q-0.328125 -0.296875 -0.75 -0.296875q-0.609375 0 -1.046875 0.484375q-0.4375 0.484375 -0.59375 1.1875l2.703125 -0.109375q0.03125 -0.203125 0.03125 -0.375zm-1.125 4.265625q-1.375 0 -2.078125 -0.78125q-0.703125 -0.78125 -0.703125 -2.078125q0 -1.3125 0.765625 -2.265625q0.78125 -0.96875 2.34375 -0.96875q0.78125 0 1.375 0.5625q0.59375 0.5625 0.59375 1.671875l-0.4375 0.53125q-0.078125 -0.015625 -1.234375 -0.015625q-1.140625 0 -2.296875 0.09375l0 0.109375q0 1.1875 0.484375 1.78125q0.5 0.59375 1.359375 0.59375q0.859375 0 1.796875 -0.421875l0.15625 0.390625q-1.0 0.796875 -2.125 0.796875z" fill-rule="nonzero"></path><path fill="#000000" d="m338.8746 65.85971q0 2.453125 0.109375 3.125l0.03125 0.234375q0.125 0.421875 1.3125 0.421875q0.59375 0 0.953125 -0.046875q0.359375 -0.046875 0.765625 -0.21875q0.75 -0.296875 1.140625 -1.484375l0.359375 0.15625q-0.234375 0.703125 -0.3125 2.0625l-5.203125 0q-0.75 0 -1.5625 0.03125l-0.046875 -0.375q0.671875 -0.125 0.90625 -0.21875q0.234375 -0.109375 0.265625 -0.328125q0.109375 -0.765625 0.109375 -2.78125q0 -3.265625 -0.078125 -4.078125l-0.03125 -0.265625q-0.015625 -0.21875 -0.234375 -0.3125q-0.203125 -0.109375 -0.828125 -0.234375l0.046875 -0.375q0.8125 0.03125 3.078125 0.03125q2.265625 0 3.328125 -0.078125l0 0.203125q0 1.015625 0.15625 1.90625l-0.359375 0.15625q-0.328125 -1.0625 -0.796875 -1.34375q-0.46875 -0.296875 -1.765625 -0.296875q-0.59375 0 -0.875 0.0625q-0.28125 0.046875 -0.328125 0.21875q-0.125 0.84375 -0.140625 3.3125q1.65625 0 1.984375 -0.078125q0.328125 -0.078125 0.421875 -0.28125q0.09375 -0.21875 0.234375 -0.890625l0.453125 0.046875q-0.109375 0.75 -0.109375 1.453125q0 0.6875 0.109375 1.453125l-0.453125 0.0625q-0.140625 -0.671875 -0.234375 -0.875q-0.09375 -0.21875 -0.421875 -0.296875q-0.328125 -0.078125 -1.984375 -0.078125zm8.665985 3.359375q1.375 -4.21875 1.34375 -4.21875q0.015625 -0.03125 0.015625 -0.0625q0 -0.28125 -0.71875 -0.375l-0.03125 -0.375q0.4375 0.03125 0.9375 0.03125l1.328125 -0.03125l0.03125 0.375q-0.65625 0.09375 -0.8125 0.484375q-0.75 1.703125 -1.828125 5.0625l-0.9375 0.109375q-1.046875 -3.25 -1.625 -4.609375l-0.203125 -0.515625q-0.171875 -0.4375 -0.796875 -0.53125l-0.03125 -0.375q0.890625 0.03125 1.375 0.03125l1.34375 -0.03125l0.046875 0.375q-0.390625 0.03125 -0.59375 0.15625q-0.1875 0.109375 -0.1875 0.234375q0 0.015625 0.25 0.796875q0.25 0.765625 1.09375 3.46875zm7.4154053 -3.265625q0 -0.609375 -0.34375 -0.890625q-0.328125 -0.296875 -0.75 -0.296875q-0.609375 0 -1.046875 0.484375q-0.4375 0.484375 -0.59375 1.1875l2.703125 -0.109375q0.03125 -0.203125 0.03125 -0.375zm-1.125 4.265625q-1.375 0 -2.078125 -0.78125q-0.703125 -0.78125 -0.703125 -2.078125q0 -1.3125 0.765625 -2.265625q0.78125 -0.96875 2.34375 -0.96875q0.78125 0 1.375 0.5625q0.59375 0.5625 0.59375 1.671875l-0.4375 0.53125q-0.078125 -0.015625 -1.234375 -0.015625q-1.140625 0 -2.296875 0.09375l0 0.109375q0 1.1875 0.484375 1.78125q0.5 0.59375 1.359375 0.59375q0.859375 0 1.796875 -0.421875l0.15625 0.390625q-1.0 0.796875 -2.125 0.796875zm5.101959 -4.875l-0.015625 1.78125q0 1.6875 0.109375 2.1875l0.015625 0.171875q0.015625 0.09375 0.296875 0.1875q0.28125 0.078125 0.546875 0.09375l-0.046875 0.375q-0.625 -0.03125 -1.4375 -0.03125q-0.796875 0 -1.421875 0.03125l0.046875 -0.375q0.234375 -0.015625 0.515625 -0.09375q0.28125 -0.09375 0.296875 -0.1875q0.109375 -0.453125 0.109375 -1.8125q0 -2.21875 -0.109375 -2.703125l-0.828125 -0.25l-0.03125 -0.34375q0.828125 0 1.71875 -0.234375l0.25 0.125l0 0.625q1.4375 -0.765625 2.5 -0.765625q0.65625 0 0.984375 0.265625q0.34375 0.265625 0.34375 0.96875l0 1.765625q0 1.6875 0.09375 2.1875l0.046875 0.171875q0 0.09375 0.28125 0.1875q0.28125 0.078125 0.546875 0.09375l-0.046875 0.375q-0.625 -0.03125 -1.4375 -0.03125q-0.796875 0 -1.421875 0.03125l0.046875 -0.375q0.25 -0.015625 0.515625 -0.09375q0.28125 -0.09375 0.296875 -0.1875q0.109375 -0.453125 0.109375 -2.359375l0 -1.25q0 -0.515625 -0.296875 -0.703125q-0.296875 -0.203125 -1.015625 -0.203125q-0.71875 0 -1.5625 0.375zm7.7449646 4.875q-1.34375 0 -1.34375 -1.296875q0.015625 -1.140625 0.015625 -2.09375q0 -0.953125 -0.03125 -2.0l-0.828125 0.015625l-0.046875 -0.140625l0.296875 -0.515625q0.1875 0.046875 0.546875 0.0625l-0.046875 -1.203125l0.859375 -0.765625l0.25 0.125q-0.03125 0.953125 -0.03125 1.828125l1.90625 -0.015625l0.0625 0.15625l-0.46875 0.515625q-0.4375 -0.046875 -1.5 -0.0625l0 1.75q0 1.625 0.03125 2.328125q0.046875 0.578125 0.703125 0.578125q0.515625 0 1.140625 -0.296875l0.15625 0.421875q-0.921875 0.609375 -1.671875 0.609375z" fill-rule="nonzero"></path><path fill="#b6d7a8" d="m428.07874 41.603832l0 0c0 -4.3371887 3.5159912 -7.853176 7.85318 -7.853176l88.13614 0c2.0828247 0 4.0803223 0.82738495 5.5530396 2.3001404c1.4727783 1.4727592 2.300171 3.4702454 2.300171 5.5530357l0 31.411762c0 4.3371887 -3.5159912 7.8531723 -7.8532104 7.8531723l-88.13614 0c-4.3371887 0 -7.85318 -3.5159836 -7.85318 -7.8531723z" fill-rule="nonzero"></path><path stroke="#000000" stroke-width="1.0" stroke-linejoin="round" stroke-linecap="butt" d="m428.07874 41.603832l0 0c0 -4.3371887 3.5159912 -7.853176 7.85318 -7.853176l88.13614 0c2.0828247 0 4.0803223 0.82738495 5.5530396 2.3001404c1.4727783 1.4727592 2.300171 3.4702454 2.300171 5.5530357l0 31.411762c0 4.3371887 -3.5159912 7.8531723 -7.8532104 7.8531723l-88.13614 0c-4.3371887 0 -7.85318 -3.5159836 -7.85318 -7.8531723z" fill-rule="nonzero"></path><path fill="#000000" d="m445.67917 53.625336q1.21875 0 2.0 -0.5q0.78125 -0.5 1.03125 -1.359375l0.359375 0.15625q-0.140625 0.46875 -0.296875 1.75q-1.609375 0.59375 -3.140625 0.59375q-2.125 0 -3.375 -1.15625q-1.25 -1.171875 -1.25 -3.234375q0 -2.078125 1.234375 -3.421875q1.234375 -1.359375 3.375 -1.359375q0.609375 0 1.34375 0.09375q0.734375 0.09375 1.0 0.09375q0.28125 0 0.59375 -0.078125l0 0.203125q0 0.9375 0.15625 1.828125l-0.34375 0.15625q-0.515625 -1.703125 -2.765625 -1.703125q-1.296875 0 -2.234375 0.921875q-0.46875 0.453125 -0.734375 1.21875q-0.265625 0.75 -0.265625 1.609375q0 0.859375 0.1875 1.5625q0.1875 0.703125 0.5625 1.3125q0.375 0.59375 1.03125 0.953125q0.671875 0.359375 1.53125 0.359375zm7.501526 -4.859375q-0.53125 0 -0.921875 0.265625q-0.390625 0.265625 -0.578125 0.671875q-0.34375 0.734375 -0.34375 1.421875q0 1.0625 0.421875 1.78125q0.4375 0.703125 1.359375 0.703125q0.5 0 0.875 -0.234375q0.375 -0.234375 0.5625 -0.59375q0.375 -0.671875 0.40625 -1.34375q0 -2.671875 -1.78125 -2.671875zm0.0625 -0.640625q1.484375 0 2.15625 0.765625q0.6875 0.75 0.6875 2.09375q0 1.34375 -0.78125 2.296875q-0.765625 0.9375 -2.25 0.9375q-1.484375 0 -2.171875 -0.734375q-0.671875 -0.75 -0.671875 -2.09375q0 -1.34375 0.765625 -2.296875q0.78125 -0.96875 2.265625 -0.96875zm5.769287 1.21875l-0.015625 1.78125q0 1.6875 0.109375 2.1875l0.015625 0.171875q0.015625 0.09375 0.296875 0.1875q0.28125 0.078125 0.546875 0.09375l-0.046875 0.375q-0.625 -0.03125 -1.4375 -0.03125q-0.796875 0 -1.421875 0.03125l0.046875 -0.375q0.234375 -0.015625 0.515625 -0.09375q0.28125 -0.09375 0.296875 -0.1875q0.109375 -0.453125 0.109375 -1.8125q0 -2.21875 -0.109375 -2.703125l-0.828125 -0.25l-0.03125 -0.34375q0.828125 0 1.71875 -0.234375l0.25 0.125l0 0.625q1.4375 -0.765625 2.5 -0.765625q0.65625 0 0.984375 0.265625q0.34375 0.265625 0.34375 0.96875l0 1.765625q0 1.6875 0.09375 2.1875l0.046875 0.171875q0 0.09375 0.28125 0.1875q0.28125 0.078125 0.546875 0.09375l-0.046875 0.375q-0.625 -0.03125 -1.4375 -0.03125q-0.796875 0 -1.421875 0.03125l0.046875 -0.375q0.25 -0.015625 0.515625 -0.09375q0.28125 -0.09375 0.296875 -0.1875q0.109375 -0.453125 0.109375 -2.359375l0 -1.25q0 -0.515625 -0.296875 -0.703125q-0.296875 -0.203125 -1.015625 -0.203125q-0.71875 0 -1.5625 0.375zm8.588745 4.796875q-0.625 -0.03125 -1.546875 -0.03125q-0.90625 0 -1.53125 0.03125l0.046875 -0.375q0.25 -0.015625 0.546875 -0.09375q0.3125 -0.09375 0.328125 -0.1875q0.109375 0 0.109375 -4.65625l-0.90625 0.015625l-0.03125 -0.140625l0.296875 -0.515625q0.1875 0.03125 0.625 0.0625q0 -0.84375 0.28125 -1.515625q0.296875 -0.6875 0.703125 -1.0625q0.421875 -0.375 0.90625 -0.640625q0.78125 -0.40625 1.25 -0.40625q0.09375 0 0.328125 0.3125q0.25 0.296875 0.328125 0.59375l-0.203125 0.25q-0.546875 -0.25 -1.109375 -0.25q-1.5 0 -1.5 2.703125l1.6875 -0.015625l0.078125 0.15625l-0.40625 0.515625q-0.4375 -0.046875 -1.359375 -0.0625q0 3.625 0.140625 4.65625q0 0.09375 0.359375 0.1875q0.359375 0.09375 0.625 0.09375l-0.046875 0.375zm3.11792 -7.546875q-0.1875 0.203125 -0.484375 0.203125q-0.28125 0 -0.484375 -0.203125q-0.1875 -0.203125 -0.1875 -0.5q0 -0.296875 0.1875 -0.484375q0.203125 -0.203125 0.484375 -0.203125q0.296875 0 0.484375 0.203125q0.203125 0.1875 0.203125 0.484375q0 0.296875 -0.203125 0.5zm0.0625 1.671875l-0.03125 2.859375q0 1.6875 0.109375 2.1875l0.015625 0.171875q0.015625 0.09375 0.328125 0.1875q0.328125 0.078125 0.59375 0.09375l-0.03125 0.375q-0.625 -0.03125 -1.53125 -0.03125q-0.890625 0 -1.515625 0.03125l0.046875 -0.375q0.265625 -0.015625 0.578125 -0.09375q0.3125 -0.09375 0.328125 -0.1875q0.109375 -0.453125 0.109375 -1.8125q0 -2.21875 -0.109375 -2.703125l-0.828125 -0.25l-0.03125 -0.34375q0.828125 0 1.71875 -0.234375l0.25 0.125zm6.962097 -0.609375q0.109375 0 0.34375 0.3125q0.25 0.296875 0.328125 0.609375l-0.203125 0.234375q-0.234375 -0.109375 -0.5625 -0.109375q-0.328125 0 -0.609375 0.140625q0.453125 0.5625 0.453125 1.46875q0 0.90625 -0.59375 1.5625q-0.59375 0.640625 -1.765625 0.640625q-0.296875 0 -0.578125 -0.046875q-0.484375 0.625 -0.484375 0.859375q0 0.296875 0.859375 0.296875l0.96875 0q2.453125 0 2.453125 1.59375q0 0.875 -0.984375 1.59375q-0.96875 0.71875 -2.625 0.71875q-0.96875 0 -1.671875 -0.328125q-0.703125 -0.3125 -0.703125 -0.890625q0 -0.84375 1.34375 -1.921875q-0.8125 -0.171875 -0.8125 -0.609375q0 -0.453125 1.171875 -1.40625q-1.3125 -0.40625 -1.3125 -2.09375q0 -0.859375 0.59375 -1.5q0.609375 -0.640625 1.703125 -0.640625q1.109375 0 1.65625 0.390625q0.15625 -0.25 0.46875 -0.5625q0.328125 -0.3125 0.5625 -0.3125zm-4.28125 8.21875q0 0.515625 0.375 0.828125q0.390625 0.3125 1.234375 0.3125q0.859375 0 1.515625 -0.546875q0.671875 -0.546875 0.671875 -1.15625q0 -0.390625 -0.34375 -0.640625q-0.328125 -0.234375 -1.046875 -0.234375l-1.75 0q-0.65625 0.71875 -0.65625 1.4375zm1.6875 -7.203125q-0.375 0 -0.65625 0.1875q-0.28125 0.171875 -0.421875 0.4375q-0.21875 0.515625 -0.21875 1.109375q0 0.578125 0.296875 1.078125q0.296875 0.5 0.9375 0.5q0.46875 0 0.765625 -0.28125q0.3125 -0.28125 0.40625 -0.578125q0.109375 -0.296875 0.125 -0.625q0 -1.828125 -1.234375 -1.828125zm5.9213867 5.546875q-1.328125 0 -1.328125 -1.34375l0 -1.75q0 -1.734375 -0.09375 -2.15625l-0.765625 -0.25l-0.03125 -0.34375q0.765625 0 1.65625 -0.234375l0.25 0.125q-0.046875 2.328125 -0.046875 4.21875q0 0.875 1.0625 0.875q0.4375 0 0.9375 -0.140625q0.515625 -0.15625 0.8125 -0.34375q0.046875 -0.703125 0.046875 -1.65625q0 -1.765625 -0.09375 -2.25l-0.828125 -0.25l-0.03125 -0.34375q0.84375 0 1.71875 -0.234375l0.25 0.125q-0.03125 0.96875 -0.03125 3.21875l0.03125 1.515625q0 0.21875 0.171875 0.34375q0.1875 0.125 0.34375 0.15625q0.171875 0.03125 0.46875 0.046875l-0.03125 0.375q-0.46875 0.046875 -1.421875 0.234375q-0.390625 -0.15625 -0.53125 -0.78125q-1.25 0.84375 -2.515625 0.84375zm9.033569 -6.171875q0.109375 0 0.34375 0.3125q0.25 0.296875 0.328125 0.609375l-0.203125 0.234375q-0.46875 -0.171875 -0.96875 -0.171875q-0.5 0 -0.921875 0.421875q-0.421875 0.421875 -0.421875 1.359375q0.015625 2.28125 0.125 2.65625q0.015625 0.109375 0.359375 0.203125q0.359375 0.078125 0.75 0.09375l-0.03125 0.375q-0.625 -0.03125 -1.578125 -0.03125q-0.953125 0 -1.578125 0.03125l0.03125 -0.375q0.265625 -0.015625 0.546875 -0.09375q0.28125 -0.09375 0.296875 -0.1875q0.109375 -0.453125 0.109375 -1.8125q0 -2.21875 -0.109375 -2.703125l-0.828125 -0.25l-0.03125 -0.34375q0.84375 0 1.71875 -0.234375l0.25 0.125q-0.03125 0.1875 -0.03125 1.0625q0.375 -0.625 0.953125 -0.953125q0.578125 -0.328125 0.890625 -0.328125zm4.6653137 3.328125q-1.0625 0.03125 -1.625 0.40625q-0.5625 0.375 -0.5625 0.828125q0 0.4375 0.21875 0.640625q0.234375 0.203125 0.734375 0.203125q0.515625 0 1.234375 -0.4375l0 -1.640625zm0.953125 2.84375q-0.78125 0 -0.90625 -0.84375q-1.15625 0.84375 -1.984375 0.84375q-0.5625 0 -0.953125 -0.34375q-0.390625 -0.34375 -0.390625 -1.0625q0 -0.734375 0.765625 -1.3125q0.78125 -0.59375 2.515625 -0.703125l0 -1.21875q0 -0.359375 -0.265625 -0.546875q-0.265625 -0.203125 -0.75 -0.203125q-0.484375 0 -0.765625 0.265625q-0.28125 0.265625 -0.28125 0.6875q0 0.15625 0.03125 0.34375l-0.28125 0.140625q-0.265625 -0.140625 -0.5 -0.390625q-0.21875 -0.25 -0.21875 -0.359375q0 -0.109375 0.171875 -0.328125q0.1875 -0.21875 0.484375 -0.453125q0.296875 -0.25 0.796875 -0.421875q0.5 -0.1875 1.125 -0.1875q0.625 0 1.015625 0.3125q0.390625 0.296875 0.390625 1.109375q0 0.796875 0.078125 3.359375q0.015625 0.625 0.46875 0.625q0.1875 0 0.40625 -0.09375l0.125 0.328125q-0.5 0.453125 -1.078125 0.453125zm3.8877869 0q-1.34375 0 -1.34375 -1.296875q0.015625 -1.140625 0.015625 -2.09375q0 -0.953125 -0.03125 -2.0l-0.828125 0.015625l-0.046875 -0.140625l0.296875 -0.515625q0.1875 0.046875 0.546875 0.0625l-0.046875 -1.203125l0.859375 -0.765625l0.25 0.125q-0.03125 0.953125 -0.03125 1.828125l1.90625 -0.015625l0.0625 0.15625l-0.46875 0.515625q-0.4375 -0.046875 -1.5 -0.0625l0 1.75q0 1.625 0.03125 2.328125q0.046875 0.578125 0.703125 0.578125q0.515625 0 1.140625 -0.296875l0.15625 0.421875q-0.921875 0.609375 -1.671875 0.609375zm4.1082764 -7.625q-0.1875 0.203125 -0.484375 0.203125q-0.28125 0 -0.484375 -0.203125q-0.1875 -0.203125 -0.1875 -0.5q0 -0.296875 0.1875 -0.484375q0.203125 -0.203125 0.484375 -0.203125q0.296875 0 0.484375 0.203125q0.203125 0.1875 0.203125 0.484375q0 0.296875 -0.203125 0.5zm0.0625 1.671875l-0.03125 2.859375q0 1.6875 0.109375 2.1875l0.015625 0.171875q0.015625 0.09375 0.328125 0.1875q0.328125 0.078125 0.59375 0.09375l-0.03125 0.375q-0.625 -0.03125 -1.53125 -0.03125q-0.890625 0 -1.515625 0.03125l0.046875 -0.375q0.265625 -0.015625 0.578125 -0.09375q0.3125 -0.09375 0.328125 -0.1875q0.109375 -0.453125 0.109375 -1.8125q0 -2.21875 -0.109375 -2.703125l-0.828125 -0.25l-0.03125 -0.34375q0.828125 0 1.71875 -0.234375l0.25 0.125zm4.790222 0.5q-0.53125 0 -0.921875 0.265625q-0.390625 0.265625 -0.578125 0.671875q-0.34375 0.734375 -0.34375 1.421875q0 1.0625 0.421875 1.78125q0.4375 0.703125 1.359375 0.703125q0.5 0 0.875 -0.234375q0.375 -0.234375 0.5625 -0.59375q0.375 -0.671875 0.40625 -1.34375q0 -2.671875 -1.78125 -2.671875zm0.0625 -0.640625q1.484375 0 2.15625 0.765625q0.6875 0.75 0.6875 2.09375q0 1.34375 -0.78125 2.296875q-0.765625 0.9375 -2.25 0.9375q-1.484375 0 -2.171875 -0.734375q-0.671875 -0.75 -0.671875 -2.09375q0 -1.34375 0.765625 -2.296875q0.78125 -0.96875 2.265625 -0.96875zm5.7693176 1.21875l-0.015625 1.78125q0 1.6875 0.109375 2.1875l0.015625 0.171875q0.015625 0.09375 0.296875 0.1875q0.28125 0.078125 0.546875 0.09375l-0.046875 0.375q-0.625 -0.03125 -1.4375 -0.03125q-0.796875 0 -1.421875 0.03125l0.046875 -0.375q0.234375 -0.015625 0.515625 -0.09375q0.28125 -0.09375 0.296875 -0.1875q0.109375 -0.453125 0.109375 -1.8125q0 -2.21875 -0.109375 -2.703125l-0.828125 -0.25l-0.03125 -0.34375q0.828125 0 1.71875 -0.234375l0.25 0.125l0 0.625q1.4375 -0.765625 2.5 -0.765625q0.65625 0 0.984375 0.265625q0.34375 0.265625 0.34375 0.96875l0 1.765625q0 1.6875 0.09375 2.1875l0.046875 0.171875q0 0.09375 0.28125 0.1875q0.28125 0.078125 0.546875 0.09375l-0.046875 0.375q-0.625 -0.03125 -1.4375 -0.03125q-0.796875 0 -1.421875 0.03125l0.046875 -0.375q0.25 -0.015625 0.515625 -0.09375q0.28125 -0.09375 0.296875 -0.1875q0.109375 -0.453125 0.109375 -2.359375l0 -1.25q0 -0.515625 -0.296875 -0.703125q-0.296875 -0.203125 -1.015625 -0.203125q-0.71875 0 -1.5625 0.375z" fill-rule="nonzero"></path><path fill="#000000" d="m466.58328 65.85971q0 2.453125 0.109375 3.125l0.03125 0.234375q0.125 0.421875 1.3125 0.421875q0.59375 0 0.953125 -0.046875q0.359375 -0.046875 0.765625 -0.21875q0.75 -0.296875 1.140625 -1.484375l0.359375 0.15625q-0.234375 0.703125 -0.3125 2.0625l-5.203125 0q-0.75 0 -1.5625 0.03125l-0.046875 -0.375q0.671875 -0.125 0.90625 -0.21875q0.234375 -0.109375 0.265625 -0.328125q0.109375 -0.765625 0.109375 -2.78125q0 -3.265625 -0.078125 -4.078125l-0.03125 -0.265625q-0.015625 -0.21875 -0.234375 -0.3125q-0.203125 -0.109375 -0.828125 -0.234375l0.046875 -0.375q0.8125 0.03125 3.078125 0.03125q2.265625 0 3.328125 -0.078125l0 0.203125q0 1.015625 0.15625 1.90625l-0.359375 0.15625q-0.328125 -1.0625 -0.796875 -1.34375q-0.46875 -0.296875 -1.765625 -0.296875q-0.59375 0 -0.875 0.0625q-0.28125 0.046875 -0.328125 0.21875q-0.125 0.84375 -0.140625 3.3125q1.65625 0 1.984375 -0.078125q0.328125 -0.078125 0.421875 -0.28125q0.09375 -0.21875 0.234375 -0.890625l0.453125 0.046875q-0.109375 0.75 -0.109375 1.453125q0 0.6875 0.109375 1.453125l-0.453125 0.0625q-0.140625 -0.671875 -0.234375 -0.875q-0.09375 -0.21875 -0.421875 -0.296875q-0.328125 -0.078125 -1.984375 -0.078125zm8.665955 3.359375q1.375 -4.21875 1.34375 -4.21875q0.015625 -0.03125 0.015625 -0.0625q0 -0.28125 -0.71875 -0.375l-0.03125 -0.375q0.4375 0.03125 0.9375 0.03125l1.328125 -0.03125l0.03125 0.375q-0.65625 0.09375 -0.8125 0.484375q-0.75 1.703125 -1.828125 5.0625l-0.9375 0.109375q-1.046875 -3.25 -1.625 -4.609375l-0.203125 -0.515625q-0.171875 -0.4375 -0.796875 -0.53125l-0.03125 -0.375q0.890625 0.03125 1.375 0.03125l1.34375 -0.03125l0.046875 0.375q-0.390625 0.03125 -0.59375 0.15625q-0.1875 0.109375 -0.1875 0.234375q0 0.015625 0.25 0.796875q0.25 0.765625 1.09375 3.46875zm7.4154053 -3.265625q0 -0.609375 -0.34375 -0.890625q-0.328125 -0.296875 -0.75 -0.296875q-0.609375 0 -1.046875 0.484375q-0.4375 0.484375 -0.59375 1.1875l2.703125 -0.109375q0.03125 -0.203125 0.03125 -0.375zm-1.125 4.265625q-1.375 0 -2.078125 -0.78125q-0.703125 -0.78125 -0.703125 -2.078125q0 -1.3125 0.765625 -2.265625q0.78125 -0.96875 2.34375 -0.96875q0.78125 0 1.375 0.5625q0.59375 0.5625 0.59375 1.671875l-0.4375 0.53125q-0.078125 -0.015625 -1.234375 -0.015625q-1.140625 0 -2.296875 0.09375l0 0.109375q0 1.1875 0.484375 1.78125q0.5 0.59375 1.359375 0.59375q0.859375 0 1.796875 -0.421875l0.15625 0.390625q-1.0 0.796875 -2.125 0.796875zm5.101959 -4.875l-0.015625 1.78125q0 1.6875 0.109375 2.1875l0.015625 0.171875q0.015625 0.09375 0.296875 0.1875q0.28125 0.078125 0.546875 0.09375l-0.046875 0.375q-0.625 -0.03125 -1.4375 -0.03125q-0.796875 0 -1.421875 0.03125l0.046875 -0.375q0.234375 -0.015625 0.515625 -0.09375q0.28125 -0.09375 0.296875 -0.1875q0.109375 -0.453125 0.109375 -1.8125q0 -2.21875 -0.109375 -2.703125l-0.828125 -0.25l-0.03125 -0.34375q0.828125 0 1.71875 -0.234375l0.25 0.125l0 0.625q1.4375 -0.765625 2.5 -0.765625q0.65625 0 0.984375 0.265625q0.34375 0.265625 0.34375 0.96875l0 1.765625q0 1.6875 0.09375 2.1875l0.046875 0.171875q0 0.09375 0.28125 0.1875q0.28125 0.078125 0.546875 0.09375l-0.046875 0.375q-0.625 -0.03125 -1.4375 -0.03125q-0.796875 0 -1.421875 0.03125l0.046875 -0.375q0.25 -0.015625 0.515625 -0.09375q0.28125 -0.09375 0.296875 -0.1875q0.109375 -0.453125 0.109375 -2.359375l0 -1.25q0 -0.515625 -0.296875 -0.703125q-0.296875 -0.203125 -1.015625 -0.203125q-0.71875 0 -1.5625 0.375zm7.7449646 4.875q-1.3437195 0 -1.3437195 -1.296875q0.015625 -1.140625 0.015625 -2.09375q0 -0.953125 -0.03125 -2.0l-0.828125 0.015625l-0.046875 -0.140625l0.296875 -0.515625q0.1875 0.046875 0.546875 0.0625l-0.046875 -1.203125l0.859375 -0.765625l0.25 0.125q-0.03125 0.953125 -0.03125 1.828125l1.9062195 -0.015625l0.0625 0.15625l-0.46875 0.515625q-0.4375 -0.046875 -1.4999695 -0.0625l0 1.75q0 1.625 0.03125 2.328125q0.046875 0.578125 0.7030945 0.578125q0.515625 0 1.140625 -0.296875l0.15625 0.421875q-0.921875 0.609375 -1.671875 0.609375z" fill-rule="nonzero"></path><path fill="#d0e0e3" d="m555.7874 41.603832l0 0c0 -4.3371887 3.5159912 -7.853176 7.8531494 -7.853176l88.13617 0c2.0828247 0 4.080261 0.82738495 5.5530396 2.3001404c1.4727783 1.4727592 2.300171 3.4702454 2.300171 5.5530357l0 31.411762c0 4.3371887 -3.5159912 7.8531723 -7.8532104 7.8531723l-88.13617 0c-4.337158 0 -7.8531494 -3.5159836 -7.8531494 -7.8531723z" fill-rule="nonzero"></path><path stroke="#000000" stroke-width="1.0" stroke-linejoin="round" stroke-linecap="butt" d="m555.7874 41.603832l0 0c0 -4.3371887 3.5159912 -7.853176 7.8531494 -7.853176l88.13617 0c2.0828247 0 4.080261 0.82738495 5.5530396 2.3001404c1.4727783 1.4727592 2.300171 3.4702454 2.300171 5.5530357l0 31.411762c0 4.3371887 -3.5159912 7.8531723 -7.8532104 7.8531723l-88.13617 0c-4.337158 0 -7.8531494 -3.5159836 -7.8531494 -7.8531723z" fill-rule="nonzero"></path><path fill="#000000" d="m592.0099 47.39096q-0.265625 -0.953125 -0.734375 -1.296875q-0.453125 -0.359375 -1.1875 -0.359375q-0.734375 0 -1.125 0.359375q-0.390625 0.359375 -0.390625 0.875q0 0.84375 0.859375 1.421875l2.0625 1.34375q1.34375 0.875 1.34375 2.09375q0 0.96875 -0.78125 1.6875q-0.765625 0.71875 -2.25 0.71875q-1.46875 0 -2.578125 -0.46875q0.203125 -1.0625 0.203125 -1.90625l0.359375 -0.15625q0.1875 1.0625 0.59375 1.46875q0.421875 0.40625 1.296875 0.40625q0.890625 0 1.34375 -0.421875q0.46875 -0.4375 0.46875 -1.015625q0 -0.796875 -0.84375 -1.34375l-2.078125 -1.375q-1.203125 -0.765625 -1.203125 -2.0q0 -0.9375 0.734375 -1.625q0.75 -0.703125 1.9375 -0.703125q0.390625 0 0.859375 0.09375q0.484375 0.09375 0.734375 0.09375q0.25 0 0.578125 -0.078125l0 0.203125q0 0.9375 0.15625 1.828125l-0.359375 0.15625zm4.1622314 6.828125q-1.34375 0 -1.34375 -1.296875q0.015625 -1.140625 0.015625 -2.09375q0 -0.953125 -0.03125 -2.0l-0.828125 0.015625l-0.046875 -0.140625l0.296875 -0.515625q0.1875 0.046875 0.546875 0.0625l-0.046875 -1.203125l0.859375 -0.765625l0.25 0.125q-0.03125 0.953125 -0.03125 1.828125l1.90625 -0.015625l0.0625 0.15625l-0.46875 0.515625q-0.4375 -0.046875 -1.5 -0.0625l0 1.75q0 1.625 0.03125 2.328125q0.046875 0.578125 0.703125 0.578125q0.515625 0 1.140625 -0.296875l0.15625 0.421875q-0.921875 0.609375 -1.671875 0.609375zm5.2957764 -5.453125q-0.53125 0 -0.921875 0.265625q-0.390625 0.265625 -0.578125 0.671875q-0.34375 0.734375 -0.34375 1.421875q0 1.0625 0.421875 1.78125q0.4375 0.703125 1.359375 0.703125q0.5 0 0.875 -0.234375q0.375 -0.234375 0.5625 -0.59375q0.375 -0.671875 0.40625 -1.34375q0 -2.671875 -1.78125 -2.671875zm0.0625 -0.640625q1.484375 0 2.15625 0.765625q0.6875 0.75 0.6875 2.09375q0 1.34375 -0.78125 2.296875q-0.765625 0.9375 -2.25 0.9375q-1.484375 0 -2.171875 -0.734375q-0.671875 -0.75 -0.671875 -2.09375q0 -1.34375 0.765625 -2.296875q0.78125 -0.96875 2.265625 -0.96875zm7.659912 -0.078125q0.109375 0 0.34375 0.3125q0.25 0.296875 0.328125 0.609375l-0.203125 0.234375q-0.46875 -0.171875 -0.96875 -0.171875q-0.5 0 -0.921875 0.421875q-0.421875 0.421875 -0.421875 1.359375q0.015625 2.28125 0.125 2.65625q0.015625 0.109375 0.359375 0.203125q0.359375 0.078125 0.75 0.09375l-0.03125 0.375q-0.625 -0.03125 -1.578125 -0.03125q-0.953125 0 -1.578125 0.03125l0.03125 -0.375q0.265625 -0.015625 0.546875 -0.09375q0.28125 -0.09375 0.296875 -0.1875q0.109375 -0.453125 0.109375 -1.8125q0 -2.21875 -0.109375 -2.703125l-0.828125 -0.25l-0.03125 -0.34375q0.84375 0 1.71875 -0.234375l0.25 0.125q-0.03125 0.1875 -0.03125 1.0625q0.375 -0.625 0.953125 -0.953125q0.578125 -0.328125 0.890625 -0.328125zm4.665344 3.328125q-1.0625 0.03125 -1.625 0.40625q-0.5625 0.375 -0.5625 0.828125q0 0.4375 0.21875 0.640625q0.234375 0.203125 0.734375 0.203125q0.515625 0 1.234375 -0.4375l0 -1.640625zm0.953125 2.84375q-0.78125 0 -0.90625 -0.84375q-1.15625 0.84375 -1.984375 0.84375q-0.5625 0 -0.953125 -0.34375q-0.390625 -0.34375 -0.390625 -1.0625q0 -0.734375 0.765625 -1.3125q0.78125 -0.59375 2.515625 -0.703125l0 -1.21875q0 -0.359375 -0.265625 -0.546875q-0.265625 -0.203125 -0.75 -0.203125q-0.484375 0 -0.765625 0.265625q-0.28125 0.265625 -0.28125 0.6875q0 0.15625 0.03125 0.34375l-0.28125 0.140625q-0.265625 -0.140625 -0.5 -0.390625q-0.21875 -0.25 -0.21875 -0.359375q0 -0.109375 0.171875 -0.328125q0.1875 -0.21875 0.484375 -0.453125q0.296875 -0.25 0.796875 -0.421875q0.5 -0.1875 1.125 -0.1875q0.625 0 1.015625 0.3125q0.390625 0.296875 0.390625 1.109375q0 0.796875 0.078125 3.359375q0.015625 0.625 0.46875 0.625q0.1875 0 0.40625 -0.09375l0.125 0.328125q-0.5 0.453125 -1.078125 0.453125zm6.9971924 -6.5625q0.109375 0 0.34375 0.3125q0.25 0.296875 0.328125 0.609375l-0.203125 0.234375q-0.234375 -0.109375 -0.5625 -0.109375q-0.328125 0 -0.609375 0.140625q0.453125 0.5625 0.453125 1.46875q0 0.90625 -0.59375 1.5625q-0.59375 0.640625 -1.765625 0.640625q-0.296875 0 -0.578125 -0.046875q-0.484375 0.625 -0.484375 0.859375q0 0.296875 0.859375 0.296875l0.96875 0q2.453125 0 2.453125 1.59375q0 0.875 -0.984375 1.59375q-0.96875 0.71875 -2.625 0.71875q-0.96875 0 -1.671875 -0.328125q-0.703125 -0.3125 -0.703125 -0.890625q0 -0.84375 1.34375 -1.921875q-0.8125 -0.171875 -0.8125 -0.609375q0 -0.453125 1.171875 -1.40625q-1.3125 -0.40625 -1.3125 -2.09375q0 -0.859375 0.59375 -1.5q0.609375 -0.640625 1.703125 -0.640625q1.109375 0 1.65625 0.390625q0.15625 -0.25 0.46875 -0.5625q0.328125 -0.3125 0.5625 -0.3125zm-4.28125 8.21875q0 0.515625 0.375 0.828125q0.390625 0.3125 1.234375 0.3125q0.859375 0 1.515625 -0.546875q0.671875 -0.546875 0.671875 -1.15625q0 -0.390625 -0.34375 -0.640625q-0.328125 -0.234375 -1.046875 -0.234375l-1.75 0q-0.65625 0.71875 -0.65625 1.4375zm1.6875 -7.203125q-0.375 0 -0.65625 0.1875q-0.28125 0.171875 -0.421875 0.4375q-0.21875 0.515625 -0.21875 1.109375q0 0.578125 0.296875 1.078125q0.296875 0.5 0.9375 0.5q0.46875 0 0.765625 -0.28125q0.3125 -0.28125 0.40625 -0.578125q0.109375 -0.296875 0.125 -0.625q0 -1.828125 -1.234375 -1.828125zm7.8745117 1.28125q0 -0.609375 -0.34375 -0.890625q-0.328125 -0.296875 -0.75 -0.296875q-0.609375 0 -1.046875 0.484375q-0.4375 0.484375 -0.59375 1.1875l2.703125 -0.109375q0.03125 -0.203125 0.03125 -0.375zm-1.125 4.265625q-1.375 0 -2.078125 -0.78125q-0.703125 -0.78125 -0.703125 -2.078125q0 -1.3125 0.765625 -2.265625q0.78125 -0.96875 2.34375 -0.96875q0.78125 0 1.375 0.5625q0.59375 0.5625 0.59375 1.671875l-0.4375 0.53125q-0.078125 -0.015625 -1.234375 -0.015625q-1.140625 0 -2.296875 0.09375l0 0.109375q0 1.1875 0.484375 1.78125q0.5 0.59375 1.359375 0.59375q0.859375 0 1.796875 -0.421875l0.15625 0.390625q-1.0 0.796875 -2.125 0.796875z" fill-rule="nonzero"></path><path fill="#000000" d="m594.29193 65.85971q0 2.453125 0.109375 3.125l0.03125 0.234375q0.125 0.421875 1.3125 0.421875q0.59375 0 0.953125 -0.046875q0.359375 -0.046875 0.765625 -0.21875q0.75 -0.296875 1.140625 -1.484375l0.359375 0.15625q-0.234375 0.703125 -0.3125 2.0625l-5.203125 0q-0.75 0 -1.5625 0.03125l-0.046875 -0.375q0.671875 -0.125 0.90625 -0.21875q0.234375 -0.109375 0.265625 -0.328125q0.109375 -0.765625 0.109375 -2.78125q0 -3.265625 -0.078125 -4.078125l-0.03125 -0.265625q-0.015625 -0.21875 -0.234375 -0.3125q-0.203125 -0.109375 -0.828125 -0.234375l0.046875 -0.375q0.8125 0.03125 3.078125 0.03125q2.265625 0 3.328125 -0.078125l0 0.203125q0 1.015625 0.15625 1.90625l-0.359375 0.15625q-0.328125 -1.0625 -0.796875 -1.34375q-0.46875 -0.296875 -1.765625 -0.296875q-0.59375 0 -0.875 0.0625q-0.28125 0.046875 -0.328125 0.21875q-0.125 0.84375 -0.140625 3.3125q1.65625 0 1.984375 -0.078125q0.328125 -0.078125 0.421875 -0.28125q0.09375 -0.21875 0.234375 -0.890625l0.453125 0.046875q-0.109375 0.75 -0.109375 1.453125q0 0.6875 0.109375 1.453125l-0.453125 0.0625q-0.140625 -0.671875 -0.234375 -0.875q-0.09375 -0.21875 -0.421875 -0.296875q-0.328125 -0.078125 -1.984375 -0.078125zm8.665955 3.359375q1.375 -4.21875 1.34375 -4.21875q0.015625 -0.03125 0.015625 -0.0625q0 -0.28125 -0.71875 -0.375l-0.03125 -0.375q0.4375 0.03125 0.9375 0.03125l1.328125 -0.03125l0.03125 0.375q-0.65625 0.09375 -0.8125 0.484375q-0.75 1.703125 -1.828125 5.0625l-0.9375 0.109375q-1.046875 -3.25 -1.625 -4.609375l-0.203125 -0.515625q-0.171875 -0.4375 -0.796875 -0.53125l-0.03125 -0.375q0.890625 0.03125 1.375 0.03125l1.34375 -0.03125l0.046875 0.375q-0.390625 0.03125 -0.59375 0.15625q-0.1875 0.109375 -0.1875 0.234375q0 0.015625 0.25 0.796875q0.25 0.765625 1.09375 3.46875zm7.4154053 -3.265625q0 -0.609375 -0.34375 -0.890625q-0.328125 -0.296875 -0.75 -0.296875q-0.609375 0 -1.046875 0.484375q-0.4375 0.484375 -0.59375 1.1875l2.703125 -0.109375q0.03125 -0.203125 0.03125 -0.375zm-1.125 4.265625q-1.375 0 -2.078125 -0.78125q-0.703125 -0.78125 -0.703125 -2.078125q0 -1.3125 0.765625 -2.265625q0.78125 -0.96875 2.34375 -0.96875q0.78125 0 1.375 0.5625q0.59375 0.5625 0.59375 1.671875l-0.4375 0.53125q-0.078125 -0.015625 -1.234375 -0.015625q-1.140625 0 -2.296875 0.09375l0 0.109375q0 1.1875 0.484375 1.78125q0.5 0.59375 1.359375 0.59375q0.859375 0 1.796875 -0.421875l0.15625 0.390625q-1.0 0.796875 -2.125 0.796875zm5.1019897 -4.875l-0.015625 1.78125q0 1.6875 0.109375 2.1875l0.015625 0.171875q0.015625 0.09375 0.296875 0.1875q0.28125 0.078125 0.546875 0.09375l-0.046875 0.375q-0.625 -0.03125 -1.4375 -0.03125q-0.796875 0 -1.421875 0.03125l0.046875 -0.375q0.234375 -0.015625 0.515625 -0.09375q0.28125 -0.09375 0.296875 -0.1875q0.109375 -0.453125 0.109375 -1.8125q0 -2.21875 -0.109375 -2.703125l-0.828125 -0.25l-0.03125 -0.34375q0.828125 0 1.71875 -0.234375l0.25 0.125l0 0.625q1.4375 -0.765625 2.5 -0.765625q0.65625 0 0.984375 0.265625q0.34375 0.265625 0.34375 0.96875l0 1.765625q0 1.6875 0.09375 2.1875l0.046875 0.171875q0 0.09375 0.28125 0.1875q0.28125 0.078125 0.546875 0.09375l-0.046875 0.375q-0.625 -0.03125 -1.4375 -0.03125q-0.796875 0 -1.421875 0.03125l0.046875 -0.375q0.25 -0.015625 0.515625 -0.09375q0.28125 -0.09375 0.296875 -0.1875q0.109375 -0.453125 0.109375 -2.359375l0 -1.25q0 -0.515625 -0.296875 -0.703125q-0.296875 -0.203125 -1.015625 -0.203125q-0.71875 0 -1.5625 0.375zm7.744934 4.875q-1.34375 0 -1.34375 -1.296875q0.015625 -1.140625 0.015625 -2.09375q0 -0.953125 -0.03125 -2.0l-0.828125 0.015625l-0.046875 -0.140625l0.296875 -0.515625q0.1875 0.046875 0.546875 0.0625l-0.046875 -1.203125l0.859375 -0.765625l0.25 0.125q-0.03125 0.953125 -0.03125 1.828125l1.90625 -0.015625l0.0625 0.15625l-0.46875 0.515625q-0.4375 -0.046875 -1.5 -0.0625l0 1.75q0 1.625 0.03125 2.328125q0.046875 0.578125 0.703125 0.578125q0.515625 0 1.140625 -0.296875l0.15625 0.421875q-0.921875 0.609375 -1.671875 0.609375z" fill-rule="nonzero"></path><path fill="#d9d9d9" d="m683.49603 41.603832l0 0c0 -4.3371887 3.5159912 -7.853176 7.8532104 -7.853176l88.13617 0c2.0827637 0 4.080261 0.82738495 5.5530396 2.3001404c1.4727173 1.4727592 2.3001099 3.4702454 2.3001099 5.5530357l0 31.411762c0 4.3371887 -3.5159912 7.8531723 -7.8531494 7.8531723l-88.13617 0c-4.337219 0 -7.8532104 -3.5159836 -7.8532104 -7.8531723z" fill-rule="nonzero"></path><path stroke="#000000" stroke-width="1.0" stroke-linejoin="round" stroke-linecap="butt" d="m683.49603 41.603832l0 0c0 -4.3371887 3.5159912 -7.853176 7.8532104 -7.853176l88.13617 0c2.0827637 0 4.080261 0.82738495 5.5530396 2.3001404c1.4727173 1.4727592 2.3001099 3.4702454 2.3001099 5.5530357l0 31.411762c0 4.3371887 -3.5159912 7.8531723 -7.8531494 7.8531723l-88.13617 0c-4.337219 0 -7.8532104 -3.5159836 -7.8532104 -7.8531723z" fill-rule="nonzero"></path><path fill="#000000" d="m707.9671 53.625336q1.21875 0 2.0 -0.5q0.78125 -0.5 1.03125 -1.359375l0.359375 0.15625q-0.140625 0.46875 -0.296875 1.75q-1.609375 0.59375 -3.140625 0.59375q-2.125 0 -3.375 -1.15625q-1.25 -1.171875 -1.25 -3.234375q0 -2.078125 1.234375 -3.421875q1.234375 -1.359375 3.375 -1.359375q0.609375 0 1.34375 0.09375q0.734375 0.09375 1.0 0.09375q0.28125 0 0.59375 -0.078125l0 0.203125q0 0.9375 0.15625 1.828125l-0.34375 0.15625q-0.515625 -1.703125 -2.765625 -1.703125q-1.296875 0 -2.234375 0.921875q-0.46875 0.453125 -0.734375 1.21875q-0.265625 0.75 -0.265625 1.609375q0 0.859375 0.1875 1.5625q0.1875 0.703125 0.5625 1.3125q0.375 0.59375 1.03125 0.953125q0.671875 0.359375 1.53125 0.359375zm7.126526 0.515625q-0.625 -0.03125 -1.4375 -0.03125q-0.796875 0 -1.421875 0.03125l0.03125 -0.375q0.25 -0.015625 0.53125 -0.09375q0.28125 -0.09375 0.296875 -0.1875q0.09375 -0.84375 0.09375 -3.25q0 -3.90625 -0.078125 -4.578125l-0.03125 -0.21875l-0.828125 -0.25l-0.03125 -0.328125q0.828125 0 1.71875 -0.234375l0.25 0.109375q-0.03125 1.515625 -0.03125 4.15625q1.4375 -0.765625 2.609375 -0.765625q0.640625 0 0.96875 0.265625q0.34375 0.265625 0.34375 0.96875l0 1.765625q0 1.6875 0.109375 2.1875l0.03125 0.171875q0.015625 0.09375 0.28125 0.1875q0.28125 0.078125 0.546875 0.09375l-0.046875 0.375q-0.609375 -0.03125 -1.421875 -0.03125q-0.8125 0 -1.4375 0.03125l0.046875 -0.375q0.25 -0.015625 0.515625 -0.09375q0.28125 -0.09375 0.296875 -0.1875q0.109375 -0.453125 0.109375 -2.359375l0 -1.25q0 -0.515625 -0.296875 -0.703125q-0.296875 -0.203125 -0.71875 -0.203125q-0.421875 0 -0.671875 0.046875q-0.25 0.03125 -0.453125 0.078125q-0.53125 0.140625 -0.6875 0.203125l-0.125 0.046875q0 3.859375 0.140625 4.140625q0.015625 0.09375 0.296875 0.1875q0.28125 0.078125 0.546875 0.09375l-0.046875 0.375zm8.733948 -4.1875q0 -0.609375 -0.34375 -0.890625q-0.328125 -0.296875 -0.75 -0.296875q-0.609375 0 -1.046875 0.484375q-0.4375 0.484375 -0.59375 1.1875l2.703125 -0.109375q0.03125 -0.203125 0.03125 -0.375zm-1.125 4.265625q-1.375 0 -2.078125 -0.78125q-0.703125 -0.78125 -0.703125 -2.078125q0 -1.3125 0.765625 -2.265625q0.78125 -0.96875 2.34375 -0.96875q0.78125 0 1.375 0.5625q0.59375 0.5625 0.59375 1.671875l-0.4375 0.53125q-0.078125 -0.015625 -1.234375 -0.015625q-1.140625 0 -2.296875 0.09375l0 0.109375q0 1.1875 0.484375 1.78125q0.5 0.59375 1.359375 0.59375q0.859375 0 1.796875 -0.421875l0.15625 0.390625q-1.0 0.796875 -2.125 0.796875zm8.32074 -0.84375q-1.078125 0.84375 -2.359375 0.84375q-1.265625 0 -1.953125 -0.796875q-0.6875 -0.8125 -0.6875 -2.09375q0 -1.296875 0.796875 -2.25q0.796875 -0.953125 2.234375 -0.953125q0.578125 0 1.03125 0.1875q0.46875 0.1875 0.65625 0.390625q0.203125 0.1875 0.203125 0.3125q0 0.515625 -0.3125 0.953125l-0.3125 0q-0.15625 -0.4375 -0.53125 -0.78125q-0.359375 -0.359375 -0.953125 -0.359375q-0.796875 0 -1.234375 0.734375q-0.4375 0.71875 -0.4375 1.765625q0 1.046875 0.5 1.59375q0.515625 0.53125 1.421875 0.53125q0.921875 0 1.78125 -0.515625l0.15625 0.4375zm3.5292969 0.765625q-0.625 -0.03125 -1.4375 -0.03125q-0.796875 0 -1.421875 0.03125l0.03125 -0.375q0.25 -0.015625 0.53125 -0.09375q0.28125 -0.09375 0.296875 -0.1875q0.109375 -0.84375 0.109375 -3.25q0 -3.90625 -0.078125 -4.578125l-0.015625 -0.21875l-0.84375 -0.25l-0.015625 -0.328125q0.828125 0 1.71875 -0.234375l0.234375 0.109375q-0.015625 1.625 -0.015625 4.796875l0 1.046875l2.078125 -1.5625q0.09375 -0.078125 0.09375 -0.15625q0 -0.28125 -0.78125 -0.296875l0.03125 -0.375q0.8125 0.03125 1.375 0.03125q0.578125 0 1.375 -0.03125l0.03125 0.375q-0.78125 0.109375 -1.375 0.53125l-1.65625 1.234375l2.484375 3.21875q0.140625 0.15625 0.5 0.203125q0.078125 0 0.203125 0.015625q0.140625 0 0.171875 0l-0.03125 0.375q-0.75 0 -1.6875 0.078125l-2.40625 -3.34375l-0.390625 0.296875q0.03125 1.484375 0.09375 2.3125q0.015625 0.09375 0.296875 0.1875q0.28125 0.078125 0.546875 0.09375l-0.046875 0.375zm7.125 -0.609375q1.046875 0 1.5625 -0.6875q0.515625 -0.703125 0.515625 -1.65625q0 -0.96875 -0.453125 -1.59375q-0.4375 -0.640625 -1.34375 -0.640625q-0.34375 0 -0.796875 0.125q-0.453125 0.125 -0.6875 0.265625l0 3.96875q0.625 0.21875 1.203125 0.21875zm-0.25 4.0q-0.625 -0.046875 -1.515625 -0.046875q-0.875 0 -1.5 0.046875l0.046875 -0.375q0.859375 -0.078125 0.890625 -0.25q0.15625 -0.75 0.15625 -3.15625q0 -3.90625 -0.078125 -4.5625l-0.03125 -0.21875l-0.828125 -0.25l-0.03125 -0.34375q0.828125 0 1.703125 -0.234375l0.25 0.125l0 0.625q1.015625 -0.765625 2.0625 -0.765625q1.0625 0 1.703125 0.703125q0.65625 0.703125 0.65625 2.203125q0 1.5 -0.828125 2.34375q-0.8125 0.84375 -1.984375 0.84375q-0.859375 0 -1.625 -0.40625q0.015625 2.90625 0.078125 3.09375q0.03125 0.171875 0.921875 0.25l-0.046875 0.375zm7.6677856 -8.765625q-0.53125 0 -0.921875 0.265625q-0.390625 0.265625 -0.578125 0.671875q-0.34375 0.734375 -0.34375 1.421875q0 1.0625 0.421875 1.78125q0.4375 0.703125 1.359375 0.703125q0.5 0 0.875 -0.234375q0.375 -0.234375 0.5625 -0.59375q0.375 -0.671875 0.40625 -1.34375q0 -2.671875 -1.78125 -2.671875zm0.0625 -0.640625q1.484375 0 2.15625 0.765625q0.6875 0.75 0.6875 2.09375q0 1.34375 -0.78125 2.296875q-0.765625 0.9375 -2.25 0.9375q-1.484375 0 -2.171875 -0.734375q-0.671875 -0.75 -0.671875 -2.09375q0 -1.34375 0.765625 -2.296875q0.78125 -0.96875 2.265625 -0.96875zm5.800537 -1.53125q-0.1875 0.203125 -0.484375 0.203125q-0.28125 0 -0.484375 -0.203125q-0.1875 -0.203125 -0.1875 -0.5q0 -0.296875 0.1875 -0.484375q0.203125 -0.203125 0.484375 -0.203125q0.296875 0 0.484375 0.203125q0.203125 0.1875 0.203125 0.484375q0 0.296875 -0.203125 0.5zm0.0625 1.671875l-0.03125 2.859375q0 1.6875 0.109375 2.1875l0.015625 0.171875q0.015625 0.09375 0.328125 0.1875q0.328125 0.078125 0.59375 0.09375l-0.03125 0.375q-0.625 -0.03125 -1.53125 -0.03125q-0.890625 0 -1.515625 0.03125l0.046875 -0.375q0.265625 -0.015625 0.578125 -0.09375q0.3125 -0.09375 0.328125 -0.1875q0.109375 -0.453125 0.109375 -1.8125q0 -2.21875 -0.109375 -2.703125l-0.828125 -0.25l-0.03125 -0.34375q0.828125 0 1.71875 -0.234375l0.25 0.125zm3.5714722 1.078125l-0.015625 1.78125q0 1.6875 0.109375 2.1875l0.015625 0.171875q0.015625 0.09375 0.296875 0.1875q0.28125 0.078125 0.546875 0.09375l-0.046875 0.375q-0.625 -0.03125 -1.4375 -0.03125q-0.796875 0 -1.421875 0.03125l0.046875 -0.375q0.234375 -0.015625 0.515625 -0.09375q0.28125 -0.09375 0.296875 -0.1875q0.109375 -0.453125 0.109375 -1.8125q0 -2.21875 -0.109375 -2.703125l-0.828125 -0.25l-0.03125 -0.34375q0.828125 0 1.71875 -0.234375l0.25 0.125l0 0.625q1.4375 -0.765625 2.5 -0.765625q0.65625 0 0.984375 0.265625q0.34375 0.265625 0.34375 0.96875l0 1.765625q0 1.6875 0.09375 2.1875l0.046875 0.171875q0 0.09375 0.28125 0.1875q0.28125 0.078125 0.546875 0.09375l-0.046875 0.375q-0.625 -0.03125 -1.4375 -0.03125q-0.796875 0 -1.421875 0.03125l0.046875 -0.375q0.25 -0.015625 0.515625 -0.09375q0.28125 -0.09375 0.296875 -0.1875q0.109375 -0.453125 0.109375 -2.359375l0 -1.25q0 -0.515625 -0.296875 -0.703125q-0.296875 -0.203125 -1.015625 -0.203125q-0.71875 0 -1.5625 0.375zm7.744995 4.875q-1.34375 0 -1.34375 -1.296875q0.015625 -1.140625 0.015625 -2.09375q0 -0.953125 -0.03125 -2.0l-0.828125 0.015625l-0.046875 -0.140625l0.296875 -0.515625q0.1875 0.046875 0.546875 0.0625l-0.046875 -1.203125l0.859375 -0.765625l0.25 0.125q-0.03125 0.953125 -0.03125 1.828125l1.90625 -0.015625l0.0625 0.15625l-0.46875 0.515625q-0.4375 -0.046875 -1.5 -0.0625l0 1.75q0 1.625 0.03125 2.328125q0.046875 0.578125 0.703125 0.578125q0.515625 0 1.140625 -0.296875l0.15625 0.421875q-0.921875 0.609375 -1.671875 0.609375z" fill-rule="nonzero"></path><path fill="#000000" d="m722.0006 65.85971q0 2.453125 0.109375 3.125l0.03125 0.234375q0.125 0.421875 1.3125 0.421875q0.59375 0 0.953125 -0.046875q0.359375 -0.046875 0.765625 -0.21875q0.75 -0.296875 1.140625 -1.484375l0.359375 0.15625q-0.234375 0.703125 -0.3125 2.0625l-5.203125 0q-0.75 0 -1.5625 0.03125l-0.046875 -0.375q0.671875 -0.125 0.90625 -0.21875q0.234375 -0.109375 0.265625 -0.328125q0.109375 -0.765625 0.109375 -2.78125q0 -3.265625 -0.078125 -4.078125l-0.03125 -0.265625q-0.015625 -0.21875 -0.234375 -0.3125q-0.203125 -0.109375 -0.828125 -0.234375l0.046875 -0.375q0.8125 0.03125 3.078125 0.03125q2.265625 0 3.328125 -0.078125l0 0.203125q0 1.015625 0.15625 1.90625l-0.359375 0.15625q-0.328125 -1.0625 -0.796875 -1.34375q-0.46875 -0.296875 -1.765625 -0.296875q-0.59375 0 -0.875 0.0625q-0.28125 0.046875 -0.328125 0.21875q-0.125 0.84375 -0.140625 3.3125q1.65625 0 1.984375 -0.078125q0.328125 -0.078125 0.421875 -0.28125q0.09375 -0.21875 0.234375 -0.890625l0.453125 0.046875q-0.109375 0.75 -0.109375 1.453125q0 0.6875 0.109375 1.453125l-0.453125 0.0625q-0.140625 -0.671875 -0.234375 -0.875q-0.09375 -0.21875 -0.421875 -0.296875q-0.328125 -0.078125 -1.984375 -0.078125zm8.665955 3.359375q1.375 -4.21875 1.34375 -4.21875q0.015625 -0.03125 0.015625 -0.0625q0 -0.28125 -0.71875 -0.375l-0.03125 -0.375q0.4375 0.03125 0.9375 0.03125l1.328125 -0.03125l0.03125 0.375q-0.65625 0.09375 -0.8125 0.484375q-0.75 1.703125 -1.828125 5.0625l-0.9375 0.109375q-1.046875 -3.25 -1.625 -4.609375l-0.203125 -0.515625q-0.171875 -0.4375 -0.796875 -0.53125l-0.03125 -0.375q0.890625 0.03125 1.375 0.03125l1.34375 -0.03125l0.046875 0.375q-0.390625 0.03125 -0.59375 0.15625q-0.1875 0.109375 -0.1875 0.234375q0 0.015625 0.25 0.796875q0.25 0.765625 1.09375 3.46875zm7.4154053 -3.265625q0 -0.609375 -0.34375 -0.890625q-0.328125 -0.296875 -0.75 -0.296875q-0.609375 0 -1.046875 0.484375q-0.4375 0.484375 -0.59375 1.1875l2.703125 -0.109375q0.03125 -0.203125 0.03125 -0.375zm-1.125 4.265625q-1.375 0 -2.078125 -0.78125q-0.703125 -0.78125 -0.703125 -2.078125q0 -1.3125 0.765625 -2.265625q0.78125 -0.96875 2.34375 -0.96875q0.78125 0 1.375 0.5625q0.59375 0.5625 0.59375 1.671875l-0.4375 0.53125q-0.078125 -0.015625 -1.234375 -0.015625q-1.140625 0 -2.296875 0.09375l0 0.109375q0 1.1875 0.484375 1.78125q0.5 0.59375 1.359375 0.59375q0.859375 0 1.796875 -0.421875l0.15625 0.390625q-1.0 0.796875 -2.125 0.796875zm5.1019287 -4.875l-0.015625 1.78125q0 1.6875 0.109375 2.1875l0.015625 0.171875q0.015625 0.09375 0.296875 0.1875q0.28125 0.078125 0.546875 0.09375l-0.046875 0.375q-0.625 -0.03125 -1.4375 -0.03125q-0.796875 0 -1.421875 0.03125l0.046875 -0.375q0.234375 -0.015625 0.515625 -0.09375q0.28125 -0.09375 0.296875 -0.1875q0.109375 -0.453125 0.109375 -1.8125q0 -2.21875 -0.109375 -2.703125l-0.828125 -0.25l-0.03125 -0.34375q0.828125 0 1.71875 -0.234375l0.25 0.125l0 0.625q1.4375 -0.765625 2.5 -0.765625q0.65625 0 0.984375 0.265625q0.34375 0.265625 0.34375 0.96875l0 1.765625q0 1.6875 0.09375 2.1875l0.046875 0.171875q0 0.09375 0.28125 0.1875q0.28125 0.078125 0.546875 0.09375l-0.046875 0.375q-0.625 -0.03125 -1.4375 -0.03125q-0.796875 0 -1.421875 0.03125l0.046875 -0.375q0.25 -0.015625 0.515625 -0.09375q0.28125 -0.09375 0.296875 -0.1875q0.109375 -0.453125 0.109375 -2.359375l0 -1.25q0 -0.515625 -0.296875 -0.703125q-0.296875 -0.203125 -1.015625 -0.203125q-0.71875 0 -1.5625 0.375zm7.744995 4.875q-1.34375 0 -1.34375 -1.296875q0.015625 -1.140625 0.015625 -2.09375q0 -0.953125 -0.03125 -2.0l-0.828125 0.015625l-0.046875 -0.140625l0.296875 -0.515625q0.1875 0.046875 0.546875 0.0625l-0.046875 -1.203125l0.859375 -0.765625l0.25 0.125q-0.03125 0.953125 -0.03125 1.828125l1.90625 -0.015625l0.0625 0.15625l-0.46875 0.515625q-0.4375 -0.046875 -1.5 -0.0625l0 1.75q0 1.625 0.03125 2.328125q0.046875 0.578125 0.703125 0.578125q0.515625 0 1.140625 -0.296875l0.15625 0.421875q-0.921875 0.609375 -1.671875 0.609375z" fill-rule="nonzero"></path><path fill="#f9cb9c" d="m811.2047 41.603832l0 0c0 -4.3371887 3.5159912 -7.853176 7.8532104 -7.853176l88.13617 0c2.0827637 0 4.080261 0.82738495 5.5530396 2.3001404c1.4727173 1.4727592 2.3001099 3.4702454 2.3001099 5.5530357l0 31.411762c0 4.3371887 -3.5159912 7.8531723 -7.8531494 7.8531723l-88.13617 0c-4.337219 0 -7.8532104 -3.5159836 -7.8532104 -7.8531723z" fill-rule="nonzero"></path><path stroke="#000000" stroke-width="1.0" stroke-linejoin="round" stroke-linecap="butt" d="m811.2047 41.603832l0 0c0 -4.3371887 3.5159912 -7.853176 7.8532104 -7.853176l88.13617 0c2.0827637 0 4.080261 0.82738495 5.5530396 2.3001404c1.4727173 1.4727592 2.3001099 3.4702454 2.3001099 5.5530357l0 31.411762c0 4.3371887 -3.5159912 7.8531723 -7.8531494 7.8531723l-88.13617 0c-4.337219 0 -7.8532104 -3.5159836 -7.8532104 -7.8531723z" fill-rule="nonzero"></path><path fill="#000000" d="m838.408 53.625336q1.21875 0 2.0 -0.5q0.78125 -0.5 1.03125 -1.359375l0.359375 0.15625q-0.140625 0.46875 -0.296875 1.75q-1.609375 0.59375 -3.140625 0.59375q-2.125 0 -3.375 -1.15625q-1.25 -1.171875 -1.25 -3.234375q0 -2.078125 1.234375 -3.421875q1.234375 -1.359375 3.375 -1.359375q0.609375 0 1.34375 0.09375q0.734375 0.09375 1.0 0.09375q0.28125 0 0.59375 -0.078125l0 0.203125q0 0.9375 0.15625 1.828125l-0.34375 0.15625q-0.515625 -1.703125 -2.765625 -1.703125q-1.296875 0 -2.234375 0.921875q-0.46875 0.453125 -0.734375 1.21875q-0.265625 0.75 -0.265625 1.609375q0 0.859375 0.1875 1.5625q0.1875 0.703125 0.5625 1.3125q0.375 0.59375 1.03125 0.953125q0.671875 0.359375 1.53125 0.359375zm7.501526 -4.859375q-0.53125 0 -0.921875 0.265625q-0.390625 0.265625 -0.578125 0.671875q-0.34375 0.734375 -0.34375 1.421875q0 1.0625 0.421875 1.78125q0.4375 0.703125 1.359375 0.703125q0.5 0 0.875 -0.234375q0.375 -0.234375 0.5625 -0.59375q0.375 -0.671875 0.40625 -1.34375q0 -2.671875 -1.78125 -2.671875zm0.0625 -0.640625q1.484375 0 2.15625 0.765625q0.6875 0.75 0.6875 2.09375q0 1.34375 -0.78125 2.296875q-0.765625 0.9375 -2.25 0.9375q-1.484375 0 -2.171875 -0.734375q-0.671875 -0.75 -0.671875 -2.09375q0 -1.34375 0.765625 -2.296875q0.78125 -0.96875 2.265625 -0.96875zm5.769287 1.21875l-0.015625 1.78125q0 1.6875 0.109375 2.1875l0.015625 0.171875q0.015625 0.09375 0.296875 0.1875q0.28125 0.078125 0.546875 0.09375l-0.046875 0.375q-0.625 -0.03125 -1.4375 -0.03125q-0.796875 0 -1.421875 0.03125l0.046875 -0.375q0.234375 -0.015625 0.515625 -0.09375q0.28125 -0.09375 0.296875 -0.1875q0.109375 -0.453125 0.109375 -1.8125q0 -2.21875 -0.109375 -2.703125l-0.828125 -0.25l-0.03125 -0.34375q0.828125 0 1.71875 -0.234375l0.25 0.125l0 0.625q1.4375 -0.765625 2.5 -0.765625q0.65625 0 0.984375 0.265625q0.34375 0.265625 0.34375 0.96875l0 1.765625q0 1.6875 0.09375 2.1875l0.046875 0.171875q0 0.09375 0.28125 0.1875q0.28125 0.078125 0.546875 0.09375l-0.046875 0.375q-0.625 -0.03125 -1.4375 -0.03125q-0.796875 0 -1.421875 0.03125l0.046875 -0.375q0.25 -0.015625 0.515625 -0.09375q0.28125 -0.09375 0.296875 -0.1875q0.109375 -0.453125 0.109375 -2.359375l0 -1.25q0 -0.515625 -0.296875 -0.703125q-0.296875 -0.203125 -1.015625 -0.203125q-0.71875 0 -1.5625 0.375zm9.244995 -0.984375l0.1875 0.09375q0 0.84375 0.078125 1.28125l-0.34375 0.125q-0.171875 -0.65625 -0.484375 -0.921875q-0.296875 -0.265625 -0.765625 -0.265625q-0.46875 0 -0.75 0.25q-0.265625 0.25 -0.265625 0.578125q0 0.59375 0.671875 0.96875l1.328125 0.734375q0.859375 0.46875 0.859375 1.390625q0 0.65625 -0.53125 1.140625q-0.515625 0.484375 -1.5 0.484375q-0.96875 0 -2.0 -0.3125q0.15625 -0.921875 0.15625 -1.5l0.34375 -0.109375q0.109375 0.453125 0.171875 0.625q0.0625 0.171875 0.203125 0.421875q0.15625 0.25 0.390625 0.328125q0.234375 0.078125 0.6875 0.078125q0.453125 0 0.75 -0.265625q0.296875 -0.265625 0.296875 -0.625q0 -0.546875 -0.609375 -0.875l-1.390625 -0.78125q-0.859375 -0.453125 -0.859375 -1.390625q0 -0.671875 0.5 -1.171875q0.5 -0.515625 1.40625 -0.515625q0.921875 0 1.46875 0.234375zm5.4506836 1.59375q0 -0.609375 -0.34375 -0.890625q-0.328125 -0.296875 -0.75 -0.296875q-0.609375 0 -1.046875 0.484375q-0.4375 0.484375 -0.59375 1.1875l2.703125 -0.109375q0.03125 -0.203125 0.03125 -0.375zm-1.125 4.265625q-1.375 0 -2.078125 -0.78125q-0.703125 -0.78125 -0.703125 -2.078125q0 -1.3125 0.765625 -2.265625q0.78125 -0.96875 2.34375 -0.96875q0.78125 0 1.375 0.5625q0.59375 0.5625 0.59375 1.671875l-0.4375 0.53125q-0.078125 -0.015625 -1.234375 -0.015625q-1.140625 0 -2.296875 0.09375l0 0.109375q0 1.1875 0.484375 1.78125q0.5 0.59375 1.359375 0.59375q0.859375 0 1.796875 -0.421875l0.15625 0.390625q-1.0 0.796875 -2.125 0.796875zm5.1019897 -4.875l-0.015625 1.78125q0 1.6875 0.109375 2.1875l0.015625 0.171875q0.015625 0.09375 0.296875 0.1875q0.28125 0.078125 0.546875 0.09375l-0.046875 0.375q-0.625 -0.03125 -1.4375 -0.03125q-0.796875 0 -1.421875 0.03125l0.046875 -0.375q0.234375 -0.015625 0.515625 -0.09375q0.28125 -0.09375 0.296875 -0.1875q0.109375 -0.453125 0.109375 -1.8125q0 -2.21875 -0.109375 -2.703125l-0.828125 -0.25l-0.03125 -0.34375q0.828125 0 1.71875 -0.234375l0.25 0.125l0 0.625q1.4375 -0.765625 2.5 -0.765625q0.65625 0 0.984375 0.265625q0.34375 0.265625 0.34375 0.96875l0 1.765625q0 1.6875 0.09375 2.1875l0.046875 0.171875q0 0.09375 0.28125 0.1875q0.28125 0.078125 0.546875 0.09375l-0.046875 0.375q-0.625 -0.03125 -1.4375 -0.03125q-0.796875 0 -1.421875 0.03125l0.046875 -0.375q0.25 -0.015625 0.515625 -0.09375q0.28125 -0.09375 0.296875 -0.1875q0.109375 -0.453125 0.109375 -2.359375l0 -1.25q0 -0.515625 -0.296875 -0.703125q-0.296875 -0.203125 -1.015625 -0.203125q-0.71875 0 -1.5625 0.375zm9.244995 -0.984375l0.1875 0.09375q0 0.84375 0.078125 1.28125l-0.34375 0.125q-0.171875 -0.65625 -0.484375 -0.921875q-0.296875 -0.265625 -0.765625 -0.265625q-0.46875 0 -0.75 0.25q-0.265625 0.25 -0.265625 0.578125q0 0.59375 0.671875 0.96875l1.328125 0.734375q0.859375 0.46875 0.859375 1.390625q0 0.65625 -0.53125 1.140625q-0.515625 0.484375 -1.5 0.484375q-0.96875 0 -2.0 -0.3125q0.15625 -0.921875 0.15625 -1.5l0.34375 -0.109375q0.109375 0.453125 0.171875 0.625q0.0625 0.171875 0.203125 0.421875q0.15625 0.25 0.390625 0.328125q0.234375 0.078125 0.6875 0.078125q0.453125 0 0.75 -0.265625q0.296875 -0.265625 0.296875 -0.625q0 -0.546875 -0.609375 -0.875l-1.390625 -0.78125q-0.859375 -0.453125 -0.859375 -1.390625q0 -0.671875 0.5 -1.171875q0.5 -0.515625 1.40625 -0.515625q0.921875 0 1.46875 0.234375zm3.4975586 5.859375q-1.328125 0 -1.328125 -1.34375l0 -1.75q0 -1.734375 -0.09375 -2.15625l-0.765625 -0.25l-0.03125 -0.34375q0.765625 0 1.65625 -0.234375l0.25 0.125q-0.046875 2.328125 -0.046875 4.21875q0 0.875 1.0625 0.875q0.4375 0 0.9375 -0.140625q0.515625 -0.15625 0.8125 -0.34375q0.046875 -0.703125 0.046875 -1.65625q0 -1.765625 -0.09375 -2.25l-0.828125 -0.25l-0.03125 -0.34375q0.84375 0 1.71875 -0.234375l0.25 0.125q-0.03125 0.96875 -0.03125 3.21875l0.03125 1.515625q0 0.21875 0.171875 0.34375q0.1875 0.125 0.34375 0.15625q0.171875 0.03125 0.46875 0.046875l-0.03125 0.375q-0.46875 0.046875 -1.421875 0.234375q-0.390625 -0.15625 -0.53125 -0.78125q-1.25 0.84375 -2.515625 0.84375zm8.924194 -5.859375l0.1875 0.09375q0 0.84375 0.078125 1.28125l-0.34375 0.125q-0.171875 -0.65625 -0.484375 -0.921875q-0.296875 -0.265625 -0.765625 -0.265625q-0.46875 0 -0.75 0.25q-0.265625 0.25 -0.265625 0.578125q0 0.59375 0.671875 0.96875l1.328125 0.734375q0.859375 0.46875 0.859375 1.390625q0 0.65625 -0.53125 1.140625q-0.515625 0.484375 -1.5 0.484375q-0.96875 0 -2.0 -0.3125q0.15625 -0.921875 0.15625 -1.5l0.34375 -0.109375q0.109375 0.453125 0.171875 0.625q0.0625 0.171875 0.203125 0.421875q0.15625 0.25 0.390625 0.328125q0.234375 0.078125 0.6875 0.078125q0.453125 0 0.75 -0.265625q0.296875 -0.265625 0.296875 -0.625q0 -0.546875 -0.609375 -0.875l-1.390625 -0.78125q-0.859375 -0.453125 -0.859375 -1.390625q0 -0.671875 0.5 -1.171875q0.5 -0.515625 1.40625 -0.515625q0.921875 0 1.46875 0.234375z" fill-rule="nonzero"></path><path fill="#000000" d="m849.7092 65.85971q0 2.453125 0.109375 3.125l0.03125 0.234375q0.125 0.421875 1.3125 0.421875q0.59375 0 0.953125 -0.046875q0.359375 -0.046875 0.765625 -0.21875q0.75 -0.296875 1.140625 -1.484375l0.359375 0.15625q-0.234375 0.703125 -0.3125 2.0625l-5.203125 0q-0.75 0 -1.5625 0.03125l-0.046875 -0.375q0.671875 -0.125 0.90625 -0.21875q0.234375 -0.109375 0.265625 -0.328125q0.109375 -0.765625 0.109375 -2.78125q0 -3.265625 -0.078125 -4.078125l-0.03125 -0.265625q-0.015625 -0.21875 -0.234375 -0.3125q-0.203125 -0.109375 -0.828125 -0.234375l0.046875 -0.375q0.8125 0.03125 3.078125 0.03125q2.265625 0 3.328125 -0.078125l0 0.203125q0 1.015625 0.15625 1.90625l-0.359375 0.15625q-0.328125 -1.0625 -0.796875 -1.34375q-0.46875 -0.296875 -1.765625 -0.296875q-0.59375 0 -0.875 0.0625q-0.28125 0.046875 -0.328125 0.21875q-0.125 0.84375 -0.140625 3.3125q1.65625 0 1.984375 -0.078125q0.328125 -0.078125 0.421875 -0.28125q0.09375 -0.21875 0.234375 -0.890625l0.453125 0.046875q-0.109375 0.75 -0.109375 1.453125q0 0.6875 0.109375 1.453125l-0.453125 0.0625q-0.140625 -0.671875 -0.234375 -0.875q-0.09375 -0.21875 -0.421875 -0.296875q-0.328125 -0.078125 -1.984375 -0.078125zm8.666016 3.359375q1.375 -4.21875 1.34375 -4.21875q0.015625 -0.03125 0.015625 -0.0625q0 -0.28125 -0.71875 -0.375l-0.03125 -0.375q0.4375 0.03125 0.9375 0.03125l1.328125 -0.03125l0.03125 0.375q-0.65625 0.09375 -0.8125 0.484375q-0.75 1.703125 -1.828125 5.0625l-0.9375 0.109375q-1.046875 -3.25 -1.625 -4.609375l-0.203125 -0.515625q-0.171875 -0.4375 -0.796875 -0.53125l-0.03125 -0.375q0.890625 0.03125 1.375 0.03125l1.34375 -0.03125l0.046875 0.375q-0.390625 0.03125 -0.59375 0.15625q-0.1875 0.109375 -0.1875 0.234375q0 0.015625 0.25 0.796875q0.25 0.765625 1.09375 3.46875zm7.4154053 -3.265625q0 -0.609375 -0.34375 -0.890625q-0.328125 -0.296875 -0.75 -0.296875q-0.609375 0 -1.046875 0.484375q-0.4375 0.484375 -0.59375 1.1875l2.703125 -0.109375q0.03125 -0.203125 0.03125 -0.375zm-1.125 4.265625q-1.375 0 -2.078125 -0.78125q-0.703125 -0.78125 -0.703125 -2.078125q0 -1.3125 0.765625 -2.265625q0.78125 -0.96875 2.34375 -0.96875q0.78125 0 1.375 0.5625q0.59375 0.5625 0.59375 1.671875l-0.4375 0.53125q-0.078125 -0.015625 -1.234375 -0.015625q-1.140625 0 -2.296875 0.09375l0 0.109375q0 1.1875 0.484375 1.78125q0.5 0.59375 1.359375 0.59375q0.859375 0 1.796875 -0.421875l0.15625 0.390625q-1.0 0.796875 -2.125 0.796875zm5.1019287 -4.875l-0.015625 1.78125q0 1.6875 0.109375 2.1875l0.015625 0.171875q0.015625 0.09375 0.296875 0.1875q0.28125 0.078125 0.546875 0.09375l-0.046875 0.375q-0.625 -0.03125 -1.4375 -0.03125q-0.796875 0 -1.421875 0.03125l0.046875 -0.375q0.234375 -0.015625 0.515625 -0.09375q0.28125 -0.09375 0.296875 -0.1875q0.109375 -0.453125 0.109375 -1.8125q0 -2.21875 -0.109375 -2.703125l-0.828125 -0.25l-0.03125 -0.34375q0.828125 0 1.71875 -0.234375l0.25 0.125l0 0.625q1.4375 -0.765625 2.5 -0.765625q0.65625 0 0.984375 0.265625q0.34375 0.265625 0.34375 0.96875l0 1.765625q0 1.6875 0.09375 2.1875l0.046875 0.171875q0 0.09375 0.28125 0.1875q0.28125 0.078125 0.546875 0.09375l-0.046875 0.375q-0.625 -0.03125 -1.4375 -0.03125q-0.796875 0 -1.421875 0.03125l0.046875 -0.375q0.25 -0.015625 0.515625 -0.09375q0.28125 -0.09375 0.296875 -0.1875q0.109375 -0.453125 0.109375 -2.359375l0 -1.25q0 -0.515625 -0.296875 -0.703125q-0.296875 -0.203125 -1.015625 -0.203125q-0.71875 0 -1.5625 0.375zm7.744995 4.875q-1.34375 0 -1.34375 -1.296875q0.015625 -1.140625 0.015625 -2.09375q0 -0.953125 -0.03125 -2.0l-0.828125 0.015625l-0.046875 -0.140625l0.296875 -0.515625q0.1875 0.046875 0.546875 0.0625l-0.046875 -1.203125l0.859375 -0.765625l0.25 0.125q-0.03125 0.953125 -0.03125 1.828125l1.90625 -0.015625l0.0625 0.15625l-0.46875 0.515625q-0.4375 -0.046875 -1.5 -0.0625l0 1.75q0 1.625 0.03125 2.328125q0.046875 0.578125 0.703125 0.578125q0.515625 0 1.140625 -0.296875l0.15625 0.421875q-0.921875 0.609375 -1.671875 0.609375z" fill-rule="nonzero"></path><path fill="#000000" fill-opacity="0.0" d="m88.58268 117.53281l782.8346 0" fill-rule="nonzero"></path><path stroke="#000000" stroke-width="4.0" stroke-linejoin="round" stroke-linecap="butt" d="m88.58268 117.53281l758.8346 0" fill-rule="evenodd"></path><path fill="#000000" stroke="#000000" stroke-width="4.0" stroke-linecap="butt" d="m847.4173 124.13974l18.152405 -6.6069336l-18.152405 -6.606926z" fill-rule="evenodd"></path><path fill="#000000" fill-opacity="0.0" d="m424.58267 117.24147l62.834656 0l0 41.007874l-62.834656 0z" fill-rule="nonzero"></path><path fill="#000000" d="m434.02017 131.03647q1.5625 0.109375 5.65625 0.109375q4.109375 0 5.671875 -0.109375l0 0.28125q0 1.5 0.21875 2.796875l-0.515625 0.21875q-0.484375 -1.546875 -1.171875 -1.96875q-0.6875 -0.421875 -2.578125 -0.421875q-0.578125 0 -0.625 0.515625q-0.15625 1.125 -0.15625 4.0625q0 4.765625 0.109375 5.9375l0.046875 0.390625q0.03125 0.34375 0.34375 0.484375q0.328125 0.140625 1.265625 0.328125l-0.0625 0.5625q-1.1875 -0.0625 -2.59375 -0.0625q-1.40625 0 -2.609375 0.0625l-0.0625 -0.5625q0.96875 -0.1875 1.3125 -0.328125q0.34375 -0.15625 0.390625 -0.484375q0.140625 -1.125 0.140625 -4.0625q0 -4.765625 -0.109375 -5.953125l-0.03125 -0.375q-0.0625 -0.515625 -0.59375 -0.515625q-1.90625 0 -2.59375 0.421875q-0.671875 0.421875 -1.171875 1.96875l-0.515625 -0.21875q0.234375 -1.296875 0.234375 -2.796875l0 -0.28125zm14.883575 2.140625q-0.28125 0.28125 -0.703125 0.28125q-0.421875 0 -0.703125 -0.28125q-0.28125 -0.296875 -0.28125 -0.71875q0 -0.4375 0.28125 -0.71875q0.28125 -0.296875 0.703125 -0.296875q0.421875 0 0.703125 0.296875q0.28125 0.28125 0.28125 0.71875q0 0.421875 -0.28125 0.71875zm0.078125 2.4375l-0.046875 4.203125q0 2.4375 0.15625 3.1875l0.046875 0.25q0.015625 0.125 0.46875 0.25q0.46875 0.125 0.875 0.15625l-0.0625 0.5625q-0.90625 -0.0625 -2.21875 -0.0625q-1.3125 0 -2.21875 0.0625l0.046875 -0.5625q0.40625 -0.03125 0.859375 -0.15625q0.453125 -0.125 0.484375 -0.25q0.140625 -0.671875 0.140625 -2.671875q0 -3.21875 -0.140625 -3.953125l-1.21875 -0.359375l-0.046875 -0.484375q1.21875 0 2.515625 -0.34375l0.359375 0.171875zm10.427338 4.203125q0 2.4375 0.140625 3.1875l0.046875 0.25q0.03125 0.125 0.4375 0.25q0.40625 0.125 0.78125 0.15625l-0.0625 0.5625q-0.90625 -0.0625 -2.09375 -0.0625q-1.171875 0 -2.078125 0.0625l0.0625 -0.5625q0.359375 -0.03125 0.765625 -0.15625q0.40625 -0.125 0.421875 -0.25q0.15625 -0.671875 0.15625 -3.4375l0 -1.84375q0 -0.75 -0.4375 -1.03125q-0.4375 -0.28125 -1.046875 -0.28125q-0.609375 0 -0.953125 0.046875q-0.34375 0.046875 -0.609375 0.125q-0.359375 0.09375 -0.984375 0.359375l0 2.625q0 2.34375 0.15625 3.1875l0.0625 0.25q0.015625 0.125 0.421875 0.25q0.40625 0.125 0.78125 0.15625l-0.046875 0.5625q-0.921875 -0.0625 -2.09375 -0.0625q-1.171875 0 -2.09375 0.0625l0.0625 -0.5625q0.359375 -0.03125 0.765625 -0.15625q0.40625 -0.125 0.421875 -0.25q0.140625 -0.671875 0.140625 -2.671875q0 -3.21875 -0.15625 -3.953125l-1.21875 -0.359375l-0.03125 -0.484375q1.21875 0 2.5 -0.34375l0.375 0.171875q-0.03125 0.46875 -0.03125 0.90625q2.109375 -1.09375 3.59375 -1.09375q1.484375 0 1.765625 1.109375q2.0 -1.109375 3.609375 -1.109375q0.953125 0 1.4375 0.375q0.5 0.375 0.5 1.421875l0 2.59375q0 2.4375 0.140625 3.1875l0.0625 0.25q0.015625 0.125 0.421875 0.25q0.40625 0.125 0.78125 0.15625l-0.046875 0.5625q-0.921875 -0.0625 -2.09375 -0.0625q-1.171875 0 -2.09375 0.0625l0.0625 -0.5625q0.359375 -0.03125 0.765625 -0.15625q0.40625 -0.125 0.421875 -0.25q0.15625 -0.671875 0.15625 -3.4375l0 -1.84375q0 -0.75 -0.4375 -1.03125q-0.4375 -0.28125 -1.546875 -0.28125q-1.109375 0 -2.0625 0.53125l0 2.625zm13.337067 -1.734375q0 -0.875 -0.5 -1.296875q-0.484375 -0.4375 -1.09375 -0.4375q-0.890625 0 -1.546875 0.703125q-0.640625 0.703125 -0.84375 1.734375l3.921875 -0.15625q0.0625 -0.28125 0.0625 -0.546875zm-1.65625 6.25q-2.015625 0 -3.046875 -1.140625q-1.015625 -1.15625 -1.015625 -3.0625q0 -1.921875 1.125 -3.3125q1.140625 -1.390625 3.421875 -1.390625q1.15625 0 2.015625 0.8125q0.859375 0.8125 0.859375 2.4375l-0.640625 0.765625q-0.109375 -0.015625 -1.796875 -0.015625q-1.671875 0 -3.375 0.140625l0 0.171875q0 1.71875 0.71875 2.59375q0.734375 0.859375 1.984375 0.859375q1.25 0 2.640625 -0.609375l0.234375 0.578125q-1.46875 1.171875 -3.125 1.171875z" fill-rule="nonzero"></path><path fill="#000000" fill-opacity="0.0" d="m148.79527 57.30971l23.874023 0" fill-rule="nonzero"></path><path stroke="#000000" stroke-width="1.0" stroke-linejoin="round" stroke-linecap="butt" d="m148.79527 57.30971l17.874023 0" fill-rule="evenodd"></path><path fill="#000000" stroke="#000000" stroke-width="1.0" stroke-linecap="butt" d="m166.6693 58.961445l4.538086 -1.6517334l-4.538086 -1.6517334z" fill-rule="evenodd"></path><path fill="#000000" fill-opacity="0.0" d="m276.50394 57.30971l23.874023 0" fill-rule="nonzero"></path><path stroke="#000000" stroke-width="1.0" stroke-linejoin="round" stroke-linecap="butt" d="m276.50394 57.30971l17.874023 0" fill-rule="evenodd"></path><path fill="#000000" stroke="#000000" stroke-width="1.0" stroke-linecap="butt" d="m294.37796 58.961445l4.538086 -1.6517334l-4.538086 -1.6517334z" fill-rule="evenodd"></path><path fill="#000000" fill-opacity="0.0" d="m404.2126 57.30971l23.874023 0" fill-rule="nonzero"></path><path stroke="#000000" stroke-width="1.0" stroke-linejoin="round" stroke-linecap="butt" d="m404.2126 57.30971l17.874023 0" fill-rule="evenodd"></path><path fill="#000000" stroke="#000000" stroke-width="1.0" stroke-linecap="butt" d="m422.0866 58.961445l4.5381165 -1.6517334l-4.5381165 -1.6517334z" fill-rule="evenodd"></path><path fill="#000000" fill-opacity="0.0" d="m531.92126 57.30971l23.874023 0" fill-rule="nonzero"></path><path stroke="#000000" stroke-width="1.0" stroke-linejoin="round" stroke-linecap="butt" d="m531.92126 57.30971l17.874023 0" fill-rule="evenodd"></path><path fill="#000000" stroke="#000000" stroke-width="1.0" stroke-linecap="butt" d="m549.7953 58.961445l4.538086 -1.6517334l-4.538086 -1.6517334z" fill-rule="evenodd"></path><path fill="#000000" fill-opacity="0.0" d="m659.62994 57.30971l23.874023 0" fill-rule="nonzero"></path><path stroke="#000000" stroke-width="1.0" stroke-linejoin="round" stroke-linecap="butt" d="m659.62994 57.30971l17.874023 0" fill-rule="evenodd"></path><path fill="#000000" stroke="#000000" stroke-width="1.0" stroke-linecap="butt" d="m677.50397 58.961445l4.538086 -1.6517334l-4.538086 -1.6517334z" fill-rule="evenodd"></path><path fill="#000000" fill-opacity="0.0" d="m787.33856 57.30971l23.874023 0" fill-rule="nonzero"></path><path stroke="#000000" stroke-width="1.0" stroke-linejoin="round" stroke-linecap="butt" d="m787.33856 57.30971l17.874023 0" fill-rule="evenodd"></path><path fill="#000000" stroke="#000000" stroke-width="1.0" stroke-linecap="butt" d="m805.2126 58.961445l4.538086 -1.6517334l-4.538086 -1.6517334z" fill-rule="evenodd"></path></g></svg>

